<?xml version="1.0" encoding="utf-8"?>
<!-- Generator: Adobe Illustrator 18.0.0, SVG Export Plug-In . SVG Version: 6.00 Build 0)  -->
<!DOCTYPE svg PUBLIC "-//W3C//DTD SVG 1.1//EN" "http://www.w3.org/Graphics/SVG/1.1/DTD/svg11.dtd">
<svg version="1.1" xmlns="http://www.w3.org/2000/svg" xmlns:xlink="http://www.w3.org/1999/xlink" x="0px" y="0px"
	 viewBox="0 0 141.1 47.5" enable-background="new 0 0 141.1 47.5" xml:space="preserve">
<g id="Capa_1">
</g>
<g id="Capa_2">
	<g>
		<g>
			<path fill="#FFFFFF" d="M66.2,17.3c0-6.2,5.3-11.2,11.8-11.2c6.5,0,11.8,5,11.8,11.2c0,6.2-5.3,11.2-11.8,11.2
				C71.5,28.5,66.2,23.5,66.2,17.3"/>
		</g>
		<path fill="#FFFFFF" d="M58.3,21.2v-7.3l5.1-8.1v6.8l-3.1,5l3.1,5v6.8L58.3,21.2z M51.8,21.2v-7.3l5.1-8.1v6.8l-3.1,5l3.1,5v6.8
			L51.8,21.2z"/>
		<g>
			<path fill="#FFFFFF" d="M66.2,17.3c0-6.2,5.3-11.2,11.8-11.2c6.5,0,11.8,5,11.8,11.2c0,6.2-5.3,11.2-11.8,11.2
				C71.5,28.5,66.2,23.5,66.2,17.3"/>
		</g>
		<path fill="#FFFFFF" d="M58.3,21.2v-7.3l5.1-8.1v6.8l-3.1,5l3.1,5v6.8L58.3,21.2z M51.8,21.2v-7.3l5.1-8.1v6.8l-3.1,5l3.1,5v6.8
			L51.8,21.2z"/>
		<g>
			<path fill="#FFFFFF" d="M66.2,17.3c0-6.2,5.3-11.2,11.8-11.2c6.5,0,11.8,5,11.8,11.2c0,6.2-5.3,11.2-11.8,11.2
				C71.5,28.5,66.2,23.5,66.2,17.3"/>
		</g>
		<path fill="#FFFFFF" d="M58.3,21.2v-7.3l5.1-8.1v6.8l-3.1,5l3.1,5v6.8L58.3,21.2z M51.8,21.2v-7.3l5.1-8.1v6.8l-3.1,5l3.1,5v6.8
			L51.8,21.2z"/>
		<g>
			<path fill="#FFFFFF" d="M53,36.5c0,2.5,1.9,4.8,4.5,4.8c2.5,0,4.5-2.4,4.5-4.8c0-2.8-2.2-4.8-4.5-4.8C55.3,31.6,53,33.7,53,36.5
				 M54.4,36.5c0-2.4,0.5-4.7,3-4.7c2.5,0,3,2.3,3,4.7c0,3.1-0.8,4.7-3,4.7C55.2,41.1,54.4,39.6,54.4,36.5"/>
			<path fill="#FFFFFF" d="M71.4,41.1h-0.2c-0.1-0.1-0.2-0.3-0.6-0.3c-0.5,0-1.2,0.5-2.4,0.5c-1.1,0-2.1-0.4-3.1-1.3
				c-0.8-0.8-1.5-2-1.5-3.5c0-2.6,2-4.9,4.6-4.9c1.1,0,1.6,0.5,2.1,0.5c0.3,0,0.5-0.1,0.6-0.3h0.2v2.6h-0.1
				c-0.3-1.3-0.9-2.7-2.9-2.7c-2.8,0-3,2.8-3,4.7c0,3.7,1.2,4.6,3,4.6c2.3,0,2.7-1.5,3-2.8h0.1V41.1z"/>
			<path fill="#FFFFFF" d="M72.8,41.1H75c0.3,0,0.5,0,0.8,0c0.3,0,0.6,0,0.9,0c1.2,0,1.8,0,2.6-0.4c1.5-0.6,2.7-2,2.7-4.3
				c0-2-0.9-3.7-3-4.4c-0.7-0.2-1.2-0.3-2.3-0.3c-0.2,0-0.5,0-0.7,0c-0.2,0-0.5,0-0.7,0h-2.4V32h1.4v8.9h-1.4V41.1z M75.5,32
				c0.3,0,0.7,0,1.1,0c2.9,0,3.9,1.8,3.9,4.5c0,1.2-0.2,2.1-0.7,3C79,40.8,77.9,41,76.7,41c-0.5,0-0.9,0-1.2,0V32z"/>
			<path fill="#FFFFFF" d="M83.2,40.9h1.4V32h-1.4v-0.2h7.4v2.2h-0.1c-0.4-1.3-1-2.1-2.4-2.1h-2.2v4h0.8c1.2,0,1.5-0.4,1.9-1.9h0.1
				v4h-0.1c-0.2-1-0.4-2-1.7-2h-1.1v4.7h2.4c1.9,0,2.5-1.9,2.6-2.7h0.1v2.8h-7.9V40.9z"/>
			<path fill="#FFFFFF" d="M53,36.5c0,2.5,1.9,4.8,4.5,4.8c2.5,0,4.5-2.4,4.5-4.8c0-2.8-2.2-4.8-4.5-4.8C55.3,31.6,53,33.7,53,36.5
				 M54.4,36.5c0-2.4,0.5-4.7,3-4.7c2.5,0,3,2.3,3,4.7c0,3.1-0.8,4.7-3,4.7C55.2,41.1,54.4,39.6,54.4,36.5"/>
			<path fill="#FFFFFF" d="M71.4,41.1h-0.2c-0.1-0.1-0.2-0.3-0.6-0.3c-0.5,0-1.2,0.5-2.4,0.5c-1.1,0-2.1-0.4-3.1-1.3
				c-0.8-0.8-1.5-2-1.5-3.5c0-2.6,2-4.9,4.6-4.9c1.1,0,1.6,0.5,2.1,0.5c0.3,0,0.5-0.1,0.6-0.3h0.2v2.6h-0.1
				c-0.3-1.3-0.9-2.7-2.9-2.7c-2.8,0-3,2.8-3,4.7c0,3.7,1.2,4.6,3,4.6c2.3,0,2.7-1.5,3-2.8h0.1V41.1z"/>
			<path fill="#FFFFFF" d="M72.8,41.1H75c0.3,0,0.5,0,0.8,0c0.3,0,0.6,0,0.9,0c1.2,0,1.8,0,2.6-0.4c1.5-0.6,2.7-2,2.7-4.3
				c0-2-0.9-3.7-3-4.4c-0.7-0.2-1.2-0.3-2.3-0.3c-0.2,0-0.5,0-0.7,0c-0.2,0-0.5,0-0.7,0h-2.4V32h1.4v8.9h-1.4V41.1z M75.5,32
				c0.3,0,0.7,0,1.1,0c2.9,0,3.9,1.8,3.9,4.5c0,1.2-0.2,2.1-0.7,3C79,40.8,77.9,41,76.7,41c-0.5,0-0.9,0-1.2,0V32z"/>
			<path fill="#FFFFFF" d="M83.2,40.9h1.4V32h-1.4v-0.2h7.4v2.2h-0.1c-0.4-1.3-1-2.1-2.4-2.1h-2.2v4h0.8c1.2,0,1.5-0.4,1.9-1.9h0.1
				v4h-0.1c-0.2-1-0.4-2-1.7-2h-1.1v4.7h2.4c1.9,0,2.5-1.9,2.6-2.7h0.1v2.8h-7.9V40.9z"/>
			<path fill="#FFFFFF" d="M53,36.5c0,2.5,1.9,4.8,4.5,4.8c2.5,0,4.5-2.4,4.5-4.8c0-2.8-2.2-4.8-4.5-4.8C55.3,31.6,53,33.7,53,36.5
				 M54.4,36.5c0-2.4,0.5-4.7,3-4.7c2.5,0,3,2.3,3,4.7c0,3.1-0.8,4.7-3,4.7C55.2,41.1,54.4,39.6,54.4,36.5"/>
			<path fill="#FFFFFF" d="M71.4,41.1h-0.2c-0.1-0.1-0.2-0.3-0.6-0.3c-0.5,0-1.2,0.5-2.4,0.5c-1.1,0-2.1-0.4-3.1-1.3
				c-0.8-0.8-1.5-2-1.5-3.5c0-2.6,2-4.9,4.6-4.9c1.1,0,1.6,0.5,2.1,0.5c0.3,0,0.5-0.1,0.6-0.3h0.2v2.6h-0.1
				c-0.3-1.3-0.9-2.7-2.9-2.7c-2.8,0-3,2.8-3,4.7c0,3.7,1.2,4.6,3,4.6c2.3,0,2.7-1.5,3-2.8h0.1V41.1z"/>
			<path fill="#FFFFFF" d="M72.8,41.1H75c0.3,0,0.5,0,0.8,0c0.3,0,0.6,0,0.9,0c1.2,0,1.8,0,2.6-0.4c1.5-0.6,2.7-2,2.7-4.3
				c0-2-0.9-3.7-3-4.4c-0.7-0.2-1.2-0.3-2.3-0.3c-0.2,0-0.5,0-0.7,0c-0.2,0-0.5,0-0.7,0h-2.4V32h1.4v8.9h-1.4V41.1z M75.5,32
				c0.3,0,0.7,0,1.1,0c2.9,0,3.9,1.8,3.9,4.5c0,1.2-0.2,2.1-0.7,3C79,40.8,77.9,41,76.7,41c-0.5,0-0.9,0-1.2,0V32z"/>
			<path fill="#FFFFFF" d="M83.2,40.9h1.4V32h-1.4v-0.2h7.4v2.2h-0.1c-0.4-1.3-1-2.1-2.4-2.1h-2.2v4h0.8c1.2,0,1.5-0.4,1.9-1.9h0.1
				v4h-0.1c-0.2-1-0.4-2-1.7-2h-1.1v4.7h2.4c1.9,0,2.5-1.9,2.6-2.7h0.1v2.8h-7.9V40.9z"/>
		</g>
	</g>
</g>
</svg>
