<?xml version="1.0" encoding="utf-8"?>
<!-- Generator: Adobe Illustrator 18.0.0, SVG Export Plug-In . SVG Version: 6.00 Build 0)  -->
<!DOCTYPE svg PUBLIC "-//W3C//DTD SVG 1.1//EN" "http://www.w3.org/Graphics/SVG/1.1/DTD/svg11.dtd">
<svg version="1.1" xmlns="http://www.w3.org/2000/svg" xmlns:xlink="http://www.w3.org/1999/xlink" x="0px" y="0px"
	 viewBox="0 0 141.1 47.5" enable-background="new 0 0 141.1 47.5" xml:space="preserve">
<g id="Capa_1">
</g>
<g id="Capa_2">
	<g>
		<path fill="#FFFFFF" d="M70.5,38.7c-5.9,0-11.8,0-17.7,0c-0.2,0-0.5,0.1-0.6-0.1c-0.1-0.3,0-0.7,0-1c0,0,0.1-0.1,0.2-0.1
			c0.1,0,0.2,0,0.4,0c11.8,0,23.6,0,35.5,0c0.2,0,0.5-0.1,0.6,0.1c0.1,0.3,0,0.7,0,1.1c0,0.1-0.2,0.1-0.4,0.1c-1.1,0-2.3,0-3.4,0
			H70.5z"/>
		<path fill="#FFFFFF" d="M85.6,16.5c-2-0.6-3.9-1.2-5.8-1.7c-3-0.9-6-1.8-9-2.7c-0.3-0.1-0.5,0-0.8,0c-4.8,1.5-9.5,2.9-14.3,4.4
			c0,0-0.1,0-0.2,0.1c0-0.4,0-0.8,0-1.2c0-0.3,0.3-0.3,0.5-0.3c3.9-1.2,7.8-2.4,11.6-3.6c0.8-0.3,1.7-0.5,2.5-0.8
			c0.3-0.1,0.5-0.1,0.8,0c4.6,1.4,9.3,2.9,13.9,4.3c0.6,0.2,0.8,0.4,0.7,1C85.6,16,85.6,16.2,85.6,16.5"/>
		<path fill="#FFFFFF" d="M70.5,36.5c-5.4,0-10.8,0-16.2,0c-0.6,0-0.5-0.3-0.5-0.7c0-0.4-0.1-0.6,0.5-0.6c10.8,0,21.6,0,32.4,0
			c0.5,0,0.5,0.1,0.5,0.6c0,0.7,0,0.7-0.7,0.7H70.5z"/>
		<path fill="#FFFFFF" d="M70.5,34.4c-4.8,0-9.7,0-14.5,0c-0.4,0-0.5-0.1-0.5-0.5c0-0.7,0-0.7,0.7-0.7c9.6,0,19.2,0,28.8,0
			c0.2,0,0.5-0.1,0.5,0.1c0.1,0.3,0,0.7,0,1c0,0.2-0.3,0.1-0.5,0.1C80.2,34.4,75.4,34.4,70.5,34.4"/>
		<path fill="#FFFFFF" d="M70.5,17.3c4.8,0,9.7,0,14.5,0c0.4,0,0.6,0.1,0.5,0.5c0,0.4,0.1,0.7-0.5,0.7c-9.7,0-19.3,0-29,0
			c-0.4,0-0.6-0.1-0.6-0.5c0-0.7,0-0.7,0.7-0.7C61,17.3,65.8,17.3,70.5,17.3"/>
		<path fill="#FFFFFF" d="M82.7,16.4c-2.2,0.3-4.3-0.1-6.4-0.8c-1.8-0.6-3.6-1.1-5.4-1.7c-0.3-0.1-0.5-0.1-0.8,0
			c-2.6,0.8-5.3,1.6-7.9,2.4c-0.4,0.1-0.8,0.2-1.2,0.2c-1,0-1.9,0-2.9-0.1c1.2-0.4,2.5-0.8,3.7-1.1c2.8-0.8,5.6-1.7,8.3-2.5
			c0.2-0.1,0.4-0.1,0.7,0c3.9,1.2,7.7,2.4,11.6,3.6C82.5,16.3,82.6,16.4,82.7,16.4"/>
		<path fill="#FFFFFF" d="M59.4,25.6c0,1.9,0,3.8,0,5.7c0,0.8-0.3,1.1-1,1.2c-0.7,0-1.1-0.4-1.1-1.1c0-3.9,0-7.7,0-11.6
			c0-0.4,0.1-0.5,0.5-0.5c0.3,0,0.4,0.1,0.4,0.4c0,0.6,0,1.3,0,1.9c0,3.2,0,6.4,0,9.6c0,0.1,0,0.1,0,0.2c0,0.2,0,0.4,0.2,0.4
			c0.3,0,0.3-0.2,0.3-0.4c0-1.3,0-2.6,0-3.9c0-2.5,0-5.1,0-7.6c0-0.3-0.1-0.5,0.4-0.5c0.5,0,0.4,0.2,0.4,0.6
			C59.4,21.7,59.4,23.7,59.4,25.6"/>
		<path fill="#FFFFFF" d="M63.7,25.6c0-1.9,0-3.9,0-5.8c0-0.3,0-0.5,0.4-0.5c0.2,0,0.3,0.1,0.3,0.3c0,0.1,0,0.2,0,0.3
			c0,4,0,8.1,0,12.1c0,0.2,0.2,0.5-0.3,0.5c-0.4,0-0.4-0.2-0.5-0.5c-0.2-2-0.4-3.9-0.6-6c-0.2,0.3-0.1,0.5-0.1,0.7
			c0,1.8,0,3.5,0,5.3c0,0.3,0,0.5-0.4,0.5c-0.4,0-0.3-0.2-0.3-0.4c0-4.1,0-8.2,0-12.3c0-0.2-0.1-0.4,0.3-0.4c0.4,0,0.4,0.2,0.4,0.4
			C63.1,21.7,63.4,23.6,63.7,25.6C63.6,25.5,63.6,25.6,63.7,25.6"/>
		<path fill="#FFFFFF" d="M73.1,29.5c0.2-1.4-0.3-2.9-0.8-4.4c-0.5-1.6-0.4-3.3-0.4-4.9c0-0.6,0.5-0.9,1.1-0.9
			c0.6,0,0.9,0.3,0.9,0.9c0,0.9,0,1.8,0,2.7c0,0.4-0.2,0.3-0.4,0.3c-0.2,0-0.4,0-0.4-0.3c0-0.8,0-1.6,0-2.4c0-0.2,0.1-0.5-0.2-0.5
			c-0.3,0-0.2,0.3-0.2,0.5c-0.2,2.2,0.3,4.3,0.9,6.4c0.5,1.6,0.3,3.2,0.3,4.8c0,0.5-0.5,0.8-1.1,0.8c-0.6,0-0.9-0.3-1-0.9
			c0-1,0-2.1,0-3.1c0-0.4,0.2-0.3,0.4-0.3c0.2,0,0.4-0.1,0.4,0.3c0,0.8,0,1.7,0,2.5c0,0.1,0,0.3,0,0.4c0,0.1,0,0.3,0.2,0.3
			c0.1,0,0.2-0.1,0.2-0.3C73.1,30.9,73.1,30.3,73.1,29.5"/>
		<path fill="#FFFFFF" d="M76.8,25.8c0-1.8,0-3.6,0-5.5c0-0.7,0.3-1.1,1-1.1c0.6,0,1.1,0.4,1.1,1c0,0.9,0,1.8,0,2.7
			c0,0.4-0.2,0.3-0.5,0.3c-0.2,0-0.4,0-0.4-0.3c0-0.8,0-1.7,0-2.5c0-0.2,0-0.4-0.3-0.4c-0.3,0-0.3,0.2-0.3,0.4c0,3.6,0,7.2,0,10.9
			c0,0.2,0,0.5,0.3,0.4c0.3,0,0.2-0.3,0.2-0.5c0-0.9,0-1.8,0-2.7c0-0.3,0.1-0.4,0.4-0.4c0.4,0,0.4,0.2,0.4,0.5c0,0.9,0,1.8,0,2.7
			c0,0.7-0.4,1.1-1.1,1.1c-0.7,0-1-0.4-1-1.1C76.8,29.5,76.8,27.7,76.8,25.8"/>
		<path fill="#FFFFFF" d="M67.2,25.8c0-2,0-4,0-6c0-0.5,0.2-0.6,0.6-0.6c0.2,0,0.5,0,0.7,0c0.3,0,0.5,0,0.4,0.4
			c0,0.4-0.2,0.4-0.4,0.3c-0.3,0-0.4,0.1-0.4,0.4c0,1.4,0,2.8,0,4.3c0,0.3,0.1,0.5,0.4,0.4c0.3,0,0.4,0,0.4,0.4
			c0,0.4-0.1,0.4-0.4,0.4c-0.3-0.1-0.4,0.1-0.4,0.4c0,1.7,0,3.4,0,5c0,0.4,0.1,0.5,0.5,0.5c0.2,0,0.4,0,0.6,0
			c0.2,0.1,0.1,0.3,0.1,0.5c0,0.2-0.1,0.2-0.3,0.2c-0.5,0-0.9,0-1.4,0c-0.4,0-0.4-0.1-0.4-0.4C67.2,30,67.2,27.9,67.2,25.8"/>
		<path fill="#FFFFFF" d="M82.8,31.7c-0.3,0-0.3-0.3-0.3-0.5c0-3.6,0-7.2,0-10.8c0-0.2-0.1-0.4,0.2-0.5c0.4-0.1,0.4,0.2,0.4,0.5
			c0,1.8,0,3.6,0,5.4c0,1.8,0,3.6,0,5.4C83,31.4,83.1,31.7,82.8,31.7 M83.8,20.3c0-0.7-0.3-1-1-1c-0.8,0-1.2,0.4-1.2,1.2
			c0,3.6,0,7.2,0,10.8c0,0.8,0.4,1.2,1.1,1.2c0.7,0,1.1-0.4,1.1-1.2c0-1.8,0-3.6,0-5.4C83.8,24,83.8,22.2,83.8,20.3"/>
	</g>
</g>
</svg>
