<?xml version="1.0" encoding="utf-8"?>
<!-- Generator: Adobe Illustrator 18.0.0, SVG Export Plug-In . SVG Version: 6.00 Build 0)  -->
<!DOCTYPE svg PUBLIC "-//W3C//DTD SVG 1.1//EN" "http://www.w3.org/Graphics/SVG/1.1/DTD/svg11.dtd">
<svg version="1.1" xmlns="http://www.w3.org/2000/svg" xmlns:xlink="http://www.w3.org/1999/xlink" x="0px" y="0px"
	 viewBox="0 0 141.1 47.5" enable-background="new 0 0 141.1 47.5" xml:space="preserve">
<g id="Capa_1">
</g>
<g id="Capa_2">
	<g>
		<g>
			<path fill="#FFFFFF" d="M67.2,18.5c0-5,4.3-9.1,9.6-9.1c5.3,0,9.6,4.1,9.6,9.1c0,5-4.3,9.1-9.6,9.1
				C71.5,27.6,67.2,23.5,67.2,18.5"/>
		</g>
		<path fill="#FFFFFF" d="M60.8,21.6v-6l4.2-6.6v5.5l-2.5,4.1l2.5,4.1v5.5L60.8,21.6z M55.5,21.6v-6l4.2-6.6v5.5l-2.5,4.1l2.5,4.1
			v5.5L55.5,21.6z"/>
		<g>
			<path fill="#FFFFFF" d="M67.2,18.5c0-5,4.3-9.1,9.6-9.1c5.3,0,9.6,4.1,9.6,9.1c0,5-4.3,9.1-9.6,9.1
				C71.5,27.6,67.2,23.5,67.2,18.5"/>
		</g>
		<path fill="#FFFFFF" d="M60.8,21.6v-6l4.2-6.6v5.5l-2.5,4.1l2.5,4.1v5.5L60.8,21.6z M55.5,21.6v-6l4.2-6.6v5.5l-2.5,4.1l2.5,4.1
			v5.5L55.5,21.6z"/>
		<g>
			<path fill="#FFFFFF" d="M67.2,18.5c0-5,4.3-9.1,9.6-9.1c5.3,0,9.6,4.1,9.6,9.1c0,5-4.3,9.1-9.6,9.1
				C71.5,27.6,67.2,23.5,67.2,18.5"/>
		</g>
		<path fill="#FFFFFF" d="M60.8,21.6v-6l4.2-6.6v5.5l-2.5,4.1l2.5,4.1v5.5L60.8,21.6z M55.5,21.6v-6l4.2-6.6v5.5l-2.5,4.1l2.5,4.1
			v5.5L55.5,21.6z"/>
		<g>
			<path fill="#FFFFFF" d="M56.4,34.1c0,2,1.6,3.9,3.7,3.9c2.1,0,3.7-1.9,3.7-3.9c0-2.3-1.8-3.9-3.7-3.9
				C58.3,30.1,56.4,31.8,56.4,34.1 M57.6,34.1c0-1.9,0.4-3.8,2.5-3.8c2.1,0,2.5,1.9,2.5,3.8c0,2.5-0.6,3.8-2.5,3.8
				C58.3,37.8,57.6,36.6,57.6,34.1"/>
			<path fill="#FFFFFF" d="M71.4,37.8h-0.2c-0.1-0.1-0.2-0.2-0.5-0.2c-0.4,0-1,0.4-1.9,0.4c-0.9,0-1.7-0.3-2.5-1
				c-0.7-0.7-1.2-1.6-1.2-2.9c0-2.1,1.6-4,3.8-4c0.9,0,1.3,0.4,1.7,0.4c0.3,0,0.4-0.1,0.5-0.2h0.2v2.1h-0.1
				c-0.3-1.1-0.7-2.2-2.3-2.2c-2.2,0-2.5,2.2-2.5,3.8c0,3,1,3.8,2.5,3.8c1.9,0,2.2-1.2,2.5-2.3h0.1V37.8z"/>
			<path fill="#FFFFFF" d="M72.6,37.8h1.8c0.2,0,0.4,0,0.7,0c0.2,0,0.5,0,0.7,0c1,0,1.4,0,2.1-0.3c1.2-0.5,2.2-1.6,2.2-3.5
				c0-1.6-0.7-3-2.5-3.5c-0.6-0.2-1-0.2-1.9-0.2c-0.2,0-0.4,0-0.6,0c-0.2,0-0.4,0-0.6,0h-2v0.1h1.2v7.2h-1.2V37.8z M74.8,30.4
				c0.3,0,0.5,0,0.9,0c2.4,0,3.1,1.5,3.1,3.7c0,0.9-0.1,1.7-0.6,2.5c-0.6,1-1.5,1.1-2.5,1.1c-0.4,0-0.7,0-0.9,0V30.4z"/>
			<path fill="#FFFFFF" d="M81,37.7h1.2v-7.2H81v-0.1H87v1.8h-0.1c-0.4-1.1-0.8-1.7-2-1.7h-1.8v3.3h0.7c0.9,0,1.2-0.3,1.5-1.6h0.1
				v3.3h-0.1c-0.2-0.8-0.4-1.6-1.4-1.6h-0.9v3.8h2c1.5,0,2-1.5,2.1-2.2h0.1v2.3H81V37.7z"/>
			<path fill="#FFFFFF" d="M56.4,34.1c0,2,1.6,3.9,3.7,3.9c2.1,0,3.7-1.9,3.7-3.9c0-2.3-1.8-3.9-3.7-3.9
				C58.3,30.1,56.4,31.8,56.4,34.1 M57.6,34.1c0-1.9,0.4-3.8,2.5-3.8c2.1,0,2.5,1.9,2.5,3.8c0,2.5-0.6,3.8-2.5,3.8
				C58.3,37.8,57.6,36.6,57.6,34.1"/>
			<path fill="#FFFFFF" d="M71.4,37.8h-0.2c-0.1-0.1-0.2-0.2-0.5-0.2c-0.4,0-1,0.4-1.9,0.4c-0.9,0-1.7-0.3-2.5-1
				c-0.7-0.7-1.2-1.6-1.2-2.9c0-2.1,1.6-4,3.8-4c0.9,0,1.3,0.4,1.7,0.4c0.3,0,0.4-0.1,0.5-0.2h0.2v2.1h-0.1
				c-0.3-1.1-0.7-2.2-2.3-2.2c-2.2,0-2.5,2.2-2.5,3.8c0,3,1,3.8,2.5,3.8c1.9,0,2.2-1.2,2.5-2.3h0.1V37.8z"/>
			<path fill="#FFFFFF" d="M72.6,37.8h1.8c0.2,0,0.4,0,0.7,0c0.2,0,0.5,0,0.7,0c1,0,1.4,0,2.1-0.3c1.2-0.5,2.2-1.6,2.2-3.5
				c0-1.6-0.7-3-2.5-3.5c-0.6-0.2-1-0.2-1.9-0.2c-0.2,0-0.4,0-0.6,0c-0.2,0-0.4,0-0.6,0h-2v0.1h1.2v7.2h-1.2V37.8z M74.8,30.4
				c0.3,0,0.5,0,0.9,0c2.4,0,3.1,1.5,3.1,3.7c0,0.9-0.1,1.7-0.6,2.5c-0.6,1-1.5,1.1-2.5,1.1c-0.4,0-0.7,0-0.9,0V30.4z"/>
			<path fill="#FFFFFF" d="M81,37.7h1.2v-7.2H81v-0.1H87v1.8h-0.1c-0.4-1.1-0.8-1.7-2-1.7h-1.8v3.3h0.7c0.9,0,1.2-0.3,1.5-1.6h0.1
				v3.3h-0.1c-0.2-0.8-0.4-1.6-1.4-1.6h-0.9v3.8h2c1.5,0,2-1.5,2.1-2.2h0.1v2.3H81V37.7z"/>
			<path fill="#FFFFFF" d="M56.4,34.1c0,2,1.6,3.9,3.7,3.9c2.1,0,3.7-1.9,3.7-3.9c0-2.3-1.8-3.9-3.7-3.9
				C58.3,30.1,56.4,31.8,56.4,34.1 M57.6,34.1c0-1.9,0.4-3.8,2.5-3.8c2.1,0,2.5,1.9,2.5,3.8c0,2.5-0.6,3.8-2.5,3.8
				C58.3,37.8,57.6,36.6,57.6,34.1"/>
			<path fill="#FFFFFF" d="M71.4,37.8h-0.2c-0.1-0.1-0.2-0.2-0.5-0.2c-0.4,0-1,0.4-1.9,0.4c-0.9,0-1.7-0.3-2.5-1
				c-0.7-0.7-1.2-1.6-1.2-2.9c0-2.1,1.6-4,3.8-4c0.9,0,1.3,0.4,1.7,0.4c0.3,0,0.4-0.1,0.5-0.2h0.2v2.1h-0.1
				c-0.3-1.1-0.7-2.2-2.3-2.2c-2.2,0-2.5,2.2-2.5,3.8c0,3,1,3.8,2.5,3.8c1.9,0,2.2-1.2,2.5-2.3h0.1V37.8z"/>
			<path fill="#FFFFFF" d="M72.6,37.8h1.8c0.2,0,0.4,0,0.7,0c0.2,0,0.5,0,0.7,0c1,0,1.4,0,2.1-0.3c1.2-0.5,2.2-1.6,2.2-3.5
				c0-1.6-0.7-3-2.5-3.5c-0.6-0.2-1-0.2-1.9-0.2c-0.2,0-0.4,0-0.6,0c-0.2,0-0.4,0-0.6,0h-2v0.1h1.2v7.2h-1.2V37.8z M74.8,30.4
				c0.3,0,0.5,0,0.9,0c2.4,0,3.1,1.5,3.1,3.7c0,0.9-0.1,1.7-0.6,2.5c-0.6,1-1.5,1.1-2.5,1.1c-0.4,0-0.7,0-0.9,0V30.4z"/>
			<path fill="#FFFFFF" d="M81,37.7h1.2v-7.2H81v-0.1H87v1.8h-0.1c-0.4-1.1-0.8-1.7-2-1.7h-1.8v3.3h0.7c0.9,0,1.2-0.3,1.5-1.6h0.1
				v3.3h-0.1c-0.2-0.8-0.4-1.6-1.4-1.6h-0.9v3.8h2c1.5,0,2-1.5,2.1-2.2h0.1v2.3H81V37.7z"/>
		</g>
	</g>
</g>
</svg>
