<?xml version="1.0" encoding="utf-8"?>
<!-- Generator: Adobe Illustrator 18.0.0, SVG Export Plug-In . SVG Version: 6.00 Build 0)  -->
<!DOCTYPE svg PUBLIC "-//W3C//DTD SVG 1.1//EN" "http://www.w3.org/Graphics/SVG/1.1/DTD/svg11.dtd">
<svg version="1.1" xmlns="http://www.w3.org/2000/svg" xmlns:xlink="http://www.w3.org/1999/xlink" x="0px" y="0px"
	 viewBox="0 0 141.1 47.5" enable-background="new 0 0 141.1 47.5" xml:space="preserve">
<g id="Capa_1">
</g>
<g id="Capa_2">
	<g>
		<path fill-rule="evenodd" clip-rule="evenodd" fill="#FFFFFF" d="M57.6,19.2c-0.9,1.4-2.2,2.6-3.4,2.6c-0.5,0-0.7-0.3-0.7-0.8
			c0-0.3,0.1-0.8,0.1-1c1.1-0.5,2.2-1.1,3.1-2.1c0.5-0.6,0.9-1.2,0.9-1.7c0-0.5-0.3-0.9-1-0.9c-1,0-2.3,0.7-3,1.6
			c-1,1.1-1.8,2.7-1.9,4.2c0,1,0.5,1.8,1.8,1.8c1.4-0.1,2.8-1.1,3.5-1.9c-0.1,0.3-0.1,0.6-0.1,0.9c0,0.9,0.5,1.5,1.3,1.8l0.2-0.1
			c-0.1-0.3-0.1-0.5-0.1-0.8c0.1-0.9,0.4-1.9,0.9-3.2c1-2.5,2.4-5.2,3-6.9l-1.5,0.3c-0.2,0.1-0.4,0.2-0.4,0.4
			c-0.7,1.5-1.5,3.1-2.4,5.2C57.8,18.7,57.7,19,57.6,19.2L57.6,19.2z M56.2,16c0.2,0,0.3,0.2,0.3,0.4c0,1-1.2,2.2-2.7,3.1
			C54.3,17.9,55.3,16,56.2,16L56.2,16z"/>
		<path fill-rule="evenodd" clip-rule="evenodd" fill="#FFFFFF" d="M81.6,21.7c0,0.7,0.5,1.1,1.3,1.1c0.8,0,1.7-0.5,2.4-1.2
			c0.2,0.7,0.7,1.3,1.7,1.2c1.1,0,2.2-0.7,2.9-1.6c0,0.1,0,0.1,0,0.2c0,0.7,0.4,1.3,1.3,1.3c0.9,0,2-0.7,2.8-1.9l0,0
			c-0.1,0.3-0.2,0.7-0.2,1.1c0,0.9,0.5,1.4,1.3,1.6l0.2-0.1c-0.3-0.6,0.1-2.3,0.3-2.8c0.5-1.8,1.4-3.8,1.9-4.9
			c-0.2-0.2-0.8-0.3-1.4-0.4c-1.9-0.1-3.8,0.7-5.3,3.2c-0.2,0.4-0.5,0.9-0.7,1.5c-0.2,0.3-0.4,0.5-0.5,0.6c-0.5,0.5-1.2,1.1-2,1.1
			c-0.4,0-0.6-0.3-0.6-0.8c0-2,1.8-5,3-5c0.3,0,0.5,0.1,0.5,0.4c0,0.3-0.2,0.8-0.5,1.1l0.1,0.1c0.8-0.3,1.6-0.9,1.6-1.5
			c0-0.7-0.8-0.8-1.5-0.8c-0.9,0-2.1,0.5-3,1.5c-1.2,1.3-1.7,2.8-1.9,3.9c-0.5,0.6-1.1,1.1-1.5,1.1c-0.2,0-0.4-0.1-0.4-0.4
			c0-0.2,0.1-0.6,0.3-1.2c0.5-1.3,1.3-2.9,2.2-4.8c0,0-1.4,0.2-1.6,0.3c-0.2,0.1-0.4,0.2-0.5,0.4c-0.6,1.2-1.3,2.7-1.7,3.8
			C81.8,20.6,81.6,21.3,81.6,21.7L81.6,21.7z M94.7,16.2c0.5-0.2,0.8-0.2,1.1-0.1c-0.1,0.2-0.6,1.3-1.1,2.3c-0.6,1.5-1.6,3-2.6,3.3
			c-0.3,0.1-0.5-0.1-0.5-0.4C91.7,19.9,93.2,16.9,94.7,16.2L94.7,16.2z"/>
		<path fill-rule="evenodd" clip-rule="evenodd" fill="#FFFFFF" d="M62,16.8c-1,1.1-1.8,2.7-1.9,4.2c0,1,0.5,1.8,1.8,1.8
			c1.4-0.1,2.7-0.9,3.8-2.1c-0.3,0.7-0.5,1.4-0.6,1.8c-0.4,1-0.7,1.9-1.4,2.4l0.1,0.1c1.9,0.1,2.6-1.2,3.4-3.4
			c0.8-2.2,1.5-4.1,2-5.4c0.8,0,2,0,2.6-0.1c-1.7,0.7-3.2,3.5-3,5.3c0.1,0.8,0.5,1.3,1.6,1.3c1.9,0,3.6-2.3,4.2-3.8
			c0.4-0.9,0.6-1.6,0.6-2.4c0.5-0.1,0.9-0.2,1.1-0.2c0.5-0.1,0.4,0.4,0.2,0.8c-0.8,2.2-2.2,5.5-2.2,5.5h1.6c0.6-1.4,1.1-2.3,1.6-3.2
			c0.6-1.1,2.1-2.9,2.6-2.9c0.2,0,0.3,0.1,0.2,0.3c-0.1,0.7-1.9,3.6-1.9,5c0,0.9,0.5,1.5,1.4,1.7l0.2-0.1c-0.1-0.2-0.1-0.5-0.1-0.7
			c0-0.9,0.8-2.6,1.1-3.2c0.5-1,1.3-2.5,1.3-3.3c0-0.4-0.3-0.7-1-0.7c-1.2,0-2.5,1.2-3.5,2.8l0,0c0.4-0.9,0.7-1.8,0.7-2.2
			c0-0.4-0.2-0.5-0.7-0.5c-0.3,0-0.8,0.1-1.2,0.3c-0.6,0.1-1.3,0.3-2,0.5c-0.4,0-0.6,0.1-0.6,0.3c0.1,2.5-1.6,5.4-2.7,5.4
			c-0.5,0-0.6-0.4-0.6-0.8c0-1.7,1.4-4.6,2.8-5c0.1-0.1,0.2-0.1,0.3-0.1l0.2-0.5c-0.3,0-1,0.1-1.4,0.1c-0.4,0-3,0-3,0
			c0.8-1.9,1.9-3.1,3.6-3.2c1-0.1,1.7,0.3,1.7,0.9c0.1,0.5-0.1,0.9-0.5,1.3l0.1,0.1c0.9-0.5,1.5-1.2,1.5-1.6c0-0.8-0.9-1.3-2.4-1.2
			c-1.8,0-4.2,0.4-5.8,3.8c-0.5,0.1-0.9,0.3-1.3,0.6l0.1,0.1c0.3-0.1,0.6-0.1,0.9-0.1c-0.2,0.5-0.6,1.7-1.1,2.9
			c-1.4,1.8-2.7,2.7-3.7,2.7c-0.5,0-0.8-0.3-0.8-0.8c0-0.3,0.1-0.8,0.1-1c1.1-0.5,2.2-1.1,3.1-2.1c0.5-0.6,0.9-1.2,0.9-1.7
			c0-0.5-0.4-0.9-1.1-0.9C64,15.2,62.8,15.9,62,16.8L62,16.8z M64.5,16c0.2,0,0.3,0.2,0.3,0.4c0,1-1.2,2.2-2.7,3.1
			C62.6,17.9,63.6,16,64.5,16L64.5,16z"/>
		<path fill-rule="evenodd" clip-rule="evenodd" fill="#FFFFFF" d="M85.1,14.3c0.5,0,1-0.5,1.1-1c0.2-0.6-0.2-1-0.7-1
			c-0.5,0-1,0.5-1.1,1C84.3,13.9,84.6,14.3,85.1,14.3L85.1,14.3z"/>
		<path fill-rule="evenodd" clip-rule="evenodd" fill="#FFFFFF" d="M70.5,27.9c-15.5,0-31.2,0.2-31.2,0.4c0,0.2,15.7,0.4,31.2,0.4
			c15.5,0,31.3-0.2,31.3-0.4C101.8,28.1,86,27.9,70.5,27.9L70.5,27.9z"/>
		<path fill-rule="evenodd" clip-rule="evenodd" fill="#FFFFFF" d="M45.5,16.8L45.5,16.8c0-0.3-0.1-0.7-0.1-0.9
			c0.1-2,2.2-3.2,5.5-3.2c0,0,0.8,0,1.8,0c-1.1,0.6-2,1.4-2.6,3c-0.3,0.6-1.7,4.3-2.3,5.9c-0.7,1.9-1.2,2.8-1.7,3.1l0.1,0.2
			c1.6,0.1,2.6-0.7,3.2-2.2c0.6-1.5,1.4-3.7,1.7-4.7c1.2-3.2,1.8-4.6,2.7-5.3c1.4,0,2.7,0,2.7,0c1.5-0.1,2.1-0.4,2.6-1L59,11.6
			c-0.4,0.2-1.2,0.2-1.8,0.2h-6.6c-3.7,0-6,1.2-6.4,3C44,15.8,44.4,16.7,45.5,16.8L45.5,16.8z"/>
		<g>
			<path fill="#FFFFFF" d="M48.4,37.8v-5.6h3.2v0.6h-2.4v1.9h2v0.6h-2v2.5H48.4z"/>
			<path fill="#FFFFFF" d="M52.5,32.2h0.8v3.5c0,0.6,0.1,1,0.3,1.3c0.2,0.2,0.5,0.3,1,0.3c0.3,0,0.5,0,0.7-0.1
				c0.2-0.1,0.3-0.2,0.4-0.4c0.1-0.2,0.1-0.5,0.1-1v-3.6h0.7v3.5c0,0.6-0.1,1-0.2,1.3c-0.1,0.3-0.4,0.5-0.6,0.6
				c-0.3,0.2-0.6,0.2-1.1,0.2c-0.5,0-0.9-0.1-1.2-0.2c-0.3-0.2-0.5-0.4-0.7-0.7c-0.2-0.3-0.2-0.7-0.2-1.3V32.2z"/>
			<path fill="#FFFFFF" d="M57.9,37.8v-5.6h0.8l2.8,4.3v-4.3h0.7v5.6h-0.8l-2.8-4.3v4.3H57.9z"/>
			<path fill="#FFFFFF" d="M63.6,37.8v-5.6h1.9c0.7,0,1.3,0.1,1.6,0.3c0.4,0.2,0.7,0.5,0.9,0.9s0.3,0.9,0.3,1.4c0,0.5-0.1,1-0.3,1.5
				c-0.2,0.4-0.5,0.8-0.9,1.1c-0.4,0.3-0.9,0.4-1.6,0.4H63.6z M64.4,37.2h1c0.5,0,0.9-0.1,1.2-0.3c0.3-0.2,0.5-0.4,0.6-0.8
				c0.1-0.4,0.2-0.8,0.2-1.2c0-0.4-0.1-0.8-0.2-1.1c-0.1-0.3-0.3-0.6-0.6-0.8c-0.3-0.2-0.8-0.3-1.6-0.3h-0.7V37.2z"/>
			<path fill="#FFFFFF" d="M68.8,37.8l2.2-5.6h0.8l2.2,5.6h-0.9l-0.6-1.5h-2.4l-0.6,1.5H68.8z M70.3,35.7h1.9l-0.9-2.4L70.3,35.7z"
				/>
			<path fill="#FFFFFF" d="M79,37.5c-0.2,0.1-0.4,0.2-0.6,0.3c-0.2,0.1-0.4,0.1-0.6,0.1c-0.2,0-0.4,0-0.6,0c-0.9,0-1.6-0.3-2.1-0.8
				c-0.4-0.6-0.7-1.3-0.7-2.1c0-0.9,0.2-1.6,0.7-2.1c0.5-0.6,1.1-0.8,2.1-0.8c0.5,0,1.1,0.1,1.8,0.2v0.7c-0.6-0.2-1-0.3-1.2-0.3
				c-0.2,0-0.4-0.1-0.6-0.1c-0.7,0-1.2,0.2-1.5,0.7c-0.3,0.5-0.5,1-0.5,1.7c0,0.7,0.2,1.2,0.5,1.7c0.3,0.4,0.8,0.6,1.5,0.6
				c0.2,0,0.4,0,0.5,0c0.2,0,0.3-0.1,0.5-0.1c0.2-0.1,0.4-0.2,0.6-0.3V37.5z"/>
			<path fill="#FFFFFF" d="M80.1,37.8v-5.6h0.8v5.6H80.1z"/>
			<path fill="#FFFFFF" d="M84.6,37.9c-0.5,0-0.9-0.1-1.3-0.4c-0.4-0.2-0.6-0.6-0.8-1c-0.2-0.5-0.3-1-0.3-1.5c0-0.6,0.1-1.1,0.3-1.5
				c0.2-0.5,0.5-0.8,0.8-1.1c0.4-0.2,0.8-0.4,1.3-0.4c0.5,0,0.9,0.1,1.3,0.4c0.4,0.2,0.6,0.6,0.8,1.1c0.2,0.5,0.3,1,0.3,1.5
				c0,0.6-0.1,1.1-0.3,1.5c-0.2,0.5-0.5,0.8-0.8,1.1C85.6,37.8,85.1,37.9,84.6,37.9z M84.6,37.3c0.6,0,1-0.2,1.3-0.6
				c0.3-0.4,0.5-1,0.5-1.7c0-0.7-0.2-1.3-0.5-1.7c-0.3-0.4-0.7-0.6-1.3-0.6c-0.6,0-1,0.2-1.3,0.6c-0.3,0.4-0.5,1-0.5,1.7
				c0,0.7,0.2,1.3,0.5,1.7C83.6,37.1,84.1,37.3,84.6,37.3z M83.6,31.5l1.2-0.9l0.3,0.3l-1.3,0.8L83.6,31.5z"/>
			<path fill="#FFFFFF" d="M88.4,37.8v-5.6h0.8l2.8,4.3v-4.3h0.7v5.6h-0.8L89,33.5v4.3H88.4z"/>
		</g>
	</g>
</g>
</svg>
