<?xml version="1.0" encoding="utf-8"?>
<!-- Generator: Adobe Illustrator 18.0.0, SVG Export Plug-In . SVG Version: 6.00 Build 0)  -->
<!DOCTYPE svg PUBLIC "-//W3C//DTD SVG 1.1//EN" "http://www.w3.org/Graphics/SVG/1.1/DTD/svg11.dtd">
<svg version="1.1" xmlns="http://www.w3.org/2000/svg" xmlns:xlink="http://www.w3.org/1999/xlink" x="0px" y="0px"
	 viewBox="0 0 511.1 395.5" enable-background="new 0 0 511.1 395.5" xml:space="preserve">
<g id="Capa_1">
	<rect x="-0.2" y="0" fill="#151518" width="513.3" height="395.5"/>
	<g>
		<path fill="#0094A1" d="M330.2,370.5c-0.6-0.6-1.3-1.3-1.9-1.9c-0.6-0.6-1.1-1.1-1.6-1.7c-0.6-0.6-1.1-1.1-1.7-1.6
			c-0.4-0.5-0.9-0.8-1.3-1.4c-0.6-0.9-0.8-1.8-0.5-2.9c0.3-0.8,0.7-1.5,1.4-2c0.2-0.1,0.3-0.2,0.5-0.3c1-0.4,2.1-0.5,3.1,0.1
			c0.6,0.3,0.9,0.8,1.4,1.2c0.7,0.6,1.3,1.3,1.9,1.9c0.6,0.6,1.1,1.1,1.7,1.6c0,0,0.1,0.1,0.1,0.1c0.1-0.3,0.2-0.6,0.3-0.8
			c0.3-0.6,0.7-1,1.2-1.4c0.7-0.5,1.5-0.7,2.4-0.6c0.3,0,0.7,0.1,0.9,0.3c0.3,0.2,0.4,0.2,0.5-0.2c0.3-1,1.1-1.8,2.1-2.3
			c0.7-0.4,1.3-0.5,2.3-0.4v-22.2c0-4.1-3.8-8-7.9-8H159.4c-4.1,0-7.3,3.8-7.3,8v30.3c0,4.1,3.1,7.7,7.3,7.7h174.2
			c-0.6-1-1.1-1.2-1.7-1.8C331.3,371.8,330.8,371.1,330.2,370.5z"/>
		<path fill="#FFFFFF" d="M333.6,380.8l0.1-0.2c0,0,0.5-0.5,0.8-0.7c0.3-0.2,0.6-0.5,0.9-0.6c0.5-0.3,1-0.5,1.6-0.7
			c0.4-0.1,0.9-0.1,1.3-0.2c0.5,0,0.8-0.4,0.8-0.8c0-0.2-0.1-0.4-0.3-0.5c-0.8-0.8-1.7-1.7-2.5-2.5c-0.9-0.9-1.8-1.8-2.7-2.7
			c-0.9-1-1.9-1.9-2.8-2.8c-0.8-0.8-1.6-1.6-2.4-2.4c-0.6-0.6-1.3-1.3-1.9-1.9c-0.5-0.5-1-1-1.5-1.5c-0.4-0.5-0.6-1.3-0.2-2
			c0.2-0.5,0.6-0.8,1-1.1c0.6-0.3,1.6-0.2,2.1,0.2c0.7,0.7,1.4,1.4,2.1,2.1c0.6,0.6,1.3,1.3,1.9,1.9c0.7,0.7,1.4,1.4,2.1,2.1
			c0.5,0.5,1.1,1.1,1.6,1.6c0.7,0.7,1.3,1.3,2,2c0.5,0.5,1.1,1.1,1.6,1.6c0.3,0.3,0.5,0.6,0.8,0.8c0.4,0.3,0.8,0.2,1-0.1
			c0.3-0.3,0.2-0.8-0.1-1.1c-0.8-0.8-1.7-1.7-2.5-2.5c-0.7-0.8-1.5-1.5-2.3-2.2c-0.4-0.4-0.8-0.7-1.1-1.2c-0.3-0.5-0.4-1-0.2-1.5
			c0.2-0.5,0.4-0.9,0.9-1.2c0.6-0.4,1.1-0.5,1.8-0.2c0.5,0.2,0.8,0.6,1.2,1c1,1,2,2,2.9,2.9c0.7,0.7,1.4,1.4,2.2,2.1
			c0.3,0.3,0.8,0.3,1,0.1c0.3-0.3,0.5-0.6,0.2-1.1c-0.2-0.4-0.6-0.6-0.9-0.9c-0.5-0.6-1.1-1.1-1.7-1.7c-0.6-0.6-1.3-1.3-1.9-1.9
			c-0.6-0.6-0.6-1.3-0.4-2c0.2-0.5,0.6-0.9,1.2-1.2c0.5-0.3,1.6-0.1,2,0.3c0.9,0.9,1.8,1.8,2.7,2.8c0.6,0.6,1.2,1.2,1.8,1.7
			c0.2,0.2,0.5,0.2,0.8,0.1c0.3-0.1,0.5-0.3,0.5-0.6c0-0.3,0-0.5-0.2-0.7c-0.7-0.7-1.4-1.4-2.1-2.1c-0.3-0.3-0.6-0.6-0.9-0.9
			c-0.4-0.4-0.5-1.3-0.3-1.8c0.2-0.6,0.6-1,1.2-1.2c0.5-0.2,1.4-0.2,1.8,0.2c0.6,0.6,1.2,1.1,1.7,1.7c0.4,0.4,0.8,0.8,1.3,1.2
			c0.8,0.8,1.7,1.7,2.5,2.5c0.5,0.6,1.1,1.1,1.6,1.7c0.5,0.5,1.1,1.1,1.6,1.6c0.5,0.6,1,1.3,1.4,1.9c0.5,0.7,0.8,1.5,1.2,2.4
			c0.1,0.3,0.2,0.5,0.3,0.8c0.2,0.7,0.5,2.6,0.5,2.9c0,0.9-0.1,1.7-0.3,2.5c-0.2,0.9-0.7,1.8-1.3,2.5c-0.7,0.9-1.6,1.6-2.4,2.5
			c-0.5,0.6-1.1,1.1-1.8,1.5c-0.2,0.1-0.5,0.3-0.7,0.4c-1.6,0.7-3.4,0.7-5.1,0.4c-0.9-0.2-1.9-0.4-2.7-0.9c-0.6-0.3-1.3-0.4-2-0.5
			c-0.8-0.1-1.6-0.1-2.4-0.2c-1-0.1-1.9-0.1-2.9-0.1c-0.7,0-1.4,0.1-2.1,0.3c-1,0.2-1.9,0.5-2.9,0.8c-0.7,0.3-1.5-0.4-1.4-1.2
			c0.1-0.5,0.3-0.9,0.6-1.3C333.5,380.9,333.6,380.8,333.6,380.8z"/>
	</g>
	<g>
		<g>
			<path fill="#0094A1" d="M35.2,114.6c19.7,0,33-9.5,33-24.7c0-11.6-7.8-18.8-23.2-23.4c-14-4.2-17.2-5.4-17.2-7.4
				c0-1.8,1.6-2.8,6.6-2.8c8.9,0,21.5,3.3,28.8,7.6V42.6c-6.5-3.1-15.1-6-27.1-6C17.3,36.6,4,44,4,59.9c0,13.7,10.8,19.9,24.7,24
				c11.6,3.4,15.7,4.9,15.7,7.2c0,2.8-3.9,3.5-8.7,3.5C25.7,94.6,10.9,90,4,84.1v22.5C13.6,112.7,24.1,114.6,35.2,114.6"/>
			<rect x="72.6" y="38.1" fill="#B9007C" width="23" height="75"/>
			<polygon fill="#DDDB1C" points="102.7,113.1 125,113.1 125,71.1 136.1,89 148.5,89 159.1,71.1 159.1,113.1 181.2,113.1 
				181.2,38.1 158.5,38.1 142,64.8 125.6,38.1 102.7,38.1 			"/>
			<path fill="#009ADA" d="M222.5,38.1H188v75h23V87h11.5c17.5,0,28.4-10.5,28.4-24.4C250.9,48.5,240,38.1,222.5,38.1 M219.4,70.3
				H211V56.9h8.4c4.6,0,7.9,2.7,7.9,6.6C227.3,67.6,224,70.3,219.4,70.3"/>
			<path fill="#0094A1" d="M291.2,93.6c-9.6,0-16.6-7.6-16.6-18c0-10.4,7-18,16.6-18c9.6,0,16.6,7.6,16.6,18
				C307.8,86,300.8,93.6,291.2,93.6 M291.2,114.6c23.6,0,40.1-17.9,40.1-39c0-21.2-16.5-39-40.1-39c-23.5,0-40.2,17.8-40.2,39
				C251,96.7,267.7,114.6,291.2,114.6"/>
			<path fill="#B9007C" d="M365.4,114.6c19.7,0,33-9.5,33-24.7c0-11.6-7.8-18.8-23.2-23.4c-14-4.2-17.2-5.4-17.2-7.4
				c0-1.8,1.6-2.8,6.6-2.8c8.9,0,21.5,3.3,28.8,7.6V42.6c-6.5-3.1-15.1-6-27.1-6c-19,0-32.3,7.4-32.3,23.3c0,13.7,10.8,19.9,24.7,24
				c11.6,3.4,15.7,4.9,15.7,7.2c0,2.8-3.9,3.5-8.7,3.5c-9.9,0-24.7-4.6-31.6-10.5v22.5C343.8,112.7,354.3,114.6,365.4,114.6"/>
			<rect x="402.8" y="38.1" fill="#DDDB1C" width="23" height="75"/>
			<path fill="#009ADA" d="M471,93.6c-9.6,0-16.6-7.6-16.6-18c0-10.4,7-18,16.6-18c9.6,0,16.6,7.6,16.6,18
				C487.6,86,480.6,93.6,471,93.6 M471,114.6c23.6,0,40.1-17.9,40.1-39c0-21.2-16.5-39-40.1-39c-23.5,0-40.2,17.8-40.2,39
				C430.8,96.7,447.5,114.6,471,114.6"/>
			<path fill="#B9007C" d="M83.8,30.5c6.6,0,11.9-5.3,11.9-11.9c0-6.6-5.3-11.9-11.9-11.9c-6.6,0-11.9,5.3-11.9,11.9
				C71.9,25.2,77.2,30.5,83.8,30.5"/>
			<path fill="#DDDB1C" d="M414.9,30.5c6.6,0,11.9-5.3,11.9-11.9c0-6.6-5.3-11.9-11.9-11.9c-6.6,0-11.9,5.3-11.9,11.9
				C403,25.2,408.3,30.5,414.9,30.5"/>
			<path fill="#FFFFFF" d="M2.6,233.7h43.4v-11H20.6l10.5-9.6c9.4-8.6,12.9-14.3,12.9-23c0-11.6-10.4-18.7-21.6-18.7
				c-7.3,0-13.3,2.4-17.8,5.8v12.9c4.6-4.1,9.8-7,16.5-7c6.3,0,10.5,3.3,10.5,8.5c0,5.4-3.1,9.3-10.9,16.5l-18,16.3V233.7z
				 M80.8,234.9c16.7,0,26.2-15.2,26.2-31.7c0-16.6-9.5-31.7-26.2-31.7c-16.8,0-26.3,15.2-26.3,31.7
				C54.4,219.7,63.9,234.9,80.8,234.9 M80.8,223.1c-8.7,0-13.8-9.3-13.8-20c0-10.6,5.1-20,13.8-20c8.7,0,13.7,9.3,13.7,20
				C94.4,213.8,89.5,223.1,80.8,223.1 M126.1,233.7h12.3v-61h-10.9l-14.3,7.7v12.3l12.9-6.5V233.7z M152.4,233.7h13.3l25.8-51.3
				v-9.7h-43.1v11.2h28.9L152.4,233.7z"/>
			<path fill="#FFFFFF" d="M2.5,153.7h5.1v-16.9l5.8,8h2.8l5.7-8v16.9h5V129h-5l-7.2,10.3L7.5,129H2.5V153.7z M53.2,149.5
				c-4.3,0-7.6-3.4-7.6-8.1c0-4.7,3.3-8.1,7.6-8.1s7.6,3.4,7.6,8.1C60.8,146,57.6,149.5,53.2,149.5 M53.2,154.2
				c7.4,0,12.8-5.8,12.8-12.9c0-7.1-5.4-12.9-12.8-12.9s-12.8,5.7-12.8,12.9C40.4,148.5,45.8,154.2,53.2,154.2 M79.5,153.7h9.3
				c8,0,13.6-5.1,13.6-12.4c0-7.3-5.6-12.4-13.6-12.4h-9.3V153.7z M84.6,149.2v-15.6h3.7c5.5,0,8.8,2.9,8.8,7.8
				c0,4.9-3.3,7.8-8.8,7.8H84.6z M115.7,153.7h18.6v-4.6h-13.5v-6.4h10.5v-4.5h-10.5v-4.8h13.1V129h-18.2V153.7z M147.2,153.7h17.6
				v-4.6h-12.5V129h-5.1V153.7z M187.7,149.5c-4.3,0-7.6-3.4-7.6-8.1c0-4.7,3.3-8.1,7.6-8.1c4.3,0,7.6,3.4,7.6,8.1
				C195.3,146,192,149.5,187.7,149.5 M187.7,154.2c7.4,0,12.8-5.8,12.8-12.9c0-7.1-5.4-12.9-12.8-12.9c-7.4,0-12.8,5.7-12.8,12.9
				C174.8,148.5,180.2,154.2,187.7,154.2 M231.4,153.7H250v-4.6h-13.5v-6.4h10.5v-4.5h-10.5v-4.8h13.1V129h-18.2V153.7z
				 M262.9,153.7h9.3c8,0,13.6-5.1,13.6-12.4c0-7.3-5.6-12.4-13.6-12.4h-9.3V153.7z M268,149.2v-15.6h3.7c5.5,0,8.8,2.9,8.8,7.8
				c0,4.9-3.3,7.8-8.8,7.8H268z M309.4,154.2c6,0,10.6-3.7,10.6-10.9V129H315v14.5c0,4.1-2.4,5.9-5.6,5.9c-3.1,0-5.5-1.9-5.5-5.9
				V129h-5.1v14.4C298.8,150.5,303.5,154.2,309.4,154.2 M346.5,154.2c2.6,0,5.1-0.6,7-1.8v-5.1c-2,1.6-4.3,2.2-6.8,2.2
				c-4.8,0-8.4-3.3-8.4-8.1c0-4.7,3.6-8.1,8.2-8.1c2.8,0,4.7,0.7,6.5,1.9v-5.1c-1.9-1-4.1-1.6-6.5-1.6c-7.7,0-13.4,5.3-13.4,12.9
				C333.1,148.9,338.9,154.2,346.5,154.2 M364.6,153.7h5.3l2.4-5.7h10.5l2.4,5.7h5.4l-10.6-24.9h-4.9L364.6,153.7z M374,143.8
				l3.6-8.6l3.6,8.6H374z M397.6,129v4.6h7.8v20.2h5.1v-20.2h7.8V129H397.6z M431.1,153.7h5.1V129h-5.1V153.7z M459,153.9h4.8
				l10.4-24.9h-5.5l-7.2,17.8l-7.2-17.8h-5.6L459,153.9z M496.6,149.5c-4.3,0-7.6-3.4-7.6-8.1c0-4.7,3.3-8.1,7.6-8.1
				c4.3,0,7.6,3.4,7.6,8.1C504.2,146,500.9,149.5,496.6,149.5 M496.6,154.2c7.4,0,12.8-5.8,12.8-12.9c0-7.1-5.4-12.9-12.8-12.9
				c-7.4,0-12.8,5.7-12.8,12.9C483.7,148.5,489.1,154.2,496.6,154.2"/>
			<path fill="#B9007C" d="M231.4,188h2.9v-6.2h6.4v6.2h2.9v-14.1h-2.9v5.3h-6.4v-5.3h-2.9V188z M256.2,185.8
				c-0.4,0-0.7-0.2-0.7-0.8v-3.4c0-2.5-2-4-4.8-4c-1.9,0-3,0.4-3.7,0.8v2.4c0.8-0.5,2-0.8,3-0.8c1.3,0,2.7,0.3,2.7,1.9v0.3
				c-0.7-0.3-1.5-0.6-2.9-0.6c-2,0-4,1-4,3.3c0,2.1,1.6,3.4,3.7,3.4c1.7,0,2.8-0.7,3.5-1.4c0.4,0.9,1.2,1.3,2.3,1.3
				c0.5,0,1.2-0.2,1.5-0.4v-2.1C256.6,185.7,256.3,185.8,256.2,185.8 M252.6,185c-0.5,0.6-1.3,1-2.3,1c-1,0-1.8-0.4-1.8-1.3
				c0-0.9,0.8-1.3,2-1.3c0.8,0,1.6,0.2,2.1,0.6V185z M263.5,188.2c1.3,0,2.2-0.2,3.2-0.7v-2.4c-0.8,0.5-1.6,0.7-2.7,0.7
				c-1.7,0-3.1-1.1-3.1-2.8c0-1.7,1.4-2.8,3.1-2.8c1,0,1.7,0.2,2.6,0.6v-2.4c-0.9-0.5-1.8-0.7-3-0.7c-2.9,0-5.5,2-5.5,5.3
				C258,186.2,260.7,188.2,263.5,188.2 M273.8,188.2c1.6,0,3-0.4,3.8-1v-2.3c-0.9,0.5-2,0.9-3.2,0.9c-1.7,0-3.1-0.7-3.4-2.1h7.2V183
				c0-2.9-1.8-5.3-4.8-5.3c-3.2,0-5.2,2.4-5.2,5.3C268.3,186.2,270.8,188.2,273.8,188.2 M271.1,181.9c0.1-1.1,1-2,2.3-2
				c1.3,0,2.1,1,2.1,2H271.1z M280.5,188h2.8v-5.9c0.4-0.8,1.5-1.8,2.9-1.8c0.3,0,0.6,0,0.9,0.1v-2.8c-0.1,0-0.2,0-0.3,0
				c-1.6,0-3,1-3.5,2v-1.7h-2.8V188z M300.3,177.6c-1.7,0-2.7,0.7-3.3,1.5v-1.2h-2.8V192h2.8v-5.3c0.6,0.7,1.6,1.5,3.3,1.5
				c2.8,0,4.7-2.3,4.7-5.3C305.1,180,303.1,177.6,300.3,177.6 M299.5,180.1c1.6,0,2.7,1.2,2.7,2.8c0,1.6-1.1,2.8-2.7,2.8
				c-1.2,0-2.1-0.7-2.5-1.5v-2.6C297.4,180.8,298.4,180.1,299.5,180.1 M312.1,185.7c-1.6,0-2.8-1.2-2.8-2.8c0-1.6,1.2-2.8,2.8-2.8
				c1.6,0,2.8,1.2,2.8,2.8C314.9,184.5,313.7,185.7,312.1,185.7 M312.1,188.2c3.3,0,5.6-2.3,5.6-5.3c0-2.9-2.3-5.3-5.6-5.3
				c-3.3,0-5.6,2.4-5.6,5.3C306.5,185.9,308.8,188.2,312.1,188.2 M323.5,188.2c2.7,0,4.5-1.3,4.5-3.1c0-1.8-1.2-2.7-3.3-3.2
				c-1.3-0.3-2.5-0.4-2.5-1.1c0-0.5,0.5-0.8,1.6-0.8c1.4,0,2.7,0.5,3.7,1v-2.4c-0.9-0.6-2.4-0.9-3.8-0.9c-2.8,0-4.4,1.2-4.4,3.1
				c0,1.9,1.1,2.6,3.3,3.1c1.5,0.4,2.6,0.5,2.6,1.2c0,0.5-0.6,0.8-1.7,0.8c-1.8,0-3.4-0.7-4.1-1.1v2.5
				C320.2,187.8,321.8,188.2,323.5,188.2 M330.2,188h2.8v-10.1h-2.8V188z M331.7,176.9c0.9,0,1.7-0.7,1.7-1.7c0-1-0.7-1.7-1.7-1.7
				c-0.9,0-1.7,0.7-1.7,1.7C330,176.2,330.7,176.9,331.7,176.9 M342.2,188.2c2.8,0,4.7-2.3,4.7-5.3c0-2.9-2-5.3-4.7-5.3
				c-1.7,0-2.7,0.8-3.3,1.5v-5.3H336V188h2.8v-1.2C339.4,187.5,340.5,188.2,342.2,188.2 M341.4,185.7c-1.2,0-2.1-0.7-2.5-1.5v-2.6
				c0.4-0.8,1.3-1.5,2.5-1.5c1.6,0,2.7,1.2,2.7,2.8C344.1,184.5,342.9,185.7,341.4,185.7 M351.7,188.2c0.7,0,1.3-0.1,1.8-0.4v-2.3
				c-0.2,0.1-0.5,0.2-0.7,0.2c-0.5,0-0.9-0.3-0.9-1v-10.9H349v11.6C349,187.6,350.3,188.2,351.7,188.2 M360.3,188.2
				c1.6,0,3-0.4,3.8-1v-2.3c-0.9,0.5-2,0.9-3.2,0.9c-1.7,0-3.1-0.7-3.4-2.1h7.2V183c0-2.9-1.8-5.3-4.8-5.3c-3.2,0-5.2,2.4-5.2,5.3
				C354.7,186.2,357.3,188.2,360.3,188.2 M357.6,181.9c0.1-1.1,1-2,2.3-2c1.3,0,2.1,1,2.1,2H357.6z M374.8,188.2
				c0.7,0,1.3-0.1,1.8-0.4v-2.3c-0.2,0.1-0.5,0.2-0.7,0.2c-0.5,0-0.9-0.3-0.9-1v-10.9h-2.8v11.6
				C372.1,187.6,373.4,188.2,374.8,188.2 M388.1,185.8c-0.4,0-0.7-0.2-0.7-0.8v-3.4c0-2.5-2-4-4.8-4c-1.9,0-3,0.4-3.7,0.8v2.4
				c0.8-0.5,2-0.8,3-0.8c1.3,0,2.7,0.3,2.7,1.9v0.3c-0.7-0.3-1.5-0.6-2.9-0.6c-2,0-4,1-4,3.3c0,2.1,1.6,3.4,3.7,3.4
				c1.7,0,2.8-0.7,3.5-1.4c0.4,0.9,1.3,1.3,2.3,1.3c0.5,0,1.2-0.2,1.5-0.4v-2.1C388.5,185.7,388.3,185.8,388.1,185.8 M384.6,185
				c-0.5,0.6-1.3,1-2.3,1c-1,0-1.8-0.4-1.8-1.3c0-0.9,0.8-1.3,2-1.3c0.8,0,1.6,0.2,2.1,0.6V185z M396,188h2.9v-5.7h2.4l4.1,5.7h3.4
				l-4.4-6c1.9-0.6,2.9-2.1,2.9-3.9c0-2.4-1.8-4.2-4.9-4.2H396V188z M398.9,179.8v-3.4h3.5c1.3,0,2.1,0.6,2.1,1.7
				c0,1.1-0.8,1.7-2.1,1.7H398.9z M415.1,188.2c1.6,0,3-0.4,3.8-1v-2.3c-0.9,0.5-2,0.9-3.2,0.9c-1.7,0-3.1-0.7-3.4-2.1h7.2V183
				c0-2.9-1.8-5.3-4.8-5.3c-3.2,0-5.2,2.4-5.2,5.3C409.5,186.2,412,188.2,415.1,188.2 M412.3,181.9c0.1-1.1,1-2,2.3-2
				c1.3,0,2.1,1,2.1,2H412.3z M425.3,188v-7.7h3.1v-2.4h-3.1v-0.6c0-0.9,0.5-1.4,1.4-1.4c0.7,0,1.2,0.1,1.7,0.3V174
				c-0.7-0.3-1.6-0.4-2.6-0.4c-2.3,0-3.4,1.5-3.4,3.3v0.9h-1.8v2.4h1.8v7.7H425.3z M434.9,185.7c-1.6,0-2.8-1.2-2.8-2.8
				c0-1.6,1.2-2.8,2.8-2.8c1.6,0,2.8,1.2,2.8,2.8C437.7,184.5,436.6,185.7,434.9,185.7 M434.9,188.2c3.3,0,5.6-2.3,5.6-5.3
				c0-2.9-2.3-5.3-5.6-5.3c-3.3,0-5.6,2.4-5.6,5.3C429.4,185.9,431.6,188.2,434.9,188.2 M442.6,188h2.8v-5.9
				c0.4-0.8,1.5-1.8,2.9-1.8c0.3,0,0.6,0,0.9,0.1v-2.8c-0.1,0-0.2,0-0.3,0c-1.6,0-3,1-3.5,2v-1.7h-2.8V188z M451.2,188h2.8v-6.4
				c0.4-0.7,1.3-1.3,2.1-1.3c0.7,0,1.7,0.3,1.7,2.1v5.6h2.8v-6.4c0.4-0.7,1.2-1.4,2.1-1.4c0.7,0,1.7,0.3,1.7,2.1v5.6h2.8v-6.3
				c0-2.7-1.5-4-3.6-4c-1.5,0-2.8,0.8-3.5,1.7c-0.4-0.9-1.5-1.7-3.1-1.7c-1.4,0-2.5,0.7-3.1,1.5v-1.2h-2.8V188z M479.4,185.8
				c-0.4,0-0.7-0.2-0.7-0.8v-3.4c0-2.5-2-4-4.8-4c-1.9,0-3,0.4-3.7,0.8v2.4c0.8-0.5,2-0.8,3-0.8c1.3,0,2.7,0.3,2.7,1.9v0.3
				c-0.7-0.3-1.5-0.6-2.9-0.6c-2,0-4,1-4,3.3c0,2.1,1.6,3.4,3.7,3.4c1.7,0,2.8-0.7,3.5-1.4c0.4,0.9,1.2,1.3,2.3,1.3
				c0.5,0,1.2-0.2,1.5-0.4v-2.1C479.8,185.7,479.6,185.8,479.4,185.8 M475.9,185c-0.5,0.6-1.3,1-2.3,1c-1,0-1.8-0.4-1.8-1.3
				c0-0.9,0.8-1.3,2-1.3c0.8,0,1.6,0.2,2.1,0.6V185z"/>
			<path fill="#B9007C" d="M236.1,210.2c1.3,0,2.2-0.2,3.2-0.7v-2.4c-0.8,0.5-1.6,0.7-2.7,0.7c-1.7,0-3.1-1.1-3.1-2.8
				c0-1.7,1.4-2.8,3.1-2.8c1,0,1.7,0.2,2.6,0.6v-2.4c-0.9-0.5-1.8-0.7-3-0.7c-2.9,0-5.5,2-5.5,5.3
				C230.6,208.2,233.2,210.2,236.1,210.2 M248.5,199.9v6.4c-0.5,0.7-1.4,1.3-2.3,1.3c-0.9,0-1.9-0.4-1.9-2.1v-5.6h-2.8v6.2
				c0,2.5,1.3,4.2,3.7,4.2c1.6,0,2.7-0.7,3.4-1.5v1.2h2.8v-10.1H248.5z M254.2,210h2.8v-5.9c0.4-0.8,1.5-1.8,2.9-1.8
				c0.3,0,0.6,0,0.9,0.1v-2.8c-0.1,0-0.2,0-0.3,0c-1.6,0-3,1-3.5,2v-1.7h-2.8V210z M262.7,210h2.8v-5.9c0.4-0.8,1.5-1.8,2.9-1.8
				c0.3,0,0.6,0,0.9,0.1v-2.8c-0.1,0-0.2,0-0.3,0c-1.6,0-3,1-3.5,2v-1.7h-2.8V210z M271.4,210h2.8v-10.1h-2.8V210z M272.8,198.9
				c0.9,0,1.7-0.7,1.7-1.7c0-1-0.7-1.7-1.7-1.7c-0.9,0-1.7,0.7-1.7,1.7C271.1,198.2,271.8,198.9,272.8,198.9 M282,210.2
				c1.3,0,2.2-0.2,3.2-0.7v-2.4c-0.8,0.5-1.6,0.7-2.7,0.7c-1.7,0-3.1-1.1-3.1-2.8c0-1.7,1.4-2.8,3.1-2.8c1,0,1.7,0.2,2.6,0.6v-2.4
				c-0.9-0.5-1.8-0.7-3-0.7c-2.9,0-5.5,2-5.5,5.3C276.5,208.2,279.1,210.2,282,210.2 M294.4,199.9v6.4c-0.5,0.7-1.4,1.3-2.3,1.3
				c-0.9,0-1.9-0.4-1.9-2.1v-5.6h-2.8v6.2c0,2.5,1.3,4.2,3.7,4.2c1.6,0,2.7-0.7,3.4-1.5v1.2h2.8v-10.1H294.4z M302.7,210.2
				c0.7,0,1.3-0.1,1.8-0.4v-2.3c-0.2,0.1-0.5,0.2-0.7,0.2c-0.5,0-0.9-0.3-0.9-1v-10.9H300v11.6C300,209.6,301.4,210.2,302.7,210.2
				 M316,207.8c-0.4,0-0.7-0.2-0.7-0.8v-3.4c0-2.5-2-4-4.8-4c-1.9,0-3,0.4-3.7,0.8v2.4c0.8-0.5,2-0.8,3-0.8c1.3,0,2.7,0.3,2.7,1.9
				v0.3c-0.7-0.3-1.5-0.6-2.9-0.6c-2,0-4,1-4,3.3c0,2.1,1.6,3.4,3.7,3.4c1.7,0,2.8-0.7,3.5-1.4c0.4,0.9,1.2,1.3,2.3,1.3
				c0.5,0,1.2-0.2,1.5-0.4v-2.1C316.4,207.7,316.2,207.8,316,207.8 M312.5,207c-0.5,0.6-1.3,1-2.3,1c-1,0-1.8-0.4-1.8-1.3
				c0-0.9,0.8-1.3,2-1.3c0.8,0,1.6,0.2,2.1,0.6V207z M318.6,210h2.8v-5.9c0.4-0.8,1.5-1.8,2.9-1.8c0.3,0,0.6,0,0.9,0.1v-2.8
				c-0.1,0-0.2,0-0.3,0c-1.6,0-3,1-3.5,2v-1.7h-2.8V210z M328.4,203.5c1,0,1.8-0.8,1.8-1.8c0-1-0.8-1.7-1.8-1.7
				c-1,0-1.8,0.8-1.8,1.7C326.7,202.7,327.4,203.5,328.4,203.5 M328.4,210.2c1,0,1.8-0.8,1.8-1.8c0-1-0.8-1.7-1.8-1.7
				c-1,0-1.8,0.8-1.8,1.7C326.7,209.4,327.4,210.2,328.4,210.2"/>
			<path fill="#FFFFFF" d="M337.8,210h10.1v-2.6h-7.2v-11.5h-2.9V210z M349.9,210h2.8v-10.1h-2.8V210z M351.3,198.9
				c0.9,0,1.7-0.7,1.7-1.7c0-1-0.7-1.7-1.7-1.7c-0.9,0-1.7,0.7-1.7,1.7C349.6,198.2,350.4,198.9,351.3,198.9 M359.8,210.2
				c1.7,0,2.7-0.7,3.3-1.5v1.2h2.8v-14.1h-2.8v5.3c-0.6-0.7-1.6-1.5-3.3-1.5c-2.8,0-4.7,2.3-4.7,5.3
				C355,207.9,357,210.2,359.8,210.2 M360.6,207.7c-1.6,0-2.7-1.2-2.7-2.8c0-1.6,1.1-2.8,2.7-2.8c1.2,0,2.1,0.7,2.5,1.5v2.6
				C362.6,207,361.7,207.7,360.6,207.7 M373.6,210.2c1.6,0,3-0.4,3.8-1v-2.3c-0.9,0.5-2,0.9-3.2,0.9c-1.7,0-3.1-0.7-3.4-2.1h7.2V205
				c0-2.9-1.8-5.3-4.8-5.3c-3.2,0-5.2,2.4-5.2,5.3C368,208.2,370.6,210.2,373.6,210.2 M370.8,203.9c0.1-1.1,1-2,2.3-2
				c1.3,0,2.1,1,2.1,2H370.8z M380.2,210h2.8v-5.9c0.4-0.8,1.5-1.8,2.9-1.8c0.3,0,0.6,0,0.9,0.1v-2.8c-0.1,0-0.2,0-0.3,0
				c-1.6,0-3,1-3.5,2v-1.7h-2.8V210z M398.4,207.8c-0.4,0-0.7-0.2-0.7-0.8v-3.4c0-2.5-2-4-4.8-4c-1.9,0-3,0.4-3.7,0.8v2.4
				c0.8-0.5,2-0.8,3-0.8c1.3,0,2.7,0.3,2.7,1.9v0.3c-0.7-0.3-1.5-0.6-2.9-0.6c-2,0-4,1-4,3.3c0,2.1,1.6,3.4,3.7,3.4
				c1.7,0,2.8-0.7,3.5-1.4c0.4,0.9,1.2,1.3,2.3,1.3c0.5,0,1.2-0.2,1.5-0.4v-2.1C398.8,207.7,398.5,207.8,398.4,207.8 M394.8,207
				c-0.5,0.6-1.3,1-2.3,1c-1,0-1.8-0.4-1.8-1.3c0-0.9,0.8-1.3,2-1.3c0.8,0,1.6,0.2,2.1,0.6V207z M400.2,210h9.3v-2.4H404l5.1-5.7
				v-1.9h-8.7v2.4h4.8l-5.1,5.8V210z M418.9,199.9v1.2c-0.6-0.7-1.7-1.4-3.3-1.4c-2.8,0-4.7,2.2-4.7,5c0,2.8,1.9,5.1,4.7,5.1
				c1.7,0,2.7-0.7,3.3-1.4v0.6c0,2.1-1.7,2.7-3.3,2.7c-1.3,0-2.6-0.4-3.7-1v2.6c0.9,0.5,2.4,0.9,4,0.9c2.8,0,5.8-1.7,5.8-5.3v-8.9
				H418.9z M416.4,207.3c-1.6,0-2.7-1.1-2.7-2.6c0-1.5,1.1-2.6,2.7-2.6c1.1,0,2.1,0.6,2.5,1.4v2.4
				C418.4,206.7,417.5,207.3,416.4,207.3 M429.3,207.7c-1.6,0-2.8-1.2-2.8-2.8c0-1.6,1.2-2.8,2.8-2.8c1.6,0,2.8,1.2,2.8,2.8
				C432.1,206.5,430.9,207.7,429.3,207.7 M429.3,210.2c3.3,0,5.6-2.3,5.6-5.3c0-2.9-2.3-5.3-5.6-5.3c-3.3,0-5.6,2.4-5.6,5.3
				C423.7,207.9,426,210.2,429.3,210.2 M443.5,214.1c1.9,0,3.1-1.1,4-3.1l4.7-11.1h-3l-2.5,6.6l-2.7-6.6h-3.1l4.3,9.7
				c-0.6,1.4-1.2,2-2.2,2c-0.6,0-1.1-0.1-1.5-0.4v2.5C441.9,213.9,442.7,214.1,443.5,214.1"/>
			<path fill="#FFFFFF" d="M238.5,232.3c2.5,0,4.7-1.1,5.7-2.2v-6.2h-2.9v4.9c-0.7,0.7-1.8,0.9-2.8,0.9c-2.5,0-4.6-1.7-4.6-4.6
				c0-2.8,2-4.7,4.9-4.7c1.4,0,2.7,0.4,4,1.2v-2.9c-1.1-0.7-2.4-1.1-4.2-1.1c-4.4,0-7.6,3-7.6,7.3
				C231,229.2,234.3,232.3,238.5,232.3 M251.9,232.2c1.6,0,3-0.4,3.8-1v-2.3c-0.9,0.5-2,0.9-3.2,0.9c-1.7,0-3.1-0.7-3.4-2.1h7.2V227
				c0-2.9-1.8-5.3-4.8-5.3c-3.2,0-5.2,2.4-5.2,5.3C246.3,230.2,248.8,232.2,251.9,232.2 M249.1,225.9c0.1-1.1,1-2,2.3-2
				c1.3,0,2.1,1,2.1,2H249.1z M262.2,232.2c2.7,0,4.5-1.3,4.5-3.1c0-1.8-1.2-2.7-3.3-3.2c-1.3-0.3-2.5-0.4-2.5-1.1
				c0-0.5,0.5-0.8,1.6-0.8c1.4,0,2.7,0.5,3.7,1v-2.4c-0.9-0.6-2.4-0.9-3.8-0.9c-2.8,0-4.4,1.2-4.4,3.1c0,1.9,1.1,2.6,3.3,3.1
				c1.5,0.4,2.6,0.5,2.6,1.2c0,0.5-0.6,0.8-1.7,0.8c-1.8,0-3.4-0.7-4.1-1.1v2.5C258.9,231.9,260.5,232.2,262.2,232.2 M269.8,228.8
				c0,2.1,1,3.4,3.3,3.4c0.8,0,1.9-0.2,2.4-0.5v-2.4c-0.4,0.2-0.9,0.4-1.5,0.4c-0.9,0-1.4-0.4-1.4-1.4v-4h2.9v-2.4h-2.9v-2.8h-2.8
				v2.8h-2v2.4h2V228.8z M277.9,232h2.8v-10.1h-2.8V232z M279.3,220.9c0.9,0,1.7-0.7,1.7-1.7c0-1-0.7-1.7-1.7-1.7s-1.7,0.7-1.7,1.7
				C277.6,220.2,278.3,220.9,279.3,220.9 M288.6,229.8c-1.6,0-2.8-1.2-2.8-2.8c0-1.6,1.2-2.8,2.8-2.8s2.8,1.2,2.8,2.8
				C291.3,228.5,290.2,229.8,288.6,229.8 M288.6,232.2c3.3,0,5.6-2.3,5.6-5.3c0-2.9-2.3-5.3-5.6-5.3c-3.3,0-5.6,2.4-5.6,5.3
				C283,229.9,285.3,232.2,288.6,232.2 M287.1,220.5h2.5l2.9-2.9h-3.4L287.1,220.5z M299.1,232v-6.4c0.5-0.7,1.4-1.3,2.3-1.3
				c0.9,0,1.9,0.4,1.9,2.1v5.6h2.8v-6.2c0-2.5-1.3-4.2-3.7-4.2c-1.6,0-2.7,0.7-3.4,1.5v-1.2h-2.8V232H299.1z M318.8,232.2
				c1.6,0,3-0.4,3.8-1v-2.3c-0.9,0.5-2,0.9-3.2,0.9c-1.7,0-3.1-0.7-3.4-2.1h7.2V227c0-2.9-1.8-5.3-4.8-5.3c-3.2,0-5.2,2.4-5.2,5.3
				C313.2,230.2,315.8,232.2,318.8,232.2 M316,225.9c0.1-1.1,1-2,2.3-2c1.3,0,2.1,1,2.1,2H316z M329.2,232.2c2.7,0,4.5-1.3,4.5-3.1
				c0-1.8-1.2-2.7-3.3-3.2c-1.3-0.3-2.5-0.4-2.5-1.1c0-0.5,0.5-0.8,1.6-0.8c1.4,0,2.7,0.5,3.7,1v-2.4c-0.9-0.6-2.4-0.9-3.8-0.9
				c-2.8,0-4.4,1.2-4.4,3.1c0,1.9,1.1,2.6,3.3,3.1c1.5,0.4,2.6,0.5,2.6,1.2c0,0.5-0.6,0.8-1.7,0.8c-1.8,0-3.4-0.7-4.1-1.1v2.5
				C325.8,231.9,327.4,232.2,329.2,232.2 M340.6,232.2c1.3,0,2.2-0.2,3.2-0.7v-2.4c-0.8,0.5-1.6,0.7-2.7,0.7c-1.7,0-3.1-1.1-3.1-2.8
				c0-1.7,1.4-2.8,3.1-2.8c1,0,1.7,0.2,2.6,0.6v-2.4c-0.9-0.5-1.8-0.7-3-0.7c-2.9,0-5.5,2-5.5,5.3
				C335.1,230.2,337.7,232.2,340.6,232.2 M350.9,229.8c-1.6,0-2.8-1.2-2.8-2.8c0-1.6,1.2-2.8,2.8-2.8s2.8,1.2,2.8,2.8
				C353.7,228.5,352.5,229.8,350.9,229.8 M350.9,232.2c3.3,0,5.6-2.3,5.6-5.3c0-2.9-2.3-5.3-5.6-5.3c-3.3,0-5.6,2.4-5.6,5.3
				C345.3,229.9,347.6,232.2,350.9,232.2 M361.3,232.2c0.7,0,1.3-0.1,1.8-0.4v-2.3c-0.2,0.1-0.5,0.2-0.7,0.2c-0.5,0-0.9-0.3-0.9-1
				v-10.8h-2.8v11.6C358.6,231.6,359.9,232.2,361.3,232.2 M374.6,229.8c-0.4,0-0.7-0.2-0.7-0.8v-3.4c0-2.5-2-4-4.8-4
				c-1.9,0-3,0.4-3.7,0.8v2.4c0.8-0.5,2-0.8,3-0.8c1.3,0,2.7,0.3,2.7,1.9v0.3c-0.7-0.3-1.5-0.6-2.9-0.6c-2,0-4,1-4,3.3
				c0,2.1,1.6,3.4,3.7,3.4c1.7,0,2.8-0.7,3.5-1.4c0.4,0.9,1.3,1.3,2.3,1.3c0.5,0,1.2-0.2,1.5-0.4v-2.1
				C375,229.8,374.8,229.8,374.6,229.8 M371,229c-0.5,0.6-1.3,1-2.3,1c-1,0-1.8-0.4-1.8-1.3c0-0.9,0.8-1.3,2-1.3
				c0.8,0,1.6,0.2,2.1,0.6V229z M377.1,232h2.8v-5.9c0.4-0.8,1.5-1.8,2.9-1.8c0.3,0,0.6,0,0.9,0.1v-2.8c-0.1,0-0.2,0-0.3,0
				c-1.6,0-3,1-3.5,2v-1.7h-2.8V232z"/>
			<line fill="none" stroke="#FFFFFF" x1="214.5" y1="172.3" x2="214.5" y2="232.7"/>
		</g>
	</g>
	<g>
		<path fill="#DDDB1C" d="M15.6,267.8v1.1h-2.7l2.5-2.3c1.1-1,2-1.9,2-3.4c0-2-1.5-3.5-3.5-3.5c-2.1,0-3.7,1.6-3.7,3.8h1.9
			c0-1,0.6-1.8,1.6-1.8c0.9,0,1.6,0.6,1.6,1.5c0,0.9-0.7,1.5-1.3,2l-3.9,3.7v1.7h7v-2.8H15.6z M30.5,267.8c0.4,1.9,1.9,3.1,3.9,3.1
			c2.2,0,4.1-1.6,4.1-3.8c0-2-1.5-3.7-3.5-3.7c-0.7,0-1.3,0.2-1.9,0.6l0.4-2.3h4.1V260h-5.7l-1,5.7l1.7,0.4c0.3-0.7,1-1.1,1.7-1.1
			c1.1,0,2,0.8,2,2c0,1.1-0.9,2-2,2c-0.8,0-1.5-0.5-1.8-1.2H30.5z M74.8,264.4h1v-1.7h-3.7v1.7h0.8l-1.5,3.9l-1.4-3.9h0.8v-1.7h-3.8
			v1.7H68l2.4,6.2l-0.5,1.3h-1v1.7h3.9v-1.7h-1L74.8,264.4z M110,267.8v1.1h-2.7l2.5-2.3c1.1-1,2-1.9,2-3.4c0-2-1.5-3.5-3.5-3.5
			c-2.1,0-3.7,1.6-3.7,3.8h1.9c0-1,0.6-1.8,1.6-1.8c0.9,0,1.6,0.6,1.6,1.5c0,0.9-0.7,1.5-1.3,2l-3.9,3.7v1.7h7v-2.8H110z M128.7,260
			l-2.9,4.2c-0.6,0.8-0.9,1.6-0.9,2.6c0,1.1,0.4,2.1,1.2,2.9c0.7,0.7,1.8,1.1,2.8,1.1c2.2,0,4-1.8,4-4c0-1.9-1.4-3.6-3.4-3.6
			c-0.4,0-0.6,0.1-0.9,0.2l2.5-3.6H128.7z M128.8,268.9c-1.1,0-2-0.9-2-2c0-1.1,0.9-2,2-2c1.1,0,2,0.9,2,2
			C130.9,268.1,129.9,268.9,128.8,268.9 M168.1,270.7h2.9V269h-1v-9H167v1.7h1.1v2.2c-0.6-0.8-1.6-1.3-2.6-1.3
			c-2.3,0-4.1,1.9-4.1,4.1c0,2.2,1.8,4.1,4.1,4.1c1.1,0,2-0.4,2.6-1.3V270.7z M165.7,269.1c-1.3,0-2.4-1.1-2.4-2.4
			c0-1.4,1.1-2.5,2.4-2.5c1.3,0,2.4,1.1,2.4,2.4C168.1,268,167,269.1,165.7,269.1 M189.2,268.3c-0.4,0.7-1.1,1-1.9,1
			c-1.1,0-2.2-0.8-2.4-1.9h6.5l0.1-0.6c0-1.1-0.3-2.2-1.1-3c-0.8-0.8-1.9-1.3-3-1.3c-2.4,0-4.2,1.9-4.2,4.3c0,2.4,1.9,4.2,4.2,4.2
			c1.7,0,3.1-1,3.8-2.6H189.2z M184.9,265.9c0.2-1,1.3-1.9,2.3-1.9c1.2,0,2.2,0.7,2.5,1.9H184.9z M224,270.9c2.4,0,4.2-1.9,4.2-4.3
			c0-2.3-1.9-4.2-4.2-4.2c-2.3,0-4.2,1.9-4.2,4.2C219.9,268.9,221.7,270.9,224,270.9 M224,269.1c-1.4,0-2.4-1.1-2.4-2.5
			c0-1.3,1.1-2.4,2.4-2.4c1.3,0,2.4,1.1,2.4,2.4C226.5,268,225.4,269.1,224,269.1 M246.6,268c-0.3,0.7-1.1,1.1-1.9,1.1
			c-1.3,0-2.4-1.1-2.4-2.4c0-1.3,1-2.4,2.4-2.4c0.4,0,0.8,0.1,1.1,0.3c0.3,0.2,0.6,0.5,0.9,0.8h1.7v-2.7h-1.6v0.8
			c-0.6-0.6-1.4-1-2.3-1c-2.3,0-4,2-4,4.2c0,2.3,1.9,4.2,4.2,4.2c1.8,0,3.5-1.2,4-2.9H246.6z M264.1,264.4h1.4v-1.7h-1.4V260h-1.8
			v2.7H261v1.7h1.3v6.3h3.3V269h-1.5V264.4z M286,262.7h-2.9v1.7h1v2.6c0,0.6,0,1.1-0.3,1.6c-0.3,0.4-0.8,0.7-1.4,0.7
			c-0.5,0-1-0.2-1.3-0.7c-0.3-0.4-0.3-1-0.3-1.5v-4.3h-2.9v1.7h1v3.2c0,0.9,0.1,1.6,0.7,2.3c0.6,0.7,1.4,1,2.2,1
			c0.9,0,1.9-0.4,2.4-1.2v1h2.7V269h-1V262.7z M302.3,260h-2.9v1.7h1v7.3h-1v1.7h2.9v-1.2c0.6,0.9,1.6,1.3,2.7,1.3
			c1,0,2.1-0.5,2.8-1.3c0.7-0.8,1.1-1.8,1.1-2.8c0-2.3-1.9-4.1-4.1-4.1c-1,0-1.9,0.4-2.5,1.3V260z M304.7,264.2
			c1.3,0,2.4,1.1,2.4,2.4c0,1.3-1,2.5-2.4,2.5c-1.4,0-2.5-1.1-2.5-2.5C302.2,265.3,303.3,264.2,304.7,264.2 M323.9,262.7h-2.7v1.7h1
			v4.6h-1v1.7h3.9V269h-1v-2c0-0.8,0.1-1.4,0.7-1.9c0.5-0.4,1-0.6,1.6-0.6v-1.9c-1,0-1.9,0.5-2.4,1.5V262.7z M344.9,268.3
			c-0.5,0.7-1.1,1-1.9,1c-1.1,0-2.2-0.8-2.4-1.9h6.5l0.1-0.6c0-1.1-0.3-2.2-1.1-3c-0.8-0.8-1.9-1.3-3-1.3c-2.4,0-4.2,1.9-4.2,4.3
			c0,2.4,1.9,4.2,4.2,4.2c1.7,0,3.1-1,3.8-2.6H344.9z M340.5,265.9c0.2-1,1.3-1.9,2.3-1.9c1.2,0,2.2,0.7,2.5,1.9H340.5z
			 M382.2,270.7h2.9V269h-1v-9h-2.9v1.7h1.1v2.2c-0.6-0.8-1.6-1.3-2.6-1.3c-2.3,0-4.1,1.9-4.1,4.1c0,2.2,1.8,4.1,4.1,4.1
			c1.1,0,2-0.4,2.6-1.3V270.7z M379.8,269.1c-1.3,0-2.4-1.1-2.4-2.4c0-1.4,1.1-2.5,2.4-2.5c1.3,0,2.4,1.1,2.4,2.4
			C382.3,268,381.2,269.1,379.8,269.1 M403.4,268.3c-0.4,0.7-1.1,1-1.9,1c-1.1,0-2.2-0.8-2.4-1.9h6.5l0.1-0.6c0-1.1-0.3-2.2-1.1-3
			c-0.8-0.8-1.9-1.3-3-1.3c-2.4,0-4.2,1.9-4.2,4.3c0,2.4,1.9,4.2,4.2,4.2c1.7,0,3.1-1,3.8-2.6H403.4z M399,265.9
			c0.2-1,1.3-1.9,2.3-1.9c1.2,0,2.2,0.7,2.5,1.9H399z M439.9,267.8v1.1h-2.7l2.5-2.3c1.1-1,2-1.9,2-3.4c0-2-1.5-3.5-3.5-3.5
			c-2.1,0-3.7,1.6-3.7,3.8h1.9c0-1,0.6-1.8,1.6-1.8c0.9,0,1.6,0.6,1.6,1.5c0,0.9-0.7,1.5-1.3,2l-3.9,3.7v1.7h7v-2.8H439.9z
			 M462.6,263.8c0-1.2-0.2-2.1-1.2-3c-0.7-0.7-1.7-1.1-2.7-1.1c-1.1,0-2.1,0.5-2.9,1.2c-0.8,0.9-1,1.7-1,2.9v3c0,1.2,0.2,2.1,1.1,3
			c0.7,0.7,1.7,1.1,2.7,1.1c1.1,0,2.1-0.5,2.9-1.3c0.8-0.9,1-1.7,1-2.9V263.8z M456.9,263.8c0-0.5,0-1,0.3-1.4
			c0.3-0.6,0.9-0.8,1.6-0.8c0.6,0,1.2,0.2,1.5,0.7c0.3,0.5,0.4,1,0.4,1.5v3c0,0.5,0,1-0.3,1.4c-0.3,0.6-0.9,0.8-1.6,0.8
			c-0.6,0-1.2-0.2-1.5-0.7c-0.3-0.5-0.3-1-0.3-1.5V263.8z M480.5,260h-3.6v1.7h1.6v7.3h-1.3v1.7h4.5V269h-1.3V260z M496.3,260v3.4
			h1.9v-1.7h3.1l-4.1,9h2.2l4-9V260H496.3z"/>
	</g>
	<g>
		<path fill="#FFFFFF" d="M158.1,336.2h2.4v4.6h4.1v-4.6h2.4v12.3h-2.4v-5.4h-4.1v5.4h-2.4V336.2z"/>
		<path fill="#FFFFFF" d="M176.3,339.4h2.3v9.1h-2.3v-1c-0.4,0.4-0.9,0.7-1.3,0.9c-0.4,0.2-0.9,0.3-1.5,0.3c-1.2,0-2.2-0.5-3-1.4
			c-0.9-0.9-1.3-2-1.3-3.4c0-1.4,0.4-2.6,1.2-3.5s1.8-1.3,3-1.3c0.5,0,1.1,0.1,1.5,0.3c0.5,0.2,0.9,0.5,1.3,0.9V339.4z M173.9,341.2
			c-0.7,0-1.3,0.2-1.8,0.7c-0.5,0.5-0.7,1.1-0.7,1.9c0,0.8,0.2,1.4,0.7,1.9s1.1,0.8,1.8,0.8c0.7,0,1.3-0.2,1.8-0.7
			c0.5-0.5,0.7-1.2,0.7-2c0-0.8-0.2-1.4-0.7-1.9C175.2,341.5,174.6,341.2,173.9,341.2z"/>
		<path fill="#FFFFFF" d="M180.5,339.4h7l-4.1,7.2h3.9v1.9h-7.4l4.1-7.2h-3.5V339.4z"/>
		<path fill="#FFFFFF" d="M202.4,341.2l-1.9,1c-0.4-0.4-0.7-0.6-1.1-0.8c-0.3-0.1-0.8-0.2-1.2-0.2c-0.9,0-1.5,0.3-2.1,0.8
			s-0.8,1.2-0.8,2c0,0.8,0.3,1.4,0.8,1.9s1.2,0.7,2,0.7c1,0,1.8-0.3,2.4-1l1.8,1.2c-1,1.3-2.4,1.9-4.1,1.9c-1.6,0-2.9-0.5-3.8-1.4
			s-1.4-2.1-1.4-3.3c0-0.9,0.2-1.7,0.7-2.4c0.4-0.7,1.1-1.3,1.8-1.7c0.8-0.4,1.7-0.6,2.6-0.6c0.9,0,1.7,0.2,2.4,0.5
			C201.4,340,202,340.5,202.4,341.2z"/>
		<path fill="#FFFFFF" d="M204.2,335.8h2.3v12.6h-2.3V335.8z"/>
		<path fill="#FFFFFF" d="M209.5,335.6c0.4,0,0.7,0.1,1,0.4c0.3,0.3,0.4,0.6,0.4,1.1c0,0.4-0.1,0.8-0.4,1c-0.3,0.3-0.6,0.4-1,0.4
			c-0.4,0-0.8-0.1-1-0.4c-0.3-0.3-0.4-0.6-0.4-1.1c0-0.4,0.1-0.7,0.4-1C208.7,335.8,209.1,335.6,209.5,335.6z M208.3,339.4h2.3v9.1
			h-2.3V339.4z"/>
		<path fill="#FFFFFF" d="M221.6,341.2l-1.9,1c-0.4-0.4-0.7-0.6-1.1-0.8c-0.3-0.1-0.8-0.2-1.2-0.2c-0.9,0-1.5,0.3-2.1,0.8
			s-0.8,1.2-0.8,2c0,0.8,0.3,1.4,0.8,1.9s1.2,0.7,2,0.7c1,0,1.8-0.3,2.4-1l1.8,1.2c-1,1.3-2.4,1.9-4.1,1.9c-1.6,0-2.9-0.5-3.8-1.4
			s-1.4-2.1-1.4-3.3c0-0.9,0.2-1.7,0.7-2.4c0.4-0.7,1.1-1.3,1.8-1.7c0.8-0.4,1.7-0.6,2.6-0.6c0.9,0,1.7,0.2,2.4,0.5
			C220.5,340,221.1,340.5,221.6,341.2z"/>
		<path fill="#FFFFFF" d="M230.7,339.4v1c0.4-0.4,0.9-0.7,1.3-0.9c0.5-0.2,1-0.3,1.5-0.3c1.2,0,2.2,0.4,3,1.3s1.2,2,1.2,3.5
			c0,1.4-0.4,2.5-1.3,3.4c-0.9,0.9-1.9,1.4-3.1,1.4c-0.5,0-1-0.1-1.5-0.3c-0.5-0.2-0.9-0.5-1.3-0.9v4.3h-2.3v-12.4H230.7z
			 M233.1,341.2c-0.7,0-1.3,0.2-1.8,0.7c-0.5,0.5-0.7,1.1-0.7,1.9c0,0.8,0.2,1.5,0.7,2c0.5,0.5,1.1,0.7,1.8,0.7
			c0.7,0,1.3-0.3,1.8-0.8c0.5-0.5,0.7-1.2,0.7-1.9c0-0.8-0.2-1.4-0.7-1.9S233.8,341.2,233.1,341.2z"/>
		<path fill="#FFFFFF" d="M246.5,339.4h2.3v9.1h-2.3v-1c-0.4,0.4-0.9,0.7-1.3,0.9c-0.4,0.2-0.9,0.3-1.5,0.3c-1.2,0-2.2-0.5-3-1.4
			c-0.9-0.9-1.3-2-1.3-3.4c0-1.4,0.4-2.6,1.2-3.5s1.8-1.3,3-1.3c0.5,0,1.1,0.1,1.5,0.3c0.5,0.2,0.9,0.5,1.3,0.9V339.4z M244.1,341.2
			c-0.7,0-1.3,0.2-1.8,0.7c-0.5,0.5-0.7,1.1-0.7,1.9c0,0.8,0.2,1.4,0.7,1.9s1.1,0.8,1.8,0.8c0.7,0,1.3-0.2,1.8-0.7
			c0.5-0.5,0.7-1.2,0.7-2c0-0.8-0.2-1.4-0.7-1.9C245.4,341.5,244.8,341.2,244.1,341.2z"/>
		<path fill="#FFFFFF" d="M250.5,339.4h2v1.1c0.2-0.5,0.5-0.8,0.8-1c0.4-0.2,0.7-0.4,1.2-0.4c0.3,0,0.6,0.1,0.9,0.2l-0.7,2
			c-0.3-0.1-0.5-0.2-0.7-0.2c-0.4,0-0.6,0.2-0.9,0.7c-0.2,0.4-0.4,1.3-0.4,2.6l0,0.4v3.7h-2.3V339.4z"/>
		<path fill="#FFFFFF" d="M263.2,339.4h2.3v9.1h-2.3v-1c-0.4,0.4-0.9,0.7-1.3,0.9c-0.4,0.2-0.9,0.3-1.5,0.3c-1.2,0-2.2-0.5-3-1.4
			c-0.9-0.9-1.3-2-1.3-3.4c0-1.4,0.4-2.6,1.2-3.5s1.8-1.3,3-1.3c0.5,0,1.1,0.1,1.5,0.3c0.5,0.2,0.9,0.5,1.3,0.9V339.4z M260.8,341.2
			c-0.7,0-1.3,0.2-1.8,0.7c-0.5,0.5-0.7,1.1-0.7,1.9c0,0.8,0.2,1.4,0.7,1.9s1.1,0.8,1.8,0.8c0.7,0,1.3-0.2,1.8-0.7
			c0.5-0.5,0.7-1.2,0.7-2c0-0.8-0.2-1.4-0.7-1.9C262.2,341.5,261.6,341.2,260.8,341.2z"/>
		<path fill="#FFFFFF" d="M276.9,339.1c0.9,0,1.7,0.2,2.4,0.6s1.3,1,1.8,1.7c0.4,0.7,0.6,1.5,0.6,2.4c0,0.9-0.2,1.7-0.6,2.4
			c-0.4,0.7-1,1.3-1.7,1.8s-1.5,0.6-2.4,0.6c-1.3,0-2.4-0.5-3.3-1.4c-0.9-0.9-1.4-2.1-1.4-3.4c0-1.4,0.5-2.6,1.6-3.6
			C274.7,339.5,275.7,339.1,276.9,339.1z M276.9,341.3c-0.7,0-1.3,0.2-1.8,0.7c-0.5,0.5-0.7,1.1-0.7,1.9c0,0.8,0.2,1.4,0.7,1.9
			c0.5,0.5,1.1,0.7,1.8,0.7c0.7,0,1.3-0.2,1.8-0.7c0.5-0.5,0.7-1.1,0.7-1.9c0-0.8-0.2-1.4-0.7-1.9
			C278.3,341.5,277.7,341.3,276.9,341.3z"/>
		<path fill="#FFFFFF" d="M285.8,335.8v4.5c0.4-0.4,0.9-0.7,1.3-0.9c0.5-0.2,1-0.3,1.5-0.3c1.2,0,2.2,0.4,3,1.3s1.2,2,1.2,3.5
			c0,1.4-0.4,2.5-1.3,3.4c-0.9,0.9-1.9,1.4-3.1,1.4c-0.5,0-1-0.1-1.5-0.3c-0.5-0.2-0.9-0.5-1.3-0.9v1h-2.3v-12.6H285.8z
			 M288.2,341.2c-0.7,0-1.3,0.2-1.8,0.7c-0.5,0.5-0.7,1.1-0.7,1.9c0,0.8,0.2,1.5,0.7,2c0.5,0.5,1.1,0.7,1.8,0.7
			c0.7,0,1.3-0.3,1.8-0.8c0.5-0.5,0.7-1.2,0.7-1.9c0-0.8-0.2-1.4-0.7-1.9S289,341.2,288.2,341.2z"/>
		<path fill="#FFFFFF" d="M295.2,336h2.3v3.4h1.4v2h-1.4v7.1h-2.3v-7.1H294v-2h1.2V336z"/>
		<path fill="#FFFFFF" d="M309.1,344.6h-7.3c0.1,0.6,0.4,1.2,0.8,1.5s1,0.6,1.8,0.6c0.9,0,1.6-0.3,2.2-0.9l1.9,0.9
			c-0.5,0.7-1.1,1.2-1.7,1.5s-1.5,0.5-2.4,0.5c-1.4,0-2.6-0.4-3.5-1.3s-1.3-2-1.3-3.4c0-1.4,0.4-2.5,1.3-3.5c0.9-0.9,2-1.4,3.4-1.4
			c1.4,0,2.6,0.5,3.5,1.4s1.3,2.1,1.3,3.6L309.1,344.6z M306.9,342.8c-0.2-0.5-0.4-0.9-0.9-1.2s-1-0.5-1.5-0.5
			c-0.6,0-1.2,0.2-1.7,0.5c-0.3,0.2-0.6,0.6-0.8,1.2H306.9z"/>
		<path fill="#FFFFFF" d="M311,339.4h2.3v0.9c0.5-0.4,1-0.7,1.4-0.9c0.4-0.2,0.9-0.3,1.3-0.3c0.9,0,1.7,0.3,2.3,0.9
			c0.5,0.5,0.8,1.3,0.8,2.4v6h-2.3v-4c0-1.1,0-1.8-0.1-2.2c-0.1-0.4-0.3-0.6-0.5-0.8c-0.2-0.2-0.5-0.3-0.9-0.3
			c-0.5,0-0.9,0.2-1.2,0.5c-0.3,0.3-0.6,0.7-0.7,1.3c-0.1,0.3-0.1,0.9-0.1,1.8v3.7H311V339.4z"/>
		<path fill="#FFFFFF" d="M330.4,344.6H323c0.1,0.6,0.4,1.2,0.8,1.5s1,0.6,1.8,0.6c0.9,0,1.6-0.3,2.2-0.9l1.9,0.9
			c-0.5,0.7-1.1,1.2-1.7,1.5s-1.5,0.5-2.4,0.5c-1.4,0-2.6-0.4-3.5-1.3s-1.3-2-1.3-3.4c0-1.4,0.4-2.5,1.3-3.5c0.9-0.9,2-1.4,3.4-1.4
			c1.4,0,2.6,0.5,3.5,1.4s1.3,2.1,1.3,3.6L330.4,344.6z M328.1,342.8c-0.2-0.5-0.4-0.9-0.9-1.2s-1-0.5-1.5-0.5
			c-0.6,0-1.2,0.2-1.7,0.5c-0.3,0.2-0.6,0.6-0.8,1.2H328.1z"/>
		<path fill="#FFFFFF" d="M331.7,339.4h2v1.1c0.2-0.5,0.5-0.8,0.8-1c0.4-0.2,0.7-0.4,1.2-0.4c0.3,0,0.6,0.1,0.9,0.2l-0.7,2
			c-0.3-0.1-0.5-0.2-0.7-0.2c-0.4,0-0.6,0.2-0.9,0.7c-0.2,0.4-0.4,1.3-0.4,2.6l0,0.4v3.7h-2.3V339.4z"/>
		<path fill="#FFFFFF" d="M180.7,356.4h2.3v1c0.4-0.4,0.8-0.7,1.3-1c0.5-0.2,1-0.3,1.6-0.3c0.6,0,1.1,0.1,1.5,0.4
			c0.5,0.3,0.8,0.7,1.1,1.2c0.4-0.5,0.8-0.9,1.3-1.2c0.5-0.3,1.1-0.4,1.7-0.4c0.6,0,1.2,0.2,1.7,0.5c0.5,0.3,0.8,0.7,1.1,1.2
			c0.2,0.5,0.3,1.3,0.3,2.4v5.3h-2.3v-4.6c0-1-0.1-1.7-0.4-2.1c-0.3-0.4-0.6-0.5-1.2-0.5c-0.4,0-0.7,0.1-1,0.3
			c-0.3,0.2-0.5,0.5-0.7,0.9c-0.2,0.4-0.2,1-0.2,1.9v4.1h-2.3V361c0-0.8-0.1-1.4-0.2-1.8c-0.1-0.4-0.3-0.6-0.5-0.8
			c-0.2-0.2-0.5-0.3-0.9-0.3c-0.4,0-0.7,0.1-1,0.3c-0.3,0.2-0.5,0.5-0.7,0.9c-0.2,0.4-0.2,1-0.2,1.9v4h-2.3V356.4z"/>
		<path fill="#FFFFFF" d="M203.5,356.4h2.3v9.1h-2.3v-1c-0.4,0.4-0.9,0.7-1.3,0.9c-0.4,0.2-0.9,0.3-1.5,0.3c-1.2,0-2.2-0.5-3-1.4
			c-0.9-0.9-1.3-2-1.3-3.4c0-1.4,0.4-2.6,1.2-3.5s1.8-1.3,3-1.3c0.5,0,1.1,0.1,1.5,0.3c0.5,0.2,0.9,0.5,1.3,0.9V356.4z M201.1,358.2
			c-0.7,0-1.3,0.2-1.8,0.7c-0.5,0.5-0.7,1.1-0.7,1.9c0,0.8,0.2,1.4,0.7,1.9c0.5,0.5,1.1,0.8,1.8,0.8c0.7,0,1.3-0.2,1.8-0.7
			s0.7-1.2,0.7-2c0-0.8-0.2-1.4-0.7-1.9C202.4,358.5,201.8,358.2,201.1,358.2z M201.7,351.4h2.7l-3.1,3.3h-1.6L201.7,351.4z"/>
		<path fill="#FFFFFF" d="M213.6,357.6l-1.4,1.4c-0.6-0.6-1.1-0.9-1.6-0.9c-0.3,0-0.5,0.1-0.6,0.2s-0.2,0.2-0.2,0.4
			c0,0.1,0,0.2,0.1,0.3c0.1,0.1,0.3,0.2,0.7,0.4l0.8,0.4c0.9,0.4,1.5,0.9,1.8,1.3c0.3,0.5,0.5,1,0.5,1.6c0,0.8-0.3,1.5-0.9,2
			s-1.4,0.8-2.4,0.8c-1.3,0-2.4-0.5-3.2-1.6l1.4-1.5c0.3,0.3,0.6,0.6,0.9,0.8s0.7,0.3,1,0.3c0.3,0,0.5-0.1,0.7-0.2
			c0.2-0.1,0.3-0.3,0.3-0.5c0-0.4-0.3-0.7-1-1l-0.8-0.4c-1.5-0.7-2.2-1.7-2.2-2.8c0-0.7,0.3-1.3,0.8-1.8c0.6-0.5,1.3-0.8,2.1-0.8
			c0.6,0,1.1,0.1,1.7,0.4C212.8,356.8,213.3,357.1,213.6,357.6z"/>
		<path fill="#FFFFFF" d="M221.3,352.6c0.4,0,0.7,0.1,1,0.4c0.3,0.3,0.4,0.6,0.4,1.1c0,0.4-0.1,0.8-0.4,1c-0.3,0.3-0.6,0.4-1,0.4
			c-0.4,0-0.8-0.1-1-0.4c-0.3-0.3-0.4-0.6-0.4-1.1c0-0.4,0.1-0.7,0.4-1C220.5,352.8,220.9,352.6,221.3,352.6z M220.1,356.4h2.3v9.1
			h-2.3V356.4z"/>
		<path fill="#FFFFFF" d="M224.5,356.4h2.3v0.9c0.5-0.4,1-0.7,1.4-0.9c0.4-0.2,0.9-0.3,1.3-0.3c0.9,0,1.7,0.3,2.3,0.9
			c0.5,0.5,0.8,1.3,0.8,2.4v6h-2.3v-4c0-1.1,0-1.8-0.1-2.2c-0.1-0.4-0.3-0.6-0.5-0.8c-0.2-0.2-0.5-0.3-0.9-0.3
			c-0.5,0-0.9,0.2-1.2,0.5c-0.3,0.3-0.6,0.7-0.7,1.3c-0.1,0.3-0.1,0.9-0.1,1.8v3.7h-2.3V356.4z"/>
		<path fill="#FFFFFF" d="M233.7,356.4h0.8c0-1.2,0-1.9,0.1-2.1c0.1-0.5,0.3-0.9,0.6-1.2c0.4-0.3,0.9-0.4,1.5-0.4
			c0.5,0,1,0.1,1.6,0.3v1.7c-0.3-0.1-0.6-0.1-0.8-0.1c-0.3,0-0.5,0.1-0.6,0.2c-0.1,0.1-0.1,0.3-0.1,0.5l0,1.1h1.4v1.9h-1.4v7.2h-2.3
			v-7.2h-0.8V356.4z"/>
		<path fill="#FFFFFF" d="M243.8,356.1c0.9,0,1.7,0.2,2.4,0.6c0.8,0.4,1.3,1,1.8,1.7c0.4,0.7,0.6,1.5,0.6,2.4c0,0.9-0.2,1.7-0.6,2.4
			c-0.4,0.7-1,1.3-1.7,1.8s-1.5,0.6-2.4,0.6c-1.3,0-2.4-0.5-3.3-1.4c-0.9-0.9-1.4-2.1-1.4-3.4c0-1.4,0.5-2.6,1.6-3.6
			C241.6,356.5,242.7,356.1,243.8,356.1z M243.9,358.3c-0.7,0-1.3,0.2-1.8,0.7c-0.5,0.5-0.7,1.1-0.7,1.9c0,0.8,0.2,1.4,0.7,1.9
			c0.5,0.5,1.1,0.7,1.8,0.7c0.7,0,1.3-0.2,1.8-0.7s0.7-1.1,0.7-1.9s-0.2-1.4-0.7-1.9S244.6,358.3,243.9,358.3z"/>
		<path fill="#FFFFFF" d="M250,356.4h2v1.1c0.2-0.5,0.5-0.8,0.8-1s0.7-0.4,1.2-0.4c0.3,0,0.6,0.1,0.9,0.2l-0.7,2
			c-0.3-0.1-0.5-0.2-0.7-0.2c-0.4,0-0.6,0.2-0.9,0.7c-0.2,0.4-0.4,1.3-0.4,2.6l0,0.4v3.7H250V356.4z"/>
		<path fill="#FFFFFF" d="M256,356.4h2.3v1c0.4-0.4,0.8-0.7,1.3-1c0.5-0.2,1-0.3,1.6-0.3c0.6,0,1.1,0.1,1.5,0.4
			c0.5,0.3,0.8,0.7,1.1,1.2c0.4-0.5,0.8-0.9,1.3-1.2c0.5-0.3,1.1-0.4,1.7-0.4c0.6,0,1.2,0.2,1.7,0.5c0.5,0.3,0.8,0.7,1.1,1.2
			c0.2,0.5,0.3,1.3,0.3,2.4v5.3h-2.3v-4.6c0-1-0.1-1.7-0.4-2.1c-0.3-0.4-0.6-0.5-1.2-0.5c-0.4,0-0.7,0.1-1,0.3
			c-0.3,0.2-0.5,0.5-0.7,0.9c-0.2,0.4-0.2,1-0.2,1.9v4.1h-2.3V361c0-0.8-0.1-1.4-0.2-1.8c-0.1-0.4-0.3-0.6-0.5-0.8
			c-0.2-0.2-0.5-0.3-0.9-0.3c-0.4,0-0.7,0.1-1,0.3c-0.3,0.2-0.5,0.5-0.7,0.9c-0.2,0.4-0.2,1-0.2,1.9v4H256V356.4z"/>
		<path fill="#FFFFFF" d="M278.8,356.4h2.3v9.1h-2.3v-1c-0.4,0.4-0.9,0.7-1.3,0.9c-0.4,0.2-0.9,0.3-1.5,0.3c-1.2,0-2.2-0.5-3-1.4
			c-0.9-0.9-1.3-2-1.3-3.4c0-1.4,0.4-2.6,1.2-3.5s1.8-1.3,3-1.3c0.5,0,1.1,0.1,1.5,0.3c0.5,0.2,0.9,0.5,1.3,0.9V356.4z M276.4,358.2
			c-0.7,0-1.3,0.2-1.8,0.7c-0.5,0.5-0.7,1.1-0.7,1.9c0,0.8,0.2,1.4,0.7,1.9c0.5,0.5,1.1,0.8,1.8,0.8c0.7,0,1.3-0.2,1.8-0.7
			s0.7-1.2,0.7-2c0-0.8-0.2-1.4-0.7-1.9C277.7,358.5,277.1,358.2,276.4,358.2z"/>
		<path fill="#FFFFFF" d="M292.3,358.2l-1.9,1c-0.4-0.4-0.7-0.6-1.1-0.8c-0.3-0.1-0.8-0.2-1.2-0.2c-0.9,0-1.5,0.3-2.1,0.8
			c-0.5,0.5-0.8,1.2-0.8,2c0,0.8,0.3,1.4,0.8,1.9c0.5,0.5,1.2,0.7,2,0.7c1,0,1.8-0.3,2.4-1l1.8,1.2c-1,1.3-2.4,1.9-4.1,1.9
			c-1.6,0-2.9-0.5-3.8-1.4s-1.4-2.1-1.4-3.3c0-0.9,0.2-1.7,0.7-2.4c0.4-0.7,1.1-1.3,1.8-1.7c0.8-0.4,1.7-0.6,2.6-0.6
			c0.9,0,1.7,0.2,2.4,0.5C291.3,357,291.9,357.5,292.3,358.2z"/>
		<path fill="#FFFFFF" d="M295.3,352.6c0.4,0,0.7,0.1,1,0.4c0.3,0.3,0.4,0.6,0.4,1.1c0,0.4-0.1,0.8-0.4,1c-0.3,0.3-0.6,0.4-1,0.4
			c-0.4,0-0.8-0.1-1-0.4c-0.3-0.3-0.4-0.6-0.4-1.1c0-0.4,0.1-0.7,0.4-1C294.5,352.8,294.9,352.6,295.3,352.6z M294.1,356.4h2.3v9.1
			h-2.3V356.4z"/>
		<path fill="#FFFFFF" d="M302.7,356.1c0.9,0,1.7,0.2,2.4,0.6c0.8,0.4,1.3,1,1.8,1.7c0.4,0.7,0.6,1.5,0.6,2.4c0,0.9-0.2,1.7-0.6,2.4
			c-0.4,0.7-1,1.3-1.7,1.8s-1.5,0.6-2.4,0.6c-1.3,0-2.4-0.5-3.3-1.4c-0.9-0.9-1.4-2.1-1.4-3.4c0-1.4,0.5-2.6,1.6-3.6
			C300.5,356.5,301.6,356.1,302.7,356.1z M302.8,358.3c-0.7,0-1.3,0.2-1.8,0.7c-0.5,0.5-0.7,1.1-0.7,1.9c0,0.8,0.2,1.4,0.7,1.9
			c0.5,0.5,1.1,0.7,1.8,0.7c0.7,0,1.3-0.2,1.8-0.7s0.7-1.1,0.7-1.9s-0.2-1.4-0.7-1.9S303.5,358.3,302.8,358.3z M303.2,351.4h2.7
			l-3.1,3.3h-1.6L303.2,351.4z"/>
		<path fill="#FFFFFF" d="M309.4,356.4h2.3v0.9c0.5-0.4,1-0.7,1.4-0.9c0.4-0.2,0.9-0.3,1.3-0.3c0.9,0,1.7,0.3,2.3,0.9
			c0.5,0.5,0.8,1.3,0.8,2.4v6h-2.3v-4c0-1.1,0-1.8-0.1-2.2c-0.1-0.4-0.3-0.6-0.5-0.8c-0.2-0.2-0.5-0.3-0.9-0.3
			c-0.5,0-0.9,0.2-1.2,0.5c-0.3,0.3-0.6,0.7-0.7,1.3c-0.1,0.3-0.1,0.9-0.1,1.8v3.7h-2.3V356.4z"/>
	</g>
	<path fill="#FFFFFF" d="M101.2,286.3h1.2v-1.8h-4.3l-3.1,8.1l-3.1-8.1h-4.3v1.8h1.2v7.8h-1.2v1.8h4.8v-1.8H91v-6.6l3.2,8.5h1.5
		l3.2-8.5v6.6h-1.2v1.8h4.7v-1.8h-1.2V286.3z M111.8,287.4h-3.1v1.8h1.1v2.8c0,0.6,0,1.2-0.4,1.7c-0.3,0.4-0.9,0.7-1.4,0.7
		c-0.6,0-1.1-0.2-1.4-0.7c-0.3-0.5-0.3-1.1-0.3-1.6v-4.6h-3.1v1.8h1.1v3.4c0,0.9,0.1,1.7,0.8,2.5c0.6,0.7,1.5,1.1,2.4,1.1
		c1,0,2-0.4,2.6-1.3v1.1h2.9v-1.8h-1.1V287.4z M114,293.5v2.5h1.5v-0.7c0.6,0.7,1.3,0.9,2.2,0.9c1.6,0,3.1-1,3.1-2.7
		c0-1.9-1.6-2.4-3.2-2.8c-0.6-0.1-1.4-0.3-1.4-1.1c0-0.6,0.6-0.9,1.1-0.9c0.6,0,1.1,0.4,1.1,1h1.9v-2.3h-1.4v0.6
		c-0.5-0.6-1.2-0.8-1.9-0.8c-1.5,0-2.9,0.9-2.9,2.6c0,1.9,1.6,2.3,3.1,2.7c0.7,0.2,1.5,0.3,1.5,1.2c0,0.6-0.6,1.1-1.2,1.1
		c-0.8,0-1.3-0.5-1.4-1.3H114z M128,293.4c-0.5,0.7-1.2,1-2.1,1c-1.2,0-2.3-0.9-2.6-2h6.9l0.1-0.7c0-1.2-0.4-2.3-1.2-3.2
		c-0.8-0.8-2-1.4-3.2-1.4c-2.5,0-4.4,2-4.4,4.6c0,2.5,2,4.5,4.5,4.5c1.8,0,3.4-1.1,4-2.7H128z M123.3,290.9c0.2-1.1,1.3-2,2.5-2
		c1.3,0,2.4,0.8,2.7,2H123.3z M135.5,296.2c2.5,0,4.5-2,4.5-4.5c0-2.4-2-4.5-4.4-4.5c-2.5,0-4.5,2-4.5,4.5
		C131,294.1,133,296.2,135.5,296.2 M135.5,294.2c-1.5,0-2.5-1.2-2.5-2.6c0-1.4,1.2-2.6,2.6-2.6c1.4,0,2.5,1.2,2.5,2.6
		C138.1,293.1,136.9,294.2,135.5,294.2 M156.7,286.3h1.2v-1.8h-4.7v1.8h1.2v5.8l-5.4-7.7h-3.2v1.8h1.2v7.8h-1.2v1.8h4.7v-1.8h-1.2
		v-5.7l5.4,7.5h2V286.3z M166,295.9h3.1v-1.8H168v-4.9h1.1v-1.8H166v1.2c-0.6-0.9-1.6-1.4-2.7-1.4c-2.5,0-4.5,2.1-4.5,4.5
		c0,2.4,1.9,4.5,4.4,4.5c1.1,0,2.1-0.4,2.8-1.4V295.9z M163.4,294.3c-1.4,0-2.5-1.2-2.5-2.5c0-1.4,1.1-2.6,2.6-2.6
		c1.4,0,2.6,1.1,2.6,2.5C166,293.1,164.9,294.3,163.4,294.3 M176.3,293.1c-0.4,0.8-1.2,1.2-2,1.2c-1.4,0-2.6-1.1-2.6-2.6
		c0-1.4,1.1-2.6,2.5-2.6c0.4,0,0.8,0.1,1.2,0.3c0.4,0.2,0.7,0.5,0.9,0.8h1.8v-2.9h-1.7v0.8c-0.6-0.7-1.5-1.1-2.4-1.1
		c-2.4,0-4.3,2.2-4.3,4.5c0,2.5,2,4.5,4.5,4.5c1.9,0,3.7-1.3,4.2-3.1H176.3z M182.5,287.4h-3.1v1.8h1.1v4.9h-1.1v1.8h4.2v-1.8h-1.1
		V287.4z M182.5,284.5h-2v2.1h2V284.5z M188.9,296.2c2.5,0,4.5-2,4.5-4.5c0-2.4-2-4.5-4.5-4.5c-2.5,0-4.5,2-4.5,4.5
		C184.5,294.1,186.4,296.2,188.9,296.2 M188.9,294.2c-1.5,0-2.5-1.2-2.5-2.6c0-1.4,1.2-2.6,2.6-2.6c1.4,0,2.5,1.2,2.5,2.6
		C191.5,293.1,190.4,294.2,188.9,294.2 M195.3,294.1h-1.1v1.8h4.2v-1.8h-1.1v-2.5c0-0.6,0-1.3,0.4-1.8c0.4-0.5,1-0.7,1.6-0.7
		c0.6,0,1.2,0.2,1.5,0.7c0.3,0.5,0.3,1,0.3,1.5v2.8h-1.1v1.8h4.2v-1.8h-1.1v-3.3c0-1,0-1.7-0.7-2.5c-0.6-0.7-1.5-1.1-2.5-1.1
		c-1.1,0-2,0.5-2.5,1.4v-1.2h-3.1v1.8h1.1V294.1z M211.8,295.9h3.1v-1.8h-1.1v-4.9h1.1v-1.8h-3.1v1.2c-0.6-0.9-1.6-1.4-2.7-1.4
		c-2.5,0-4.5,2.1-4.5,4.5c0,2.4,1.9,4.5,4.4,4.5c1.1,0,2.1-0.4,2.8-1.4V295.9z M209.2,294.3c-1.4,0-2.5-1.2-2.5-2.5
		c0-1.4,1.1-2.6,2.6-2.6c1.4,0,2.6,1.1,2.6,2.5C211.8,293.1,210.7,294.3,209.2,294.3 M218.7,284.5h-3.1v1.8h1.1v7.8h-1.2v1.8h4.2
		v-1.8h-1.1V284.5z M232.9,295.9h3.1v-1.8h-1.1v-9.6h-3.1v1.8h1.1v2.3c-0.7-0.9-1.7-1.4-2.8-1.4c-2.4,0-4.3,2-4.3,4.4
		c0,2.4,2,4.4,4.4,4.4c1.1,0,2.2-0.4,2.8-1.4V295.9z M230.4,294.3c-1.4,0-2.6-1.2-2.6-2.6c0-1.5,1.2-2.6,2.6-2.6
		c1.4,0,2.6,1.2,2.6,2.6C233,293.1,231.8,294.3,230.4,294.3 M243.2,293.4c-0.5,0.7-1.2,1-2.1,1c-1.2,0-2.3-0.9-2.6-2h6.9l0.1-0.7
		c0-1.2-0.4-2.3-1.2-3.2c-0.8-0.8-2-1.4-3.2-1.4c-2.5,0-4.4,2-4.4,4.6c0,2.5,2,4.5,4.5,4.5c1.8,0,3.4-1.1,4-2.7H243.2z M238.5,290.9
		c0.2-1.1,1.3-2,2.5-2c1.3,0,2.4,0.8,2.7,2H238.5z M258.8,295.9h4.8v-1.8h-1.2l-4-9.6h-3.8v1.8h1.3l-3.3,7.8h-1.2v1.8h4.7v-1.6h-1.2
		l0.7-1.7h4l0.7,1.7h-1.3V295.9z M258.8,290.9h-2.9l1.5-3.9h0L258.8,290.9z M265.3,294.1h-1.1v1.8h4.2v-1.8h-1.1v-2.5
		c0-0.6,0-1.3,0.4-1.8c0.4-0.5,1-0.7,1.6-0.7c0.6,0,1.2,0.2,1.5,0.7c0.3,0.5,0.3,1,0.3,1.5v2.8H270v1.8h4.2v-1.8H273v-3.3
		c0-1,0-1.7-0.7-2.5c-0.6-0.7-1.5-1.1-2.5-1.1c-1.1,0-2,0.5-2.5,1.4v-1.2h-3.1v1.8h1.1V294.1z M278,289.2h1.5v-1.8H278v-2.9h-2v2.9
		h-1.3v1.8h1.3v6.7h3.5v-1.8H278V289.2z M283.5,287.4h-2.9v1.8h1.1v4.9h-1.1v1.8h4.2v-1.8h-1.1V292c0-0.8,0.1-1.5,0.7-2
		c0.5-0.4,1.1-0.6,1.7-0.6v-2c-1.1,0-2.1,0.5-2.6,1.6V287.4z M291.4,296.2c2.5,0,4.5-2,4.5-4.5c0-2.4-2-4.5-4.5-4.5
		c-2.5,0-4.5,2-4.5,4.5C287,294.1,288.9,296.2,291.4,296.2 M291.4,294.2c-1.5,0-2.5-1.2-2.5-2.6c0-1.4,1.2-2.6,2.6-2.6
		c1.4,0,2.5,1.2,2.5,2.6C294,293.1,292.9,294.2,291.4,294.2 M297.7,297.2h-1.1v1.8h4.2v-1.8h-1.1v-2.5c0.7,0.9,1.8,1.3,2.9,1.3
		c2.4,0,4.3-2,4.3-4.4c0-2.4-1.9-4.4-4.4-4.4c-1.2,0-2.2,0.5-2.8,1.4v-1.3h-3.1v1.8h1.1V297.2z M302.3,294.3c-1.4,0-2.6-1.2-2.6-2.6
		c0-1.5,1.2-2.6,2.6-2.6c1.4,0,2.5,1.2,2.5,2.6C304.8,293.1,303.7,294.3,302.3,294.3 M311.9,296.2c2.5,0,4.5-2,4.5-4.5
		c0-2.4-2-4.5-4.5-4.5c-2.5,0-4.5,2-4.5,4.5C307.5,294.1,309.4,296.2,311.9,296.2 M311.9,294.2c-1.5,0-2.5-1.2-2.5-2.6
		c0-1.4,1.2-2.6,2.6-2.6c1.4,0,2.5,1.2,2.5,2.6C314.5,293.1,313.3,294.2,311.9,294.2 M320.3,284.5h-3.1v1.8h1.1v7.8h-1.2v1.8h4.2
		v-1.8h-1.1V284.5z M326.6,296.2c2.5,0,4.5-2,4.5-4.5c0-2.4-2-4.5-4.5-4.5c-2.5,0-4.5,2-4.5,4.5
		C322.2,294.1,324.1,296.2,326.6,296.2 M326.6,294.2c-1.5,0-2.5-1.2-2.5-2.6c0-1.4,1.2-2.6,2.6-2.6c1.4,0,2.5,1.2,2.5,2.6
		C329.2,293.1,328.1,294.2,326.6,294.2 M332.3,296.7c0.4,1.9,2.3,2.7,4.1,2.7c1.3,0,2.4-0.4,3.3-1.3c1-1,1.1-2,1.1-3.3v-5.6h1.1
		v-1.8H339v1.2c-0.6-1-1.7-1.4-2.8-1.4c-2.4,0-4.3,2-4.3,4.4c0,2.4,1.9,4.4,4.3,4.4c1.2,0,2.1-0.4,2.7-1.4v0.3c0,0.8,0,1.3-0.6,2
		c-0.4,0.5-1.1,0.8-1.8,0.8c-0.8,0-1.6-0.3-1.9-1.1H332.3z M333.8,291.6c0-1.4,1.2-2.6,2.6-2.6c1.4,0,2.6,1.2,2.6,2.6
		c0,1.4-1.1,2.6-2.6,2.6C334.9,294.3,333.8,293.1,333.8,291.6 M345.8,287.4h-3.1v1.8h1.1v4.9h-1.1v1.8h4.2v-1.8h-1.1V287.4z
		 M343,286.3l4.4-2.1l-0.8-1.7l-4.2,2.4L343,286.3z M354.9,295.9h3.1v-1.8h-1.1v-4.9h1.1v-1.8h-3.1v1.2c-0.6-0.9-1.6-1.4-2.7-1.4
		c-2.5,0-4.5,2.1-4.5,4.5c0,2.4,1.9,4.5,4.4,4.5c1.1,0,2.1-0.4,2.8-1.4V295.9z M352.3,294.3c-1.4,0-2.5-1.2-2.5-2.5
		c0-1.4,1.1-2.6,2.6-2.6c1.4,0,2.6,1.1,2.6,2.5C354.9,293.1,353.8,294.3,352.3,294.3 M360.7,295.9v0.2c0,0.5,0,1-0.7,1h-0.2v1.1h0.3
		c0.5,0,0.9,0,1.3-0.5c0.4-0.4,0.4-0.9,0.4-1.5v-2.6h-2v2.3H360.7z M380.2,288.1v-3.7h-1.8v1.2c-0.9-1-2.2-1.4-3.5-1.4
		c-3.2,0-5.8,2.7-5.8,5.9c0,1.6,0.6,3.1,1.7,4.3c1.1,1.1,2.7,1.8,4.2,1.8c2.4,0,4.8-1.6,5.6-4h-2.4c-0.7,1.1-1.9,1.7-3.2,1.7
		c-2.1,0-3.7-1.7-3.7-3.8c0-2.1,1.6-3.8,3.7-3.8c1.2,0,2.5,0.7,3.2,1.7H380.2z M381.5,295.9h5.4c1.7,0,3-0.4,4.2-1.7
		c1-1.1,1.5-2.5,1.5-4c0-1.6-0.5-3.1-1.6-4.2c-1.2-1.2-2.4-1.5-4-1.5h-5.4v1.8h1.2v7.8h-1.2V295.9z M385,286.5h1.7
		c1.1,0,1.9,0.1,2.7,0.9c0.7,0.8,1,1.9,1,2.9c0,0.9-0.3,2-0.9,2.7c-0.8,0.9-1.7,1-2.8,1H385V286.5z M407.2,286.3h1.2v-1.8h-4.3
		l-3.1,8.1l-3.1-8.1h-4.3v1.8h1.2v7.8h-1.2v1.8h4.8v-1.8h-1.3v-6.6l3.3,8.5h1.5l3.2-8.5v6.6h-1.2v1.8h4.7v-1.8h-1.2V286.3z
		 M420.6,294.1h-1.2l-3.2-4l3.1-3.8h1.2v-1.8h-4.7v1.7h1.1l-1.8,2.4l-1.8-2.4h1.1v-1.7h-4.7v1.8h1.2l3,3.8l-3.2,4h-1.1v1.8h4.7v-1.7
		h-1.1l2.1-2.6l2,2.6h-1.1v1.7h4.7V294.1z"/>
</g>
<g id="Capa_2">
</g>
</svg>
