<?xml version="1.0" encoding="utf-8"?>
<!-- Generator: Adobe Illustrator 18.0.0, SVG Export Plug-In . SVG Version: 6.00 Build 0)  -->
<!DOCTYPE svg PUBLIC "-//W3C//DTD SVG 1.1//EN" "http://www.w3.org/Graphics/SVG/1.1/DTD/svg11.dtd">
<svg version="1.1" xmlns="http://www.w3.org/2000/svg" xmlns:xlink="http://www.w3.org/1999/xlink" x="0px" y="0px"
	 viewBox="0 0 511.1 505.1" enable-background="new 0 0 511.1 505.1" xml:space="preserve">
<g id="Capa_1">
	<g>
		<g>
			<path fill="#0094A1" d="M43.9,110.4c19,0,31.7-9.2,31.7-23.7c0-11.1-7.5-18-22.3-22.5c-13.5-4-16.5-5.2-16.5-7.1
				c0-1.8,1.5-2.7,6.4-2.7c8.5,0,20.7,3.2,27.7,7.3V41.2c-6.3-3-14.5-5.8-26.1-5.8c-18.2,0-31,7.1-31,22.4
				C14,71,24.4,76.9,37.6,80.9c11.1,3.3,15,4.7,15,6.9c0,2.7-3.7,3.4-8.3,3.4c-9.5,0-23.7-4.4-30.4-10.1v21.6
				C23.2,108.6,33.3,110.4,43.9,110.4"/>
			<rect x="79.9" y="36.9" fill="#B9007C" width="22.1" height="72.1"/>
			<polygon fill="#DDDB1C" points="108.8,109 130.3,109 130.3,68.6 140.9,85.8 152.8,85.8 163,68.6 163,109 184.2,109 184.2,36.9 
				162.4,36.9 146.5,62.5 130.8,36.9 108.8,36.9 			"/>
			<path fill="#009ADA" d="M223.9,36.9h-33.2V109h22.1V83.8h11c16.8,0,27.3-10.1,27.3-23.5C251.2,46.9,240.7,36.9,223.9,36.9
				 M220.9,67.8h-8V54.9h8c4.4,0,7.6,2.6,7.6,6.4C228.5,65.2,225.3,67.8,220.9,67.8"/>
			<path fill="#0094A1" d="M289.9,90.2c-9.3,0-16-7.3-16-17.3c0-10,6.7-17.3,16-17.3c9.3,0,16,7.3,16,17.3
				C305.9,82.9,299.2,90.2,289.9,90.2 M289.9,110.4c22.7,0,38.5-17.2,38.5-37.5c0-20.4-15.9-37.5-38.5-37.5
				c-22.6,0-38.6,17.1-38.6,37.5C251.3,93.2,267.4,110.4,289.9,110.4"/>
			<path fill="#B9007C" d="M361.2,110.4c19,0,31.7-9.2,31.7-23.7c0-11.1-7.5-18-22.3-22.5c-13.5-4-16.5-5.2-16.5-7.1
				c0-1.8,1.5-2.7,6.4-2.7c8.5,0,20.7,3.2,27.7,7.3V41.2c-6.3-3-14.5-5.8-26.1-5.8c-18.2,0-31,7.1-31,22.4
				c0,13.2,10.4,19.2,23.7,23.1c11.1,3.3,15,4.7,15,6.9c0,2.7-3.7,3.4-8.3,3.4c-9.5,0-23.7-4.4-30.4-10.1v21.6
				C340.5,108.6,350.6,110.4,361.2,110.4"/>
			<rect x="397.2" y="36.9" fill="#DDDB1C" width="22.1" height="72.1"/>
			<path fill="#009ADA" d="M462.7,90.2c-9.3,0-16-7.3-16-17.3c0-10,6.7-17.3,16-17.3c9.3,0,16,7.3,16,17.3
				C478.7,82.9,472,90.2,462.7,90.2 M462.7,110.4c22.7,0,38.5-17.2,38.5-37.5c0-20.4-15.9-37.5-38.5-37.5
				c-22.6,0-38.6,17.1-38.6,37.5C424.1,93.2,440.1,110.4,462.7,110.4"/>
			<path fill="#B9007C" d="M90.6,29.6c6.3,0,11.4-5.1,11.4-11.4c0-6.3-5.1-11.4-11.4-11.4c-6.3,0-11.4,5.1-11.4,11.4
				C79.2,24.4,84.3,29.6,90.6,29.6"/>
			<path fill="#DDDB1C" d="M408.8,29.6c6.3,0,11.4-5.1,11.4-11.4c0-6.3-5.1-11.4-11.4-11.4c-6.3,0-11.4,5.1-11.4,11.4
				C397.4,24.4,402.5,29.6,408.8,29.6"/>
			<path fill="#FFFFFF" d="M12.7,224.8h41.7v-10.6H29.9L40,205c9-8.3,12.4-13.7,12.4-22.1c0-11.1-10-17.9-20.8-17.9
				c-7,0-12.8,2.3-17.1,5.6V183c4.4-3.9,9.4-6.7,15.8-6.7c6,0,10.1,3.2,10.1,8.2c0,5.2-2.9,9-10.5,15.8L12.7,216V224.8z M87.7,226
				c16.1,0,25.2-14.6,25.2-30.5c0-15.9-9.1-30.5-25.2-30.5c-16.2,0-25.3,14.6-25.3,30.5C62.4,211.4,71.6,226,87.7,226 M87.7,214.7
				c-8.4,0-13.2-9-13.2-19.2c0-10.2,4.9-19.2,13.2-19.2c8.4,0,13.2,9,13.2,19.2C100.9,205.7,96.1,214.7,87.7,214.7 M131.3,224.8
				h11.8v-58.6h-10.5l-13.7,7.4v11.8l12.4-6.3V224.8z M156.6,224.8h12.8l24.8-49.3v-9.3h-41.4V177h27.7L156.6,224.8z"/>
			<path fill="#FFFFFF" d="M12.5,148h4.9v-16.3l5.6,7.6h2.7l5.5-7.6V148H36v-23.8h-4.8l-6.9,9.8l-6.9-9.8h-4.9V148z M61.3,143.9
				c-4.2,0-7.3-3.3-7.3-7.8c0-4.5,3.2-7.8,7.3-7.8s7.3,3.3,7.3,7.8C68.6,140.6,65.4,143.9,61.3,143.9 M61.3,148.5
				c7.1,0,12.3-5.5,12.3-12.4c0-6.9-5.2-12.4-12.3-12.4s-12.3,5.5-12.3,12.4C48.9,142.9,54.1,148.5,61.3,148.5 M86.5,148h8.9
				c7.7,0,13-4.9,13-11.9c0-7-5.3-11.9-13-11.9h-8.9V148z M91.4,143.6v-15H95c5.3,0,8.4,2.8,8.4,7.5c0,4.7-3.1,7.5-8.4,7.5H91.4z
				 M121.3,148h17.8v-4.4h-12.9v-6.1h10.1v-4.3h-10.1v-4.6h12.6v-4.4h-17.5V148z M151.6,148h16.9v-4.4h-12.1v-19.4h-4.9V148z
				 M190.4,143.9c-4.2,0-7.3-3.3-7.3-7.8c0-4.5,3.2-7.8,7.3-7.8c4.2,0,7.3,3.3,7.3,7.8C197.8,140.6,194.6,143.9,190.4,143.9
				 M190.4,148.5c7.1,0,12.3-5.5,12.3-12.4c0-6.9-5.2-12.4-12.3-12.4c-7.1,0-12.3,5.5-12.3,12.4
				C178.1,142.9,183.3,148.5,190.4,148.5 M232.5,148h17.8v-4.4h-12.9v-6.1h10.1v-4.3h-10.1v-4.6H250v-4.4h-17.5V148z M262.8,148h8.9
				c7.7,0,13-4.9,13-11.9c0-7-5.3-11.9-13-11.9h-8.9V148z M267.6,143.6v-15h3.6c5.3,0,8.4,2.8,8.4,7.5c0,4.7-3.1,7.5-8.4,7.5H267.6z
				 M307.4,148.5c5.7,0,10.2-3.6,10.2-10.5v-13.8h-4.9v14c0,3.9-2.3,5.7-5.3,5.7c-3,0-5.3-1.8-5.3-5.7v-14h-4.9V138
				C297.3,144.9,301.7,148.5,307.4,148.5 M343.1,148.5c2.5,0,4.9-0.6,6.8-1.7v-4.9c-1.9,1.5-4.1,2.1-6.5,2.1c-4.6,0-8.1-3.2-8.1-7.8
				c0-4.6,3.4-7.8,7.9-7.8c2.6,0,4.5,0.7,6.2,1.8v-4.9c-1.8-1-3.9-1.5-6.3-1.5c-7.4,0-12.9,5.1-12.9,12.4
				C330.2,143.4,335.8,148.5,343.1,148.5 M360.5,148h5.1l2.3-5.5H378l2.3,5.5h5.2l-10.2-23.9h-4.7L360.5,148z M369.5,138.4l3.5-8.3
				l3.5,8.3H369.5z M392.2,124.2v4.4h7.5V148h4.9v-19.4h7.5v-4.4H392.2z M424.4,148h4.9v-23.8h-4.9V148z M451.1,148.1h4.6l10-23.9
				h-5.3l-7,17.1l-6.9-17.1h-5.4L451.1,148.1z M487.3,143.9c-4.2,0-7.3-3.3-7.3-7.8c0-4.5,3.2-7.8,7.3-7.8c4.2,0,7.3,3.3,7.3,7.8
				C494.6,140.6,491.5,143.9,487.3,143.9 M487.3,148.5c7.1,0,12.3-5.5,12.3-12.4c0-6.9-5.2-12.4-12.3-12.4
				c-7.1,0-12.3,5.5-12.3,12.4C474.9,142.9,480.1,148.5,487.3,148.5"/>
			<path fill="#B9007C" d="M232.5,180.9h2.8v-5.9h6.1v5.9h2.8v-13.6h-2.8v5.1h-6.1v-5.1h-2.8V180.9z M256.3,178.8
				c-0.4,0-0.7-0.2-0.7-0.7v-3.3c0-2.4-1.9-3.8-4.6-3.8c-1.8,0-2.9,0.4-3.6,0.8v2.3c0.8-0.4,2-0.8,2.9-0.8c1.2,0,2.6,0.3,2.6,1.8
				v0.3c-0.6-0.3-1.5-0.6-2.8-0.6c-1.9,0-3.8,1-3.8,3.2c0,2,1.5,3.2,3.6,3.2c1.6,0,2.7-0.6,3.3-1.3c0.4,0.9,1.2,1.2,2.2,1.2
				c0.5,0,1.1-0.2,1.5-0.4v-2C256.7,178.7,256.4,178.8,256.3,178.8 M252.9,178c-0.4,0.6-1.3,1-2.2,1c-0.9,0-1.7-0.4-1.7-1.3
				c0-0.8,0.8-1.3,1.9-1.3c0.8,0,1.5,0.2,2,0.6V178z M263.3,181.1c1.3,0,2.1-0.2,3.1-0.7v-2.3c-0.8,0.5-1.6,0.7-2.6,0.7
				c-1.6,0-3-1.1-3-2.7c0-1.6,1.4-2.7,3-2.7c0.9,0,1.6,0.2,2.5,0.6v-2.3c-0.9-0.4-1.7-0.6-2.9-0.6c-2.8,0-5.3,1.9-5.3,5.1
				C258.1,179.2,260.6,181.1,263.3,181.1 M273.3,181.1c1.5,0,2.9-0.4,3.7-1v-2.2c-0.9,0.5-1.9,0.9-3.1,0.9c-1.6,0-2.9-0.6-3.2-2h6.9
				v-0.7c0-2.8-1.7-5.1-4.6-5.1c-3.1,0-5,2.3-5,5.1C267.9,179.2,270.3,181.1,273.3,181.1 M270.6,175c0.1-1.1,0.9-1.9,2.2-1.9
				c1.3,0,2,0.9,2,1.9H270.6z M279.6,180.9h2.7v-5.6c0.3-0.8,1.4-1.7,2.8-1.7c0.3,0,0.6,0,0.9,0.1V171c-0.1,0-0.2,0-0.3,0
				c-1.5,0-2.8,0.9-3.4,1.9v-1.6h-2.7V180.9z M298.7,171c-1.6,0-2.6,0.7-3.2,1.4v-1.2h-2.7v13.5h2.7v-5.1c0.5,0.7,1.5,1.4,3.2,1.4
				c2.7,0,4.6-2.2,4.6-5.1C303.3,173.2,301.4,171,298.7,171 M297.9,173.3c1.5,0,2.6,1.2,2.6,2.7c0,1.5-1.1,2.7-2.6,2.7
				c-1.1,0-2-0.7-2.4-1.4v-2.5C295.9,174,296.8,173.3,297.9,173.3 M310,178.7c-1.5,0-2.7-1.2-2.7-2.7c0-1.5,1.1-2.7,2.7-2.7
				c1.6,0,2.7,1.2,2.7,2.7C312.7,177.6,311.6,178.7,310,178.7 M310,181.1c3.2,0,5.4-2.2,5.4-5.1c0-2.8-2.2-5.1-5.4-5.1
				c-3.2,0-5.4,2.3-5.4,5.1C304.6,178.9,306.8,181.1,310,181.1 M321,181.1c2.6,0,4.3-1.2,4.3-3c0-1.8-1.2-2.6-3.2-3.1
				c-1.2-0.3-2.4-0.4-2.4-1.1c0-0.5,0.5-0.8,1.5-0.8c1.3,0,2.6,0.5,3.5,1v-2.3c-0.9-0.5-2.3-0.9-3.6-0.9c-2.7,0-4.3,1.1-4.3,3
				c0,1.8,1.1,2.5,3.1,3c1.4,0.4,2.5,0.5,2.5,1.2c0,0.5-0.6,0.8-1.7,0.8c-1.7,0-3.3-0.6-4-1.1v2.4
				C317.8,180.8,319.3,181.1,321,181.1 M327.5,180.9h2.7v-9.7h-2.7V180.9z M328.8,170.3c0.9,0,1.6-0.7,1.6-1.6
				c0-0.9-0.7-1.6-1.6-1.6c-0.9,0-1.6,0.7-1.6,1.6C327.2,169.6,327.9,170.3,328.8,170.3 M338.9,181.1c2.7,0,4.6-2.2,4.6-5.1
				c0-2.8-1.9-5.1-4.6-5.1c-1.6,0-2.6,0.7-3.2,1.4v-5.1H333v13.6h2.7v-1.2C336.3,180.4,337.3,181.1,338.9,181.1 M338.1,178.7
				c-1.1,0-2-0.7-2.4-1.5v-2.5c0.4-0.8,1.3-1.4,2.4-1.4c1.5,0,2.6,1.2,2.6,2.7C340.8,177.6,339.7,178.7,338.1,178.7 M348.1,181.1
				c0.6,0,1.3-0.1,1.7-0.3v-2.2c-0.2,0.1-0.4,0.2-0.7,0.2c-0.5,0-0.9-0.3-0.9-1v-10.4h-2.7v11.1
				C345.5,180.5,346.7,181.1,348.1,181.1 M356.4,181.1c1.5,0,2.9-0.4,3.7-1v-2.2c-0.9,0.5-1.9,0.9-3.1,0.9c-1.6,0-2.9-0.6-3.2-2h6.9
				v-0.7c0-2.8-1.7-5.1-4.6-5.1c-3.1,0-5,2.3-5,5.1C351,179.2,353.4,181.1,356.4,181.1 M353.7,175c0.1-1.1,0.9-1.9,2.2-1.9
				c1.3,0,2,0.9,2,1.9H353.7z M370.3,181.1c0.6,0,1.3-0.1,1.7-0.3v-2.2c-0.2,0.1-0.4,0.2-0.7,0.2c-0.5,0-0.9-0.3-0.9-1v-10.4h-2.7
				v11.1C367.7,180.5,369,181.1,370.3,181.1 M383.1,178.8c-0.4,0-0.7-0.2-0.7-0.7v-3.3c0-2.4-1.9-3.8-4.6-3.8
				c-1.8,0-2.9,0.4-3.6,0.8v2.3c0.8-0.4,2-0.8,2.9-0.8c1.2,0,2.6,0.3,2.6,1.8v0.3c-0.6-0.3-1.5-0.6-2.8-0.6c-1.9,0-3.8,1-3.8,3.2
				c0,2,1.5,3.2,3.6,3.2c1.6,0,2.7-0.6,3.3-1.3c0.4,0.9,1.2,1.2,2.2,1.2c0.5,0,1.1-0.2,1.5-0.4v-2
				C383.5,178.7,383.3,178.8,383.1,178.8 M379.7,178c-0.4,0.6-1.3,1-2.2,1c-0.9,0-1.7-0.4-1.7-1.3c0-0.8,0.8-1.3,1.9-1.3
				c0.8,0,1.5,0.2,2,0.6V178z M390.7,180.9h2.8v-5.5h2.3l4,5.5h3.2l-4.2-5.8c1.8-0.5,2.8-2,2.8-3.8c0-2.3-1.7-4-4.7-4h-6.3V180.9z
				 M393.5,173v-3.3h3.3c1.3,0,2,0.6,2,1.6c0,1.1-0.8,1.6-2,1.6H393.5z M409,181.1c1.5,0,2.9-0.4,3.7-1v-2.2
				c-0.9,0.5-1.9,0.9-3.1,0.9c-1.6,0-2.9-0.6-3.2-2h6.9v-0.7c0-2.8-1.7-5.1-4.6-5.1c-3.1,0-5,2.3-5,5.1
				C403.6,179.2,406,181.1,409,181.1 M406.3,175c0.1-1.1,0.9-1.9,2.2-1.9c1.3,0,2,0.9,2,1.9H406.3z M418.8,180.9v-7.4h3v-2.3h-3
				v-0.5c0-0.9,0.5-1.3,1.3-1.3c0.7,0,1.1,0.1,1.7,0.3v-2.2c-0.7-0.3-1.5-0.4-2.5-0.4c-2.2,0-3.3,1.4-3.3,3.2v0.9h-1.7v2.3h1.7v7.4
				H418.8z M428.1,178.7c-1.6,0-2.7-1.2-2.7-2.7c0-1.5,1.1-2.7,2.7-2.7c1.6,0,2.7,1.2,2.7,2.7C430.7,177.6,429.6,178.7,428.1,178.7
				 M428.1,181.1c3.2,0,5.4-2.2,5.4-5.1c0-2.8-2.2-5.1-5.4-5.1c-3.2,0-5.4,2.3-5.4,5.1C422.7,178.9,424.9,181.1,428.1,181.1
				 M435.5,180.9h2.7v-5.6c0.3-0.8,1.4-1.7,2.8-1.7c0.3,0,0.6,0,0.9,0.1V171c-0.1,0-0.2,0-0.3,0c-1.5,0-2.8,0.9-3.4,1.9v-1.6h-2.7
				V180.9z M443.7,180.9h2.7v-6.1c0.4-0.7,1.2-1.3,2-1.3c0.7,0,1.6,0.3,1.6,2v5.4h2.7v-6.1c0.3-0.7,1.2-1.3,2-1.3
				c0.7,0,1.6,0.3,1.6,2v5.4h2.7v-6c0-2.6-1.5-3.9-3.4-3.9c-1.5,0-2.7,0.8-3.3,1.6c-0.4-0.8-1.5-1.6-3-1.6c-1.4,0-2.4,0.7-2.9,1.4
				v-1.2h-2.7V180.9z M470.8,178.8c-0.4,0-0.7-0.2-0.7-0.7v-3.3c0-2.4-1.9-3.8-4.6-3.8c-1.8,0-2.9,0.4-3.6,0.8v2.3
				c0.8-0.4,2-0.8,2.9-0.8c1.2,0,2.6,0.3,2.6,1.8v0.3c-0.6-0.3-1.5-0.6-2.8-0.6c-1.9,0-3.8,1-3.8,3.2c0,2,1.5,3.2,3.6,3.2
				c1.6,0,2.7-0.6,3.3-1.3c0.4,0.9,1.2,1.2,2.2,1.2c0.5,0,1.1-0.2,1.5-0.4v-2C471.2,178.7,471,178.8,470.8,178.8 M467.4,178
				c-0.4,0.6-1.3,1-2.2,1c-1,0-1.7-0.4-1.7-1.3c0-0.8,0.8-1.3,1.9-1.3c0.8,0,1.5,0.2,2,0.6V178z"/>
			<path fill="#B9007C" d="M237,202.3c1.3,0,2.1-0.2,3.1-0.7v-2.3c-0.8,0.5-1.6,0.7-2.6,0.7c-1.6,0-3-1.1-3-2.7c0-1.6,1.4-2.7,3-2.7
				c0.9,0,1.6,0.2,2.5,0.6v-2.3c-0.9-0.4-1.7-0.6-2.9-0.6c-2.8,0-5.3,1.9-5.3,5.1C231.7,200.4,234.2,202.3,237,202.3 M249,192.4v6.2
				c-0.4,0.7-1.3,1.3-2.2,1.3c-0.8,0-1.8-0.4-1.8-2.1v-5.4h-2.7v5.9c0,2.4,1.3,4,3.5,4c1.5,0,2.6-0.7,3.2-1.4v1.2h2.7v-9.7H249z
				 M254.4,202h2.7v-5.6c0.3-0.8,1.4-1.7,2.8-1.7c0.3,0,0.6,0,0.9,0.1v-2.7c-0.1,0-0.2,0-0.3,0c-1.5,0-2.8,0.9-3.4,1.9v-1.6h-2.7
				V202z M262.6,202h2.7v-5.6c0.3-0.8,1.4-1.7,2.8-1.7c0.3,0,0.6,0,0.9,0.1v-2.7c-0.1,0-0.2,0-0.3,0c-1.5,0-2.8,0.9-3.4,1.9v-1.6
				h-2.7V202z M270.9,202h2.7v-9.7h-2.7V202z M272.3,191.4c0.9,0,1.6-0.7,1.6-1.6c0-0.9-0.7-1.6-1.6-1.6c-0.9,0-1.6,0.7-1.6,1.6
				C270.6,190.7,271.3,191.4,272.3,191.4 M281.1,202.3c1.3,0,2.1-0.2,3.1-0.7v-2.3c-0.8,0.5-1.6,0.7-2.6,0.7c-1.6,0-3-1.1-3-2.7
				c0-1.6,1.4-2.7,3-2.7c0.9,0,1.6,0.2,2.5,0.6v-2.3c-0.9-0.4-1.7-0.6-2.9-0.6c-2.8,0-5.3,1.9-5.3,5.1
				C275.8,200.4,278.3,202.3,281.1,202.3 M293,192.4v6.2c-0.4,0.7-1.3,1.3-2.2,1.3c-0.8,0-1.8-0.4-1.8-2.1v-5.4h-2.7v5.9
				c0,2.4,1.3,4,3.5,4c1.5,0,2.6-0.7,3.2-1.4v1.2h2.7v-9.7H293z M301,202.3c0.6,0,1.3-0.1,1.7-0.3v-2.2c-0.2,0.1-0.4,0.2-0.7,0.2
				c-0.5,0-0.9-0.3-0.9-1v-10.4h-2.7v11.1C298.4,201.7,299.7,202.3,301,202.3 M313.8,199.9c-0.4,0-0.7-0.2-0.7-0.7v-3.3
				c0-2.4-1.9-3.8-4.6-3.8c-1.8,0-2.9,0.4-3.6,0.8v2.3c0.8-0.4,2-0.8,2.9-0.8c1.2,0,2.6,0.3,2.6,1.8v0.3c-0.6-0.3-1.5-0.6-2.8-0.6
				c-1.9,0-3.8,1-3.8,3.2c0,2,1.5,3.2,3.6,3.2c1.6,0,2.7-0.6,3.3-1.3c0.4,0.9,1.2,1.2,2.2,1.2c0.5,0,1.1-0.2,1.5-0.4v-2
				C314.2,199.9,314,199.9,313.8,199.9 M310.4,199.2c-0.4,0.6-1.3,1-2.2,1c-0.9,0-1.7-0.4-1.7-1.3c0-0.8,0.8-1.3,1.9-1.3
				c0.8,0,1.5,0.2,2,0.6V199.2z M316.3,202h2.7v-5.6c0.3-0.8,1.4-1.7,2.8-1.7c0.3,0,0.6,0,0.9,0.1v-2.7c-0.1,0-0.2,0-0.3,0
				c-1.5,0-2.8,0.9-3.4,1.9v-1.6h-2.7V202z M325.7,195.8c0.9,0,1.7-0.8,1.7-1.7c0-0.9-0.8-1.7-1.7-1.7c-1,0-1.7,0.7-1.7,1.7
				C324,195.1,324.7,195.8,325.7,195.8 M325.7,202.2c0.9,0,1.7-0.8,1.7-1.7c0-0.9-0.8-1.7-1.7-1.7c-1,0-1.7,0.7-1.7,1.7
				C324,201.5,324.7,202.2,325.7,202.2"/>
			<path fill="#FFFFFF" d="M334.7,202h9.7v-2.5h-6.9v-11.1h-2.8V202z M346.4,202h2.7v-9.7h-2.7V202z M347.7,191.4
				c0.9,0,1.6-0.7,1.6-1.6c0-0.9-0.7-1.6-1.6-1.6c-0.9,0-1.6,0.7-1.6,1.6C346.1,190.7,346.8,191.4,347.7,191.4 M355.8,202.3
				c1.6,0,2.6-0.7,3.2-1.4v1.2h2.7v-13.6H359v5.1c-0.5-0.7-1.5-1.4-3.2-1.4c-2.7,0-4.6,2.2-4.6,5.1
				C351.3,200,353.1,202.3,355.8,202.3 M356.6,199.9c-1.5,0-2.6-1.2-2.6-2.7c0-1.5,1.1-2.7,2.6-2.7c1.1,0,2,0.7,2.4,1.4v2.5
				C358.6,199.2,357.7,199.9,356.6,199.9 M369.1,202.3c1.5,0,2.9-0.4,3.7-1v-2.2c-0.9,0.5-1.9,0.9-3.1,0.9c-1.6,0-2.9-0.6-3.2-2h6.9
				v-0.7c0-2.8-1.7-5.1-4.6-5.1c-3.1,0-5,2.3-5,5.1C363.8,200.3,366.2,202.3,369.1,202.3 M366.5,196.2c0.1-1.1,0.9-1.9,2.2-1.9
				c1.3,0,2,0.9,2,1.9H366.5z M375.5,202h2.7v-5.6c0.3-0.8,1.4-1.7,2.8-1.7c0.3,0,0.6,0,0.9,0.1v-2.7c-0.1,0-0.2,0-0.3,0
				c-1.5,0-2.8,0.9-3.4,1.9v-1.6h-2.7V202z M392.9,199.9c-0.4,0-0.7-0.2-0.7-0.7v-3.3c0-2.4-1.9-3.8-4.6-3.8c-1.8,0-2.9,0.4-3.6,0.8
				v2.3c0.8-0.4,2-0.8,2.9-0.8c1.2,0,2.6,0.3,2.6,1.8v0.3c-0.6-0.3-1.5-0.6-2.8-0.6c-1.9,0-3.8,1-3.8,3.2c0,2,1.5,3.2,3.6,3.2
				c1.6,0,2.7-0.6,3.3-1.3c0.4,0.9,1.2,1.2,2.2,1.2c0.5,0,1.1-0.2,1.5-0.4v-2C393.3,199.9,393.1,199.9,392.9,199.9 M389.5,199.2
				c-0.4,0.6-1.3,1-2.2,1c-0.9,0-1.7-0.4-1.7-1.3c0-0.8,0.8-1.3,1.9-1.3c0.8,0,1.5,0.2,2,0.6V199.2z M394.7,202h8.9v-2.3h-5.2
				l4.9-5.5v-1.9H395v2.3h4.6l-4.9,5.6V202z M412.6,192.4v1.1c-0.6-0.7-1.6-1.4-3.2-1.4c-2.7,0-4.5,2.2-4.5,4.8
				c0,2.7,1.8,4.9,4.5,4.9c1.6,0,2.6-0.7,3.2-1.4v0.6c0,2.1-1.7,2.6-3.2,2.6c-1.3,0-2.5-0.3-3.5-0.9v2.5c0.9,0.5,2.3,0.8,3.8,0.8
				c2.7,0,5.6-1.6,5.6-5.1v-8.5H412.6z M410.2,199.4c-1.5,0-2.6-1.1-2.6-2.5c0-1.4,1-2.5,2.6-2.5c1.1,0,2,0.6,2.4,1.3v2.3
				C412.2,198.8,411.3,199.4,410.2,199.4 M422.7,199.9c-1.5,0-2.7-1.2-2.7-2.7c0-1.5,1.1-2.7,2.7-2.7s2.7,1.2,2.7,2.7
				C425.3,198.7,424.2,199.9,422.7,199.9 M422.7,202.3c3.2,0,5.4-2.2,5.4-5.1c0-2.8-2.2-5.1-5.4-5.1c-3.2,0-5.4,2.3-5.4,5.1
				C417.3,200,419.5,202.3,422.7,202.3 M436.3,206c1.8,0,3-1,3.9-3l4.5-10.7h-2.9l-2.4,6.4l-2.6-6.4h-2.9l4.2,9.3
				c-0.5,1.3-1.1,1.9-2.2,1.9c-0.6,0-1-0.1-1.5-0.4v2.4C434.7,205.8,435.5,206,436.3,206"/>
			<path fill="#FFFFFF" d="M239.3,223.4c2.4,0,4.5-1,5.5-2.2v-6H242v4.7c-0.7,0.7-1.7,0.9-2.7,0.9c-2.4,0-4.4-1.6-4.4-4.4
				c0-2.7,1.9-4.5,4.7-4.5c1.3,0,2.6,0.3,3.9,1.2v-2.8c-1.1-0.7-2.3-1-4.1-1c-4.2,0-7.3,2.9-7.3,7.1
				C232.1,220.5,235.2,223.4,239.3,223.4 M252.2,223.4c1.5,0,2.9-0.4,3.7-1v-2.2c-0.9,0.5-1.9,0.9-3.1,0.9c-1.6,0-2.9-0.6-3.2-2h6.9
				v-0.7c0-2.8-1.7-5.1-4.6-5.1c-3.1,0-5,2.3-5,5.1C246.8,221.5,249.2,223.4,252.2,223.4 M249.5,217.3c0.1-1.1,0.9-1.9,2.2-1.9
				c1.3,0,2,0.9,2,1.9H249.5z M262.1,223.4c2.6,0,4.3-1.2,4.3-3c0-1.8-1.2-2.6-3.2-3.1c-1.2-0.3-2.4-0.4-2.4-1.1
				c0-0.5,0.5-0.8,1.6-0.8c1.3,0,2.6,0.5,3.5,1v-2.3c-0.9-0.5-2.3-0.9-3.6-0.9c-2.7,0-4.3,1.1-4.3,3c0,1.8,1.1,2.5,3.1,3
				c1.4,0.4,2.5,0.5,2.5,1.2c0,0.5-0.6,0.8-1.7,0.8c-1.7,0-3.3-0.6-4-1.1v2.4C258.9,223,260.5,223.4,262.1,223.4 M269.4,220.2
				c0,2,1,3.3,3.2,3.3c0.8,0,1.8-0.2,2.3-0.5v-2.3c-0.4,0.2-0.9,0.3-1.4,0.3c-0.9,0-1.3-0.4-1.3-1.4v-3.8h2.8v-2.3h-2.8v-2.7h-2.7
				v2.7h-1.9v2.3h1.9V220.2z M277.1,223.2h2.7v-9.7h-2.7V223.2z M278.5,212.6c0.9,0,1.6-0.7,1.6-1.6c0-0.9-0.7-1.6-1.6-1.6
				s-1.6,0.7-1.6,1.6C276.9,211.8,277.6,212.6,278.5,212.6 M287.4,221c-1.5,0-2.7-1.2-2.7-2.7c0-1.5,1.1-2.7,2.7-2.7
				s2.7,1.2,2.7,2.7C290.1,219.9,289,221,287.4,221 M287.4,223.4c3.2,0,5.4-2.2,5.4-5.1c0-2.8-2.2-5.1-5.4-5.1
				c-3.2,0-5.4,2.3-5.4,5.1C282,221.2,284.2,223.4,287.4,223.4 M286,212.1h2.4l2.8-2.8h-3.3L286,212.1z M297.5,223.2V217
				c0.4-0.7,1.3-1.3,2.2-1.3c0.8,0,1.8,0.4,1.8,2.1v5.4h2.7v-5.9c0-2.4-1.3-4-3.5-4c-1.5,0-2.6,0.7-3.2,1.4v-1.2h-2.7v9.7H297.5z
				 M316.5,223.4c1.5,0,2.9-0.4,3.7-1v-2.2c-0.9,0.5-1.9,0.9-3.1,0.9c-1.6,0-2.9-0.6-3.2-2h6.9v-0.7c0-2.8-1.7-5.1-4.6-5.1
				c-3.1,0-5,2.3-5,5.1C311.1,221.5,313.5,223.4,316.5,223.4 M313.8,217.3c0.1-1.1,0.9-1.9,2.2-1.9c1.3,0,2,0.9,2,1.9H313.8z
				 M326.4,223.4c2.6,0,4.3-1.2,4.3-3c0-1.8-1.2-2.6-3.2-3.1c-1.2-0.3-2.4-0.4-2.4-1.1c0-0.5,0.5-0.8,1.5-0.8c1.3,0,2.6,0.5,3.5,1
				v-2.3c-0.9-0.5-2.3-0.9-3.6-0.9c-2.7,0-4.3,1.1-4.3,3c0,1.8,1.1,2.5,3.1,3c1.4,0.4,2.5,0.5,2.5,1.2c0,0.5-0.6,0.8-1.7,0.8
				c-1.7,0-3.3-0.6-4-1.1v2.4C323.2,223,324.8,223.4,326.4,223.4 M337.4,223.4c1.3,0,2.1-0.2,3.1-0.7v-2.3c-0.8,0.5-1.6,0.7-2.6,0.7
				c-1.6,0-3-1.1-3-2.7c0-1.6,1.4-2.7,3-2.7c0.9,0,1.6,0.2,2.5,0.6v-2.3c-0.9-0.4-1.7-0.6-2.9-0.6c-2.8,0-5.3,1.9-5.3,5.1
				C332.1,221.5,334.6,223.4,337.4,223.4 M347.3,221c-1.5,0-2.7-1.2-2.7-2.7c0-1.5,1.1-2.7,2.7-2.7s2.7,1.2,2.7,2.7
				C350,219.9,348.9,221,347.3,221 M347.3,223.4c3.2,0,5.4-2.2,5.4-5.1c0-2.8-2.2-5.1-5.4-5.1c-3.2,0-5.4,2.3-5.4,5.1
				C341.9,221.2,344.1,223.4,347.3,223.4 M357.3,223.4c0.6,0,1.3-0.1,1.7-0.3v-2.2c-0.2,0.1-0.4,0.2-0.7,0.2c-0.5,0-0.9-0.3-0.9-1
				v-10.4h-2.7v11.1C354.7,222.8,355.9,223.4,357.3,223.4 M370.1,221.1c-0.4,0-0.7-0.2-0.7-0.7V217c0-2.4-1.9-3.8-4.6-3.8
				c-1.8,0-2.9,0.4-3.6,0.8v2.3c0.8-0.4,2-0.8,2.9-0.8c1.2,0,2.6,0.3,2.6,1.8v0.3c-0.6-0.3-1.5-0.6-2.8-0.6c-1.9,0-3.8,1-3.8,3.2
				c0,2,1.5,3.2,3.6,3.2c1.6,0,2.7-0.6,3.3-1.3c0.4,0.9,1.2,1.2,2.2,1.2c0.5,0,1.1-0.2,1.5-0.4v-2
				C370.4,221,370.2,221.1,370.1,221.1 M366.7,220.3c-0.4,0.6-1.3,1-2.2,1c-0.9,0-1.7-0.4-1.7-1.3c0-0.8,0.8-1.3,1.9-1.3
				c0.8,0,1.5,0.2,2,0.6V220.3z M372.5,223.2h2.7v-5.6c0.3-0.8,1.4-1.7,2.8-1.7c0.3,0,0.6,0,0.9,0.1v-2.7c-0.1,0-0.2,0-0.3,0
				c-1.5,0-2.8,0.9-3.4,1.9v-1.6h-2.7V223.2z"/>
			<line fill="none" stroke="#FFFFFF" x1="216.3" y1="165.8" x2="216.3" y2="223.8"/>
		</g>
	</g>
	<g>
		<path fill="#DDDB1C" d="M15.6,258.3v1.1h-2.7l2.5-2.3c1.1-1,2-1.9,2-3.4c0-2-1.5-3.5-3.5-3.5c-2.1,0-3.7,1.6-3.7,3.8h1.9
			c0-1,0.6-1.8,1.6-1.8c0.9,0,1.6,0.6,1.6,1.5c0,0.9-0.7,1.5-1.3,2l-3.9,3.7v1.7h7v-2.8H15.6z M30.5,258.3c0.4,1.9,1.9,3.1,3.9,3.1
			c2.2,0,4.1-1.6,4.1-3.8c0-2-1.5-3.7-3.5-3.7c-0.7,0-1.3,0.2-1.9,0.6l0.4-2.3h4.1v-1.7h-5.7l-1,5.7l1.7,0.4c0.3-0.7,1-1.1,1.7-1.1
			c1.1,0,2,0.8,2,2c0,1.1-0.9,2-2,2c-0.8,0-1.5-0.5-1.8-1.2H30.5z M74.8,254.8h1v-1.7h-3.7v1.7h0.8l-1.5,3.9l-1.4-3.9h0.8v-1.7h-3.8
			v1.7H68l2.4,6.2l-0.5,1.3h-1v1.7h3.9v-1.7h-1L74.8,254.8z M110,258.3v1.1h-2.7l2.5-2.3c1.1-1,2-1.9,2-3.4c0-2-1.5-3.5-3.5-3.5
			c-2.1,0-3.7,1.6-3.7,3.8h1.9c0-1,0.6-1.8,1.6-1.8c0.9,0,1.6,0.6,1.6,1.5c0,0.9-0.7,1.5-1.3,2l-3.9,3.7v1.7h7v-2.8H110z
			 M128.7,250.4l-2.9,4.2c-0.6,0.8-0.9,1.6-0.9,2.6c0,1.1,0.4,2.1,1.2,2.9c0.7,0.7,1.8,1.1,2.8,1.1c2.2,0,4-1.8,4-4
			c0-1.9-1.4-3.6-3.4-3.6c-0.4,0-0.6,0.1-0.9,0.2l2.5-3.6H128.7z M128.8,259.4c-1.1,0-2-0.9-2-2c0-1.1,0.9-2,2-2c1.1,0,2,0.9,2,2
			C130.9,258.5,129.9,259.4,128.8,259.4 M168.1,261.1h2.9v-1.7h-1v-9H167v1.7h1.1v2.2c-0.6-0.8-1.6-1.3-2.6-1.3
			c-2.3,0-4.1,1.9-4.1,4.1c0,2.2,1.8,4.1,4.1,4.1c1.1,0,2-0.4,2.6-1.3V261.1z M165.7,259.6c-1.3,0-2.4-1.1-2.4-2.4
			c0-1.4,1.1-2.5,2.4-2.5c1.3,0,2.4,1.1,2.4,2.4C168.1,258.4,167,259.6,165.7,259.6 M189.2,258.8c-0.4,0.7-1.1,1-1.9,1
			c-1.1,0-2.2-0.8-2.4-1.9h6.5l0.1-0.6c0-1.1-0.3-2.2-1.1-3c-0.8-0.8-1.9-1.3-3-1.3c-2.4,0-4.2,1.9-4.2,4.3c0,2.4,1.9,4.2,4.2,4.2
			c1.7,0,3.1-1,3.8-2.6H189.2z M184.9,256.4c0.2-1,1.3-1.9,2.3-1.9c1.2,0,2.2,0.7,2.5,1.9H184.9z M224,261.3c2.4,0,4.2-1.9,4.2-4.3
			c0-2.3-1.9-4.2-4.2-4.2c-2.3,0-4.2,1.9-4.2,4.2C219.9,259.4,221.7,261.3,224,261.3 M224,259.5c-1.4,0-2.4-1.1-2.4-2.5
			c0-1.3,1.1-2.4,2.4-2.4c1.3,0,2.4,1.1,2.4,2.4C226.5,258.4,225.4,259.5,224,259.5 M246.6,258.4c-0.3,0.7-1.1,1.1-1.9,1.1
			c-1.3,0-2.4-1.1-2.4-2.4c0-1.3,1-2.4,2.4-2.4c0.4,0,0.8,0.1,1.1,0.3c0.3,0.2,0.6,0.5,0.9,0.8h1.7v-2.7h-1.6v0.8
			c-0.6-0.6-1.4-1-2.3-1c-2.3,0-4,2-4,4.2c0,2.3,1.9,4.2,4.2,4.2c1.8,0,3.5-1.2,4-2.9H246.6z M264.1,254.8h1.4v-1.7h-1.4v-2.7h-1.8
			v2.7H261v1.7h1.3v6.3h3.3v-1.7h-1.5V254.8z M286,253.1h-2.9v1.7h1v2.6c0,0.6,0,1.1-0.3,1.6c-0.3,0.4-0.8,0.7-1.4,0.7
			c-0.5,0-1-0.2-1.3-0.7c-0.3-0.4-0.3-1-0.3-1.5v-4.3h-2.9v1.7h1v3.2c0,0.9,0.1,1.6,0.7,2.3c0.6,0.7,1.4,1,2.2,1
			c0.9,0,1.9-0.4,2.4-1.2v1h2.7v-1.7h-1V253.1z M302.3,250.4h-2.9v1.7h1v7.3h-1v1.7h2.9v-1.2c0.6,0.9,1.6,1.3,2.7,1.3
			c1,0,2.1-0.5,2.8-1.3c0.7-0.8,1.1-1.8,1.1-2.8c0-2.3-1.9-4.1-4.1-4.1c-1,0-1.9,0.4-2.5,1.3V250.4z M304.7,254.7
			c1.3,0,2.4,1.1,2.4,2.4c0,1.3-1,2.5-2.4,2.5c-1.4,0-2.5-1.1-2.5-2.5C302.2,255.7,303.3,254.7,304.7,254.7 M323.9,253.1h-2.7v1.7h1
			v4.6h-1v1.7h3.9v-1.7h-1v-2c0-0.8,0.1-1.4,0.7-1.9c0.5-0.4,1-0.6,1.6-0.6V253c-1,0-1.9,0.5-2.4,1.5V253.1z M344.9,258.8
			c-0.5,0.7-1.1,1-1.9,1c-1.1,0-2.2-0.8-2.4-1.9h6.5l0.1-0.6c0-1.1-0.3-2.2-1.1-3c-0.8-0.8-1.9-1.3-3-1.3c-2.4,0-4.2,1.9-4.2,4.3
			c0,2.4,1.9,4.2,4.2,4.2c1.7,0,3.1-1,3.8-2.6H344.9z M340.5,256.4c0.2-1,1.3-1.9,2.3-1.9c1.2,0,2.2,0.7,2.5,1.9H340.5z
			 M382.2,261.1h2.9v-1.7h-1v-9h-2.9v1.7h1.1v2.2c-0.6-0.8-1.6-1.3-2.6-1.3c-2.3,0-4.1,1.9-4.1,4.1c0,2.2,1.8,4.1,4.1,4.1
			c1.1,0,2-0.4,2.6-1.3V261.1z M379.8,259.6c-1.3,0-2.4-1.1-2.4-2.4c0-1.4,1.1-2.5,2.4-2.5c1.3,0,2.4,1.1,2.4,2.4
			C382.3,258.4,381.2,259.6,379.8,259.6 M403.4,258.8c-0.4,0.7-1.1,1-1.9,1c-1.1,0-2.2-0.8-2.4-1.9h6.5l0.1-0.6c0-1.1-0.3-2.2-1.1-3
			c-0.8-0.8-1.9-1.3-3-1.3c-2.4,0-4.2,1.9-4.2,4.3c0,2.4,1.9,4.2,4.2,4.2c1.7,0,3.1-1,3.8-2.6H403.4z M399,256.4
			c0.2-1,1.3-1.9,2.3-1.9c1.2,0,2.2,0.7,2.5,1.9H399z M439.9,258.3v1.1h-2.7l2.5-2.3c1.1-1,2-1.9,2-3.4c0-2-1.5-3.5-3.5-3.5
			c-2.1,0-3.7,1.6-3.7,3.8h1.9c0-1,0.6-1.8,1.6-1.8c0.9,0,1.6,0.6,1.6,1.5c0,0.9-0.7,1.5-1.3,2l-3.9,3.7v1.7h7v-2.8H439.9z
			 M462.6,254.2c0-1.2-0.2-2.1-1.2-3c-0.7-0.7-1.7-1.1-2.7-1.1c-1.1,0-2.1,0.5-2.9,1.2c-0.8,0.9-1,1.7-1,2.9v3c0,1.2,0.2,2.1,1.1,3
			c0.7,0.7,1.7,1.1,2.7,1.1c1.1,0,2.1-0.5,2.9-1.3c0.8-0.9,1-1.7,1-2.9V254.2z M456.9,254.2c0-0.5,0-1,0.3-1.4
			c0.3-0.6,0.9-0.8,1.6-0.8c0.6,0,1.2,0.2,1.5,0.7c0.3,0.5,0.4,1,0.4,1.5v3c0,0.5,0,1-0.3,1.4c-0.3,0.6-0.9,0.8-1.6,0.8
			c-0.6,0-1.2-0.2-1.5-0.7c-0.3-0.5-0.3-1-0.3-1.5V254.2z M480.5,250.4h-3.6v1.7h1.6v7.3h-1.3v1.7h4.5v-1.7h-1.3V250.4z
			 M496.3,250.4v3.4h1.9v-1.7h3.1l-4.1,9h2.2l4-9v-1.7H496.3z"/>
		<path fill="#FFFFFF" d="M143.7,286.7h4.8v-1.8h-1.2l-4-9.6h-3.8v1.8h1.3l-3.3,7.8h-1.2v1.8h4.7v-1.6h-1.2l0.7-1.7h4l0.7,1.7h-1.3
			V286.7z M143.7,281.7h-2.9l1.5-3.9h0L143.7,281.7z M157.7,278.2h-3.1v1.8h1.1v2.8c0,0.6,0,1.2-0.4,1.7c-0.3,0.4-0.9,0.7-1.4,0.7
			c-0.6,0-1.1-0.2-1.4-0.7c-0.3-0.5-0.3-1.1-0.3-1.6v-4.6h-3.1v1.8h1.1v3.4c0,0.9,0.1,1.7,0.8,2.5c0.6,0.7,1.5,1.1,2.4,1.1
			c1,0,2-0.4,2.6-1.3v1.1h2.9v-1.8h-1.1V278.2z M166.8,286.7h3.1v-1.8h-1.1v-9.6h-3.1v1.8h1.1v2.3c-0.7-0.9-1.7-1.4-2.8-1.4
			c-2.4,0-4.3,2-4.3,4.4c0,2.4,2,4.4,4.4,4.4c1.1,0,2.2-0.4,2.8-1.4V286.7z M164.2,285.1c-1.4,0-2.6-1.2-2.6-2.6
			c0-1.5,1.2-2.6,2.6-2.6c1.4,0,2.6,1.2,2.6,2.6C166.8,283.9,165.7,285.1,164.2,285.1 M173.7,278.2h-3.1v1.8h1.1v4.9h-1.1v1.8h4.2
			v-1.8h-1.1V278.2z M173.7,275.3h-2v2.1h2V275.3z M178.9,280h1.5v-1.8h-1.5v-2.9h-2v2.9h-1.3v1.8h1.3v6.7h3.5v-1.8h-1.6V280z
			 M185.9,287c2.5,0,4.5-2,4.5-4.5c0-2.4-2-4.5-4.4-4.5c-2.5,0-4.5,2-4.5,4.5C181.4,284.9,183.4,287,185.9,287 M185.9,285
			c-1.5,0-2.5-1.2-2.5-2.6c0-1.4,1.2-2.6,2.6-2.6c1.4,0,2.5,1.2,2.5,2.6C188.4,283.9,187.3,285,185.9,285 M194,278.2h-2.9v1.8h1.1
			v4.9h-1.1v1.8h4.2v-1.8h-1.1v-2.2c0-0.8,0.1-1.5,0.7-2c0.5-0.4,1.1-0.6,1.7-0.6v-2c-1.1,0-2.1,0.5-2.6,1.6V278.2z M200.6,278.2
			h-3.1v1.8h1.1v4.9h-1.1v1.8h4.2v-1.8h-1.1V278.2z M200.6,275.3h-2v2.1h2V275.3z M207,287c2.5,0,4.5-2,4.5-4.5c0-2.4-2-4.5-4.5-4.5
			c-2.5,0-4.5,2-4.5,4.5C202.5,284.9,204.5,287,207,287 M207,285c-1.5,0-2.5-1.2-2.5-2.6c0-1.4,1.2-2.6,2.6-2.6
			c1.4,0,2.5,1.2,2.5,2.6C209.6,283.9,208.4,285,207,285 M217.2,283.5c-0.1,2.1,1.5,3.4,3.5,3.4c1,0,2-0.4,2.7-1.2
			c0.7-0.8,0.8-1.6,0.8-2.7v-6h1.2v-1.8h-4.7v1.8h1.2v5.7c0,0.4,0,1-0.2,1.4c-0.2,0.4-0.6,0.6-1.1,0.6c-0.8,0-1.2-0.7-1.2-1.4H217.2
			z M233.3,286.7h3.1v-1.8h-1.1V280h1.1v-1.8h-3.1v1.2c-0.6-0.9-1.6-1.4-2.7-1.4c-2.5,0-4.5,2.1-4.5,4.5c0,2.4,1.9,4.5,4.4,4.5
			c1.1,0,2.1-0.4,2.8-1.4V286.7z M230.7,285c-1.4,0-2.5-1.2-2.5-2.5c0-1.4,1.1-2.6,2.6-2.6c1.4,0,2.6,1.1,2.6,2.5
			C233.4,283.9,232.2,285,230.7,285 M240.3,278.2h-3.1v1.8h1.1v4.9h-1.1v1.8h4.2v-1.8h-1.1V278.2z M240.3,275.3h-2v2.1h2V275.3z
			 M243.4,284.9h-1.1v1.8h4.2v-1.8h-1.1v-2.6c0-0.7,0-1.2,0.5-1.7c0.4-0.4,0.8-0.6,1.4-0.6c0.6,0,1.1,0.3,1.4,0.8
			c0.3,0.4,0.3,1.1,0.3,1.6v2.6h-1.1v1.8h4.2v-1.8h-1.1v-2.8c0-0.6,0-1.1,0.4-1.6c0.3-0.4,0.9-0.6,1.4-0.6c0.5,0,1.1,0.2,1.4,0.7
			c0.3,0.5,0.3,1,0.3,1.6v2.8h-1.1v1.8h4.2v-1.8h-1.1v-3.2c0-1,0-1.8-0.7-2.6c-0.6-0.7-1.5-1.1-2.5-1.1c-1.2,0-2.3,0.7-2.8,1.8
			c-0.5-1.1-1.5-1.8-2.7-1.8c-1.1,0-1.9,0.6-2.5,1.5v-1.3h-2.9v1.8h1.1V284.9z M264.7,284.2c-0.5,0.7-1.2,1-2.1,1
			c-1.2,0-2.3-0.9-2.6-2h6.9l0.1-0.7c0-1.2-0.4-2.3-1.2-3.2c-0.8-0.8-2-1.4-3.2-1.4c-2.5,0-4.5,2-4.5,4.6c0,2.5,2,4.5,4.5,4.5
			c1.8,0,3.4-1.1,4-2.7H264.7z M260.1,281.7c0.2-1.1,1.3-2,2.5-2c1.3,0,2.4,0.8,2.7,2H260.1z M278.6,277.2h1.7v1.7h1.7v-3.6h-9v3.6
			h1.7v-1.7h1.7v7.7h-1.3v1.8h4.7v-1.8h-1.2V277.2z M286.8,287c2.5,0,4.5-2,4.5-4.5c0-2.4-2-4.5-4.5-4.5c-2.5,0-4.5,2-4.5,4.5
			C282.4,284.9,284.3,287,286.8,287 M286.8,285c-1.5,0-2.5-1.2-2.5-2.6c0-1.4,1.2-2.6,2.6-2.6c1.4,0,2.5,1.2,2.5,2.6
			C289.4,283.9,288.3,285,286.8,285 M295,278.2H292v1.8h1.1v4.9H292v1.8h4.2v-1.8h-1.1v-2.2c0-0.8,0.1-1.5,0.7-2
			c0.5-0.4,1.1-0.6,1.7-0.6v-2c-1.1,0-2.1,0.5-2.6,1.6V278.2z M301.4,278.2h-2.9v1.8h1.1v4.9h-1.1v1.8h4.2v-1.8h-1.1v-2.2
			c0-0.8,0.1-1.5,0.7-2c0.5-0.4,1.1-0.6,1.7-0.6v-2c-1.1,0-2.1,0.5-2.6,1.6V278.2z M311.4,284.2c-0.5,0.7-1.2,1-2.1,1
			c-1.2,0-2.3-0.9-2.6-2h6.9l0.1-0.7c0-1.2-0.4-2.3-1.2-3.2c-0.8-0.8-2-1.4-3.2-1.4c-2.5,0-4.4,2-4.4,4.6c0,2.5,2,4.5,4.5,4.5
			c1.8,0,3.4-1.1,4-2.7H311.4z M306.7,281.7c0.2-1.1,1.3-2,2.5-2c1.3,0,2.4,0.8,2.7,2H306.7z M314.7,284.2v2.5h1.5V286
			c0.6,0.7,1.3,0.9,2.2,0.9c1.6,0,3.1-1,3.1-2.7c0-1.9-1.6-2.4-3.2-2.8c-0.6-0.1-1.4-0.3-1.4-1.1c0-0.6,0.6-0.9,1.1-0.9
			c0.6,0,1.1,0.4,1.1,1h1.9v-2.3h-1.4v0.6c-0.5-0.6-1.2-0.8-1.9-0.8c-1.5,0-2.9,0.9-2.9,2.6c0,1.9,1.6,2.3,3.1,2.7
			c0.7,0.2,1.5,0.3,1.5,1.2c0,0.6-0.6,1.1-1.2,1.1c-0.8,0-1.3-0.5-1.4-1.3H314.7z M327.4,286.7h5.3c1,0,1.9-0.1,2.6-0.8
			c0.7-0.6,1.1-1.5,1.1-2.4c0-1.4-0.7-2.4-2-2.9c1-0.4,1.5-1.4,1.5-2.4c0-0.9-0.3-1.7-1.1-2.3c-0.7-0.5-1.5-0.6-2.4-0.6h-5.1v1.8
			h1.2v7.8h-1.2V286.7z M330.9,277.1h1.1c0.5,0,1,0,1.4,0.2c0.4,0.3,0.6,0.7,0.6,1.1c0,0.4-0.2,0.8-0.5,1.1
			c-0.4,0.3-0.9,0.3-1.5,0.3h-1.1V277.1z M330.8,281.7h1.2c0.6,0,1.1,0,1.6,0.3c0.4,0.3,0.6,0.8,0.6,1.3c0,0.5-0.2,1-0.6,1.2
			c-0.4,0.3-1.1,0.3-1.6,0.3h-1.2V281.7z M341.7,287c2.5,0,4.5-2,4.5-4.5c0-2.4-2-4.5-4.4-4.5c-2.5,0-4.5,2-4.5,4.5
			C337.2,284.9,339.2,287,341.7,287 M341.7,285c-1.5,0-2.5-1.2-2.5-2.6c0-1.4,1.2-2.6,2.6-2.6c1.4,0,2.5,1.2,2.5,2.6
			C344.2,283.9,343.1,285,341.7,285 M354,286.7h3.1v-1.8h-1.1v-9.6h-3.1v1.8h1.1v2.3c-0.7-0.9-1.7-1.4-2.8-1.4c-2.4,0-4.3,2-4.3,4.4
			c0,2.4,2,4.4,4.4,4.4c1.1,0,2.2-0.4,2.8-1.4V286.7z M351.4,285.1c-1.4,0-2.6-1.2-2.6-2.6c0-1.5,1.2-2.6,2.6-2.6
			c1.4,0,2.6,1.2,2.6,2.6C354,283.9,352.9,285.1,351.4,285.1 M364.2,284.2c-0.5,0.7-1.2,1-2.1,1c-1.2,0-2.3-0.9-2.6-2h6.9l0.1-0.7
			c0-1.2-0.4-2.3-1.2-3.2c-0.8-0.8-2-1.4-3.2-1.4c-2.5,0-4.5,2-4.5,4.6c0,2.5,2,4.5,4.5,4.5c1.8,0,3.4-1.1,4-2.7H364.2z
			 M359.5,281.7c0.2-1.1,1.3-2,2.5-2c1.3,0,2.4,0.8,2.7,2H359.5z M370.6,280h1.5v-1.8h-1.5v-2.9h-2v2.9h-1.3v1.8h1.3v6.7h3.5v-1.8
			h-1.6V280z M375.1,286.7v0.2c0,0.5,0,1-0.7,1h-0.2v1.1h0.3c0.5,0,0.9,0,1.3-0.5c0.4-0.4,0.4-0.9,0.4-1.5v-2.6h-2v2.3H375.1z"/>
		<path fill="#FFFFFF" d="M103.9,295.1h1.2v-1.8h-4.3l-3.1,8.1l-3.1-8.1h-4.3v1.8h1.2v7.8h-1.2v1.8h4.8v-1.8h-1.3v-6.6l3.2,8.5h1.5
			l3.2-8.5v6.6h-1.2v1.8h4.7v-1.8h-1.2V295.1z M114.6,296.2h-3.1v1.8h1.1v2.8c0,0.6,0,1.2-0.4,1.7c-0.3,0.4-0.9,0.7-1.4,0.7
			c-0.6,0-1.1-0.2-1.4-0.7c-0.3-0.5-0.3-1.1-0.3-1.6v-4.6H106v1.8h1.1v3.4c0,0.9,0.1,1.7,0.8,2.5c0.6,0.7,1.5,1.1,2.4,1.1
			c1,0,2-0.4,2.6-1.3v1.1h2.9v-1.8h-1.1V296.2z M116.7,302.2v2.5h1.5V304c0.6,0.7,1.3,0.9,2.2,0.9c1.6,0,3.1-1,3.1-2.7
			c0-1.9-1.6-2.4-3.2-2.8c-0.6-0.1-1.4-0.3-1.4-1.1c0-0.6,0.6-0.9,1.1-0.9c0.6,0,1.1,0.4,1.1,1h1.9v-2.3h-1.4v0.6
			c-0.5-0.6-1.2-0.8-1.9-0.8c-1.5,0-2.9,0.9-2.9,2.6c0,1.9,1.6,2.3,3.1,2.7c0.7,0.2,1.5,0.3,1.5,1.2c0,0.6-0.6,1.1-1.2,1.1
			c-0.8,0-1.3-0.5-1.4-1.3H116.7z M130.7,302.2c-0.5,0.7-1.2,1-2.1,1c-1.2,0-2.3-0.9-2.6-2h6.9l0.1-0.7c0-1.2-0.4-2.3-1.2-3.2
			c-0.8-0.8-2-1.4-3.2-1.4c-2.5,0-4.4,2-4.4,4.6c0,2.5,2,4.5,4.5,4.5c1.8,0,3.4-1.1,4-2.7H130.7z M126.1,299.7c0.2-1.1,1.3-2,2.5-2
			c1.3,0,2.4,0.8,2.7,2H126.1z M138.3,305c2.5,0,4.5-2,4.5-4.5c0-2.4-2-4.5-4.4-4.5c-2.5,0-4.5,2-4.5,4.5
			C133.8,302.9,135.8,305,138.3,305 M138.3,303c-1.5,0-2.5-1.2-2.5-2.6c0-1.4,1.2-2.6,2.6-2.6c1.4,0,2.5,1.2,2.5,2.6
			C140.8,301.9,139.7,303,138.3,303 M159.5,295.1h1.2v-1.8h-4.7v1.8h1.2v5.8l-5.4-7.7h-3.2v1.8h1.2v7.8h-1.2v1.8h4.7v-1.8h-1.2v-5.7
			l5.4,7.5h2V295.1z M168.8,304.7h3.1v-1.8h-1.1V298h1.1v-1.8h-3.1v1.2c-0.6-0.9-1.6-1.4-2.7-1.4c-2.5,0-4.5,2.1-4.5,4.5
			c0,2.4,1.9,4.5,4.4,4.5c1.1,0,2.1-0.4,2.8-1.4V304.7z M166.2,303c-1.4,0-2.5-1.2-2.5-2.5c0-1.4,1.1-2.6,2.6-2.6
			c1.4,0,2.6,1.1,2.6,2.5C168.8,301.9,167.7,303,166.2,303 M179.1,301.8c-0.4,0.8-1.2,1.2-2,1.2c-1.4,0-2.6-1.1-2.6-2.6
			c0-1.4,1.1-2.6,2.5-2.6c0.4,0,0.8,0.1,1.2,0.3c0.4,0.2,0.7,0.5,0.9,0.8h1.8v-2.9h-1.7v0.8c-0.6-0.7-1.5-1.1-2.4-1.1
			c-2.4,0-4.3,2.2-4.3,4.5c0,2.5,2,4.5,4.5,4.5c1.9,0,3.7-1.3,4.2-3.1H179.1z M185.3,296.2h-3.1v1.8h1.1v4.9h-1.1v1.8h4.2v-1.8h-1.1
			V296.2z M185.3,293.3h-2v2.1h2V293.3z M191.7,305c2.5,0,4.5-2,4.5-4.5c0-2.4-2-4.5-4.4-4.5c-2.5,0-4.5,2-4.5,4.5
			C187.2,302.9,189.2,305,191.7,305 M191.7,303c-1.5,0-2.5-1.2-2.5-2.6c0-1.4,1.2-2.6,2.6-2.6c1.4,0,2.5,1.2,2.5,2.6
			C194.3,301.9,193.1,303,191.7,303 M198,302.9h-1.1v1.8h4.2v-1.8H200v-2.5c0-0.6,0-1.3,0.4-1.8c0.4-0.5,1-0.7,1.6-0.7
			c0.6,0,1.2,0.2,1.5,0.7c0.3,0.5,0.3,1,0.3,1.5v2.8h-1.1v1.8h4.2v-1.8h-1.1v-3.3c0-1,0-1.7-0.7-2.5c-0.6-0.7-1.5-1.1-2.5-1.1
			c-1.1,0-2,0.5-2.5,1.4v-1.2h-3.1v1.8h1.1V302.9z M214.5,304.7h3.1v-1.8h-1.1V298h1.1v-1.8h-3.1v1.2c-0.6-0.9-1.6-1.4-2.7-1.4
			c-2.5,0-4.5,2.1-4.5,4.5c0,2.4,1.9,4.5,4.4,4.5c1.1,0,2.1-0.4,2.8-1.4V304.7z M212,303c-1.4,0-2.5-1.2-2.5-2.5
			c0-1.4,1.1-2.6,2.6-2.6c1.4,0,2.6,1.1,2.6,2.5C214.6,301.9,213.4,303,212,303 M221.5,293.3h-3.1v1.8h1.1v7.8h-1.2v1.8h4.2v-1.8
			h-1.1V293.3z M235.7,304.7h3.1v-1.8h-1.1v-9.6h-3.1v1.8h1.1v2.3c-0.7-0.9-1.7-1.4-2.8-1.4c-2.4,0-4.3,2-4.3,4.4
			c0,2.4,2,4.4,4.4,4.4c1.1,0,2.2-0.4,2.8-1.4V304.7z M233.1,303.1c-1.4,0-2.6-1.2-2.6-2.6c0-1.5,1.2-2.6,2.6-2.6
			c1.4,0,2.6,1.2,2.6,2.6C235.7,301.9,234.6,303.1,233.1,303.1 M245.9,302.2c-0.5,0.7-1.2,1-2.1,1c-1.2,0-2.3-0.9-2.6-2h6.9l0.1-0.7
			c0-1.2-0.4-2.3-1.2-3.2c-0.8-0.8-2-1.4-3.2-1.4c-2.5,0-4.5,2-4.5,4.6c0,2.5,2,4.5,4.5,4.5c1.8,0,3.4-1.1,4-2.7H245.9z
			 M241.3,299.7c0.2-1.1,1.3-2,2.5-2c1.3,0,2.4,0.8,2.7,2H241.3z M261.6,304.7h4.8v-1.8h-1.2l-4-9.6h-3.8v1.8h1.3l-3.3,7.8H254v1.8
			h4.7v-1.6h-1.2l0.7-1.7h4l0.7,1.7h-1.3V304.7z M261.6,299.7h-2.9l1.5-3.9h0L261.6,299.7z M268.1,302.9H267v1.8h4.2v-1.8h-1.1v-2.5
			c0-0.6,0-1.3,0.4-1.8c0.4-0.5,1-0.7,1.6-0.7c0.6,0,1.2,0.2,1.5,0.7c0.3,0.5,0.3,1,0.3,1.5v2.8h-1.1v1.8h4.2v-1.8h-1.1v-3.3
			c0-1,0-1.7-0.7-2.5c-0.6-0.7-1.5-1.1-2.5-1.1c-1.1,0-2,0.5-2.5,1.4v-1.2H267v1.8h1.1V302.9z M280.8,298h1.5v-1.8h-1.5v-2.9h-2v2.9
			h-1.3v1.8h1.3v6.7h3.5v-1.8h-1.6V298z M286.2,296.2h-2.9v1.8h1.1v4.9h-1.1v1.8h4.2v-1.8h-1.1v-2.2c0-0.8,0.1-1.5,0.7-2
			c0.5-0.4,1.1-0.6,1.7-0.6v-2c-1.1,0-2.1,0.5-2.6,1.6V296.2z M294.2,305c2.5,0,4.5-2,4.5-4.5c0-2.4-2-4.5-4.4-4.5
			c-2.5,0-4.5,2-4.5,4.5C289.7,302.9,291.7,305,294.2,305 M294.2,303c-1.5,0-2.5-1.2-2.5-2.6c0-1.4,1.2-2.6,2.6-2.6
			c1.4,0,2.5,1.2,2.5,2.6C296.8,301.9,295.6,303,294.2,303 M300.5,306h-1.1v1.8h4.2V306h-1.1v-2.5c0.7,0.9,1.8,1.3,2.9,1.3
			c2.4,0,4.3-2,4.3-4.4c0-2.4-1.9-4.4-4.4-4.4c-1.2,0-2.2,0.5-2.8,1.4v-1.3h-3.1v1.8h1.1V306z M305,303c-1.4,0-2.6-1.2-2.6-2.6
			c0-1.5,1.2-2.6,2.6-2.6c1.4,0,2.5,1.2,2.5,2.6C307.6,301.9,306.4,303,305,303 M314.7,305c2.5,0,4.5-2,4.5-4.5c0-2.4-2-4.5-4.4-4.5
			c-2.5,0-4.5,2-4.5,4.5C310.2,302.9,312.2,305,314.7,305 M314.7,303c-1.5,0-2.5-1.2-2.5-2.6c0-1.4,1.2-2.6,2.6-2.6
			c1.4,0,2.5,1.2,2.5,2.6C317.3,301.9,316.1,303,314.7,303 M323,293.3H320v1.8h1.1v7.8h-1.2v1.8h4.2v-1.8H323V293.3z M329.4,305
			c2.5,0,4.5-2,4.5-4.5c0-2.4-2-4.5-4.4-4.5c-2.5,0-4.5,2-4.5,4.5C324.9,302.9,326.9,305,329.4,305 M329.4,303
			c-1.5,0-2.5-1.2-2.5-2.6c0-1.4,1.2-2.6,2.6-2.6c1.4,0,2.5,1.2,2.5,2.6C332,301.9,330.8,303,329.4,303 M335,305.5
			c0.4,1.9,2.3,2.7,4.1,2.7c1.3,0,2.4-0.4,3.3-1.3c1-1,1.1-2,1.1-3.3V298h1.1v-1.8h-2.9v1.2c-0.6-1-1.7-1.4-2.8-1.4
			c-2.4,0-4.3,2-4.3,4.4c0,2.4,1.9,4.4,4.3,4.4c1.2,0,2.1-0.4,2.7-1.4v0.3c0,0.8,0,1.3-0.6,2c-0.4,0.5-1.1,0.8-1.8,0.8
			c-0.8,0-1.6-0.3-1.9-1.1H335z M336.5,300.4c0-1.4,1.2-2.6,2.6-2.6c1.4,0,2.6,1.2,2.6,2.6c0,1.4-1.1,2.6-2.6,2.6
			C337.7,303,336.5,301.9,336.5,300.4 M348.6,296.2h-3.1v1.8h1.1v4.9h-1.1v1.8h4.2v-1.8h-1.1V296.2z M345.8,295.1l4.4-2.1l-0.8-1.7
			l-4.2,2.4L345.8,295.1z M357.7,304.7h3.1v-1.8h-1.1V298h1.1v-1.8h-3.1v1.2c-0.6-0.9-1.6-1.4-2.7-1.4c-2.5,0-4.5,2.1-4.5,4.5
			c0,2.4,1.9,4.5,4.4,4.5c1.1,0,2.1-0.4,2.8-1.4V304.7z M355.1,303c-1.4,0-2.5-1.2-2.5-2.5c0-1.4,1.1-2.6,2.6-2.6
			c1.4,0,2.6,1.1,2.6,2.5C357.7,301.9,356.6,303,355.1,303 M363.5,304.7v0.2c0,0.5,0,1-0.7,1h-0.2v1.1h0.3c0.5,0,0.9,0,1.3-0.5
			c0.4-0.4,0.4-0.9,0.4-1.5v-2.6h-2v2.3H363.5z M383,296.9v-3.7h-1.8v1.2c-0.9-1-2.2-1.4-3.5-1.4c-3.2,0-5.8,2.7-5.8,5.9
			c0,1.6,0.6,3.1,1.7,4.3c1.1,1.1,2.7,1.8,4.2,1.8c2.4,0,4.8-1.6,5.6-4h-2.4c-0.7,1.1-1.9,1.7-3.2,1.7c-2.1,0-3.7-1.7-3.7-3.8
			c0-2.1,1.6-3.8,3.7-3.8c1.2,0,2.5,0.7,3.2,1.7H383z M384.3,304.7h5.4c1.7,0,3-0.4,4.2-1.7c1-1.1,1.5-2.5,1.5-4
			c0-1.6-0.5-3.1-1.6-4.2c-1.2-1.2-2.4-1.5-4-1.5h-5.4v1.8h1.2v7.8h-1.2V304.7z M387.7,295.2h1.7c1.1,0,1.9,0.1,2.7,0.9
			c0.7,0.8,1,1.9,1,2.9c0,0.9-0.3,2-0.9,2.7c-0.8,0.9-1.7,1-2.8,1h-1.7V295.2z M409.9,295.1h1.2v-1.8h-4.3l-3.1,8.1l-3.1-8.1h-4.3
			v1.8h1.2v7.8h-1.2v1.8h4.8v-1.8h-1.3v-6.6l3.3,8.5h1.5l3.2-8.5v6.6h-1.2v1.8h4.7v-1.8h-1.2V295.1z M423.3,302.9h-1.2l-3.2-4
			l3.1-3.8h1.2v-1.8h-4.7v1.7h1.1l-1.8,2.4l-1.8-2.4h1.1v-1.7h-4.7v1.8h1.2l3,3.8l-3.2,4h-1.1v1.8h4.7V303h-1.1l2.1-2.6l2,2.6h-1.1
			v1.7h4.7V302.9z"/>
	</g>
</g>
<g id="Capa_2">
	<g>
		<g>
			<path fill="#FFFFFF" d="M212.5,365.3h3.3v6.5h5.7v-6.5h3.3v17.1h-3.3V375h-5.7v7.5h-3.3V365.3z"/>
			<path fill="#FFFFFF" d="M237.7,369.8h3.2v12.7h-3.2v-1.3c-0.6,0.6-1.2,1-1.9,1.3c-0.6,0.3-1.3,0.4-2,0.4c-1.6,0-3.1-0.6-4.3-1.9
				c-1.2-1.3-1.8-2.9-1.8-4.7c0-2,0.6-3.6,1.7-4.8c1.2-1.3,2.6-1.9,4.2-1.9c0.8,0,1.5,0.1,2.1,0.4c0.7,0.3,1.3,0.7,1.9,1.3V369.8z
				 M234.4,372.4c-1,0-1.8,0.3-2.5,1c-0.7,0.7-1,1.6-1,2.7c0,1.1,0.3,2,1,2.7c0.7,0.7,1.5,1.1,2.4,1.1c1,0,1.8-0.3,2.5-1
				c0.7-0.7,1-1.6,1-2.7c0-1.1-0.3-2-1-2.7C236.2,372.8,235.4,372.4,234.4,372.4z"/>
			<path fill="#FFFFFF" d="M243.6,369.8h9.7l-5.7,10h5.4v2.7h-10.3l5.7-10h-4.9V369.8z"/>
			<path fill="#FFFFFF" d="M274.2,372.4l-2.6,1.5c-0.5-0.5-1-0.9-1.5-1.1c-0.5-0.2-1.1-0.3-1.7-0.3c-1.2,0-2.2,0.4-2.9,1.1
				c-0.7,0.7-1.1,1.6-1.1,2.7c0,1.1,0.4,2,1.1,2.6c0.7,0.7,1.6,1,2.8,1c1.4,0,2.5-0.5,3.3-1.5l2.5,1.7c-1.4,1.8-3.3,2.7-5.8,2.7
				c-2.2,0-4-0.7-5.2-2c-1.3-1.3-1.9-2.9-1.9-4.6c0-1.2,0.3-2.4,0.9-3.4c0.6-1,1.5-1.8,2.6-2.4c1.1-0.6,2.3-0.9,3.7-0.9
				c1.3,0,2.4,0.3,3.4,0.8C272.7,370.7,273.6,371.4,274.2,372.4z"/>
			<path fill="#FFFFFF" d="M276.7,364.9h3.2v17.6h-3.2V364.9z"/>
			<path fill="#FFFFFF" d="M284,364.6c0.6,0,1,0.2,1.4,0.6c0.4,0.4,0.6,0.9,0.6,1.5c0,0.6-0.2,1.1-0.6,1.5c-0.4,0.4-0.9,0.6-1.4,0.6
				c-0.6,0-1-0.2-1.4-0.6c-0.4-0.4-0.6-0.9-0.6-1.5c0-0.6,0.2-1,0.6-1.4C283,364.8,283.5,364.6,284,364.6z M282.4,369.8h3.2v12.7
				h-3.2V369.8z"/>
			<path fill="#FFFFFF" d="M300.9,372.4l-2.6,1.5c-0.5-0.5-1-0.9-1.5-1.1c-0.5-0.2-1.1-0.3-1.7-0.3c-1.2,0-2.2,0.4-2.9,1.1
				c-0.7,0.7-1.1,1.6-1.1,2.7c0,1.1,0.4,2,1.1,2.6c0.7,0.7,1.6,1,2.8,1c1.4,0,2.5-0.5,3.3-1.5l2.5,1.7c-1.4,1.8-3.3,2.7-5.8,2.7
				c-2.2,0-4-0.7-5.2-2c-1.3-1.3-1.9-2.9-1.9-4.6c0-1.2,0.3-2.4,0.9-3.4c0.6-1,1.5-1.8,2.6-2.4c1.1-0.6,2.3-0.9,3.7-0.9
				c1.3,0,2.4,0.3,3.4,0.8C299.5,370.7,300.3,371.4,300.9,372.4z"/>
			<path fill="#FFFFFF" d="M213.8,392.2v0.8c0.3-0.3,0.7-0.6,1.1-0.8c0.4-0.2,0.8-0.3,1.3-0.3c1,0,1.8,0.4,2.5,1.1
				c0.7,0.7,1,1.7,1,2.9c0,1.1-0.4,2.1-1.1,2.8c-0.7,0.8-1.6,1.1-2.5,1.1c-0.4,0-0.8-0.1-1.2-0.2s-0.8-0.4-1.1-0.8v3.6h-1.9v-10.4
				H213.8z M215.8,393.7c-0.6,0-1.1,0.2-1.5,0.6c-0.4,0.4-0.6,0.9-0.6,1.6c0,0.7,0.2,1.2,0.6,1.6c0.4,0.4,0.9,0.6,1.5,0.6
				c0.6,0,1.1-0.2,1.5-0.6c0.4-0.4,0.6-1,0.6-1.6c0-0.7-0.2-1.2-0.6-1.6C216.9,393.9,216.4,393.7,215.8,393.7z"/>
			<path fill="#FFFFFF" d="M226.9,392.2h1.9v7.6h-1.9v-0.8c-0.4,0.4-0.7,0.6-1.1,0.8s-0.8,0.2-1.2,0.2c-1,0-1.8-0.4-2.5-1.1
				c-0.7-0.8-1.1-1.7-1.1-2.8c0-1.2,0.3-2.1,1-2.9c0.7-0.7,1.5-1.1,2.5-1.1c0.5,0,0.9,0.1,1.3,0.3c0.4,0.2,0.8,0.4,1.1,0.8V392.2z
				 M224.9,393.7c-0.6,0-1.1,0.2-1.5,0.6c-0.4,0.4-0.6,0.9-0.6,1.6c0,0.7,0.2,1.2,0.6,1.6c0.4,0.4,0.9,0.6,1.5,0.6
				c0.6,0,1.1-0.2,1.5-0.6c0.4-0.4,0.6-1,0.6-1.6c0-0.7-0.2-1.2-0.6-1.6C226,393.9,225.5,393.7,224.9,393.7z"/>
			<path fill="#FFFFFF" d="M230.3,392.2h1.6v1c0.2-0.4,0.4-0.7,0.7-0.9c0.3-0.2,0.6-0.3,1-0.3c0.2,0,0.5,0.1,0.8,0.2l-0.6,1.6
				c-0.2-0.1-0.4-0.2-0.6-0.2c-0.3,0-0.5,0.2-0.7,0.5c-0.2,0.4-0.3,1.1-0.3,2.1l0,0.4v3.1h-1.9V392.2z"/>
			<path fill="#FFFFFF" d="M240.9,392.2h1.9v7.6h-1.9v-0.8c-0.4,0.4-0.7,0.6-1.1,0.8s-0.8,0.2-1.2,0.2c-1,0-1.8-0.4-2.5-1.1
				c-0.7-0.8-1.1-1.7-1.1-2.8c0-1.2,0.3-2.1,1-2.9c0.7-0.7,1.5-1.1,2.5-1.1c0.5,0,0.9,0.1,1.3,0.3c0.4,0.2,0.8,0.4,1.1,0.8V392.2z
				 M238.9,393.7c-0.6,0-1.1,0.2-1.5,0.6c-0.4,0.4-0.6,0.9-0.6,1.6c0,0.7,0.2,1.2,0.6,1.6c0.4,0.4,0.9,0.6,1.5,0.6
				c0.6,0,1.1-0.2,1.5-0.6c0.4-0.4,0.6-1,0.6-1.6c0-0.7-0.2-1.2-0.6-1.6C240,393.9,239.5,393.7,238.9,393.7z"/>
			<path fill="#FFFFFF" d="M252.3,392c0.7,0,1.4,0.2,2,0.5c0.6,0.4,1.1,0.8,1.5,1.5c0.4,0.6,0.5,1.3,0.5,2c0,0.7-0.2,1.4-0.5,2
				c-0.4,0.6-0.8,1.1-1.5,1.5c-0.6,0.4-1.3,0.5-2,0.5c-1.1,0-2-0.4-2.8-1.2c-0.8-0.8-1.2-1.7-1.2-2.8c0-1.2,0.4-2.2,1.3-3
				C250.4,392.3,251.3,392,252.3,392z M252.3,393.8c-0.6,0-1.1,0.2-1.5,0.6c-0.4,0.4-0.6,0.9-0.6,1.6c0,0.7,0.2,1.2,0.6,1.6
				s0.9,0.6,1.5,0.6c0.6,0,1.1-0.2,1.5-0.6c0.4-0.4,0.6-0.9,0.6-1.6c0-0.7-0.2-1.2-0.6-1.6C253.4,394,252.9,393.8,252.3,393.8z"/>
			<path fill="#FFFFFF" d="M259.8,389.2v3.8c0.3-0.3,0.7-0.6,1.1-0.8c0.4-0.2,0.8-0.3,1.3-0.3c1,0,1.8,0.4,2.5,1.1
				c0.7,0.7,1,1.7,1,2.9c0,1.1-0.4,2.1-1.1,2.8c-0.7,0.8-1.6,1.1-2.5,1.1c-0.4,0-0.8-0.1-1.2-0.2s-0.8-0.4-1.1-0.8v0.8h-1.9v-10.5
				H259.8z M261.8,393.7c-0.6,0-1.1,0.2-1.5,0.6c-0.4,0.4-0.6,0.9-0.6,1.6c0,0.7,0.2,1.2,0.6,1.6c0.4,0.4,0.9,0.6,1.5,0.6
				c0.6,0,1.1-0.2,1.5-0.6c0.4-0.4,0.6-1,0.6-1.6c0-0.7-0.2-1.2-0.6-1.6C262.9,393.9,262.4,393.7,261.8,393.7z"/>
			<path fill="#FFFFFF" d="M267.5,389.4h1.9v2.8h1.1v1.6h-1.1v5.9h-1.9v-5.9h-1v-1.6h1V389.4z"/>
			<path fill="#FFFFFF" d="M279.2,396.5h-6.1c0.1,0.5,0.3,1,0.7,1.3c0.4,0.3,0.9,0.5,1.5,0.5c0.7,0,1.3-0.2,1.8-0.7l1.6,0.8
				c-0.4,0.6-0.9,1-1.4,1.3c-0.6,0.3-1.2,0.4-2,0.4c-1.2,0-2.2-0.4-2.9-1.1c-0.7-0.8-1.1-1.7-1.1-2.8c0-1.2,0.4-2.1,1.1-2.9
				c0.7-0.8,1.7-1.1,2.8-1.1c1.2,0,2.2,0.4,2.9,1.1c0.7,0.8,1.1,1.8,1.1,3L279.2,396.5z M277.3,395c-0.1-0.4-0.4-0.8-0.7-1
				c-0.4-0.3-0.8-0.4-1.3-0.4c-0.5,0-1,0.1-1.4,0.4c-0.3,0.2-0.5,0.5-0.7,1H277.3z"/>
			<path fill="#FFFFFF" d="M280.7,392.2h1.9v0.8c0.4-0.4,0.8-0.6,1.2-0.8c0.4-0.1,0.7-0.2,1.1-0.2c0.8,0,1.4,0.3,1.9,0.8
				c0.4,0.4,0.7,1.1,0.7,2v5h-1.9v-3.3c0-0.9,0-1.5-0.1-1.8c-0.1-0.3-0.2-0.5-0.4-0.7c-0.2-0.2-0.5-0.2-0.7-0.2
				c-0.4,0-0.7,0.1-1,0.4c-0.3,0.3-0.5,0.6-0.6,1.1c-0.1,0.2-0.1,0.7-0.1,1.5v3h-1.9V392.2z"/>
			<path fill="#FFFFFF" d="M296.9,396.5h-6.1c0.1,0.5,0.3,1,0.7,1.3c0.4,0.3,0.9,0.5,1.5,0.5c0.7,0,1.3-0.2,1.8-0.7l1.6,0.8
				c-0.4,0.6-0.9,1-1.4,1.3c-0.6,0.3-1.2,0.4-2,0.4c-1.2,0-2.2-0.4-2.9-1.1c-0.7-0.8-1.1-1.7-1.1-2.8c0-1.2,0.4-2.1,1.1-2.9
				c0.7-0.8,1.7-1.1,2.8-1.1c1.2,0,2.2,0.4,2.9,1.1c0.7,0.8,1.1,1.8,1.1,3L296.9,396.5z M295,395c-0.1-0.4-0.4-0.8-0.7-1
				c-0.4-0.3-0.8-0.4-1.3-0.4c-0.5,0-1,0.1-1.4,0.4c-0.3,0.2-0.5,0.5-0.7,1H295z"/>
			<path fill="#FFFFFF" d="M298,392.2h1.6v1c0.2-0.4,0.4-0.7,0.7-0.9c0.3-0.2,0.6-0.3,1-0.3c0.2,0,0.5,0.1,0.8,0.2l-0.6,1.6
				c-0.2-0.1-0.4-0.2-0.6-0.2c-0.3,0-0.5,0.2-0.7,0.5c-0.2,0.4-0.3,1.1-0.3,2.1l0,0.4v3.1H298V392.2z"/>
			<path fill="#FFFFFF" d="M242.9,409.3h1.9v0.9c0.3-0.4,0.7-0.6,1.1-0.8c0.4-0.2,0.8-0.3,1.3-0.3c0.5,0,0.9,0.1,1.3,0.3
				c0.4,0.2,0.7,0.6,0.9,1c0.3-0.4,0.7-0.8,1.1-1c0.4-0.2,0.9-0.3,1.4-0.3c0.5,0,1,0.1,1.4,0.4c0.4,0.3,0.7,0.6,0.9,1
				c0.2,0.4,0.3,1.1,0.3,2v4.4h-1.9V413c0-0.9-0.1-1.4-0.3-1.7c-0.2-0.3-0.5-0.5-1-0.5c-0.3,0-0.6,0.1-0.9,0.3
				c-0.3,0.2-0.4,0.4-0.6,0.8c-0.1,0.3-0.2,0.9-0.2,1.6v3.4h-1.9v-3.7c0-0.7-0.1-1.2-0.2-1.5c-0.1-0.3-0.3-0.5-0.5-0.7
				c-0.2-0.1-0.4-0.2-0.7-0.2c-0.3,0-0.6,0.1-0.9,0.3c-0.3,0.2-0.5,0.5-0.6,0.8c-0.1,0.3-0.2,0.9-0.2,1.6v3.4h-1.9V409.3z"/>
			<path fill="#FFFFFF" d="M261.9,409.3h1.9v7.6h-1.9v-0.8c-0.4,0.4-0.7,0.6-1.1,0.8c-0.4,0.2-0.8,0.2-1.2,0.2c-1,0-1.8-0.4-2.5-1.1
				c-0.7-0.8-1.1-1.7-1.1-2.8c0-1.2,0.3-2.1,1-2.9c0.7-0.7,1.5-1.1,2.5-1.1c0.5,0,0.9,0.1,1.3,0.3c0.4,0.2,0.8,0.4,1.1,0.8V409.3z
				 M259.9,410.9c-0.6,0-1.1,0.2-1.5,0.6c-0.4,0.4-0.6,0.9-0.6,1.6c0,0.7,0.2,1.2,0.6,1.6c0.4,0.4,0.9,0.6,1.5,0.6
				c0.6,0,1.1-0.2,1.5-0.6c0.4-0.4,0.6-1,0.6-1.6c0-0.7-0.2-1.2-0.6-1.6S260.5,410.9,259.9,410.9z M260.4,405.2h2.3l-2.6,2.7h-1.4
				L260.4,405.2z"/>
			<path fill="#FFFFFF" d="M270.4,410.4l-1.2,1.2c-0.5-0.5-0.9-0.7-1.3-0.7c-0.2,0-0.4,0-0.5,0.1c-0.1,0.1-0.2,0.2-0.2,0.3
				c0,0.1,0,0.2,0.1,0.3c0.1,0.1,0.3,0.2,0.6,0.4l0.7,0.3c0.7,0.4,1.2,0.7,1.5,1.1c0.3,0.4,0.4,0.8,0.4,1.3c0,0.7-0.2,1.2-0.7,1.7
				c-0.5,0.5-1.2,0.7-2,0.7c-1.1,0-2-0.4-2.6-1.3l1.2-1.3c0.2,0.3,0.5,0.5,0.8,0.6s0.6,0.2,0.8,0.2c0.3,0,0.5-0.1,0.6-0.2
				c0.2-0.1,0.2-0.3,0.2-0.4c0-0.3-0.3-0.6-0.8-0.9l-0.6-0.3c-1.2-0.6-1.8-1.4-1.8-2.3c0-0.6,0.2-1.1,0.7-1.5
				c0.5-0.4,1.1-0.6,1.8-0.6c0.5,0,1,0.1,1.4,0.3C269.7,409.6,270.1,410,270.4,410.4z"/>
			<path fill="#FFFFFF" d="M218.8,423.3c0.3,0,0.6,0.1,0.9,0.4c0.2,0.2,0.4,0.5,0.4,0.9c0,0.3-0.1,0.6-0.4,0.9
				c-0.2,0.2-0.5,0.4-0.8,0.4c-0.3,0-0.6-0.1-0.9-0.4c-0.2-0.2-0.4-0.5-0.4-0.9c0-0.3,0.1-0.6,0.4-0.9
				C218.2,423.4,218.4,423.3,218.8,423.3z M217.8,426.4h1.9v7.6h-1.9V426.4z"/>
			<path fill="#FFFFFF" d="M221.5,426.4h1.9v0.8c0.4-0.4,0.8-0.6,1.2-0.8c0.4-0.1,0.7-0.2,1.1-0.2c0.8,0,1.4,0.3,1.9,0.8
				c0.4,0.4,0.7,1.1,0.7,2v5h-1.9v-3.3c0-0.9,0-1.5-0.1-1.8c-0.1-0.3-0.2-0.5-0.4-0.7c-0.2-0.2-0.5-0.2-0.7-0.2
				c-0.4,0-0.7,0.1-1,0.4c-0.3,0.3-0.5,0.6-0.6,1.1c-0.1,0.2-0.1,0.7-0.1,1.5v3h-1.9V426.4z"/>
			<path fill="#FFFFFF" d="M229.1,426.4h0.7c0-1,0-1.6,0-1.8c0.1-0.4,0.2-0.7,0.5-1c0.3-0.2,0.7-0.4,1.3-0.4c0.4,0,0.8,0.1,1.3,0.3
				v1.4c-0.3-0.1-0.5-0.1-0.7-0.1c-0.2,0-0.4,0-0.5,0.1c-0.1,0.1-0.1,0.2-0.1,0.4l0,0.9h1.2v1.6h-1.2v6h-1.9v-6h-0.7V426.4z"/>
			<path fill="#FFFFFF" d="M237.6,426.2c0.7,0,1.4,0.2,2,0.5s1.1,0.8,1.5,1.5c0.4,0.6,0.5,1.3,0.5,2c0,0.7-0.2,1.4-0.5,2
				s-0.8,1.1-1.5,1.5c-0.6,0.4-1.3,0.5-2,0.5c-1.1,0-2-0.4-2.8-1.2c-0.8-0.8-1.2-1.7-1.2-2.8c0-1.2,0.4-2.2,1.3-3
				C235.7,426.6,236.6,426.2,237.6,426.2z M237.6,428c-0.6,0-1.1,0.2-1.5,0.6c-0.4,0.4-0.6,0.9-0.6,1.6c0,0.7,0.2,1.2,0.6,1.6
				s0.9,0.6,1.5,0.6c0.6,0,1.1-0.2,1.5-0.6c0.4-0.4,0.6-0.9,0.6-1.6c0-0.7-0.2-1.2-0.6-1.6C238.7,428.2,238.2,428,237.6,428z"/>
			<path fill="#FFFFFF" d="M242.7,426.4h1.6v1c0.2-0.4,0.4-0.7,0.7-0.9c0.3-0.2,0.6-0.3,1-0.3c0.2,0,0.5,0.1,0.8,0.2l-0.6,1.6
				c-0.2-0.1-0.4-0.2-0.6-0.2c-0.3,0-0.5,0.2-0.7,0.5c-0.2,0.4-0.3,1.1-0.3,2.1l0,0.4v3.1h-1.9V426.4z"/>
			<path fill="#FFFFFF" d="M247.7,426.4h1.9v0.9c0.3-0.4,0.7-0.6,1.1-0.8c0.4-0.2,0.8-0.3,1.3-0.3c0.5,0,0.9,0.1,1.3,0.3
				c0.4,0.2,0.7,0.6,0.9,1c0.3-0.4,0.7-0.8,1.1-1c0.4-0.2,0.9-0.3,1.4-0.3c0.5,0,1,0.1,1.4,0.4c0.4,0.3,0.7,0.6,0.9,1
				c0.2,0.4,0.3,1.1,0.3,2v4.4h-1.9v-3.8c0-0.9-0.1-1.4-0.3-1.7c-0.2-0.3-0.5-0.5-1-0.5c-0.3,0-0.6,0.1-0.9,0.3
				c-0.3,0.2-0.4,0.4-0.6,0.8c-0.1,0.3-0.2,0.9-0.2,1.6v3.4h-1.9v-3.7c0-0.7-0.1-1.2-0.2-1.5c-0.1-0.3-0.3-0.5-0.5-0.7
				c-0.2-0.1-0.4-0.2-0.7-0.2c-0.3,0-0.6,0.1-0.9,0.3c-0.3,0.2-0.5,0.5-0.6,0.8c-0.1,0.3-0.2,0.9-0.2,1.6v3.4h-1.9V426.4z"/>
			<path fill="#FFFFFF" d="M266.7,426.4h1.9v7.6h-1.9v-0.8c-0.4,0.4-0.7,0.6-1.1,0.8c-0.4,0.2-0.8,0.2-1.2,0.2c-1,0-1.8-0.4-2.5-1.1
				c-0.7-0.8-1.1-1.7-1.1-2.8c0-1.2,0.3-2.1,1-2.9c0.7-0.7,1.5-1.1,2.5-1.1c0.5,0,0.9,0.1,1.3,0.3c0.4,0.2,0.8,0.4,1.1,0.8V426.4z
				 M264.7,428c-0.6,0-1.1,0.2-1.5,0.6c-0.4,0.4-0.6,0.9-0.6,1.6c0,0.7,0.2,1.2,0.6,1.6c0.4,0.4,0.9,0.6,1.5,0.6
				c0.6,0,1.1-0.2,1.5-0.6s0.6-1,0.6-1.6c0-0.7-0.2-1.2-0.6-1.6S265.3,428,264.7,428z"/>
			<path fill="#FFFFFF" d="M278,428l-1.6,0.9c-0.3-0.3-0.6-0.5-0.9-0.6c-0.3-0.1-0.6-0.2-1-0.2c-0.7,0-1.3,0.2-1.7,0.6
				c-0.4,0.4-0.7,1-0.7,1.6c0,0.6,0.2,1.2,0.6,1.6c0.4,0.4,1,0.6,1.7,0.6c0.9,0,1.5-0.3,2-0.9l1.5,1c-0.8,1.1-2,1.6-3.4,1.6
				c-1.3,0-2.4-0.4-3.1-1.2c-0.8-0.8-1.1-1.7-1.1-2.8c0-0.7,0.2-1.4,0.6-2c0.4-0.6,0.9-1.1,1.5-1.5s1.4-0.5,2.2-0.5
				c0.8,0,1.4,0.2,2,0.5S277.6,427.4,278,428z"/>
			<path fill="#FFFFFF" d="M280.5,423.3c0.3,0,0.6,0.1,0.9,0.4c0.2,0.2,0.4,0.5,0.4,0.9c0,0.3-0.1,0.6-0.4,0.9
				c-0.2,0.2-0.5,0.4-0.8,0.4c-0.3,0-0.6-0.1-0.9-0.4c-0.2-0.2-0.4-0.5-0.4-0.9c0-0.3,0.1-0.6,0.4-0.9
				C279.8,423.4,280.1,423.3,280.5,423.3z M279.5,426.4h1.9v7.6h-1.9V426.4z"/>
			<path fill="#FFFFFF" d="M286.7,426.2c0.7,0,1.4,0.2,2,0.5s1.1,0.8,1.5,1.5c0.4,0.6,0.5,1.3,0.5,2c0,0.7-0.2,1.4-0.5,2
				c-0.4,0.6-0.8,1.1-1.5,1.5s-1.3,0.5-2,0.5c-1.1,0-2-0.4-2.8-1.2c-0.8-0.8-1.2-1.7-1.2-2.8c0-1.2,0.4-2.2,1.3-3
				C284.8,426.6,285.7,426.2,286.7,426.2z M286.7,428c-0.6,0-1.1,0.2-1.5,0.6c-0.4,0.4-0.6,0.9-0.6,1.6c0,0.7,0.2,1.2,0.6,1.6
				c0.4,0.4,0.9,0.6,1.5,0.6c0.6,0,1.1-0.2,1.5-0.6c0.4-0.4,0.6-0.9,0.6-1.6c0-0.7-0.2-1.2-0.6-1.6C287.8,428.2,287.3,428,286.7,428
				z M287.1,422.3h2.3l-2.6,2.7h-1.4L287.1,422.3z"/>
			<path fill="#FFFFFF" d="M292.3,426.4h1.9v0.8c0.4-0.4,0.8-0.6,1.2-0.8s0.7-0.2,1.1-0.2c0.8,0,1.4,0.3,1.9,0.8
				c0.4,0.4,0.7,1.1,0.7,2v5h-1.9v-3.3c0-0.9,0-1.5-0.1-1.8c-0.1-0.3-0.2-0.5-0.4-0.7c-0.2-0.2-0.5-0.2-0.7-0.2
				c-0.4,0-0.7,0.1-1,0.4c-0.3,0.3-0.5,0.6-0.6,1.1c-0.1,0.2-0.1,0.7-0.1,1.5v3h-1.9V426.4z"/>
		</g>
		<g>
			<path fill="#0094A1" d="M299.9,448c0.4-0.2,0.8-0.3,1.2-0.4c-0.1-0.1-0.1-0.1-0.2-0.2c-0.8-0.8-1.6-1.6-2.4-2.4
				c-0.8-0.8-1.6-1.6-2.4-2.4l-21.7,18.5h-43.8l-33.5-28.6l-7.6-43.8l21.9-38.5l41.2-15.2l41.2,15.2l21.9,38.5l-7.6,43.8l-3.9,3.3
				c0.6,0.6,1.2,1.2,1.8,1.8c0.8,0.8,1.6,1.6,2.4,2.4c0.3,0.3,0.5,0.5,0.8,0.8l5.3-4.5l8.5-48.8l-24.4-42.9l-45.9-17l-45.9,17
				l-24.4,42.9l8.5,48.7l37.4,31.8H277l20.2-17.2c0.2-0.4,0.3-0.8,0.6-1.1C298.3,449,299,448.5,299.9,448z"/>
			<path fill="#FFFFFF" d="M326.4,447.8l-0.3,0.2c0,0-0.8,0.7-1.1,1.1c-0.3,0.4-0.7,0.9-0.9,1.3c-0.4,0.7-0.8,1.5-1,2.3
				c-0.2,0.7-0.2,1.3-0.2,2c0,0.8-0.5,1.2-1.2,1.2c-0.3,0-0.5-0.2-0.7-0.4c-1.2-1.2-2.5-2.5-3.7-3.7c-1.3-1.3-2.6-2.7-3.9-4
				c-1.4-1.4-2.8-2.8-4.2-4.2c-1.2-1.2-2.4-2.3-3.5-3.5c-0.9-0.9-1.9-1.9-2.8-2.8c-0.7-0.7-1.5-1.5-2.3-2.2c-0.7-0.6-1.9-0.8-3-0.3
				c-0.7,0.3-1.2,0.9-1.6,1.5c-0.5,0.8-0.4,2.4,0.3,3.1c1,1,2.1,2.1,3.1,3.1c0.9,0.9,1.9,1.9,2.8,2.9c1,1,2.1,2.1,3.1,3.1
				c0.8,0.8,1.6,1.6,2.4,2.4c1,1,1.9,2,2.9,2.9c0.8,0.8,1.6,1.6,2.3,2.4c0.4,0.4,0.8,0.8,1.2,1.2c0.5,0.5,0.3,1.2-0.2,1.5
				c-0.5,0.4-1.2,0.3-1.6-0.2c-1.2-1.2-2.4-2.5-3.7-3.7c-1.1-1.1-2.2-2.2-3.3-3.3c-0.6-0.6-1.1-1.2-1.7-1.6
				c-0.7-0.5-1.4-0.6-2.3-0.4c-0.7,0.2-1.3,0.6-1.8,1.3c-0.5,0.8-0.7,1.7-0.3,2.6c0.3,0.8,0.9,1.2,1.5,1.8c1.4,1.5,2.9,2.9,4.3,4.3
				c1.1,1.1,2.1,2.1,3.2,3.2c0.4,0.4,0.4,1.2,0.1,1.5c-0.4,0.5-0.9,0.7-1.6,0.2c-0.5-0.4-0.9-0.9-1.3-1.3c-0.8-0.8-1.6-1.7-2.5-2.5
				c-1-1-1.9-1.9-2.9-2.8c-0.8-0.8-1.9-0.9-3-0.5c-0.8,0.3-1.4,0.9-1.7,1.7c-0.4,0.8-0.1,2.3,0.5,2.9c1.4,1.3,2.7,2.7,4,4
				c0.9,0.8,1.7,1.7,2.6,2.6c0.3,0.3,0.4,0.7,0.2,1.1c-0.2,0.4-0.5,0.7-0.9,0.8c-0.4,0-0.8,0-1.1-0.4c-1-1.1-2.1-2.1-3.2-3.1
				c-0.4-0.4-0.8-0.9-1.3-1.3c-0.6-0.6-1.9-0.7-2.7-0.4c-0.8,0.3-1.4,0.9-1.8,1.7c-0.4,0.8-0.3,2.1,0.3,2.7c0.8,0.9,1.7,1.7,2.5,2.5
				c0.6,0.6,1.2,1.2,1.8,1.9c1.2,1.2,2.5,2.5,3.7,3.7c0.8,0.8,1.6,1.6,2.4,2.4c0.8,0.8,1.6,1.6,2.4,2.3c0.9,0.8,1.9,1.4,2.9,2.1
				c1.1,0.7,2.3,1.2,3.5,1.7c0.4,0.2,0.8,0.3,1.2,0.4c1,0.3,3.8,0.7,4.3,0.8c1.3,0,2.5-0.1,3.7-0.4c1.4-0.4,2.6-1,3.7-1.9
				c1.3-1.1,2.4-2.4,3.6-3.5c0.8-0.8,1.6-1.6,2.1-2.6c0.2-0.3,0.4-0.7,0.5-1.1c1-2.4,1.1-4.9,0.7-7.5c-0.2-1.4-0.6-2.8-1.3-4
				c-0.5-0.9-0.6-1.9-0.7-3c-0.1-1.2-0.1-2.4-0.3-3.6c-0.2-1.4-0.2-2.8-0.1-4.2c0.1-1,0.2-2.1,0.4-3.1c0.3-1.4,0.7-2.8,1.2-4.2
				c0.4-1.1-0.6-2.3-1.7-2.1c-0.7,0.1-1.4,0.4-2,0.9C326.6,447.7,326.4,447.8,326.4,447.8z"/>
		</g>
	</g>
</g>
</svg>
