<?xml version="1.0" encoding="utf-8"?>
<!-- Generator: Adobe Illustrator 18.0.0, SVG Export Plug-In . SVG Version: 6.00 Build 0)  -->
<!DOCTYPE svg PUBLIC "-//W3C//DTD SVG 1.1//EN" "http://www.w3.org/Graphics/SVG/1.1/DTD/svg11.dtd">
<svg version="1.1" xmlns="http://www.w3.org/2000/svg" xmlns:xlink="http://www.w3.org/1999/xlink" x="0px" y="0px"
	 viewBox="0 0 511.1 395.5" enable-background="new 0 0 511.1 395.5" xml:space="preserve">
<g id="Capa_1">
	<g>
		<g>
			<path fill="#0094A1" d="M43.9,106c19,0,31.7-9.2,31.7-23.7c0-11.1-7.5-18-22.3-22.5c-13.5-4-16.5-5.2-16.5-7.1
				c0-1.8,1.5-2.7,6.4-2.7c8.5,0,20.7,3.2,27.7,7.3V36.8c-6.3-3-14.5-5.8-26.1-5.8c-18.2,0-31,7.1-31,22.4
				c0,13.2,10.4,19.2,23.7,23.1c11.1,3.3,15,4.7,15,6.9c0,2.7-3.7,3.4-8.3,3.4c-9.5,0-23.7-4.4-30.4-10.1v21.6
				C23.2,104.2,33.3,106,43.9,106"/>
			<rect x="79.9" y="32.5" fill="#B9007C" width="22.1" height="72.1"/>
			<polygon fill="#DDDB1C" points="108.8,104.6 130.3,104.6 130.3,64.2 140.9,81.4 152.8,81.4 163,64.2 163,104.6 184.2,104.6 
				184.2,32.5 162.4,32.5 146.5,58.1 130.8,32.5 108.8,32.5 			"/>
			<path fill="#009ADA" d="M223.9,32.5h-33.2v72.1h22.1V79.5h11c16.8,0,27.3-10.1,27.3-23.5C251.2,42.5,240.7,32.5,223.9,32.5
				 M220.9,63.4h-8V50.5h8c4.4,0,7.6,2.6,7.6,6.4C228.5,60.8,225.3,63.4,220.9,63.4"/>
			<path fill="#0094A1" d="M289.9,85.9c-9.3,0-16-7.3-16-17.3c0-10,6.7-17.3,16-17.3c9.3,0,16,7.3,16,17.3
				C305.9,78.5,299.2,85.9,289.9,85.9 M289.9,106c22.7,0,38.5-17.2,38.5-37.5c0-20.4-15.9-37.5-38.5-37.5
				c-22.6,0-38.6,17.1-38.6,37.5C251.3,88.8,267.4,106,289.9,106"/>
			<path fill="#B9007C" d="M361.2,106c19,0,31.7-9.2,31.7-23.7c0-11.1-7.5-18-22.3-22.5c-13.5-4-16.5-5.2-16.5-7.1
				c0-1.8,1.5-2.7,6.4-2.7c8.5,0,20.7,3.2,27.7,7.3V36.8c-6.3-3-14.5-5.8-26.1-5.8c-18.2,0-31,7.1-31,22.4
				c0,13.2,10.4,19.2,23.7,23.1c11.1,3.3,15,4.7,15,6.9c0,2.7-3.7,3.4-8.3,3.4c-9.5,0-23.7-4.4-30.4-10.1v21.6
				C340.5,104.2,350.6,106,361.2,106"/>
			<rect x="397.2" y="32.5" fill="#DDDB1C" width="22.1" height="72.1"/>
			<path fill="#009ADA" d="M462.7,85.9c-9.3,0-16-7.3-16-17.3c0-10,6.7-17.3,16-17.3c9.3,0,16,7.3,16,17.3
				C478.7,78.5,472,85.9,462.7,85.9 M462.7,106c22.7,0,38.5-17.2,38.5-37.5c0-20.4-15.9-37.5-38.5-37.5c-22.6,0-38.6,17.1-38.6,37.5
				C424.1,88.8,440.1,106,462.7,106"/>
			<path fill="#B9007C" d="M90.6,25.2c6.3,0,11.4-5.1,11.4-11.4c0-6.3-5.1-11.4-11.4-11.4c-6.3,0-11.4,5.1-11.4,11.4
				C79.2,20.1,84.3,25.2,90.6,25.2"/>
			<path fill="#DDDB1C" d="M408.8,25.2c6.3,0,11.4-5.1,11.4-11.4c0-6.3-5.1-11.4-11.4-11.4c-6.3,0-11.4,5.1-11.4,11.4
				C397.4,20.1,402.5,25.2,408.8,25.2"/>
			<path fill="#FFFFFF" d="M12.7,220.4h41.7v-10.6H29.9l10.1-9.2c9-8.3,12.4-13.7,12.4-22.1c0-11.1-10-17.9-20.8-17.9
				c-7,0-12.8,2.3-17.1,5.6v12.4c4.4-3.9,9.4-6.7,15.8-6.7c6,0,10.1,3.2,10.1,8.2c0,5.2-2.9,9-10.5,15.8l-17.3,15.7V220.4z
				 M87.7,221.6c16.1,0,25.2-14.6,25.2-30.5c0-15.9-9.1-30.5-25.2-30.5c-16.2,0-25.3,14.6-25.3,30.5C62.4,207,71.6,221.6,87.7,221.6
				 M87.7,210.3c-8.4,0-13.2-9-13.2-19.2c0-10.2,4.9-19.2,13.2-19.2c8.4,0,13.2,9,13.2,19.2C100.9,201.3,96.1,210.3,87.7,210.3
				 M131.3,220.4h11.8v-58.6h-10.5l-13.7,7.4V181l12.4-6.3V220.4z M156.6,220.4h12.8l24.8-49.3v-9.3h-41.4v10.8h27.7L156.6,220.4z"
				/>
			<path fill="#FFFFFF" d="M12.5,143.6h4.9v-16.3L23,135h2.7l5.5-7.6v16.3H36v-23.8h-4.8l-6.9,9.8l-6.9-9.8h-4.9V143.6z M61.3,139.5
				c-4.2,0-7.3-3.3-7.3-7.8c0-4.5,3.2-7.8,7.3-7.8s7.3,3.3,7.3,7.8C68.6,136.2,65.4,139.5,61.3,139.5 M61.3,144.1
				c7.1,0,12.3-5.5,12.3-12.4c0-6.9-5.2-12.4-12.3-12.4s-12.3,5.5-12.3,12.4C48.9,138.6,54.1,144.1,61.3,144.1 M86.5,143.6h8.9
				c7.7,0,13-4.9,13-11.9c0-7-5.3-11.9-13-11.9h-8.9V143.6z M91.4,139.2v-15H95c5.3,0,8.4,2.8,8.4,7.5c0,4.7-3.1,7.5-8.4,7.5H91.4z
				 M121.3,143.6h17.8v-4.4h-12.9v-6.1h10.1v-4.3h-10.1v-4.6h12.6v-4.4h-17.5V143.6z M151.6,143.6h16.9v-4.4h-12.1v-19.4h-4.9V143.6
				z M190.4,139.5c-4.2,0-7.3-3.3-7.3-7.8c0-4.5,3.2-7.8,7.3-7.8c4.2,0,7.3,3.3,7.3,7.8C197.8,136.2,194.6,139.5,190.4,139.5
				 M190.4,144.1c7.1,0,12.3-5.5,12.3-12.4c0-6.9-5.2-12.4-12.3-12.4c-7.1,0-12.3,5.5-12.3,12.4
				C178.1,138.6,183.3,144.1,190.4,144.1 M232.5,143.6h17.8v-4.4h-12.9v-6.1h10.1v-4.3h-10.1v-4.6H250v-4.4h-17.5V143.6z
				 M262.8,143.6h8.9c7.7,0,13-4.9,13-11.9c0-7-5.3-11.9-13-11.9h-8.9V143.6z M267.6,139.2v-15h3.6c5.3,0,8.4,2.8,8.4,7.5
				c0,4.7-3.1,7.5-8.4,7.5H267.6z M307.4,144.1c5.7,0,10.2-3.6,10.2-10.5v-13.8h-4.9v14c0,3.9-2.3,5.7-5.3,5.7c-3,0-5.3-1.8-5.3-5.7
				v-14h-4.9v13.8C297.3,140.5,301.7,144.1,307.4,144.1 M343.1,144.1c2.5,0,4.9-0.6,6.8-1.7v-4.9c-1.9,1.5-4.1,2.1-6.5,2.1
				c-4.6,0-8.1-3.2-8.1-7.8c0-4.6,3.4-7.8,7.9-7.8c2.6,0,4.5,0.7,6.2,1.8v-4.9c-1.8-1-3.9-1.5-6.3-1.5c-7.4,0-12.9,5.1-12.9,12.4
				C330.2,139,335.8,144.1,343.1,144.1 M360.5,143.6h5.1l2.3-5.5H378l2.3,5.5h5.2l-10.2-23.9h-4.7L360.5,143.6z M369.5,134.1
				l3.5-8.3l3.5,8.3H369.5z M392.2,119.8v4.4h7.5v19.4h4.9v-19.4h7.5v-4.4H392.2z M424.4,143.6h4.9v-23.8h-4.9V143.6z M451.1,143.8
				h4.6l10-23.9h-5.3l-7,17.1l-6.9-17.1h-5.4L451.1,143.8z M487.3,139.5c-4.2,0-7.3-3.3-7.3-7.8c0-4.5,3.2-7.8,7.3-7.8
				c4.2,0,7.3,3.3,7.3,7.8C494.6,136.2,491.5,139.5,487.3,139.5 M487.3,144.1c7.1,0,12.3-5.5,12.3-12.4c0-6.9-5.2-12.4-12.3-12.4
				c-7.1,0-12.3,5.5-12.3,12.4C474.9,138.6,480.1,144.1,487.3,144.1"/>
			<path fill="#B9007C" d="M232.5,176.5h2.8v-5.9h6.1v5.9h2.8v-13.6h-2.8v5.1h-6.1v-5.1h-2.8V176.5z M256.3,174.4
				c-0.4,0-0.7-0.2-0.7-0.7v-3.3c0-2.4-1.9-3.8-4.6-3.8c-1.8,0-2.9,0.4-3.6,0.8v2.3c0.8-0.4,2-0.8,2.9-0.8c1.2,0,2.6,0.3,2.6,1.8
				v0.3c-0.6-0.3-1.5-0.6-2.8-0.6c-1.9,0-3.8,1-3.8,3.2c0,2,1.5,3.2,3.6,3.2c1.6,0,2.7-0.6,3.3-1.3c0.4,0.9,1.2,1.2,2.2,1.2
				c0.5,0,1.1-0.2,1.5-0.4v-2C256.7,174.4,256.4,174.4,256.3,174.4 M252.9,173.7c-0.4,0.6-1.3,1-2.2,1c-0.9,0-1.7-0.4-1.7-1.3
				c0-0.8,0.8-1.3,1.9-1.3c0.8,0,1.5,0.2,2,0.6V173.7z M263.3,176.8c1.3,0,2.1-0.2,3.1-0.7v-2.3c-0.8,0.5-1.6,0.7-2.6,0.7
				c-1.6,0-3-1.1-3-2.7c0-1.6,1.4-2.7,3-2.7c0.9,0,1.6,0.2,2.5,0.6v-2.3c-0.9-0.4-1.7-0.6-2.9-0.6c-2.8,0-5.3,1.9-5.3,5.1
				C258.1,174.8,260.6,176.8,263.3,176.8 M273.3,176.8c1.5,0,2.9-0.4,3.7-1v-2.2c-0.9,0.5-1.9,0.9-3.1,0.9c-1.6,0-2.9-0.6-3.2-2h6.9
				v-0.7c0-2.8-1.7-5.1-4.6-5.1c-3.1,0-5,2.3-5,5.1C267.9,174.8,270.3,176.8,273.3,176.8 M270.6,170.7c0.1-1.1,0.9-1.9,2.2-1.9
				c1.3,0,2,0.9,2,1.9H270.6z M279.6,176.5h2.7v-5.6c0.3-0.8,1.4-1.7,2.8-1.7c0.3,0,0.6,0,0.9,0.1v-2.7c-0.1,0-0.2,0-0.3,0
				c-1.5,0-2.8,0.9-3.4,1.9v-1.6h-2.7V176.5z M298.7,166.6c-1.6,0-2.6,0.7-3.2,1.4v-1.2h-2.7v13.5h2.7v-5.1c0.5,0.7,1.5,1.4,3.2,1.4
				c2.7,0,4.6-2.2,4.6-5.1C303.3,168.8,301.4,166.6,298.7,166.6 M297.9,169c1.5,0,2.6,1.2,2.6,2.7c0,1.5-1.1,2.7-2.6,2.7
				c-1.1,0-2-0.7-2.4-1.4v-2.5C295.9,169.6,296.8,169,297.9,169 M310,174.4c-1.5,0-2.7-1.2-2.7-2.7c0-1.5,1.1-2.7,2.7-2.7
				c1.6,0,2.7,1.2,2.7,2.7C312.7,173.2,311.6,174.4,310,174.4 M310,176.8c3.2,0,5.4-2.2,5.4-5.1c0-2.8-2.2-5.1-5.4-5.1
				c-3.2,0-5.4,2.3-5.4,5.1C304.6,174.5,306.8,176.8,310,176.8 M321,176.8c2.6,0,4.3-1.2,4.3-3c0-1.8-1.2-2.6-3.2-3.1
				c-1.2-0.3-2.4-0.4-2.4-1.1c0-0.5,0.5-0.8,1.5-0.8c1.3,0,2.6,0.5,3.5,1v-2.3c-0.9-0.5-2.3-0.9-3.6-0.9c-2.7,0-4.3,1.1-4.3,3
				c0,1.8,1.1,2.5,3.1,3c1.4,0.4,2.5,0.5,2.5,1.2c0,0.5-0.6,0.8-1.7,0.8c-1.7,0-3.3-0.6-4-1.1v2.4
				C317.8,176.4,319.3,176.8,321,176.8 M327.5,176.5h2.7v-9.7h-2.7V176.5z M328.8,165.9c0.9,0,1.6-0.7,1.6-1.6
				c0-0.9-0.7-1.6-1.6-1.6c-0.9,0-1.6,0.7-1.6,1.6C327.2,165.2,327.9,165.9,328.8,165.9 M338.9,176.8c2.7,0,4.6-2.2,4.6-5.1
				c0-2.8-1.9-5.1-4.6-5.1c-1.6,0-2.6,0.7-3.2,1.4v-5.1H333v13.6h2.7v-1.2C336.3,176,337.3,176.8,338.9,176.8 M338.1,174.4
				c-1.1,0-2-0.7-2.4-1.5v-2.5c0.4-0.8,1.3-1.4,2.4-1.4c1.5,0,2.6,1.2,2.6,2.7C340.8,173.2,339.7,174.4,338.1,174.4 M348.1,176.8
				c0.6,0,1.3-0.1,1.7-0.3v-2.2c-0.2,0.1-0.4,0.2-0.7,0.2c-0.5,0-0.9-0.3-0.9-1v-10.4h-2.7v11.1
				C345.5,176.2,346.7,176.8,348.1,176.8 M356.4,176.8c1.5,0,2.9-0.4,3.7-1v-2.2c-0.9,0.5-1.9,0.9-3.1,0.9c-1.6,0-2.9-0.6-3.2-2h6.9
				v-0.7c0-2.8-1.7-5.1-4.6-5.1c-3.1,0-5,2.3-5,5.1C351,174.8,353.4,176.8,356.4,176.8 M353.7,170.7c0.1-1.1,0.9-1.9,2.2-1.9
				c1.3,0,2,0.9,2,1.9H353.7z M370.3,176.8c0.6,0,1.3-0.1,1.7-0.3v-2.2c-0.2,0.1-0.4,0.2-0.7,0.2c-0.5,0-0.9-0.3-0.9-1v-10.4h-2.7
				v11.1C367.7,176.2,369,176.8,370.3,176.8 M383.1,174.4c-0.4,0-0.7-0.2-0.7-0.7v-3.3c0-2.4-1.9-3.8-4.6-3.8
				c-1.8,0-2.9,0.4-3.6,0.8v2.3c0.8-0.4,2-0.8,2.9-0.8c1.2,0,2.6,0.3,2.6,1.8v0.3c-0.6-0.3-1.5-0.6-2.8-0.6c-1.9,0-3.8,1-3.8,3.2
				c0,2,1.5,3.2,3.6,3.2c1.6,0,2.7-0.6,3.3-1.3c0.4,0.9,1.2,1.2,2.2,1.2c0.5,0,1.1-0.2,1.5-0.4v-2
				C383.5,174.4,383.3,174.4,383.1,174.4 M379.7,173.7c-0.4,0.6-1.3,1-2.2,1c-0.9,0-1.7-0.4-1.7-1.3c0-0.8,0.8-1.3,1.9-1.3
				c0.8,0,1.5,0.2,2,0.6V173.7z M390.7,176.5h2.8V171h2.3l4,5.5h3.2l-4.2-5.8c1.8-0.5,2.8-2,2.8-3.8c0-2.3-1.7-4-4.7-4h-6.3V176.5z
				 M393.5,168.7v-3.3h3.3c1.3,0,2,0.6,2,1.6c0,1.1-0.8,1.6-2,1.6H393.5z M409,176.8c1.5,0,2.9-0.4,3.7-1v-2.2
				c-0.9,0.5-1.9,0.9-3.1,0.9c-1.6,0-2.9-0.6-3.2-2h6.9v-0.7c0-2.8-1.7-5.1-4.6-5.1c-3.1,0-5,2.3-5,5.1
				C403.6,174.8,406,176.8,409,176.8 M406.3,170.7c0.1-1.1,0.9-1.9,2.2-1.9c1.3,0,2,0.9,2,1.9H406.3z M418.8,176.5v-7.4h3v-2.3h-3
				v-0.5c0-0.9,0.5-1.3,1.3-1.3c0.7,0,1.1,0.1,1.7,0.3v-2.2c-0.7-0.3-1.5-0.4-2.5-0.4c-2.2,0-3.3,1.4-3.3,3.2v0.9h-1.7v2.3h1.7v7.4
				H418.8z M428.1,174.4c-1.6,0-2.7-1.2-2.7-2.7c0-1.5,1.1-2.7,2.7-2.7c1.6,0,2.7,1.2,2.7,2.7C430.7,173.2,429.6,174.4,428.1,174.4
				 M428.1,176.8c3.2,0,5.4-2.2,5.4-5.1c0-2.8-2.2-5.1-5.4-5.1c-3.2,0-5.4,2.3-5.4,5.1C422.7,174.5,424.9,176.8,428.1,176.8
				 M435.5,176.5h2.7v-5.6c0.3-0.8,1.4-1.7,2.8-1.7c0.3,0,0.6,0,0.9,0.1v-2.7c-0.1,0-0.2,0-0.3,0c-1.5,0-2.8,0.9-3.4,1.9v-1.6h-2.7
				V176.5z M443.7,176.5h2.7v-6.1c0.4-0.7,1.2-1.3,2-1.3c0.7,0,1.6,0.3,1.6,2v5.4h2.7v-6.1c0.3-0.7,1.2-1.3,2-1.3
				c0.7,0,1.6,0.3,1.6,2v5.4h2.7v-6c0-2.6-1.5-3.9-3.4-3.9c-1.5,0-2.7,0.8-3.3,1.6c-0.4-0.8-1.5-1.6-3-1.6c-1.4,0-2.4,0.7-2.9,1.4
				v-1.2h-2.7V176.5z M470.8,174.4c-0.4,0-0.7-0.2-0.7-0.7v-3.3c0-2.4-1.9-3.8-4.6-3.8c-1.8,0-2.9,0.4-3.6,0.8v2.3
				c0.8-0.4,2-0.8,2.9-0.8c1.2,0,2.6,0.3,2.6,1.8v0.3c-0.6-0.3-1.5-0.6-2.8-0.6c-1.9,0-3.8,1-3.8,3.2c0,2,1.5,3.2,3.6,3.2
				c1.6,0,2.7-0.6,3.3-1.3c0.4,0.9,1.2,1.2,2.2,1.2c0.5,0,1.1-0.2,1.5-0.4v-2C471.2,174.4,471,174.4,470.8,174.4 M467.4,173.7
				c-0.4,0.6-1.3,1-2.2,1c-1,0-1.7-0.4-1.7-1.3c0-0.8,0.8-1.3,1.9-1.3c0.8,0,1.5,0.2,2,0.6V173.7z"/>
			<path fill="#B9007C" d="M237,197.9c1.3,0,2.1-0.2,3.1-0.7v-2.3c-0.8,0.5-1.6,0.7-2.6,0.7c-1.6,0-3-1.1-3-2.7c0-1.6,1.4-2.7,3-2.7
				c0.9,0,1.6,0.2,2.5,0.6v-2.3c-0.9-0.4-1.7-0.6-2.9-0.6c-2.8,0-5.3,1.9-5.3,5.1C231.7,196,234.2,197.9,237,197.9 M249,188v6.2
				c-0.4,0.7-1.3,1.3-2.2,1.3c-0.8,0-1.8-0.4-1.8-2.1V188h-2.7v5.9c0,2.4,1.3,4,3.5,4c1.5,0,2.6-0.7,3.2-1.4v1.2h2.7V188H249z
				 M254.4,197.6h2.7V192c0.3-0.8,1.4-1.7,2.8-1.7c0.3,0,0.6,0,0.9,0.1v-2.7c-0.1,0-0.2,0-0.3,0c-1.5,0-2.8,0.9-3.4,1.9V188h-2.7
				V197.6z M262.6,197.6h2.7V192c0.3-0.8,1.4-1.7,2.8-1.7c0.3,0,0.6,0,0.9,0.1v-2.7c-0.1,0-0.2,0-0.3,0c-1.5,0-2.8,0.9-3.4,1.9V188
				h-2.7V197.6z M270.9,197.6h2.7V188h-2.7V197.6z M272.3,187c0.9,0,1.6-0.7,1.6-1.6c0-0.9-0.7-1.6-1.6-1.6c-0.9,0-1.6,0.7-1.6,1.6
				C270.6,186.3,271.3,187,272.3,187 M281.1,197.9c1.3,0,2.1-0.2,3.1-0.7v-2.3c-0.8,0.5-1.6,0.7-2.6,0.7c-1.6,0-3-1.1-3-2.7
				c0-1.6,1.4-2.7,3-2.7c0.9,0,1.6,0.2,2.5,0.6v-2.3c-0.9-0.4-1.7-0.6-2.9-0.6c-2.8,0-5.3,1.9-5.3,5.1
				C275.8,196,278.3,197.9,281.1,197.9 M293,188v6.2c-0.4,0.7-1.3,1.3-2.2,1.3c-0.8,0-1.8-0.4-1.8-2.1V188h-2.7v5.9
				c0,2.4,1.3,4,3.5,4c1.5,0,2.6-0.7,3.2-1.4v1.2h2.7V188H293z M301,197.9c0.6,0,1.3-0.1,1.7-0.3v-2.2c-0.2,0.1-0.4,0.2-0.7,0.2
				c-0.5,0-0.9-0.3-0.9-1v-10.4h-2.7v11.1C298.4,197.3,299.7,197.9,301,197.9 M313.8,195.5c-0.4,0-0.7-0.2-0.7-0.7v-3.3
				c0-2.4-1.9-3.8-4.6-3.8c-1.8,0-2.9,0.4-3.6,0.8v2.3c0.8-0.4,2-0.8,2.9-0.8c1.2,0,2.6,0.3,2.6,1.8v0.3c-0.6-0.3-1.5-0.6-2.8-0.6
				c-1.9,0-3.8,1-3.8,3.2c0,2,1.5,3.2,3.6,3.2c1.6,0,2.7-0.6,3.3-1.3c0.4,0.9,1.2,1.2,2.2,1.2c0.5,0,1.1-0.2,1.5-0.4v-2
				C314.2,195.5,314,195.5,313.8,195.5 M310.4,194.8c-0.4,0.6-1.3,1-2.2,1c-0.9,0-1.7-0.4-1.7-1.3c0-0.8,0.8-1.3,1.9-1.3
				c0.8,0,1.5,0.2,2,0.6V194.8z M316.3,197.6h2.7V192c0.3-0.8,1.4-1.7,2.8-1.7c0.3,0,0.6,0,0.9,0.1v-2.7c-0.1,0-0.2,0-0.3,0
				c-1.5,0-2.8,0.9-3.4,1.9V188h-2.7V197.6z M325.7,191.5c0.9,0,1.7-0.8,1.7-1.7c0-0.9-0.8-1.7-1.7-1.7c-1,0-1.7,0.7-1.7,1.7
				C324,190.7,324.7,191.5,325.7,191.5 M325.7,197.9c0.9,0,1.7-0.8,1.7-1.7c0-0.9-0.8-1.7-1.7-1.7c-1,0-1.7,0.7-1.7,1.7
				C324,197.1,324.7,197.9,325.7,197.9"/>
			<path fill="#FFFFFF" d="M334.7,197.6h9.7v-2.5h-6.9v-11.1h-2.8V197.6z M346.4,197.6h2.7V188h-2.7V197.6z M347.7,187
				c0.9,0,1.6-0.7,1.6-1.6c0-0.9-0.7-1.6-1.6-1.6c-0.9,0-1.6,0.7-1.6,1.6C346.1,186.3,346.8,187,347.7,187 M355.8,197.9
				c1.6,0,2.6-0.7,3.2-1.4v1.2h2.7v-13.6H359v5.1c-0.5-0.7-1.5-1.4-3.2-1.4c-2.7,0-4.6,2.2-4.6,5.1
				C351.3,195.7,353.1,197.9,355.8,197.9 M356.6,195.5c-1.5,0-2.6-1.2-2.6-2.7c0-1.5,1.1-2.7,2.6-2.7c1.1,0,2,0.7,2.4,1.4v2.5
				C358.6,194.8,357.7,195.5,356.6,195.5 M369.1,197.9c1.5,0,2.9-0.4,3.7-1v-2.2c-0.9,0.5-1.9,0.9-3.1,0.9c-1.6,0-2.9-0.6-3.2-2h6.9
				v-0.7c0-2.8-1.7-5.1-4.6-5.1c-3.1,0-5,2.3-5,5.1C363.8,196,366.2,197.9,369.1,197.9 M366.5,191.8c0.1-1.1,0.9-1.9,2.2-1.9
				c1.3,0,2,0.9,2,1.9H366.5z M375.5,197.6h2.7V192c0.3-0.8,1.4-1.7,2.8-1.7c0.3,0,0.6,0,0.9,0.1v-2.7c-0.1,0-0.2,0-0.3,0
				c-1.5,0-2.8,0.9-3.4,1.9V188h-2.7V197.6z M392.9,195.5c-0.4,0-0.7-0.2-0.7-0.7v-3.3c0-2.4-1.9-3.8-4.6-3.8
				c-1.8,0-2.9,0.4-3.6,0.8v2.3c0.8-0.4,2-0.8,2.9-0.8c1.2,0,2.6,0.3,2.6,1.8v0.3c-0.6-0.3-1.5-0.6-2.8-0.6c-1.9,0-3.8,1-3.8,3.2
				c0,2,1.5,3.2,3.6,3.2c1.6,0,2.7-0.6,3.3-1.3c0.4,0.9,1.2,1.2,2.2,1.2c0.5,0,1.1-0.2,1.5-0.4v-2
				C393.3,195.5,393.1,195.5,392.9,195.5 M389.5,194.8c-0.4,0.6-1.3,1-2.2,1c-0.9,0-1.7-0.4-1.7-1.3c0-0.8,0.8-1.3,1.9-1.3
				c0.8,0,1.5,0.2,2,0.6V194.8z M394.7,197.6h8.9v-2.3h-5.2l4.9-5.5V188H395v2.3h4.6l-4.9,5.6V197.6z M412.6,188v1.1
				c-0.6-0.7-1.6-1.4-3.2-1.4c-2.7,0-4.5,2.2-4.5,4.8c0,2.7,1.8,4.9,4.5,4.9c1.6,0,2.6-0.7,3.2-1.4v0.6c0,2.1-1.7,2.6-3.2,2.6
				c-1.3,0-2.5-0.3-3.5-0.9v2.5c0.9,0.5,2.3,0.8,3.8,0.8c2.7,0,5.6-1.6,5.6-5.1V188H412.6z M410.2,195.1c-1.5,0-2.6-1.1-2.6-2.5
				c0-1.4,1-2.5,2.6-2.5c1.1,0,2,0.6,2.4,1.3v2.3C412.2,194.5,411.3,195.1,410.2,195.1 M422.7,195.5c-1.5,0-2.7-1.2-2.7-2.7
				c0-1.5,1.1-2.7,2.7-2.7s2.7,1.2,2.7,2.7C425.3,194.4,424.2,195.5,422.7,195.5 M422.7,197.9c3.2,0,5.4-2.2,5.4-5.1
				c0-2.8-2.2-5.1-5.4-5.1c-3.2,0-5.4,2.3-5.4,5.1C417.3,195.7,419.5,197.9,422.7,197.9 M436.3,201.6c1.8,0,3-1,3.9-3l4.5-10.7h-2.9
				l-2.4,6.4l-2.6-6.4h-2.9l4.2,9.3c-0.5,1.3-1.1,1.9-2.2,1.9c-0.6,0-1-0.1-1.5-0.4v2.4C434.7,201.5,435.5,201.6,436.3,201.6"/>
			<path fill="#FFFFFF" d="M239.3,219.1c2.4,0,4.5-1,5.5-2.2v-6H242v4.7c-0.7,0.7-1.7,0.9-2.7,0.9c-2.4,0-4.4-1.6-4.4-4.4
				c0-2.7,1.9-4.5,4.7-4.5c1.3,0,2.6,0.3,3.9,1.2V206c-1.1-0.7-2.3-1-4.1-1c-4.2,0-7.3,2.9-7.3,7.1
				C232.1,216.2,235.2,219.1,239.3,219.1 M252.2,219c1.5,0,2.9-0.4,3.7-1v-2.2c-0.9,0.5-1.9,0.9-3.1,0.9c-1.6,0-2.9-0.6-3.2-2h6.9
				V214c0-2.8-1.7-5.1-4.6-5.1c-3.1,0-5,2.3-5,5.1C246.8,217.1,249.2,219,252.2,219 M249.5,213c0.1-1.1,0.9-1.9,2.2-1.9
				c1.3,0,2,0.9,2,1.9H249.5z M262.1,219c2.6,0,4.3-1.2,4.3-3c0-1.8-1.2-2.6-3.2-3.1c-1.2-0.3-2.4-0.4-2.4-1.1
				c0-0.5,0.5-0.8,1.6-0.8c1.3,0,2.6,0.5,3.5,1v-2.3c-0.9-0.5-2.3-0.9-3.6-0.9c-2.7,0-4.3,1.1-4.3,3c0,1.8,1.1,2.5,3.1,3
				c1.4,0.4,2.5,0.5,2.5,1.2c0,0.5-0.6,0.8-1.7,0.8c-1.7,0-3.3-0.6-4-1.1v2.4C258.9,218.7,260.5,219,262.1,219 M269.4,215.8
				c0,2,1,3.3,3.2,3.3c0.8,0,1.8-0.2,2.3-0.5v-2.3c-0.4,0.2-0.9,0.3-1.4,0.3c-0.9,0-1.3-0.4-1.3-1.4v-3.8h2.8v-2.3h-2.8v-2.7h-2.7
				v2.7h-1.9v2.3h1.9V215.8z M277.1,218.8h2.7v-9.7h-2.7V218.8z M278.5,208.2c0.9,0,1.6-0.7,1.6-1.6c0-0.9-0.7-1.6-1.6-1.6
				s-1.6,0.7-1.6,1.6C276.9,207.5,277.6,208.2,278.5,208.2 M287.4,216.7c-1.5,0-2.7-1.2-2.7-2.7c0-1.5,1.1-2.7,2.7-2.7
				s2.7,1.2,2.7,2.7C290.1,215.5,289,216.7,287.4,216.7 M287.4,219c3.2,0,5.4-2.2,5.4-5.1c0-2.8-2.2-5.1-5.4-5.1
				c-3.2,0-5.4,2.3-5.4,5.1C282,216.8,284.2,219,287.4,219 M286,207.7h2.4l2.8-2.8h-3.3L286,207.7z M297.5,218.8v-6.2
				c0.4-0.7,1.3-1.3,2.2-1.3c0.8,0,1.8,0.4,1.8,2.1v5.4h2.7v-5.9c0-2.4-1.3-4-3.5-4c-1.5,0-2.6,0.7-3.2,1.4v-1.2h-2.7v9.7H297.5z
				 M316.5,219c1.5,0,2.9-0.4,3.7-1v-2.2c-0.9,0.5-1.9,0.9-3.1,0.9c-1.6,0-2.9-0.6-3.2-2h6.9V214c0-2.8-1.7-5.1-4.6-5.1
				c-3.1,0-5,2.3-5,5.1C311.1,217.1,313.5,219,316.5,219 M313.8,213c0.1-1.1,0.9-1.9,2.2-1.9c1.3,0,2,0.9,2,1.9H313.8z M326.4,219
				c2.6,0,4.3-1.2,4.3-3c0-1.8-1.2-2.6-3.2-3.1c-1.2-0.3-2.4-0.4-2.4-1.1c0-0.5,0.5-0.8,1.5-0.8c1.3,0,2.6,0.5,3.5,1v-2.3
				c-0.9-0.5-2.3-0.9-3.6-0.9c-2.7,0-4.3,1.1-4.3,3c0,1.8,1.1,2.5,3.1,3c1.4,0.4,2.5,0.5,2.5,1.2c0,0.5-0.6,0.8-1.7,0.8
				c-1.7,0-3.3-0.6-4-1.1v2.4C323.2,218.7,324.8,219,326.4,219 M337.4,219c1.3,0,2.1-0.2,3.1-0.7V216c-0.8,0.5-1.6,0.7-2.6,0.7
				c-1.6,0-3-1.1-3-2.7c0-1.6,1.4-2.7,3-2.7c0.9,0,1.6,0.2,2.5,0.6v-2.3c-0.9-0.4-1.7-0.6-2.9-0.6c-2.8,0-5.3,1.9-5.3,5.1
				C332.1,217.1,334.6,219,337.4,219 M347.3,216.7c-1.5,0-2.7-1.2-2.7-2.7c0-1.5,1.1-2.7,2.7-2.7s2.7,1.2,2.7,2.7
				C350,215.5,348.9,216.7,347.3,216.7 M347.3,219c3.2,0,5.4-2.2,5.4-5.1c0-2.8-2.2-5.1-5.4-5.1c-3.2,0-5.4,2.3-5.4,5.1
				C341.9,216.8,344.1,219,347.3,219 M357.3,219c0.6,0,1.3-0.1,1.7-0.3v-2.2c-0.2,0.1-0.4,0.2-0.7,0.2c-0.5,0-0.9-0.3-0.9-1v-10.4
				h-2.7v11.1C354.7,218.5,355.9,219,357.3,219 M370.1,216.7c-0.4,0-0.7-0.2-0.7-0.7v-3.3c0-2.4-1.9-3.8-4.6-3.8
				c-1.8,0-2.9,0.4-3.6,0.8v2.3c0.8-0.4,2-0.8,2.9-0.8c1.2,0,2.6,0.3,2.6,1.8v0.3c-0.6-0.3-1.5-0.6-2.8-0.6c-1.9,0-3.8,1-3.8,3.2
				c0,2,1.5,3.2,3.6,3.2c1.6,0,2.7-0.6,3.3-1.3c0.4,0.9,1.2,1.2,2.2,1.2c0.5,0,1.1-0.2,1.5-0.4v-2
				C370.4,216.7,370.2,216.7,370.1,216.7 M366.7,215.9c-0.4,0.6-1.3,1-2.2,1c-0.9,0-1.7-0.4-1.7-1.3c0-0.8,0.8-1.3,1.9-1.3
				c0.8,0,1.5,0.2,2,0.6V215.9z M372.5,218.8h2.7v-5.6c0.3-0.8,1.4-1.7,2.8-1.7c0.3,0,0.6,0,0.9,0.1v-2.7c-0.1,0-0.2,0-0.3,0
				c-1.5,0-2.8,0.9-3.4,1.9v-1.6h-2.7V218.8z"/>
			<line fill="none" stroke="#FFFFFF" x1="216.3" y1="161.5" x2="216.3" y2="219.5"/>
		</g>
	</g>
	<g>
		<path fill="#DDDB1C" d="M15.6,253.9v1.1h-2.7l2.5-2.3c1.1-1,2-1.9,2-3.4c0-2-1.5-3.5-3.5-3.5c-2.1,0-3.7,1.6-3.7,3.8h1.9
			c0-1,0.6-1.8,1.6-1.8c0.9,0,1.6,0.6,1.6,1.5c0,0.9-0.7,1.5-1.3,2l-3.9,3.7v1.7h7v-2.8H15.6z M30.5,253.9c0.4,1.9,1.9,3.1,3.9,3.1
			c2.2,0,4.1-1.6,4.1-3.8c0-2-1.5-3.7-3.5-3.7c-0.7,0-1.3,0.2-1.9,0.6l0.4-2.3h4.1V246h-5.7l-1,5.7l1.7,0.4c0.3-0.7,1-1.1,1.7-1.1
			c1.1,0,2,0.8,2,2c0,1.1-0.9,2-2,2c-0.8,0-1.5-0.5-1.8-1.2H30.5z M74.8,250.4h1v-1.7h-3.7v1.7h0.8l-1.5,3.9l-1.4-3.9h0.8v-1.7h-3.8
			v1.7H68l2.4,6.2l-0.5,1.3h-1v1.7h3.9V258h-1L74.8,250.4z M110,253.9v1.1h-2.7l2.5-2.3c1.1-1,2-1.9,2-3.4c0-2-1.5-3.5-3.5-3.5
			c-2.1,0-3.7,1.6-3.7,3.8h1.9c0-1,0.6-1.8,1.6-1.8c0.9,0,1.6,0.6,1.6,1.5c0,0.9-0.7,1.5-1.3,2l-3.9,3.7v1.7h7v-2.8H110z M128.7,246
			l-2.9,4.2c-0.6,0.8-0.9,1.6-0.9,2.6c0,1.1,0.4,2.1,1.2,2.9c0.7,0.7,1.8,1.1,2.8,1.1c2.2,0,4-1.8,4-4c0-1.9-1.4-3.6-3.4-3.6
			c-0.4,0-0.6,0.1-0.9,0.2l2.5-3.6H128.7z M128.8,255c-1.1,0-2-0.9-2-2c0-1.1,0.9-2,2-2c1.1,0,2,0.9,2,2
			C130.9,254.2,129.9,255,128.8,255 M168.1,256.7h2.9V255h-1v-9H167v1.7h1.1v2.2c-0.6-0.8-1.6-1.3-2.6-1.3c-2.3,0-4.1,1.9-4.1,4.1
			c0,2.2,1.8,4.1,4.1,4.1c1.1,0,2-0.4,2.6-1.3V256.7z M165.7,255.2c-1.3,0-2.4-1.1-2.4-2.4c0-1.4,1.1-2.5,2.4-2.5
			c1.3,0,2.4,1.1,2.4,2.4C168.1,254.1,167,255.2,165.7,255.2 M189.2,254.4c-0.4,0.7-1.1,1-1.9,1c-1.1,0-2.2-0.8-2.4-1.9h6.5l0.1-0.6
			c0-1.1-0.3-2.2-1.1-3c-0.8-0.8-1.9-1.3-3-1.3c-2.4,0-4.2,1.9-4.2,4.3c0,2.4,1.9,4.2,4.2,4.2c1.7,0,3.1-1,3.8-2.6H189.2z
			 M184.9,252c0.2-1,1.3-1.9,2.3-1.9c1.2,0,2.2,0.7,2.5,1.9H184.9z M224,257c2.4,0,4.2-1.9,4.2-4.3c0-2.3-1.9-4.2-4.2-4.2
			c-2.3,0-4.2,1.9-4.2,4.2C219.9,255,221.7,257,224,257 M224,255.2c-1.4,0-2.4-1.1-2.4-2.5c0-1.3,1.1-2.4,2.4-2.4
			c1.3,0,2.4,1.1,2.4,2.4C226.5,254.1,225.4,255.2,224,255.2 M246.6,254c-0.3,0.7-1.1,1.1-1.9,1.1c-1.3,0-2.4-1.1-2.4-2.4
			c0-1.3,1-2.4,2.4-2.4c0.4,0,0.8,0.1,1.1,0.3c0.3,0.2,0.6,0.5,0.9,0.8h1.7v-2.7h-1.6v0.8c-0.6-0.6-1.4-1-2.3-1c-2.3,0-4,2-4,4.2
			c0,2.3,1.9,4.2,4.2,4.2c1.8,0,3.5-1.2,4-2.9H246.6z M264.1,250.4h1.4v-1.7h-1.4V246h-1.8v2.7H261v1.7h1.3v6.3h3.3V255h-1.5V250.4z
			 M286,248.7h-2.9v1.7h1v2.6c0,0.6,0,1.1-0.3,1.6c-0.3,0.4-0.8,0.7-1.4,0.7c-0.5,0-1-0.2-1.3-0.7c-0.3-0.4-0.3-1-0.3-1.5v-4.3h-2.9
			v1.7h1v3.2c0,0.9,0.1,1.6,0.7,2.3c0.6,0.7,1.4,1,2.2,1c0.9,0,1.9-0.4,2.4-1.2v1h2.7V255h-1V248.7z M302.3,246h-2.9v1.7h1v7.3h-1
			v1.7h2.9v-1.2c0.6,0.9,1.6,1.3,2.7,1.3c1,0,2.1-0.5,2.8-1.3c0.7-0.8,1.1-1.8,1.1-2.8c0-2.3-1.9-4.1-4.1-4.1c-1,0-1.9,0.4-2.5,1.3
			V246z M304.7,250.3c1.3,0,2.4,1.1,2.4,2.4c0,1.3-1,2.5-2.4,2.5c-1.4,0-2.5-1.1-2.5-2.5C302.2,251.4,303.3,250.3,304.7,250.3
			 M323.9,248.7h-2.7v1.7h1v4.6h-1v1.7h3.9V255h-1v-2c0-0.8,0.1-1.4,0.7-1.9c0.5-0.4,1-0.6,1.6-0.6v-1.9c-1,0-1.9,0.5-2.4,1.5V248.7
			z M344.9,254.4c-0.5,0.7-1.1,1-1.9,1c-1.1,0-2.2-0.8-2.4-1.9h6.5l0.1-0.6c0-1.1-0.3-2.2-1.1-3c-0.8-0.8-1.9-1.3-3-1.3
			c-2.4,0-4.2,1.9-4.2,4.3c0,2.4,1.9,4.2,4.2,4.2c1.7,0,3.1-1,3.8-2.6H344.9z M340.5,252c0.2-1,1.3-1.9,2.3-1.9
			c1.2,0,2.2,0.7,2.5,1.9H340.5z M382.2,256.7h2.9V255h-1v-9h-2.9v1.7h1.1v2.2c-0.6-0.8-1.6-1.3-2.6-1.3c-2.3,0-4.1,1.9-4.1,4.1
			c0,2.2,1.8,4.1,4.1,4.1c1.1,0,2-0.4,2.6-1.3V256.7z M379.8,255.2c-1.3,0-2.4-1.1-2.4-2.4c0-1.4,1.1-2.5,2.4-2.5
			c1.3,0,2.4,1.1,2.4,2.4C382.3,254.1,381.2,255.2,379.8,255.2 M403.4,254.4c-0.4,0.7-1.1,1-1.9,1c-1.1,0-2.2-0.8-2.4-1.9h6.5
			l0.1-0.6c0-1.1-0.3-2.2-1.1-3c-0.8-0.8-1.9-1.3-3-1.3c-2.4,0-4.2,1.9-4.2,4.3c0,2.4,1.9,4.2,4.2,4.2c1.7,0,3.1-1,3.8-2.6H403.4z
			 M399,252c0.2-1,1.3-1.9,2.3-1.9c1.2,0,2.2,0.7,2.5,1.9H399z M439.9,253.9v1.1h-2.7l2.5-2.3c1.1-1,2-1.9,2-3.4
			c0-2-1.5-3.5-3.5-3.5c-2.1,0-3.7,1.6-3.7,3.8h1.9c0-1,0.6-1.8,1.6-1.8c0.9,0,1.6,0.6,1.6,1.5c0,0.9-0.7,1.5-1.3,2l-3.9,3.7v1.7h7
			v-2.8H439.9z M462.6,249.8c0-1.2-0.2-2.1-1.2-3c-0.7-0.7-1.7-1.1-2.7-1.1c-1.1,0-2.1,0.5-2.9,1.2c-0.8,0.9-1,1.7-1,2.9v3
			c0,1.2,0.2,2.1,1.1,3c0.7,0.7,1.7,1.1,2.7,1.1c1.1,0,2.1-0.5,2.9-1.3c0.8-0.9,1-1.7,1-2.9V249.8z M456.9,249.8c0-0.5,0-1,0.3-1.4
			c0.3-0.6,0.9-0.8,1.6-0.8c0.6,0,1.2,0.2,1.5,0.7c0.3,0.5,0.4,1,0.4,1.5v3c0,0.5,0,1-0.3,1.4c-0.3,0.6-0.9,0.8-1.6,0.8
			c-0.6,0-1.2-0.2-1.5-0.7c-0.3-0.5-0.3-1-0.3-1.5V249.8z M480.5,246h-3.6v1.7h1.6v7.3h-1.3v1.7h4.5V255h-1.3V246z M496.3,246v3.4
			h1.9v-1.7h3.1l-4.1,9h2.2l4-9V246H496.3z"/>
		<path fill="#FFFFFF" d="M143.7,282.4h4.8v-1.8h-1.2l-4-9.6h-3.8v1.8h1.3l-3.3,7.8h-1.2v1.8h4.7v-1.6h-1.2l0.7-1.7h4l0.7,1.7h-1.3
			V282.4z M143.7,277.4h-2.9l1.5-3.9h0L143.7,277.4z M157.7,273.8h-3.1v1.8h1.1v2.8c0,0.6,0,1.2-0.4,1.7c-0.3,0.4-0.9,0.7-1.4,0.7
			c-0.6,0-1.1-0.2-1.4-0.7c-0.3-0.5-0.3-1.1-0.3-1.6v-4.6h-3.1v1.8h1.1v3.4c0,0.9,0.1,1.7,0.8,2.5c0.6,0.7,1.5,1.1,2.4,1.1
			c1,0,2-0.4,2.6-1.3v1.1h2.9v-1.8h-1.1V273.8z M166.8,282.4h3.1v-1.8h-1.1v-9.6h-3.1v1.8h1.1v2.3c-0.7-0.9-1.7-1.4-2.8-1.4
			c-2.4,0-4.3,2-4.3,4.4c0,2.4,2,4.4,4.4,4.4c1.1,0,2.2-0.4,2.8-1.4V282.4z M164.2,280.7c-1.4,0-2.6-1.2-2.6-2.6
			c0-1.5,1.2-2.6,2.6-2.6c1.4,0,2.6,1.2,2.6,2.6C166.8,279.5,165.7,280.7,164.2,280.7 M173.7,273.8h-3.1v1.8h1.1v4.9h-1.1v1.8h4.2
			v-1.8h-1.1V273.8z M173.7,270.9h-2v2.1h2V270.9z M178.9,275.6h1.5v-1.8h-1.5v-2.9h-2v2.9h-1.3v1.8h1.3v6.7h3.5v-1.8h-1.6V275.6z
			 M185.9,282.6c2.5,0,4.5-2,4.5-4.5c0-2.4-2-4.5-4.4-4.5c-2.5,0-4.5,2-4.5,4.5C181.4,280.5,183.4,282.6,185.9,282.6 M185.9,280.7
			c-1.5,0-2.5-1.2-2.5-2.6c0-1.4,1.2-2.6,2.6-2.6c1.4,0,2.5,1.2,2.5,2.6C188.4,279.5,187.3,280.7,185.9,280.7 M194,273.8h-2.9v1.8
			h1.1v4.9h-1.1v1.8h4.2v-1.8h-1.1v-2.2c0-0.8,0.1-1.5,0.7-2c0.5-0.4,1.1-0.6,1.7-0.6v-2c-1.1,0-2.1,0.5-2.6,1.6V273.8z
			 M200.6,273.8h-3.1v1.8h1.1v4.9h-1.1v1.8h4.2v-1.8h-1.1V273.8z M200.6,270.9h-2v2.1h2V270.9z M207,282.6c2.5,0,4.5-2,4.5-4.5
			c0-2.4-2-4.5-4.5-4.5c-2.5,0-4.5,2-4.5,4.5C202.5,280.5,204.5,282.6,207,282.6 M207,280.7c-1.5,0-2.5-1.2-2.5-2.6
			c0-1.4,1.2-2.6,2.6-2.6c1.4,0,2.5,1.2,2.5,2.6C209.6,279.5,208.4,280.7,207,280.7 M217.2,279.1c-0.1,2.1,1.5,3.4,3.5,3.4
			c1,0,2-0.4,2.7-1.2c0.7-0.8,0.8-1.6,0.8-2.7v-6h1.2v-1.8h-4.7v1.8h1.2v5.7c0,0.4,0,1-0.2,1.4c-0.2,0.4-0.6,0.6-1.1,0.6
			c-0.8,0-1.2-0.7-1.2-1.4H217.2z M233.3,282.4h3.1v-1.8h-1.1v-4.9h1.1v-1.8h-3.1v1.2c-0.6-0.9-1.6-1.4-2.7-1.4
			c-2.5,0-4.5,2.1-4.5,4.5c0,2.4,1.9,4.5,4.4,4.5c1.1,0,2.1-0.4,2.8-1.4V282.4z M230.7,280.7c-1.4,0-2.5-1.2-2.5-2.5
			c0-1.4,1.1-2.6,2.6-2.6c1.4,0,2.6,1.1,2.6,2.5C233.4,279.5,232.2,280.7,230.7,280.7 M240.3,273.8h-3.1v1.8h1.1v4.9h-1.1v1.8h4.2
			v-1.8h-1.1V273.8z M240.3,270.9h-2v2.1h2V270.9z M243.4,280.5h-1.1v1.8h4.2v-1.8h-1.1v-2.6c0-0.7,0-1.2,0.5-1.7
			c0.4-0.4,0.8-0.6,1.4-0.6c0.6,0,1.1,0.3,1.4,0.8c0.3,0.4,0.3,1.1,0.3,1.6v2.6h-1.1v1.8h4.2v-1.8h-1.1v-2.8c0-0.6,0-1.1,0.4-1.6
			c0.3-0.4,0.9-0.6,1.4-0.6c0.5,0,1.1,0.2,1.4,0.7c0.3,0.5,0.3,1,0.3,1.6v2.8h-1.1v1.8h4.2v-1.8h-1.1v-3.2c0-1,0-1.8-0.7-2.6
			c-0.6-0.7-1.5-1.1-2.5-1.1c-1.2,0-2.3,0.7-2.8,1.8c-0.5-1.1-1.5-1.8-2.7-1.8c-1.1,0-1.9,0.6-2.5,1.5v-1.3h-2.9v1.8h1.1V280.5z
			 M264.7,279.8c-0.5,0.7-1.2,1-2.1,1c-1.2,0-2.3-0.9-2.6-2h6.9l0.1-0.7c0-1.2-0.4-2.3-1.2-3.2c-0.8-0.8-2-1.4-3.2-1.4
			c-2.5,0-4.5,2-4.5,4.6c0,2.5,2,4.5,4.5,4.5c1.8,0,3.4-1.1,4-2.7H264.7z M260.1,277.3c0.2-1.1,1.3-2,2.5-2c1.3,0,2.4,0.8,2.7,2
			H260.1z M278.6,272.9h1.7v1.7h1.7v-3.6h-9v3.6h1.7v-1.7h1.7v7.7h-1.3v1.8h4.7v-1.8h-1.2V272.9z M286.8,282.6c2.5,0,4.5-2,4.5-4.5
			c0-2.4-2-4.5-4.5-4.5c-2.5,0-4.5,2-4.5,4.5C282.4,280.5,284.3,282.6,286.8,282.6 M286.8,280.7c-1.5,0-2.5-1.2-2.5-2.6
			c0-1.4,1.2-2.6,2.6-2.6c1.4,0,2.5,1.2,2.5,2.6C289.4,279.5,288.3,280.7,286.8,280.7 M295,273.8H292v1.8h1.1v4.9H292v1.8h4.2v-1.8
			h-1.1v-2.2c0-0.8,0.1-1.5,0.7-2c0.5-0.4,1.1-0.6,1.7-0.6v-2c-1.1,0-2.1,0.5-2.6,1.6V273.8z M301.4,273.8h-2.9v1.8h1.1v4.9h-1.1
			v1.8h4.2v-1.8h-1.1v-2.2c0-0.8,0.1-1.5,0.7-2c0.5-0.4,1.1-0.6,1.7-0.6v-2c-1.1,0-2.1,0.5-2.6,1.6V273.8z M311.4,279.8
			c-0.5,0.7-1.2,1-2.1,1c-1.2,0-2.3-0.9-2.6-2h6.9l0.1-0.7c0-1.2-0.4-2.3-1.2-3.2c-0.8-0.8-2-1.4-3.2-1.4c-2.5,0-4.4,2-4.4,4.6
			c0,2.5,2,4.5,4.5,4.5c1.8,0,3.4-1.1,4-2.7H311.4z M306.7,277.3c0.2-1.1,1.3-2,2.5-2c1.3,0,2.4,0.8,2.7,2H306.7z M314.7,279.9v2.5
			h1.5v-0.7c0.6,0.7,1.3,0.9,2.2,0.9c1.6,0,3.1-1,3.1-2.7c0-1.9-1.6-2.4-3.2-2.8c-0.6-0.1-1.4-0.3-1.4-1.1c0-0.6,0.6-0.9,1.1-0.9
			c0.6,0,1.1,0.4,1.1,1h1.9v-2.3h-1.4v0.6c-0.5-0.6-1.2-0.8-1.9-0.8c-1.5,0-2.9,0.9-2.9,2.6c0,1.9,1.6,2.3,3.1,2.7
			c0.7,0.2,1.5,0.3,1.5,1.2c0,0.6-0.6,1.1-1.2,1.1c-0.8,0-1.3-0.5-1.4-1.3H314.7z M327.4,282.4h5.3c1,0,1.9-0.1,2.6-0.8
			c0.7-0.6,1.1-1.5,1.1-2.4c0-1.4-0.7-2.4-2-2.9c1-0.4,1.5-1.4,1.5-2.4c0-0.9-0.3-1.7-1.1-2.3c-0.7-0.5-1.5-0.6-2.4-0.6h-5.1v1.8
			h1.2v7.8h-1.2V282.4z M330.9,272.8h1.1c0.5,0,1,0,1.4,0.2c0.4,0.3,0.6,0.7,0.6,1.1c0,0.4-0.2,0.8-0.5,1.1
			c-0.4,0.3-0.9,0.3-1.5,0.3h-1.1V272.8z M330.8,277.3h1.2c0.6,0,1.1,0,1.6,0.3c0.4,0.3,0.6,0.8,0.6,1.3c0,0.5-0.2,1-0.6,1.2
			c-0.4,0.3-1.1,0.3-1.6,0.3h-1.2V277.3z M341.7,282.6c2.5,0,4.5-2,4.5-4.5c0-2.4-2-4.5-4.4-4.5c-2.5,0-4.5,2-4.5,4.5
			C337.2,280.5,339.2,282.6,341.7,282.6 M341.7,280.7c-1.5,0-2.5-1.2-2.5-2.6c0-1.4,1.2-2.6,2.6-2.6c1.4,0,2.5,1.2,2.5,2.6
			C344.2,279.5,343.1,280.7,341.7,280.7 M354,282.4h3.1v-1.8h-1.1v-9.6h-3.1v1.8h1.1v2.3c-0.7-0.9-1.7-1.4-2.8-1.4
			c-2.4,0-4.3,2-4.3,4.4c0,2.4,2,4.4,4.4,4.4c1.1,0,2.2-0.4,2.8-1.4V282.4z M351.4,280.7c-1.4,0-2.6-1.2-2.6-2.6
			c0-1.5,1.2-2.6,2.6-2.6c1.4,0,2.6,1.2,2.6,2.6C354,279.5,352.9,280.7,351.4,280.7 M364.2,279.8c-0.5,0.7-1.2,1-2.1,1
			c-1.2,0-2.3-0.9-2.6-2h6.9l0.1-0.7c0-1.2-0.4-2.3-1.2-3.2c-0.8-0.8-2-1.4-3.2-1.4c-2.5,0-4.5,2-4.5,4.6c0,2.5,2,4.5,4.5,4.5
			c1.8,0,3.4-1.1,4-2.7H364.2z M359.5,277.3c0.2-1.1,1.3-2,2.5-2c1.3,0,2.4,0.8,2.7,2H359.5z M370.6,275.6h1.5v-1.8h-1.5v-2.9h-2
			v2.9h-1.3v1.8h1.3v6.7h3.5v-1.8h-1.6V275.6z M375.1,282.4v0.2c0,0.5,0,1-0.7,1h-0.2v1.1h0.3c0.5,0,0.9,0,1.3-0.5
			c0.4-0.4,0.4-0.9,0.4-1.5v-2.6h-2v2.3H375.1z"/>
		<path fill="#FFFFFF" d="M103.9,290.8h1.2v-1.8h-4.3l-3.1,8.1l-3.1-8.1h-4.3v1.8h1.2v7.8h-1.2v1.8h4.8v-1.8h-1.3v-6.6l3.2,8.5h1.5
			l3.2-8.5v6.6h-1.2v1.8h4.7v-1.8h-1.2V290.8z M114.6,291.8h-3.1v1.8h1.1v2.8c0,0.6,0,1.2-0.4,1.7c-0.3,0.4-0.9,0.7-1.4,0.7
			c-0.6,0-1.1-0.2-1.4-0.7c-0.3-0.5-0.3-1.1-0.3-1.6v-4.6H106v1.8h1.1v3.4c0,0.9,0.1,1.7,0.8,2.5c0.6,0.7,1.5,1.1,2.4,1.1
			c1,0,2-0.4,2.6-1.3v1.1h2.9v-1.8h-1.1V291.8z M116.7,297.9v2.5h1.5v-0.7c0.6,0.7,1.3,0.9,2.2,0.9c1.6,0,3.1-1,3.1-2.7
			c0-1.9-1.6-2.4-3.2-2.8c-0.6-0.1-1.4-0.3-1.4-1.1c0-0.6,0.6-0.9,1.1-0.9c0.6,0,1.1,0.4,1.1,1h1.9v-2.3h-1.4v0.6
			c-0.5-0.6-1.2-0.8-1.9-0.8c-1.5,0-2.9,0.9-2.9,2.6c0,1.9,1.6,2.3,3.1,2.7c0.7,0.2,1.5,0.3,1.5,1.2c0,0.6-0.6,1.1-1.2,1.1
			c-0.8,0-1.3-0.5-1.4-1.3H116.7z M130.7,297.8c-0.5,0.7-1.2,1-2.1,1c-1.2,0-2.3-0.9-2.6-2h6.9l0.1-0.7c0-1.2-0.4-2.3-1.2-3.2
			c-0.8-0.8-2-1.4-3.2-1.4c-2.5,0-4.4,2-4.4,4.6c0,2.5,2,4.5,4.5,4.5c1.8,0,3.4-1.1,4-2.7H130.7z M126.1,295.3c0.2-1.1,1.3-2,2.5-2
			c1.3,0,2.4,0.8,2.7,2H126.1z M138.3,300.6c2.5,0,4.5-2,4.5-4.5c0-2.4-2-4.5-4.4-4.5c-2.5,0-4.5,2-4.5,4.5
			C133.8,298.5,135.8,300.6,138.3,300.6 M138.3,298.7c-1.5,0-2.5-1.2-2.5-2.6c0-1.4,1.2-2.6,2.6-2.6c1.4,0,2.5,1.2,2.5,2.6
			C140.8,297.5,139.7,298.7,138.3,298.7 M159.5,290.8h1.2v-1.8h-4.7v1.8h1.2v5.8l-5.4-7.7h-3.2v1.8h1.2v7.8h-1.2v1.8h4.7v-1.8h-1.2
			v-5.7l5.4,7.5h2V290.8z M168.8,300.4h3.1v-1.8h-1.1v-4.9h1.1v-1.8h-3.1v1.2c-0.6-0.9-1.6-1.4-2.7-1.4c-2.5,0-4.5,2.1-4.5,4.5
			c0,2.4,1.9,4.5,4.4,4.5c1.1,0,2.1-0.4,2.8-1.4V300.4z M166.2,298.7c-1.4,0-2.5-1.2-2.5-2.5c0-1.4,1.1-2.6,2.6-2.6
			c1.4,0,2.6,1.1,2.6,2.5C168.8,297.5,167.7,298.7,166.2,298.7 M179.1,297.5c-0.4,0.8-1.2,1.2-2,1.2c-1.4,0-2.6-1.1-2.6-2.6
			c0-1.4,1.1-2.6,2.5-2.6c0.4,0,0.8,0.1,1.2,0.3c0.4,0.2,0.7,0.5,0.9,0.8h1.8v-2.9h-1.7v0.8c-0.6-0.7-1.5-1.1-2.4-1.1
			c-2.4,0-4.3,2.2-4.3,4.5c0,2.5,2,4.5,4.5,4.5c1.9,0,3.7-1.3,4.2-3.1H179.1z M185.3,291.8h-3.1v1.8h1.1v4.9h-1.1v1.8h4.2v-1.8h-1.1
			V291.8z M185.3,288.9h-2v2.1h2V288.9z M191.7,300.6c2.5,0,4.5-2,4.5-4.5c0-2.4-2-4.5-4.4-4.5c-2.5,0-4.5,2-4.5,4.5
			C187.2,298.5,189.2,300.6,191.7,300.6 M191.7,298.7c-1.5,0-2.5-1.2-2.5-2.6c0-1.4,1.2-2.6,2.6-2.6c1.4,0,2.5,1.2,2.5,2.6
			C194.3,297.5,193.1,298.7,191.7,298.7 M198,298.5h-1.1v1.8h4.2v-1.8H200V296c0-0.6,0-1.3,0.4-1.8c0.4-0.5,1-0.7,1.6-0.7
			c0.6,0,1.2,0.2,1.5,0.7c0.3,0.5,0.3,1,0.3,1.5v2.8h-1.1v1.8h4.2v-1.8h-1.1v-3.3c0-1,0-1.7-0.7-2.5c-0.6-0.7-1.5-1.1-2.5-1.1
			c-1.1,0-2,0.5-2.5,1.4v-1.2h-3.1v1.8h1.1V298.5z M214.5,300.4h3.1v-1.8h-1.1v-4.9h1.1v-1.8h-3.1v1.2c-0.6-0.9-1.6-1.4-2.7-1.4
			c-2.5,0-4.5,2.1-4.5,4.5c0,2.4,1.9,4.5,4.4,4.5c1.1,0,2.1-0.4,2.8-1.4V300.4z M212,298.7c-1.4,0-2.5-1.2-2.5-2.5
			c0-1.4,1.1-2.6,2.6-2.6c1.4,0,2.6,1.1,2.6,2.5C214.6,297.5,213.4,298.7,212,298.7 M221.5,288.9h-3.1v1.8h1.1v7.8h-1.2v1.8h4.2
			v-1.8h-1.1V288.9z M235.7,300.4h3.1v-1.8h-1.1v-9.6h-3.1v1.8h1.1v2.3c-0.7-0.9-1.7-1.4-2.8-1.4c-2.4,0-4.3,2-4.3,4.4
			c0,2.4,2,4.4,4.4,4.4c1.1,0,2.2-0.4,2.8-1.4V300.4z M233.1,298.7c-1.4,0-2.6-1.2-2.6-2.6c0-1.5,1.2-2.6,2.6-2.6
			c1.4,0,2.6,1.2,2.6,2.6C235.7,297.5,234.6,298.7,233.1,298.7 M245.9,297.8c-0.5,0.7-1.2,1-2.1,1c-1.2,0-2.3-0.9-2.6-2h6.9l0.1-0.7
			c0-1.2-0.4-2.3-1.2-3.2c-0.8-0.8-2-1.4-3.2-1.4c-2.5,0-4.5,2-4.5,4.6c0,2.5,2,4.5,4.5,4.5c1.8,0,3.4-1.1,4-2.7H245.9z
			 M241.3,295.3c0.2-1.1,1.3-2,2.5-2c1.3,0,2.4,0.8,2.7,2H241.3z M261.6,300.4h4.8v-1.8h-1.2l-4-9.6h-3.8v1.8h1.3l-3.3,7.8H254v1.8
			h4.7v-1.6h-1.2l0.7-1.7h4l0.7,1.7h-1.3V300.4z M261.6,295.4h-2.9l1.5-3.9h0L261.6,295.4z M268.1,298.5H267v1.8h4.2v-1.8h-1.1V296
			c0-0.6,0-1.3,0.4-1.8c0.4-0.5,1-0.7,1.6-0.7c0.6,0,1.2,0.2,1.5,0.7c0.3,0.5,0.3,1,0.3,1.5v2.8h-1.1v1.8h4.2v-1.8h-1.1v-3.3
			c0-1,0-1.7-0.7-2.5c-0.6-0.7-1.5-1.1-2.5-1.1c-1.1,0-2,0.5-2.5,1.4v-1.2H267v1.8h1.1V298.5z M280.8,293.6h1.5v-1.8h-1.5v-2.9h-2
			v2.9h-1.3v1.8h1.3v6.7h3.5v-1.8h-1.6V293.6z M286.2,291.8h-2.9v1.8h1.1v4.9h-1.1v1.8h4.2v-1.8h-1.1v-2.2c0-0.8,0.1-1.5,0.7-2
			c0.5-0.4,1.1-0.6,1.7-0.6v-2c-1.1,0-2.1,0.5-2.6,1.6V291.8z M294.2,300.6c2.5,0,4.5-2,4.5-4.5c0-2.4-2-4.5-4.4-4.5
			c-2.5,0-4.5,2-4.5,4.5C289.7,298.5,291.7,300.6,294.2,300.6 M294.2,298.7c-1.5,0-2.5-1.2-2.5-2.6c0-1.4,1.2-2.6,2.6-2.6
			c1.4,0,2.5,1.2,2.5,2.6C296.8,297.5,295.6,298.7,294.2,298.7 M300.5,301.7h-1.1v1.8h4.2v-1.8h-1.1v-2.5c0.7,0.9,1.8,1.3,2.9,1.3
			c2.4,0,4.3-2,4.3-4.4c0-2.4-1.9-4.4-4.4-4.4c-1.2,0-2.2,0.5-2.8,1.4v-1.3h-3.1v1.8h1.1V301.7z M305,298.7c-1.4,0-2.6-1.2-2.6-2.6
			c0-1.5,1.2-2.6,2.6-2.6c1.4,0,2.5,1.2,2.5,2.6C307.6,297.5,306.4,298.7,305,298.7 M314.7,300.6c2.5,0,4.5-2,4.5-4.5
			c0-2.4-2-4.5-4.4-4.5c-2.5,0-4.5,2-4.5,4.5C310.2,298.5,312.2,300.6,314.7,300.6 M314.7,298.7c-1.5,0-2.5-1.2-2.5-2.6
			c0-1.4,1.2-2.6,2.6-2.6c1.4,0,2.5,1.2,2.5,2.6C317.3,297.5,316.1,298.7,314.7,298.7 M323,288.9H320v1.8h1.1v7.8h-1.2v1.8h4.2v-1.8
			H323V288.9z M329.4,300.6c2.5,0,4.5-2,4.5-4.5c0-2.4-2-4.5-4.4-4.5c-2.5,0-4.5,2-4.5,4.5C324.9,298.5,326.9,300.6,329.4,300.6
			 M329.4,298.7c-1.5,0-2.5-1.2-2.5-2.6c0-1.4,1.2-2.6,2.6-2.6c1.4,0,2.5,1.2,2.5,2.6C332,297.5,330.8,298.7,329.4,298.7 M335,301.1
			c0.4,1.9,2.3,2.7,4.1,2.7c1.3,0,2.4-0.4,3.3-1.3c1-1,1.1-2,1.1-3.3v-5.6h1.1v-1.8h-2.9v1.2c-0.6-1-1.7-1.4-2.8-1.4
			c-2.4,0-4.3,2-4.3,4.4c0,2.4,1.9,4.4,4.3,4.4c1.2,0,2.1-0.4,2.7-1.4v0.3c0,0.8,0,1.3-0.6,2c-0.4,0.5-1.1,0.8-1.8,0.8
			c-0.8,0-1.6-0.3-1.9-1.1H335z M336.5,296c0-1.4,1.2-2.6,2.6-2.6c1.4,0,2.6,1.2,2.6,2.6c0,1.4-1.1,2.6-2.6,2.6
			C337.7,298.7,336.5,297.5,336.5,296 M348.6,291.8h-3.1v1.8h1.1v4.9h-1.1v1.8h4.2v-1.8h-1.1V291.8z M345.8,290.8l4.4-2.1l-0.8-1.7
			l-4.2,2.4L345.8,290.8z M357.7,300.4h3.1v-1.8h-1.1v-4.9h1.1v-1.8h-3.1v1.2c-0.6-0.9-1.6-1.4-2.7-1.4c-2.5,0-4.5,2.1-4.5,4.5
			c0,2.4,1.9,4.5,4.4,4.5c1.1,0,2.1-0.4,2.8-1.4V300.4z M355.1,298.7c-1.4,0-2.5-1.2-2.5-2.5c0-1.4,1.1-2.6,2.6-2.6
			c1.4,0,2.6,1.1,2.6,2.5C357.7,297.5,356.6,298.7,355.1,298.7 M363.5,300.4v0.2c0,0.5,0,1-0.7,1h-0.2v1.1h0.3c0.5,0,0.9,0,1.3-0.5
			c0.4-0.4,0.4-0.9,0.4-1.5v-2.6h-2v2.3H363.5z M383,292.5v-3.7h-1.8v1.2c-0.9-1-2.2-1.4-3.5-1.4c-3.2,0-5.8,2.7-5.8,5.9
			c0,1.6,0.6,3.1,1.7,4.3c1.1,1.1,2.7,1.8,4.2,1.8c2.4,0,4.8-1.6,5.6-4h-2.4c-0.7,1.1-1.9,1.7-3.2,1.7c-2.1,0-3.7-1.7-3.7-3.8
			c0-2.1,1.6-3.8,3.7-3.8c1.2,0,2.5,0.7,3.2,1.7H383z M384.3,300.4h5.4c1.7,0,3-0.4,4.2-1.7c1-1.1,1.5-2.5,1.5-4
			c0-1.6-0.5-3.1-1.6-4.2c-1.2-1.2-2.4-1.5-4-1.5h-5.4v1.8h1.2v7.8h-1.2V300.4z M387.7,290.9h1.7c1.1,0,1.9,0.1,2.7,0.9
			c0.7,0.8,1,1.9,1,2.9c0,0.9-0.3,2-0.9,2.7c-0.8,0.9-1.7,1-2.8,1h-1.7V290.9z M409.9,290.8h1.2v-1.8h-4.3l-3.1,8.1l-3.1-8.1h-4.3
			v1.8h1.2v7.8h-1.2v1.8h4.8v-1.8h-1.3v-6.6l3.3,8.5h1.5l3.2-8.5v6.6h-1.2v1.8h4.7v-1.8h-1.2V290.8z M423.3,298.5h-1.2l-3.2-4
			l3.1-3.8h1.2v-1.8h-4.7v1.7h1.1l-1.8,2.4l-1.8-2.4h1.1v-1.7h-4.7v1.8h1.2l3,3.8l-3.2,4h-1.1v1.8h4.7v-1.7h-1.1l2.1-2.6l2,2.6h-1.1
			v1.7h4.7V298.5z"/>
	</g>
	<path fill="#0094A1" d="M323.3,373.3c-0.2-0.3-0.3-0.5-0.3-0.8c-0.1-0.8-0.1-1.6,0.3-2.4c0.5-1,1.3-1.6,2.3-1.9
		c0.4-0.1,0.4-0.1,0.2-0.5c-0.2-0.3-0.2-0.6-0.3-0.9c-0.1-0.9,0.1-1.6,0.6-2.4c0.4-0.5,0.8-0.9,1.4-1.2c0.3-0.1,0.6-0.2,0.8-0.3
		c0-0.1-0.1-0.1-0.1-0.1c-0.5-0.6-1.1-1.1-1.6-1.7c-0.6-0.6-1.3-1.3-1.9-1.9c-0.4-0.4-0.9-0.8-1.2-1.4c-0.6-1-0.5-2.1-0.1-3.1
		c0.1-0.2,0.2-0.4,0.3-0.5c0.5-0.7,1.2-1.2,2-1.4c1-0.3,2-0.1,2.9,0.5c0.5,0.3,0.9,0.9,1.4,1.3c0.6,0.5,1.1,1.1,1.6,1.7
		c0.6,0.6,1.1,1.1,1.7,1.6c0.6,0.6,1.3,1.3,1.9,1.9c0.6,0.6,1.1,1.1,1.7,1.6c0.7,0.7,1.3,1.3,1.9,2c0.6,0.6,1.2,1.1,1.7,1.7
		c0.4,0.4,0.9,0.8,1.3,1.2c0,0,0.2,0,0.2,0v-30.1c0-4.1-3.7-7-7.9-7H158.4c-4.1,0-7.3,2.9-7.3,7v30.3c0,4.1,3.2,7.7,7.3,7.7h163.9
		c0.3,0,0.5-0.3,0.8-0.4C323.5,373.6,323.4,373.4,323.3,373.3z"/>
	<g>
		<path fill="#FFFFFF" d="M158.1,336.2h2.4v4.6h4.1v-4.6h2.4v12.3h-2.4v-5.4h-4.1v5.4h-2.4V336.2z"/>
		<path fill="#FFFFFF" d="M176.3,339.4h2.3v9.1h-2.3v-1c-0.4,0.4-0.9,0.7-1.3,0.9c-0.4,0.2-0.9,0.3-1.5,0.3c-1.2,0-2.2-0.5-3-1.4
			c-0.9-0.9-1.3-2-1.3-3.4c0-1.4,0.4-2.6,1.2-3.5s1.8-1.3,3-1.3c0.5,0,1.1,0.1,1.5,0.3c0.5,0.2,0.9,0.5,1.3,0.9V339.4z M173.9,341.2
			c-0.7,0-1.3,0.2-1.8,0.7c-0.5,0.5-0.7,1.1-0.7,1.9c0,0.8,0.2,1.4,0.7,1.9s1.1,0.8,1.8,0.8c0.7,0,1.3-0.2,1.8-0.7
			c0.5-0.5,0.7-1.2,0.7-2c0-0.8-0.2-1.4-0.7-1.9C175.2,341.5,174.6,341.2,173.9,341.2z"/>
		<path fill="#FFFFFF" d="M180.5,339.4h7l-4.1,7.2h3.9v1.9h-7.4l4.1-7.2h-3.5V339.4z"/>
		<path fill="#FFFFFF" d="M202.4,341.2l-1.9,1c-0.4-0.4-0.7-0.6-1.1-0.8c-0.3-0.1-0.8-0.2-1.2-0.2c-0.9,0-1.5,0.3-2.1,0.8
			s-0.8,1.2-0.8,2c0,0.8,0.3,1.4,0.8,1.9s1.2,0.7,2,0.7c1,0,1.8-0.3,2.4-1l1.8,1.2c-1,1.3-2.4,1.9-4.1,1.9c-1.6,0-2.9-0.5-3.8-1.4
			s-1.4-2.1-1.4-3.3c0-0.9,0.2-1.7,0.7-2.4c0.4-0.7,1.1-1.3,1.8-1.7c0.8-0.4,1.7-0.6,2.6-0.6c0.9,0,1.7,0.2,2.4,0.5
			C201.4,340,202,340.5,202.4,341.2z"/>
		<path fill="#FFFFFF" d="M204.2,335.8h2.3v12.6h-2.3V335.8z"/>
		<path fill="#FFFFFF" d="M209.5,335.6c0.4,0,0.7,0.1,1,0.4c0.3,0.3,0.4,0.6,0.4,1.1c0,0.4-0.1,0.8-0.4,1c-0.3,0.3-0.6,0.4-1,0.4
			c-0.4,0-0.8-0.1-1-0.4c-0.3-0.3-0.4-0.6-0.4-1.1c0-0.4,0.1-0.7,0.4-1C208.7,335.8,209.1,335.6,209.5,335.6z M208.3,339.4h2.3v9.1
			h-2.3V339.4z"/>
		<path fill="#FFFFFF" d="M221.6,341.2l-1.9,1c-0.4-0.4-0.7-0.6-1.1-0.8c-0.3-0.1-0.8-0.2-1.2-0.2c-0.9,0-1.5,0.3-2.1,0.8
			s-0.8,1.2-0.8,2c0,0.8,0.3,1.4,0.8,1.9s1.2,0.7,2,0.7c1,0,1.8-0.3,2.4-1l1.8,1.2c-1,1.3-2.4,1.9-4.1,1.9c-1.6,0-2.9-0.5-3.8-1.4
			s-1.4-2.1-1.4-3.3c0-0.9,0.2-1.7,0.7-2.4c0.4-0.7,1.1-1.3,1.8-1.7c0.8-0.4,1.7-0.6,2.6-0.6c0.9,0,1.7,0.2,2.4,0.5
			C220.5,340,221.1,340.5,221.6,341.2z"/>
		<path fill="#FFFFFF" d="M230.7,339.4v1c0.4-0.4,0.9-0.7,1.3-0.9c0.5-0.2,1-0.3,1.5-0.3c1.2,0,2.2,0.4,3,1.3s1.2,2,1.2,3.5
			c0,1.4-0.4,2.5-1.3,3.4c-0.9,0.9-1.9,1.4-3.1,1.4c-0.5,0-1-0.1-1.5-0.3c-0.5-0.2-0.9-0.5-1.3-0.9v4.3h-2.3v-12.4H230.7z
			 M233.1,341.2c-0.7,0-1.3,0.2-1.8,0.7c-0.5,0.5-0.7,1.1-0.7,1.9c0,0.8,0.2,1.5,0.7,2c0.5,0.5,1.1,0.7,1.8,0.7
			c0.7,0,1.3-0.3,1.8-0.8c0.5-0.5,0.7-1.2,0.7-1.9c0-0.8-0.2-1.4-0.7-1.9S233.8,341.2,233.1,341.2z"/>
		<path fill="#FFFFFF" d="M246.5,339.4h2.3v9.1h-2.3v-1c-0.4,0.4-0.9,0.7-1.3,0.9c-0.4,0.2-0.9,0.3-1.5,0.3c-1.2,0-2.2-0.5-3-1.4
			c-0.9-0.9-1.3-2-1.3-3.4c0-1.4,0.4-2.6,1.2-3.5s1.8-1.3,3-1.3c0.5,0,1.1,0.1,1.5,0.3c0.5,0.2,0.9,0.5,1.3,0.9V339.4z M244.1,341.2
			c-0.7,0-1.3,0.2-1.8,0.7c-0.5,0.5-0.7,1.1-0.7,1.9c0,0.8,0.2,1.4,0.7,1.9s1.1,0.8,1.8,0.8c0.7,0,1.3-0.2,1.8-0.7
			c0.5-0.5,0.7-1.2,0.7-2c0-0.8-0.2-1.4-0.7-1.9C245.4,341.5,244.8,341.2,244.1,341.2z"/>
		<path fill="#FFFFFF" d="M250.5,339.4h2v1.1c0.2-0.5,0.5-0.8,0.8-1c0.4-0.2,0.7-0.4,1.2-0.4c0.3,0,0.6,0.1,0.9,0.2l-0.7,2
			c-0.3-0.1-0.5-0.2-0.7-0.2c-0.4,0-0.6,0.2-0.9,0.7c-0.2,0.4-0.4,1.3-0.4,2.6l0,0.4v3.7h-2.3V339.4z"/>
		<path fill="#FFFFFF" d="M263.2,339.4h2.3v9.1h-2.3v-1c-0.4,0.4-0.9,0.7-1.3,0.9c-0.4,0.2-0.9,0.3-1.5,0.3c-1.2,0-2.2-0.5-3-1.4
			c-0.9-0.9-1.3-2-1.3-3.4c0-1.4,0.4-2.6,1.2-3.5s1.8-1.3,3-1.3c0.5,0,1.1,0.1,1.5,0.3c0.5,0.2,0.9,0.5,1.3,0.9V339.4z M260.8,341.2
			c-0.7,0-1.3,0.2-1.8,0.7c-0.5,0.5-0.7,1.1-0.7,1.9c0,0.8,0.2,1.4,0.7,1.9s1.1,0.8,1.8,0.8c0.7,0,1.3-0.2,1.8-0.7
			c0.5-0.5,0.7-1.2,0.7-2c0-0.8-0.2-1.4-0.7-1.9C262.2,341.5,261.6,341.2,260.8,341.2z"/>
		<path fill="#FFFFFF" d="M276.9,339.1c0.9,0,1.7,0.2,2.4,0.6s1.3,1,1.8,1.7c0.4,0.7,0.6,1.5,0.6,2.4c0,0.9-0.2,1.7-0.6,2.4
			c-0.4,0.7-1,1.3-1.7,1.8s-1.5,0.6-2.4,0.6c-1.3,0-2.4-0.5-3.3-1.4c-0.9-0.9-1.4-2.1-1.4-3.4c0-1.4,0.5-2.6,1.6-3.6
			C274.7,339.5,275.7,339.1,276.9,339.1z M276.9,341.3c-0.7,0-1.3,0.2-1.8,0.7c-0.5,0.5-0.7,1.1-0.7,1.9c0,0.8,0.2,1.4,0.7,1.9
			c0.5,0.5,1.1,0.7,1.8,0.7c0.7,0,1.3-0.2,1.8-0.7c0.5-0.5,0.7-1.1,0.7-1.9c0-0.8-0.2-1.4-0.7-1.9
			C278.3,341.5,277.7,341.3,276.9,341.3z"/>
		<path fill="#FFFFFF" d="M285.8,335.8v4.5c0.4-0.4,0.9-0.7,1.3-0.9c0.5-0.2,1-0.3,1.5-0.3c1.2,0,2.2,0.4,3,1.3s1.2,2,1.2,3.5
			c0,1.4-0.4,2.5-1.3,3.4c-0.9,0.9-1.9,1.4-3.1,1.4c-0.5,0-1-0.1-1.5-0.3c-0.5-0.2-0.9-0.5-1.3-0.9v1h-2.3v-12.6H285.8z
			 M288.2,341.2c-0.7,0-1.3,0.2-1.8,0.7c-0.5,0.5-0.7,1.1-0.7,1.9c0,0.8,0.2,1.5,0.7,2c0.5,0.5,1.1,0.7,1.8,0.7
			c0.7,0,1.3-0.3,1.8-0.8c0.5-0.5,0.7-1.2,0.7-1.9c0-0.8-0.2-1.4-0.7-1.9S289,341.2,288.2,341.2z"/>
		<path fill="#FFFFFF" d="M295.2,336h2.3v3.4h1.4v2h-1.4v7.1h-2.3v-7.1H294v-2h1.2V336z"/>
		<path fill="#FFFFFF" d="M309.1,344.6h-7.3c0.1,0.6,0.4,1.2,0.8,1.5s1,0.6,1.8,0.6c0.9,0,1.6-0.3,2.2-0.9l1.9,0.9
			c-0.5,0.7-1.1,1.2-1.7,1.5s-1.5,0.5-2.4,0.5c-1.4,0-2.6-0.4-3.5-1.3s-1.3-2-1.3-3.4c0-1.4,0.4-2.5,1.3-3.5c0.9-0.9,2-1.4,3.4-1.4
			c1.4,0,2.6,0.5,3.5,1.4s1.3,2.1,1.3,3.6L309.1,344.6z M306.9,342.8c-0.2-0.5-0.4-0.9-0.9-1.2s-1-0.5-1.5-0.5
			c-0.6,0-1.2,0.2-1.7,0.5c-0.3,0.2-0.6,0.6-0.8,1.2H306.9z"/>
		<path fill="#FFFFFF" d="M311,339.4h2.3v0.9c0.5-0.4,1-0.7,1.4-0.9c0.4-0.2,0.9-0.3,1.3-0.3c0.9,0,1.7,0.3,2.3,0.9
			c0.5,0.5,0.8,1.3,0.8,2.4v6h-2.3v-4c0-1.1,0-1.8-0.1-2.2c-0.1-0.4-0.3-0.6-0.5-0.8c-0.2-0.2-0.5-0.3-0.9-0.3
			c-0.5,0-0.9,0.2-1.2,0.5c-0.3,0.3-0.6,0.7-0.7,1.3c-0.1,0.3-0.1,0.9-0.1,1.8v3.7H311V339.4z"/>
		<path fill="#FFFFFF" d="M330.4,344.6H323c0.1,0.6,0.4,1.2,0.8,1.5s1,0.6,1.8,0.6c0.9,0,1.6-0.3,2.2-0.9l1.9,0.9
			c-0.5,0.7-1.1,1.2-1.7,1.5s-1.5,0.5-2.4,0.5c-1.4,0-2.6-0.4-3.5-1.3s-1.3-2-1.3-3.4c0-1.4,0.4-2.5,1.3-3.5c0.9-0.9,2-1.4,3.4-1.4
			c1.4,0,2.6,0.5,3.5,1.4s1.3,2.1,1.3,3.6L330.4,344.6z M328.1,342.8c-0.2-0.5-0.4-0.9-0.9-1.2s-1-0.5-1.5-0.5
			c-0.6,0-1.2,0.2-1.7,0.5c-0.3,0.2-0.6,0.6-0.8,1.2H328.1z"/>
		<path fill="#FFFFFF" d="M331.7,339.4h2v1.1c0.2-0.5,0.5-0.8,0.8-1c0.4-0.2,0.7-0.4,1.2-0.4c0.3,0,0.6,0.1,0.9,0.2l-0.7,2
			c-0.3-0.1-0.5-0.2-0.7-0.2c-0.4,0-0.6,0.2-0.9,0.7c-0.2,0.4-0.4,1.3-0.4,2.6l0,0.4v3.7h-2.3V339.4z"/>
		<path fill="#FFFFFF" d="M180.7,356.4h2.3v1c0.4-0.4,0.8-0.7,1.3-1c0.5-0.2,1-0.3,1.6-0.3c0.6,0,1.1,0.1,1.5,0.4
			c0.5,0.3,0.8,0.7,1.1,1.2c0.4-0.5,0.8-0.9,1.3-1.2c0.5-0.3,1.1-0.4,1.7-0.4c0.6,0,1.2,0.2,1.7,0.5c0.5,0.3,0.8,0.7,1.1,1.2
			c0.2,0.5,0.3,1.3,0.3,2.4v5.3h-2.3v-4.6c0-1-0.1-1.7-0.4-2.1c-0.3-0.4-0.6-0.5-1.2-0.5c-0.4,0-0.7,0.1-1,0.3
			c-0.3,0.2-0.5,0.5-0.7,0.9c-0.2,0.4-0.2,1-0.2,1.9v4.1h-2.3V361c0-0.8-0.1-1.4-0.2-1.8c-0.1-0.4-0.3-0.6-0.5-0.8
			c-0.2-0.2-0.5-0.3-0.9-0.3c-0.4,0-0.7,0.1-1,0.3c-0.3,0.2-0.5,0.5-0.7,0.9c-0.2,0.4-0.2,1-0.2,1.9v4h-2.3V356.4z"/>
		<path fill="#FFFFFF" d="M203.5,356.4h2.3v9.1h-2.3v-1c-0.4,0.4-0.9,0.7-1.3,0.9c-0.4,0.2-0.9,0.3-1.5,0.3c-1.2,0-2.2-0.5-3-1.4
			c-0.9-0.9-1.3-2-1.3-3.4c0-1.4,0.4-2.6,1.2-3.5s1.8-1.3,3-1.3c0.5,0,1.1,0.1,1.5,0.3c0.5,0.2,0.9,0.5,1.3,0.9V356.4z M201.1,358.2
			c-0.7,0-1.3,0.2-1.8,0.7c-0.5,0.5-0.7,1.1-0.7,1.9c0,0.8,0.2,1.4,0.7,1.9c0.5,0.5,1.1,0.8,1.8,0.8c0.7,0,1.3-0.2,1.8-0.7
			s0.7-1.2,0.7-2c0-0.8-0.2-1.4-0.7-1.9C202.4,358.5,201.8,358.2,201.1,358.2z M201.7,351.4h2.7l-3.1,3.3h-1.6L201.7,351.4z"/>
		<path fill="#FFFFFF" d="M213.6,357.6l-1.4,1.4c-0.6-0.6-1.1-0.9-1.6-0.9c-0.3,0-0.5,0.1-0.6,0.2s-0.2,0.2-0.2,0.4
			c0,0.1,0,0.2,0.1,0.3c0.1,0.1,0.3,0.2,0.7,0.4l0.8,0.4c0.9,0.4,1.5,0.9,1.8,1.3c0.3,0.5,0.5,1,0.5,1.6c0,0.8-0.3,1.5-0.9,2
			s-1.4,0.8-2.4,0.8c-1.3,0-2.4-0.5-3.2-1.6l1.4-1.5c0.3,0.3,0.6,0.6,0.9,0.8s0.7,0.3,1,0.3c0.3,0,0.5-0.1,0.7-0.2
			c0.2-0.1,0.3-0.3,0.3-0.5c0-0.4-0.3-0.7-1-1l-0.8-0.4c-1.5-0.7-2.2-1.7-2.2-2.8c0-0.7,0.3-1.3,0.8-1.8c0.6-0.5,1.3-0.8,2.1-0.8
			c0.6,0,1.1,0.1,1.7,0.4C212.8,356.8,213.3,357.1,213.6,357.6z"/>
		<path fill="#FFFFFF" d="M221.3,352.6c0.4,0,0.7,0.1,1,0.4c0.3,0.3,0.4,0.6,0.4,1.1c0,0.4-0.1,0.8-0.4,1c-0.3,0.3-0.6,0.4-1,0.4
			c-0.4,0-0.8-0.1-1-0.4c-0.3-0.3-0.4-0.6-0.4-1.1c0-0.4,0.1-0.7,0.4-1C220.5,352.8,220.9,352.6,221.3,352.6z M220.1,356.4h2.3v9.1
			h-2.3V356.4z"/>
		<path fill="#FFFFFF" d="M224.5,356.4h2.3v0.9c0.5-0.4,1-0.7,1.4-0.9c0.4-0.2,0.9-0.3,1.3-0.3c0.9,0,1.7,0.3,2.3,0.9
			c0.5,0.5,0.8,1.3,0.8,2.4v6h-2.3v-4c0-1.1,0-1.8-0.1-2.2c-0.1-0.4-0.3-0.6-0.5-0.8c-0.2-0.2-0.5-0.3-0.9-0.3
			c-0.5,0-0.9,0.2-1.2,0.5c-0.3,0.3-0.6,0.7-0.7,1.3c-0.1,0.3-0.1,0.9-0.1,1.8v3.7h-2.3V356.4z"/>
		<path fill="#FFFFFF" d="M233.7,356.4h0.8c0-1.2,0-1.9,0.1-2.1c0.1-0.5,0.3-0.9,0.6-1.2c0.4-0.3,0.9-0.4,1.5-0.4
			c0.5,0,1,0.1,1.6,0.3v1.7c-0.3-0.1-0.6-0.1-0.8-0.1c-0.3,0-0.5,0.1-0.6,0.2c-0.1,0.1-0.1,0.3-0.1,0.5l0,1.1h1.4v1.9h-1.4v7.2h-2.3
			v-7.2h-0.8V356.4z"/>
		<path fill="#FFFFFF" d="M243.8,356.1c0.9,0,1.7,0.2,2.4,0.6c0.8,0.4,1.3,1,1.8,1.7c0.4,0.7,0.6,1.5,0.6,2.4c0,0.9-0.2,1.7-0.6,2.4
			c-0.4,0.7-1,1.3-1.7,1.8s-1.5,0.6-2.4,0.6c-1.3,0-2.4-0.5-3.3-1.4c-0.9-0.9-1.4-2.1-1.4-3.4c0-1.4,0.5-2.6,1.6-3.6
			C241.6,356.5,242.7,356.1,243.8,356.1z M243.9,358.3c-0.7,0-1.3,0.2-1.8,0.7c-0.5,0.5-0.7,1.1-0.7,1.9c0,0.8,0.2,1.4,0.7,1.9
			c0.5,0.5,1.1,0.7,1.8,0.7c0.7,0,1.3-0.2,1.8-0.7s0.7-1.1,0.7-1.9s-0.2-1.4-0.7-1.9S244.6,358.3,243.9,358.3z"/>
		<path fill="#FFFFFF" d="M250,356.4h2v1.1c0.2-0.5,0.5-0.8,0.8-1s0.7-0.4,1.2-0.4c0.3,0,0.6,0.1,0.9,0.2l-0.7,2
			c-0.3-0.1-0.5-0.2-0.7-0.2c-0.4,0-0.6,0.2-0.9,0.7c-0.2,0.4-0.4,1.3-0.4,2.6l0,0.4v3.7H250V356.4z"/>
		<path fill="#FFFFFF" d="M256,356.4h2.3v1c0.4-0.4,0.8-0.7,1.3-1c0.5-0.2,1-0.3,1.6-0.3c0.6,0,1.1,0.1,1.5,0.4
			c0.5,0.3,0.8,0.7,1.1,1.2c0.4-0.5,0.8-0.9,1.3-1.2c0.5-0.3,1.1-0.4,1.7-0.4c0.6,0,1.2,0.2,1.7,0.5c0.5,0.3,0.8,0.7,1.1,1.2
			c0.2,0.5,0.3,1.3,0.3,2.4v5.3h-2.3v-4.6c0-1-0.1-1.7-0.4-2.1c-0.3-0.4-0.6-0.5-1.2-0.5c-0.4,0-0.7,0.1-1,0.3
			c-0.3,0.2-0.5,0.5-0.7,0.9c-0.2,0.4-0.2,1-0.2,1.9v4.1h-2.3V361c0-0.8-0.1-1.4-0.2-1.8c-0.1-0.4-0.3-0.6-0.5-0.8
			c-0.2-0.2-0.5-0.3-0.9-0.3c-0.4,0-0.7,0.1-1,0.3c-0.3,0.2-0.5,0.5-0.7,0.9c-0.2,0.4-0.2,1-0.2,1.9v4H256V356.4z"/>
		<path fill="#FFFFFF" d="M278.8,356.4h2.3v9.1h-2.3v-1c-0.4,0.4-0.9,0.7-1.3,0.9c-0.4,0.2-0.9,0.3-1.5,0.3c-1.2,0-2.2-0.5-3-1.4
			c-0.9-0.9-1.3-2-1.3-3.4c0-1.4,0.4-2.6,1.2-3.5s1.8-1.3,3-1.3c0.5,0,1.1,0.1,1.5,0.3c0.5,0.2,0.9,0.5,1.3,0.9V356.4z M276.4,358.2
			c-0.7,0-1.3,0.2-1.8,0.7c-0.5,0.5-0.7,1.1-0.7,1.9c0,0.8,0.2,1.4,0.7,1.9c0.5,0.5,1.1,0.8,1.8,0.8c0.7,0,1.3-0.2,1.8-0.7
			s0.7-1.2,0.7-2c0-0.8-0.2-1.4-0.7-1.9C277.7,358.5,277.1,358.2,276.4,358.2z"/>
		<path fill="#FFFFFF" d="M292.3,358.2l-1.9,1c-0.4-0.4-0.7-0.6-1.1-0.8c-0.3-0.1-0.8-0.2-1.2-0.2c-0.9,0-1.5,0.3-2.1,0.8
			c-0.5,0.5-0.8,1.2-0.8,2c0,0.8,0.3,1.4,0.8,1.9c0.5,0.5,1.2,0.7,2,0.7c1,0,1.8-0.3,2.4-1l1.8,1.2c-1,1.3-2.4,1.9-4.1,1.9
			c-1.6,0-2.9-0.5-3.8-1.4s-1.4-2.1-1.4-3.3c0-0.9,0.2-1.7,0.7-2.4c0.4-0.7,1.1-1.3,1.8-1.7c0.8-0.4,1.7-0.6,2.6-0.6
			c0.9,0,1.7,0.2,2.4,0.5C291.3,357,291.9,357.5,292.3,358.2z"/>
		<path fill="#FFFFFF" d="M295.3,352.6c0.4,0,0.7,0.1,1,0.4c0.3,0.3,0.4,0.6,0.4,1.1c0,0.4-0.1,0.8-0.4,1c-0.3,0.3-0.6,0.4-1,0.4
			c-0.4,0-0.8-0.1-1-0.4c-0.3-0.3-0.4-0.6-0.4-1.1c0-0.4,0.1-0.7,0.4-1C294.5,352.8,294.9,352.6,295.3,352.6z M294.1,356.4h2.3v9.1
			h-2.3V356.4z"/>
		<path fill="#FFFFFF" d="M302.7,356.1c0.9,0,1.7,0.2,2.4,0.6c0.8,0.4,1.3,1,1.8,1.7c0.4,0.7,0.6,1.5,0.6,2.4c0,0.9-0.2,1.7-0.6,2.4
			c-0.4,0.7-1,1.3-1.7,1.8s-1.5,0.6-2.4,0.6c-1.3,0-2.4-0.5-3.3-1.4c-0.9-0.9-1.4-2.1-1.4-3.4c0-1.4,0.5-2.6,1.6-3.6
			C300.5,356.5,301.6,356.1,302.7,356.1z M302.8,358.3c-0.7,0-1.3,0.2-1.8,0.7c-0.5,0.5-0.7,1.1-0.7,1.9c0,0.8,0.2,1.4,0.7,1.9
			c0.5,0.5,1.1,0.7,1.8,0.7c0.7,0,1.3-0.2,1.8-0.7s0.7-1.1,0.7-1.9s-0.2-1.4-0.7-1.9S303.5,358.3,302.8,358.3z M303.2,351.4h2.7
			l-3.1,3.3h-1.6L303.2,351.4z"/>
		<path fill="#FFFFFF" d="M309.4,356.4h2.3v0.9c0.5-0.4,1-0.7,1.4-0.9c0.4-0.2,0.9-0.3,1.3-0.3c0.9,0,1.7,0.3,2.3,0.9
			c0.5,0.5,0.8,1.3,0.8,2.4v6h-2.3v-4c0-1.1,0-1.8-0.1-2.2c-0.1-0.4-0.3-0.6-0.5-0.8c-0.2-0.2-0.5-0.3-0.9-0.3
			c-0.5,0-0.9,0.2-1.2,0.5c-0.3,0.3-0.6,0.7-0.7,1.3c-0.1,0.3-0.1,0.9-0.1,1.8v3.7h-2.3V356.4z"/>
	</g>
	<path fill="#FFFFFF" d="M345.5,363.1l-0.2,0.1c0,0-0.5,0.5-0.7,0.8c-0.2,0.3-0.5,0.6-0.6,0.9c-0.3,0.5-0.5,1-0.7,1.6
		c-0.1,0.4-0.1,0.9-0.2,1.3c0,0.5-0.4,0.8-0.8,0.8c-0.2,0-0.4-0.1-0.5-0.3c-0.8-0.8-1.7-1.7-2.5-2.5c-0.9-0.9-1.8-1.8-2.7-2.7
		c-1-0.9-1.9-1.9-2.8-2.8c-0.8-0.8-1.6-1.6-2.4-2.4c-0.6-0.6-1.3-1.3-1.9-1.9c-0.5-0.5-1-1-1.5-1.5c-0.5-0.4-1.3-0.6-2-0.2
		c-0.5,0.2-0.8,0.6-1.1,1c-0.3,0.6-0.2,1.6,0.2,2.1c0.7,0.7,1.4,1.4,2.1,2.1c0.6,0.6,1.3,1.3,1.9,1.9c0.7,0.7,1.4,1.4,2.1,2.1
		c0.5,0.5,1.1,1.1,1.6,1.6c0.7,0.7,1.3,1.3,2,2c0.5,0.5,1.1,1.1,1.6,1.6c0.3,0.3,0.6,0.5,0.8,0.8c0.3,0.4,0.2,0.8-0.1,1
		c-0.3,0.3-0.8,0.2-1.1-0.1c-0.8-0.8-1.7-1.7-2.5-2.5c-0.8-0.7-1.5-1.5-2.2-2.3c-0.4-0.4-0.7-0.8-1.2-1.1c-0.5-0.3-1-0.4-1.5-0.2
		c-0.5,0.2-0.9,0.4-1.2,0.9c-0.4,0.6-0.5,1.1-0.2,1.8c0.2,0.5,0.6,0.8,1,1.2c1,1,2,2,2.9,2.9c0.7,0.7,1.4,1.4,2.1,2.2
		c0.3,0.3,0.3,0.8,0.1,1c-0.3,0.3-0.6,0.5-1.1,0.2c-0.4-0.2-0.6-0.6-0.9-0.9c-0.6-0.5-1.1-1.1-1.7-1.7c-0.6-0.6-1.3-1.3-1.9-1.9
		c-0.6-0.6-1.3-0.6-2-0.4c-0.5,0.2-0.9,0.6-1.2,1.2c-0.3,0.5-0.1,1.6,0.3,2c0.9,0.9,1.8,1.8,2.8,2.7c0.6,0.6,1.2,1.2,1.7,1.8
		c0.2,0.2,0.2,0.5,0.1,0.8c-0.1,0.3-0.3,0.5-0.6,0.5c-0.3,0-0.5,0-0.7-0.2c-0.7-0.7-1.4-1.4-2.1-2.1c-0.3-0.3-0.6-0.6-0.9-0.9
		c-0.4-0.4-1.3-0.5-1.8-0.3c-0.6,0.2-1,0.6-1.2,1.2c-0.2,0.5-0.2,1.4,0.2,1.8c0.6,0.6,1.1,1.2,1.7,1.7c0.4,0.4,0.8,0.8,1.2,1.3
		c0.8,0.8,1.7,1.7,2.5,2.5c0.6,0.5,1.1,1.1,1.7,1.6c0.5,0.5,1.1,1.1,1.6,1.6c0.6,0.5,1.3,1,1.9,1.4c0.7,0.5,1.5,0.8,2.4,1.2
		c0.3,0.1,0.5,0.2,0.8,0.3c0.7,0.2,2.6,0.5,2.9,0.5c0.9,0,1.7-0.1,2.5-0.3c0.9-0.2,1.8-0.7,2.5-1.3c0.9-0.7,1.6-1.6,2.5-2.4
		c0.6-0.5,1.1-1.1,1.5-1.8c0.1-0.2,0.3-0.5,0.4-0.7c0.7-1.6,0.7-3.4,0.4-5.1c-0.2-0.9-0.4-1.9-0.9-2.7c-0.3-0.6-0.4-1.3-0.5-2
		c-0.1-0.8-0.1-1.6-0.2-2.4c-0.1-1-0.1-1.9-0.1-2.9c0-0.7,0.1-1.4,0.3-2.1c0.2-1,0.5-1.9,0.8-2.9c0.3-0.7-0.4-1.5-1.2-1.4
		c-0.5,0.1-0.9,0.3-1.3,0.6C345.6,363,345.5,363.1,345.5,363.1z"/>
</g>
<g id="Capa_2">
</g>
</svg>
