<?xml version="1.0" encoding="utf-8"?>
<!-- Generator: Adobe Illustrator 18.0.0, SVG Export Plug-In . SVG Version: 6.00 Build 0)  -->
<!DOCTYPE svg PUBLIC "-//W3C//DTD SVG 1.1//EN" "http://www.w3.org/Graphics/SVG/1.1/DTD/svg11.dtd">
<svg version="1.1" xmlns="http://www.w3.org/2000/svg" xmlns:xlink="http://www.w3.org/1999/xlink" x="0px" y="0px"
	 viewBox="0 0 511.1 395.5" enable-background="new 0 0 511.1 395.5" xml:space="preserve">
<g id="Capa_1">
	<rect x="-6.9" y="-5.6" fill="#151518" width="526" height="408.9"/>
	<g>
		<path fill="#DDDB1C" d="M14.8,267.8v1.1h-2.7l2.5-2.3c1.1-1,2-1.9,2-3.4c0-2-1.5-3.5-3.5-3.5c-2.1,0-3.7,1.6-3.7,3.8h1.9
			c0-1,0.6-1.8,1.6-1.8c0.9,0,1.6,0.6,1.6,1.5c0,0.9-0.7,1.5-1.3,2L9.6,269v1.7h7v-2.8H14.8z M29.7,267.8c0.4,1.9,1.9,3.1,3.9,3.1
			c2.2,0,4.1-1.6,4.1-3.8c0-2-1.5-3.7-3.5-3.7c-0.7,0-1.3,0.2-1.9,0.6l0.4-2.3h4.1V260h-5.7l-1,5.7l1.7,0.4c0.3-0.7,1-1.1,1.7-1.1
			c1.1,0,2,0.8,2,2c0,1.1-0.9,2-2,2c-0.8,0-1.5-0.5-1.8-1.2H29.7z M74,264.4h1v-1.7h-3.7v1.7h0.8l-1.5,3.9l-1.4-3.9h0.8v-1.7h-3.8
			v1.7h1.1l2.4,6.2l-0.5,1.3h-1v1.7H72v-1.7h-1L74,264.4z M109.2,267.8v1.1h-2.7l2.5-2.3c1.1-1,2-1.9,2-3.4c0-2-1.5-3.5-3.5-3.5
			c-2.1,0-3.7,1.6-3.7,3.8h1.9c0-1,0.6-1.8,1.6-1.8c0.9,0,1.6,0.6,1.6,1.5c0,0.9-0.7,1.5-1.3,2l-3.9,3.7v1.7h7v-2.8H109.2z
			 M127.9,260l-2.9,4.2c-0.6,0.8-0.9,1.6-0.9,2.6c0,1.1,0.4,2.1,1.2,2.9c0.7,0.7,1.8,1.1,2.8,1.1c2.2,0,4-1.8,4-4
			c0-1.9-1.4-3.6-3.4-3.6c-0.4,0-0.6,0.1-0.9,0.2l2.5-3.6H127.9z M128.1,268.9c-1.1,0-2-0.9-2-2c0-1.1,0.9-2,2-2c1.1,0,2,0.9,2,2
			C130.1,268.1,129.1,268.9,128.1,268.9 M167.3,270.7h2.9V269h-1v-9h-2.9v1.7h1.1v2.2c-0.6-0.8-1.6-1.3-2.6-1.3
			c-2.3,0-4.1,1.9-4.1,4.1c0,2.2,1.8,4.1,4.1,4.1c1.1,0,2-0.4,2.6-1.3V270.7z M164.9,269.1c-1.3,0-2.4-1.1-2.4-2.4
			c0-1.4,1.1-2.5,2.4-2.5c1.3,0,2.4,1.1,2.4,2.4C167.3,268,166.3,269.1,164.9,269.1 M188.4,268.3c-0.4,0.7-1.1,1-1.9,1
			c-1.1,0-2.2-0.8-2.4-1.9h6.5l0.1-0.6c0-1.1-0.3-2.2-1.1-3c-0.8-0.8-1.9-1.3-3-1.3c-2.4,0-4.2,1.9-4.2,4.3c0,2.4,1.9,4.2,4.2,4.2
			c1.7,0,3.1-1,3.8-2.6H188.4z M184.1,265.9c0.2-1,1.3-1.9,2.3-1.9c1.2,0,2.2,0.7,2.5,1.9H184.1z M223.3,270.9
			c2.4,0,4.2-1.9,4.2-4.3c0-2.3-1.9-4.2-4.2-4.2c-2.3,0-4.2,1.9-4.2,4.2C219.1,268.9,220.9,270.9,223.3,270.9 M223.3,269.1
			c-1.4,0-2.4-1.1-2.4-2.5c0-1.3,1.1-2.4,2.4-2.4c1.3,0,2.4,1.1,2.4,2.4C225.7,268,224.6,269.1,223.3,269.1 M245.8,268
			c-0.3,0.7-1.1,1.1-1.9,1.1c-1.3,0-2.4-1.1-2.4-2.4c0-1.3,1-2.4,2.4-2.4c0.4,0,0.8,0.1,1.1,0.3c0.3,0.2,0.6,0.5,0.9,0.8h1.7v-2.7
			H246v0.8c-0.6-0.6-1.4-1-2.3-1c-2.3,0-4,2-4,4.2c0,2.3,1.9,4.2,4.2,4.2c1.8,0,3.5-1.2,4-2.9H245.8z M263.3,264.4h1.4v-1.7h-1.4
			V260h-1.8v2.7h-1.3v1.7h1.3v6.3h3.3V269h-1.5V264.4z M285.2,262.7h-2.9v1.7h1v2.6c0,0.6,0,1.1-0.3,1.6c-0.3,0.4-0.8,0.7-1.4,0.7
			c-0.5,0-1-0.2-1.3-0.7c-0.3-0.4-0.3-1-0.3-1.5v-4.3h-2.9v1.7h1v3.2c0,0.9,0.1,1.6,0.7,2.3c0.6,0.7,1.4,1,2.2,1
			c0.9,0,1.9-0.4,2.4-1.2v1h2.7V269h-1V262.7z M301.5,260h-2.9v1.7h1v7.3h-1v1.7h2.9v-1.2c0.6,0.9,1.6,1.3,2.7,1.3
			c1,0,2.1-0.5,2.8-1.3c0.7-0.8,1.1-1.8,1.1-2.8c0-2.3-1.9-4.1-4.1-4.1c-1,0-1.9,0.4-2.5,1.3V260z M303.9,264.2
			c1.3,0,2.4,1.1,2.4,2.4c0,1.3-1,2.5-2.4,2.5c-1.4,0-2.5-1.1-2.5-2.5C301.4,265.3,302.5,264.2,303.9,264.2 M323.1,262.7h-2.7v1.7h1
			v4.6h-1v1.7h3.9V269h-1v-2c0-0.8,0.1-1.4,0.7-1.9c0.5-0.4,1-0.6,1.6-0.6v-1.9c-1,0-1.9,0.5-2.4,1.5V262.7z M344.1,268.3
			c-0.5,0.7-1.1,1-1.9,1c-1.1,0-2.2-0.8-2.4-1.9h6.5l0.1-0.6c0-1.1-0.3-2.2-1.1-3c-0.8-0.8-1.9-1.3-3-1.3c-2.4,0-4.2,1.9-4.2,4.3
			c0,2.4,1.9,4.2,4.2,4.2c1.7,0,3.1-1,3.8-2.6H344.1z M339.7,265.9c0.2-1,1.3-1.9,2.3-1.9c1.2,0,2.2,0.7,2.5,1.9H339.7z
			 M381.4,270.7h2.9V269h-1v-9h-2.9v1.7h1.1v2.2c-0.6-0.8-1.6-1.3-2.6-1.3c-2.3,0-4.1,1.9-4.1,4.1c0,2.2,1.8,4.1,4.1,4.1
			c1.1,0,2-0.4,2.6-1.3V270.7z M379,269.1c-1.3,0-2.4-1.1-2.4-2.4c0-1.4,1.1-2.5,2.4-2.5c1.3,0,2.4,1.1,2.4,2.4
			C381.5,268,380.4,269.1,379,269.1 M402.6,268.3c-0.4,0.7-1.1,1-1.9,1c-1.1,0-2.2-0.8-2.4-1.9h6.5l0.1-0.6c0-1.1-0.3-2.2-1.1-3
			c-0.8-0.8-1.9-1.3-3-1.3c-2.4,0-4.2,1.9-4.2,4.3c0,2.4,1.9,4.2,4.2,4.2c1.7,0,3.1-1,3.8-2.6H402.6z M398.2,265.9
			c0.2-1,1.3-1.9,2.3-1.9c1.2,0,2.2,0.7,2.5,1.9H398.2z M439.1,267.8v1.1h-2.7l2.5-2.3c1.1-1,2-1.9,2-3.4c0-2-1.5-3.5-3.5-3.5
			c-2.1,0-3.7,1.6-3.7,3.8h1.9c0-1,0.6-1.8,1.6-1.8c0.9,0,1.6,0.6,1.6,1.5c0,0.9-0.7,1.5-1.3,2l-3.9,3.7v1.7h7v-2.8H439.1z
			 M461.8,263.8c0-1.2-0.2-2.1-1.2-3c-0.7-0.7-1.7-1.1-2.7-1.1c-1.1,0-2.1,0.5-2.9,1.2c-0.8,0.9-1,1.7-1,2.9v3c0,1.2,0.2,2.1,1.1,3
			c0.7,0.7,1.7,1.1,2.7,1.1c1.1,0,2.1-0.5,2.9-1.3c0.8-0.9,1-1.7,1-2.9V263.8z M456.1,263.8c0-0.5,0-1,0.3-1.4
			c0.3-0.6,0.9-0.8,1.6-0.8c0.6,0,1.2,0.2,1.5,0.7c0.3,0.5,0.4,1,0.4,1.5v3c0,0.5,0,1-0.3,1.4c-0.3,0.6-0.9,0.8-1.6,0.8
			c-0.6,0-1.2-0.2-1.5-0.7c-0.3-0.5-0.3-1-0.3-1.5V263.8z M479.7,260h-3.6v1.7h1.6v7.3h-1.3v1.7h4.5V269h-1.3V260z M495.6,260v3.4
			h1.9v-1.7h3.1l-4.1,9h2.2l4-9V260H495.6z"/>
	</g>
	<g>
		<g>
			<path fill="#0094A1" d="M330.1,370.5c-0.6-0.6-1.3-1.3-1.9-1.9c-0.6-0.6-1.1-1.1-1.6-1.7c-0.6-0.6-1.1-1.1-1.7-1.6
				c-0.4-0.5-0.9-0.8-1.3-1.4c-0.6-0.9-0.8-1.8-0.5-2.9c0.3-0.8,0.7-1.5,1.4-2c0.2-0.1,0.3-0.2,0.5-0.3c1-0.4,2.1-0.5,3.1,0.1
				c0.6,0.3,0.9,0.8,1.4,1.2c0.7,0.6,1.3,1.3,1.9,1.9c0.6,0.6,1.1,1.1,1.7,1.6c0,0,0.1,0.1,0.1,0.1c0.1-0.3,0.2-0.6,0.3-0.8
				c0.3-0.6,0.7-1,1.2-1.4c0.7-0.5,1.5-0.7,2.4-0.6c0.3,0,0.7,0.1,0.9,0.3c0.3,0.2,0.4,0.2,0.5-0.2c0.3-1,0.7-1.8,1.6-2.3
				c0.7-0.4,0.9-0.5,1.9-0.4v-22.2c0-4.1-2.9-8-7-8H159.2c-4.1,0-8.2,3.8-8.2,8v30.3c0,4.1,4,7.7,8.2,7.7h174.2
				c-0.6-1-1.1-1.2-1.7-1.8C331.2,371.8,330.6,371.1,330.1,370.5z"/>
			<path fill="#FFFFFF" d="M333.5,380.8l0.1-0.2c0,0,0.5-0.5,0.8-0.7c0.3-0.2,0.6-0.5,0.9-0.6c0.5-0.3,1-0.5,1.6-0.7
				c0.4-0.1,0.9-0.1,1.3-0.2c0.5,0,0.8-0.4,0.8-0.8c0-0.2-0.1-0.4-0.3-0.5c-0.8-0.8-1.7-1.7-2.5-2.5c-0.9-0.9-1.8-1.8-2.7-2.7
				c-0.9-1-1.9-1.9-2.8-2.8c-0.8-0.8-1.6-1.6-2.4-2.4c-0.6-0.6-1.3-1.3-1.9-1.9c-0.5-0.5-1-1-1.5-1.5c-0.4-0.5-0.6-1.3-0.2-2
				c0.2-0.5,0.6-0.8,1-1.1c0.6-0.3,1.6-0.2,2.1,0.2c0.7,0.7,1.4,1.4,2.1,2.1c0.6,0.6,1.3,1.3,1.9,1.9c0.7,0.7,1.4,1.4,2.1,2.1
				c0.5,0.5,1.1,1.1,1.6,1.6c0.7,0.7,1.3,1.3,2,2c0.5,0.5,1.1,1.1,1.6,1.6c0.3,0.3,0.5,0.6,0.8,0.8c0.4,0.3,0.8,0.2,1-0.1
				c0.3-0.3,0.2-0.8-0.1-1.1c-0.8-0.8-1.7-1.7-2.5-2.5c-0.7-0.8-1.5-1.5-2.3-2.2c-0.4-0.4-0.8-0.7-1.1-1.2c-0.3-0.5-0.4-1-0.2-1.5
				c0.2-0.5,0.4-0.9,0.9-1.2c0.6-0.4,1.1-0.5,1.8-0.2c0.5,0.2,0.8,0.6,1.2,1c1,1,2,2,2.9,2.9c0.7,0.7,1.4,1.4,2.2,2.1
				c0.3,0.3,0.8,0.3,1,0.1c0.3-0.3,0.5-0.6,0.2-1.1c-0.2-0.4-0.6-0.6-0.9-0.9c-0.5-0.6-1.1-1.1-1.7-1.7c-0.6-0.6-1.3-1.3-1.9-1.9
				c-0.6-0.6-0.6-1.3-0.4-2c0.2-0.5,0.6-0.9,1.2-1.2c0.5-0.3,1.6-0.1,2,0.3c0.9,0.9,1.8,1.8,2.7,2.8c0.6,0.6,1.2,1.2,1.8,1.7
				c0.2,0.2,0.5,0.2,0.8,0.1c0.3-0.1,0.5-0.3,0.5-0.6c0-0.3,0-0.5-0.2-0.7c-0.7-0.7-1.4-1.4-2.1-2.1c-0.3-0.3-0.6-0.6-0.9-0.9
				c-0.4-0.4-0.5-1.3-0.3-1.8c0.2-0.6,0.6-1,1.2-1.2c0.5-0.2,1.4-0.2,1.8,0.2c0.6,0.6,1.2,1.1,1.7,1.7c0.4,0.4,0.8,0.8,1.3,1.2
				c0.8,0.8,1.7,1.7,2.5,2.5c0.5,0.6,1.1,1.1,1.6,1.7c0.5,0.5,1.1,1.1,1.6,1.6c0.5,0.6,1,1.3,1.4,1.9c0.5,0.7,0.8,1.5,1.2,2.4
				c0.1,0.3,0.2,0.5,0.3,0.8c0.2,0.7,0.5,2.6,0.5,2.9c0,0.9-0.1,1.7-0.3,2.5c-0.2,0.9-0.7,1.8-1.3,2.5c-0.7,0.9-1.6,1.6-2.4,2.5
				c-0.5,0.6-1.1,1.1-1.8,1.5c-0.2,0.1-0.5,0.3-0.7,0.4c-1.6,0.7-3.4,0.7-5.1,0.4c-0.9-0.2-1.9-0.4-2.7-0.9c-0.6-0.3-1.3-0.4-2-0.5
				c-0.8-0.1-1.6-0.1-2.4-0.2c-1-0.1-1.9-0.1-2.9-0.1c-0.7,0-1.4,0.1-2.1,0.3c-1,0.2-1.9,0.5-2.9,0.8c-0.7,0.3-1.5-0.4-1.4-1.2
				c0.1-0.5,0.3-0.9,0.6-1.3C333.4,380.9,333.5,380.8,333.5,380.8z"/>
		</g>
		<g>
			<path fill="#FFFFFF" d="M158,336.2h2.4v4.6h4.1v-4.6h2.4v12.3h-2.4v-5.4h-4.1v5.4H158V336.2z"/>
			<path fill="#FFFFFF" d="M176.1,339.4h2.3v9.1h-2.3v-1c-0.4,0.4-0.9,0.7-1.3,0.9c-0.4,0.2-0.9,0.3-1.5,0.3c-1.2,0-2.2-0.5-3-1.4
				c-0.9-0.9-1.3-2-1.3-3.4c0-1.4,0.4-2.6,1.2-3.5s1.8-1.3,3-1.3c0.5,0,1.1,0.1,1.5,0.3c0.5,0.2,0.9,0.5,1.3,0.9V339.4z
				 M173.7,341.2c-0.7,0-1.3,0.2-1.8,0.7c-0.5,0.5-0.7,1.1-0.7,1.9c0,0.8,0.2,1.4,0.7,1.9s1.1,0.8,1.8,0.8c0.7,0,1.3-0.2,1.8-0.7
				c0.5-0.5,0.7-1.2,0.7-2c0-0.8-0.2-1.4-0.7-1.9C175.1,341.5,174.5,341.2,173.7,341.2z"/>
			<path fill="#FFFFFF" d="M180.3,339.4h7l-4.1,7.2h3.9v1.9h-7.4l4.1-7.2h-3.5V339.4z"/>
			<path fill="#FFFFFF" d="M202.3,341.2l-1.9,1c-0.4-0.4-0.7-0.6-1.1-0.8c-0.3-0.1-0.8-0.2-1.2-0.2c-0.9,0-1.5,0.3-2.1,0.8
				s-0.8,1.2-0.8,2c0,0.8,0.3,1.4,0.8,1.9s1.2,0.7,2,0.7c1,0,1.8-0.3,2.4-1l1.8,1.2c-1,1.3-2.4,1.9-4.1,1.9c-1.6,0-2.9-0.5-3.8-1.4
				s-1.4-2.1-1.4-3.3c0-0.9,0.2-1.7,0.7-2.4c0.4-0.7,1.1-1.3,1.8-1.7c0.8-0.4,1.7-0.6,2.6-0.6c0.9,0,1.7,0.2,2.4,0.5
				C201.2,340,201.8,340.5,202.3,341.2z"/>
			<path fill="#FFFFFF" d="M204.1,335.8h2.3v12.6h-2.3V335.8z"/>
			<path fill="#FFFFFF" d="M209.3,335.6c0.4,0,0.7,0.1,1,0.4c0.3,0.3,0.4,0.6,0.4,1.1c0,0.4-0.1,0.8-0.4,1c-0.3,0.3-0.6,0.4-1,0.4
				c-0.4,0-0.8-0.1-1-0.4c-0.3-0.3-0.4-0.6-0.4-1.1c0-0.4,0.1-0.7,0.4-1C208.6,335.8,208.9,335.6,209.3,335.6z M208.2,339.4h2.3v9.1
				h-2.3V339.4z"/>
			<path fill="#FFFFFF" d="M221.5,341.2l-1.9,1c-0.4-0.4-0.7-0.6-1.1-0.8c-0.3-0.1-0.8-0.2-1.2-0.2c-0.9,0-1.5,0.3-2.1,0.8
				s-0.8,1.2-0.8,2c0,0.8,0.3,1.4,0.8,1.9s1.2,0.7,2,0.7c1,0,1.8-0.3,2.4-1l1.8,1.2c-1,1.3-2.4,1.9-4.1,1.9c-1.6,0-2.9-0.5-3.8-1.4
				s-1.4-2.1-1.4-3.3c0-0.9,0.2-1.7,0.7-2.4c0.4-0.7,1.1-1.3,1.8-1.7c0.8-0.4,1.7-0.6,2.6-0.6c0.9,0,1.7,0.2,2.4,0.5
				C220.4,340,221,340.5,221.5,341.2z"/>
			<path fill="#FFFFFF" d="M230.6,339.4v1c0.4-0.4,0.9-0.7,1.3-0.9c0.5-0.2,1-0.3,1.5-0.3c1.2,0,2.2,0.4,3,1.3s1.2,2,1.2,3.5
				c0,1.4-0.4,2.5-1.3,3.4c-0.9,0.9-1.9,1.4-3.1,1.4c-0.5,0-1-0.1-1.5-0.3c-0.5-0.2-0.9-0.5-1.3-0.9v4.3h-2.3v-12.4H230.6z
				 M233,341.2c-0.7,0-1.3,0.2-1.8,0.7c-0.5,0.5-0.7,1.1-0.7,1.9c0,0.8,0.2,1.5,0.7,2c0.5,0.5,1.1,0.7,1.8,0.7
				c0.7,0,1.3-0.3,1.8-0.8c0.5-0.5,0.7-1.2,0.7-1.9c0-0.8-0.2-1.4-0.7-1.9S233.7,341.2,233,341.2z"/>
			<path fill="#FFFFFF" d="M246.3,339.4h2.3v9.1h-2.3v-1c-0.4,0.4-0.9,0.7-1.3,0.9c-0.4,0.2-0.9,0.3-1.5,0.3c-1.2,0-2.2-0.5-3-1.4
				c-0.9-0.9-1.3-2-1.3-3.4c0-1.4,0.4-2.6,1.2-3.5s1.8-1.3,3-1.3c0.5,0,1.1,0.1,1.5,0.3c0.5,0.2,0.9,0.5,1.3,0.9V339.4z
				 M243.9,341.2c-0.7,0-1.3,0.2-1.8,0.7c-0.5,0.5-0.7,1.1-0.7,1.9c0,0.8,0.2,1.4,0.7,1.9s1.1,0.8,1.8,0.8c0.7,0,1.3-0.2,1.8-0.7
				c0.5-0.5,0.7-1.2,0.7-2c0-0.8-0.2-1.4-0.7-1.9C245.3,341.5,244.7,341.2,243.9,341.2z"/>
			<path fill="#FFFFFF" d="M250.4,339.4h2v1.1c0.2-0.5,0.5-0.8,0.8-1c0.4-0.2,0.7-0.4,1.2-0.4c0.3,0,0.6,0.1,0.9,0.2l-0.7,2
				c-0.3-0.1-0.5-0.2-0.7-0.2c-0.4,0-0.6,0.2-0.9,0.7c-0.2,0.4-0.4,1.3-0.4,2.6l0,0.4v3.7h-2.3V339.4z"/>
			<path fill="#FFFFFF" d="M263.1,339.4h2.3v9.1h-2.3v-1c-0.4,0.4-0.9,0.7-1.3,0.9c-0.4,0.2-0.9,0.3-1.5,0.3c-1.2,0-2.2-0.5-3-1.4
				c-0.9-0.9-1.3-2-1.3-3.4c0-1.4,0.4-2.6,1.2-3.5s1.8-1.3,3-1.3c0.5,0,1.1,0.1,1.5,0.3c0.5,0.2,0.9,0.5,1.3,0.9V339.4z
				 M260.7,341.2c-0.7,0-1.3,0.2-1.8,0.7c-0.5,0.5-0.7,1.1-0.7,1.9c0,0.8,0.2,1.4,0.7,1.9s1.1,0.8,1.8,0.8c0.7,0,1.3-0.2,1.8-0.7
				c0.5-0.5,0.7-1.2,0.7-2c0-0.8-0.2-1.4-0.7-1.9C262,341.5,261.4,341.2,260.7,341.2z"/>
			<path fill="#FFFFFF" d="M276.8,339.1c0.9,0,1.7,0.2,2.4,0.6s1.3,1,1.8,1.7c0.4,0.7,0.6,1.5,0.6,2.4c0,0.9-0.2,1.7-0.6,2.4
				c-0.4,0.7-1,1.3-1.7,1.8s-1.5,0.6-2.4,0.6c-1.3,0-2.4-0.5-3.3-1.4c-0.9-0.9-1.4-2.1-1.4-3.4c0-1.4,0.5-2.6,1.6-3.6
				C274.5,339.5,275.6,339.1,276.8,339.1z M276.8,341.3c-0.7,0-1.3,0.2-1.8,0.7c-0.5,0.5-0.7,1.1-0.7,1.9c0,0.8,0.2,1.4,0.7,1.9
				c0.5,0.5,1.1,0.7,1.8,0.7c0.7,0,1.3-0.2,1.8-0.7c0.5-0.5,0.7-1.1,0.7-1.9c0-0.8-0.2-1.4-0.7-1.9
				C278.1,341.5,277.5,341.3,276.8,341.3z"/>
			<path fill="#FFFFFF" d="M285.7,335.8v4.5c0.4-0.4,0.9-0.7,1.3-0.9c0.5-0.2,1-0.3,1.5-0.3c1.2,0,2.2,0.4,3,1.3s1.2,2,1.2,3.5
				c0,1.4-0.4,2.5-1.3,3.4c-0.9,0.9-1.9,1.4-3.1,1.4c-0.5,0-1-0.1-1.5-0.3c-0.5-0.2-0.9-0.5-1.3-0.9v1h-2.3v-12.6H285.7z
				 M288.1,341.2c-0.7,0-1.3,0.2-1.8,0.7c-0.5,0.5-0.7,1.1-0.7,1.9c0,0.8,0.2,1.5,0.7,2c0.5,0.5,1.1,0.7,1.8,0.7
				c0.7,0,1.3-0.3,1.8-0.8c0.5-0.5,0.7-1.2,0.7-1.9c0-0.8-0.2-1.4-0.7-1.9S288.8,341.2,288.1,341.2z"/>
			<path fill="#FFFFFF" d="M295,336h2.3v3.4h1.4v2h-1.4v7.1H295v-7.1h-1.2v-2h1.2V336z"/>
			<path fill="#FFFFFF" d="M309,344.6h-7.3c0.1,0.6,0.4,1.2,0.8,1.5s1,0.6,1.8,0.6c0.9,0,1.6-0.3,2.2-0.9l1.9,0.9
				c-0.5,0.7-1.1,1.2-1.7,1.5s-1.5,0.5-2.4,0.5c-1.4,0-2.6-0.4-3.5-1.3s-1.3-2-1.3-3.4c0-1.4,0.4-2.5,1.3-3.5c0.9-0.9,2-1.4,3.4-1.4
				c1.4,0,2.6,0.5,3.5,1.4s1.3,2.1,1.3,3.6L309,344.6z M306.7,342.8c-0.2-0.5-0.4-0.9-0.9-1.2s-1-0.5-1.5-0.5
				c-0.6,0-1.2,0.2-1.7,0.5c-0.3,0.2-0.6,0.6-0.8,1.2H306.7z"/>
			<path fill="#FFFFFF" d="M310.9,339.4h2.3v0.9c0.5-0.4,1-0.7,1.4-0.9c0.4-0.2,0.9-0.3,1.3-0.3c0.9,0,1.7,0.3,2.3,0.9
				c0.5,0.5,0.8,1.3,0.8,2.4v6h-2.3v-4c0-1.1,0-1.8-0.1-2.2c-0.1-0.4-0.3-0.6-0.5-0.8c-0.2-0.2-0.5-0.3-0.9-0.3
				c-0.5,0-0.9,0.2-1.2,0.5c-0.3,0.3-0.6,0.7-0.7,1.3c-0.1,0.3-0.1,0.9-0.1,1.8v3.7h-2.3V339.4z"/>
			<path fill="#FFFFFF" d="M330.3,344.6h-7.3c0.1,0.6,0.4,1.2,0.8,1.5s1,0.6,1.8,0.6c0.9,0,1.6-0.3,2.2-0.9l1.9,0.9
				c-0.5,0.7-1.1,1.2-1.7,1.5s-1.5,0.5-2.4,0.5c-1.4,0-2.6-0.4-3.5-1.3s-1.3-2-1.3-3.4c0-1.4,0.4-2.5,1.3-3.5c0.9-0.9,2-1.4,3.4-1.4
				c1.4,0,2.6,0.5,3.5,1.4s1.3,2.1,1.3,3.6L330.3,344.6z M328,342.8c-0.2-0.5-0.4-0.9-0.9-1.2s-1-0.5-1.5-0.5
				c-0.6,0-1.2,0.2-1.7,0.5c-0.3,0.2-0.6,0.6-0.8,1.2H328z"/>
			<path fill="#FFFFFF" d="M331.6,339.4h2v1.1c0.2-0.5,0.5-0.8,0.8-1c0.4-0.2,0.7-0.4,1.2-0.4c0.3,0,0.6,0.1,0.9,0.2l-0.7,2
				c-0.3-0.1-0.5-0.2-0.7-0.2c-0.4,0-0.6,0.2-0.9,0.7c-0.2,0.4-0.4,1.3-0.4,2.6l0,0.4v3.7h-2.3V339.4z"/>
			<path fill="#FFFFFF" d="M180.5,356.4h2.3v1c0.4-0.4,0.8-0.7,1.3-1c0.5-0.2,1-0.3,1.6-0.3c0.6,0,1.1,0.1,1.5,0.4
				c0.5,0.3,0.8,0.7,1.1,1.2c0.4-0.5,0.8-0.9,1.3-1.2c0.5-0.3,1.1-0.4,1.7-0.4c0.6,0,1.2,0.2,1.7,0.5c0.5,0.3,0.8,0.7,1.1,1.2
				c0.2,0.5,0.3,1.3,0.3,2.4v5.3h-2.3v-4.6c0-1-0.1-1.7-0.4-2.1c-0.3-0.4-0.6-0.5-1.2-0.5c-0.4,0-0.7,0.1-1,0.3
				c-0.3,0.2-0.5,0.5-0.7,0.9c-0.2,0.4-0.2,1-0.2,1.9v4.1h-2.3V361c0-0.8-0.1-1.4-0.2-1.8c-0.1-0.4-0.3-0.6-0.5-0.8
				c-0.2-0.2-0.5-0.3-0.9-0.3c-0.4,0-0.7,0.1-1,0.3c-0.3,0.2-0.5,0.5-0.7,0.9c-0.2,0.4-0.2,1-0.2,1.9v4h-2.3V356.4z"/>
			<path fill="#FFFFFF" d="M203.4,356.4h2.3v9.1h-2.3v-1c-0.4,0.4-0.9,0.7-1.3,0.9c-0.4,0.2-0.9,0.3-1.5,0.3c-1.2,0-2.2-0.5-3-1.4
				c-0.9-0.9-1.3-2-1.3-3.4c0-1.4,0.4-2.6,1.2-3.5s1.8-1.3,3-1.3c0.5,0,1.1,0.1,1.5,0.3c0.5,0.2,0.9,0.5,1.3,0.9V356.4z M201,358.2
				c-0.7,0-1.3,0.2-1.8,0.7c-0.5,0.5-0.7,1.1-0.7,1.9c0,0.8,0.2,1.4,0.7,1.9c0.5,0.5,1.1,0.8,1.8,0.8c0.7,0,1.3-0.2,1.8-0.7
				s0.7-1.2,0.7-2c0-0.8-0.2-1.4-0.7-1.9C202.3,358.5,201.7,358.2,201,358.2z M201.6,351.4h2.7l-3.1,3.3h-1.6L201.6,351.4z"/>
			<path fill="#FFFFFF" d="M213.5,357.6l-1.4,1.4c-0.6-0.6-1.1-0.9-1.6-0.9c-0.3,0-0.5,0.1-0.6,0.2s-0.2,0.2-0.2,0.4
				c0,0.1,0,0.2,0.1,0.3c0.1,0.1,0.3,0.2,0.7,0.4l0.8,0.4c0.9,0.4,1.5,0.9,1.8,1.3c0.3,0.5,0.5,1,0.5,1.6c0,0.8-0.3,1.5-0.9,2
				s-1.4,0.8-2.4,0.8c-1.3,0-2.4-0.5-3.2-1.6l1.4-1.5c0.3,0.3,0.6,0.6,0.9,0.8s0.7,0.3,1,0.3c0.3,0,0.5-0.1,0.7-0.2
				c0.2-0.1,0.3-0.3,0.3-0.5c0-0.4-0.3-0.7-1-1l-0.8-0.4c-1.5-0.7-2.2-1.7-2.2-2.8c0-0.7,0.3-1.3,0.8-1.8c0.6-0.5,1.3-0.8,2.1-0.8
				c0.6,0,1.1,0.1,1.7,0.4C212.7,356.8,213.2,357.1,213.5,357.6z"/>
			<path fill="#FFFFFF" d="M221.2,352.6c0.4,0,0.7,0.1,1,0.4c0.3,0.3,0.4,0.6,0.4,1.1c0,0.4-0.1,0.8-0.4,1c-0.3,0.3-0.6,0.4-1,0.4
				c-0.4,0-0.8-0.1-1-0.4c-0.3-0.3-0.4-0.6-0.4-1.1c0-0.4,0.1-0.7,0.4-1C220.4,352.8,220.8,352.6,221.2,352.6z M220,356.4h2.3v9.1
				H220V356.4z"/>
			<path fill="#FFFFFF" d="M224.4,356.4h2.3v0.9c0.5-0.4,1-0.7,1.4-0.9c0.4-0.2,0.9-0.3,1.3-0.3c0.9,0,1.7,0.3,2.3,0.9
				c0.5,0.5,0.8,1.3,0.8,2.4v6h-2.3v-4c0-1.1,0-1.8-0.1-2.2c-0.1-0.4-0.3-0.6-0.5-0.8c-0.2-0.2-0.5-0.3-0.9-0.3
				c-0.5,0-0.9,0.2-1.2,0.5c-0.3,0.3-0.6,0.7-0.7,1.3c-0.1,0.3-0.1,0.9-0.1,1.8v3.7h-2.3V356.4z"/>
			<path fill="#FFFFFF" d="M233.6,356.4h0.8c0-1.2,0-1.9,0.1-2.1c0.1-0.5,0.3-0.9,0.6-1.2c0.4-0.3,0.9-0.4,1.5-0.4
				c0.5,0,1,0.1,1.6,0.3v1.7c-0.3-0.1-0.6-0.1-0.8-0.1c-0.3,0-0.5,0.1-0.6,0.2c-0.1,0.1-0.1,0.3-0.1,0.5l0,1.1h1.4v1.9h-1.4v7.2
				h-2.3v-7.2h-0.8V356.4z"/>
			<path fill="#FFFFFF" d="M243.7,356.1c0.9,0,1.7,0.2,2.4,0.6c0.8,0.4,1.3,1,1.8,1.7c0.4,0.7,0.6,1.5,0.6,2.4
				c0,0.9-0.2,1.7-0.6,2.4c-0.4,0.7-1,1.3-1.7,1.8s-1.5,0.6-2.4,0.6c-1.3,0-2.4-0.5-3.3-1.4c-0.9-0.9-1.4-2.1-1.4-3.4
				c0-1.4,0.5-2.6,1.6-3.6C241.5,356.5,242.5,356.1,243.7,356.1z M243.8,358.3c-0.7,0-1.3,0.2-1.8,0.7c-0.5,0.5-0.7,1.1-0.7,1.9
				c0,0.8,0.2,1.4,0.7,1.9c0.5,0.5,1.1,0.7,1.8,0.7c0.7,0,1.3-0.2,1.8-0.7s0.7-1.1,0.7-1.9s-0.2-1.4-0.7-1.9
				S244.5,358.3,243.8,358.3z"/>
			<path fill="#FFFFFF" d="M249.9,356.4h2v1.1c0.2-0.5,0.5-0.8,0.8-1s0.7-0.4,1.2-0.4c0.3,0,0.6,0.1,0.9,0.2l-0.7,2
				c-0.3-0.1-0.5-0.2-0.7-0.2c-0.4,0-0.6,0.2-0.9,0.7c-0.2,0.4-0.4,1.3-0.4,2.6l0,0.4v3.7h-2.3V356.4z"/>
			<path fill="#FFFFFF" d="M255.9,356.4h2.3v1c0.4-0.4,0.8-0.7,1.3-1c0.5-0.2,1-0.3,1.6-0.3c0.6,0,1.1,0.1,1.5,0.4
				c0.5,0.3,0.8,0.7,1.1,1.2c0.4-0.5,0.8-0.9,1.3-1.2c0.5-0.3,1.1-0.4,1.7-0.4c0.6,0,1.2,0.2,1.7,0.5c0.5,0.3,0.8,0.7,1.1,1.2
				c0.2,0.5,0.3,1.3,0.3,2.4v5.3h-2.3v-4.6c0-1-0.1-1.7-0.4-2.1c-0.3-0.4-0.6-0.5-1.2-0.5c-0.4,0-0.7,0.1-1,0.3
				c-0.3,0.2-0.5,0.5-0.7,0.9c-0.2,0.4-0.2,1-0.2,1.9v4.1h-2.3V361c0-0.8-0.1-1.4-0.2-1.8c-0.1-0.4-0.3-0.6-0.5-0.8
				c-0.2-0.2-0.5-0.3-0.9-0.3c-0.4,0-0.7,0.1-1,0.3c-0.3,0.2-0.5,0.5-0.7,0.9c-0.2,0.4-0.2,1-0.2,1.9v4h-2.3V356.4z"/>
			<path fill="#FFFFFF" d="M278.7,356.4h2.3v9.1h-2.3v-1c-0.4,0.4-0.9,0.7-1.3,0.9c-0.4,0.2-0.9,0.3-1.5,0.3c-1.2,0-2.2-0.5-3-1.4
				c-0.9-0.9-1.3-2-1.3-3.4c0-1.4,0.4-2.6,1.2-3.5s1.8-1.3,3-1.3c0.5,0,1.1,0.1,1.5,0.3c0.5,0.2,0.9,0.5,1.3,0.9V356.4z
				 M276.3,358.2c-0.7,0-1.3,0.2-1.8,0.7c-0.5,0.5-0.7,1.1-0.7,1.9c0,0.8,0.2,1.4,0.7,1.9c0.5,0.5,1.1,0.8,1.8,0.8
				c0.7,0,1.3-0.2,1.8-0.7s0.7-1.2,0.7-2c0-0.8-0.2-1.4-0.7-1.9C277.6,358.5,277,358.2,276.3,358.2z"/>
			<path fill="#FFFFFF" d="M292.2,358.2l-1.9,1c-0.4-0.4-0.7-0.6-1.1-0.8c-0.3-0.1-0.8-0.2-1.2-0.2c-0.9,0-1.5,0.3-2.1,0.8
				c-0.5,0.5-0.8,1.2-0.8,2c0,0.8,0.3,1.4,0.8,1.9c0.5,0.5,1.2,0.7,2,0.7c1,0,1.8-0.3,2.4-1l1.8,1.2c-1,1.3-2.4,1.9-4.1,1.9
				c-1.6,0-2.9-0.5-3.8-1.4s-1.4-2.1-1.4-3.3c0-0.9,0.2-1.7,0.7-2.4c0.4-0.7,1.1-1.3,1.8-1.7c0.8-0.4,1.7-0.6,2.6-0.6
				c0.9,0,1.7,0.2,2.4,0.5C291.1,357,291.7,357.5,292.2,358.2z"/>
			<path fill="#FFFFFF" d="M295.1,352.6c0.4,0,0.7,0.1,1,0.4c0.3,0.3,0.4,0.6,0.4,1.1c0,0.4-0.1,0.8-0.4,1c-0.3,0.3-0.6,0.4-1,0.4
				c-0.4,0-0.8-0.1-1-0.4c-0.3-0.3-0.4-0.6-0.4-1.1c0-0.4,0.1-0.7,0.4-1C294.4,352.8,294.7,352.6,295.1,352.6z M294,356.4h2.3v9.1
				H294V356.4z"/>
			<path fill="#FFFFFF" d="M302.6,356.1c0.9,0,1.7,0.2,2.4,0.6c0.8,0.4,1.3,1,1.8,1.7c0.4,0.7,0.6,1.5,0.6,2.4
				c0,0.9-0.2,1.7-0.6,2.4c-0.4,0.7-1,1.3-1.7,1.8s-1.5,0.6-2.4,0.6c-1.3,0-2.4-0.5-3.3-1.4c-0.9-0.9-1.4-2.1-1.4-3.4
				c0-1.4,0.5-2.6,1.6-3.6C300.4,356.5,301.4,356.1,302.6,356.1z M302.7,358.3c-0.7,0-1.3,0.2-1.8,0.7c-0.5,0.5-0.7,1.1-0.7,1.9
				c0,0.8,0.2,1.4,0.7,1.9c0.5,0.5,1.1,0.7,1.8,0.7c0.7,0,1.3-0.2,1.8-0.7s0.7-1.1,0.7-1.9s-0.2-1.4-0.7-1.9
				S303.4,358.3,302.7,358.3z M303.1,351.4h2.7l-3.1,3.3h-1.6L303.1,351.4z"/>
			<path fill="#FFFFFF" d="M309.3,356.4h2.3v0.9c0.5-0.4,1-0.7,1.4-0.9c0.4-0.2,0.9-0.3,1.3-0.3c0.9,0,1.7,0.3,2.3,0.9
				c0.5,0.5,0.8,1.3,0.8,2.4v6h-2.3v-4c0-1.1,0-1.8-0.1-2.2c-0.1-0.4-0.3-0.6-0.5-0.8c-0.2-0.2-0.5-0.3-0.9-0.3
				c-0.5,0-0.9,0.2-1.2,0.5c-0.3,0.3-0.6,0.7-0.7,1.3c-0.1,0.3-0.1,0.9-0.1,1.8v3.7h-2.3V356.4z"/>
		</g>
	</g>
	<g>
		<g>
			<path fill="#0094A1" d="M35.7,113c19.1,0,32-9.3,32-23.9c0-11.2-7.6-18.2-22.5-22.7c-13.6-4.1-16.6-5.2-16.6-7.2
				c0-1.8,1.6-2.7,6.4-2.7c8.6,0,20.9,3.2,28,7.4V43.1c-6.3-3-14.7-5.8-26.3-5.8c-18.4,0-31.3,7.2-31.3,22.6
				c0,13.3,10.5,19.3,23.9,23.3c11.2,3.3,15.2,4.8,15.2,7c0,2.7-3.7,3.4-8.4,3.4c-9.6,0-23.9-4.5-30.7-10.2v21.8
				C14.8,111.1,25,113,35.7,113"/>
			<rect x="72" y="38.7" fill="#B9007C" width="22.4" height="72.8"/>
			<polygon fill="#DDDB1C" points="101.3,111.5 122.9,111.5 122.9,70.7 133.6,88.1 145.7,88.1 156,70.7 156,111.5 177.4,111.5 
				177.4,38.7 155.4,38.7 139.4,64.6 123.5,38.7 101.3,38.7 			"/>
			<path fill="#009ADA" d="M214.5,69.9h-8.1v-13h8.1c4.5,0,7.7,2.6,7.7,6.4C222.2,67.3,219,69.9,214.5,69.9 M217.5,38.7H184v72.8
				h22.4V86.1h11.1c17,0,27.6-10.2,27.6-23.7C245.1,48.8,234.5,38.7,217.5,38.7"/>
			<path fill="#0094A1" d="M284.2,113c22.9,0,38.9-17.4,38.9-37.9c0-20.6-16-37.9-38.9-37.9c-22.8,0-39,17.3-39,37.9
				C245.2,95.6,261.4,113,284.2,113 M284.2,92.6c-9.4,0-16.1-7.4-16.1-17.5s6.8-17.5,16.1-17.5c9.4,0,16.1,7.4,16.1,17.5
				S293.6,92.6,284.2,92.6"/>
			<path fill="#B9007C" d="M356.2,113c19.1,0,32-9.3,32-23.9c0-11.2-7.6-18.2-22.5-22.7c-13.6-4.1-16.6-5.2-16.6-7.2
				c0-1.8,1.6-2.7,6.4-2.7c8.6,0,20.9,3.2,28,7.4V43.1c-6.3-3-14.7-5.8-26.3-5.8c-18.4,0-31.3,7.2-31.3,22.6
				c0,13.3,10.5,19.3,23.9,23.3c11.2,3.3,15.2,4.8,15.2,7c0,2.7-3.7,3.4-8.4,3.4c-9.6,0-23.9-4.5-30.7-10.2v21.8
				C335.3,111.1,345.5,113,356.2,113"/>
			<rect x="392.6" y="38.7" fill="#DDDB1C" width="22.4" height="72.8"/>
			<path fill="#009ADA" d="M458.8,113c22.9,0,38.9-17.4,38.9-37.9c0-20.6-16-37.9-38.9-37.9c-22.8,0-39,17.3-39,37.9
				C419.8,95.6,436,113,458.8,113 M458.8,92.6c-9.4,0-16.1-7.4-16.1-17.5s6.8-17.5,16.1-17.5c9.4,0,16.1,7.4,16.1,17.5
				S468.1,92.6,458.8,92.6"/>
		</g>
		<g>
			<path fill="#B9007C" d="M82.8,31.3c6.4,0,11.5-5.2,11.5-11.5S89.2,8.3,82.8,8.3c-6.4,0-11.5,5.2-11.5,11.5S76.5,31.3,82.8,31.3"
				/>
			<path fill="#DDDB1C" d="M404,31.3c6.4,0,11.5-5.2,11.5-11.5S410.4,8.3,404,8.3s-11.5,5.2-11.5,11.5S397.7,31.3,404,31.3"/>
		</g>
		<path fill="#FFFFFF" d="M149.4,228.4h12.9l25-49.8v-9.4h-41.8v10.9h28L149.4,228.4z M123.9,228.4h11.9v-59.2h-10.6l-13.9,7.4v11.9
			l12.5-6.3V228.4z M79.9,218.2c-8.5,0-13.4-9-13.4-19.4c0-10.3,4.9-19.4,13.4-19.4c8.5,0,13.3,9,13.3,19.4
			C93.2,209.2,88.4,218.2,79.9,218.2 M79.9,229.6c16.2,0,25.5-14.7,25.5-30.8c0-16.1-9.2-30.8-25.5-30.8
			c-16.3,0-25.5,14.7-25.5,30.8C54.4,214.9,63.6,229.6,79.9,229.6 M4.1,228.4h42.1v-10.7H21.5l10.1-9.3c9.1-8.4,12.5-13.9,12.5-22.3
			c0-11.2-10.1-18.1-21-18.1c-7.1,0-12.9,2.3-17.3,5.7v12.5c4.5-4,9.5-6.8,16-6.8c6.1,0,10.1,3.2,10.1,8.3c0,5.2-3,9-10.6,16
			L4.1,219.6V228.4z"/>
		<path fill="#FFFFFF" d="M483.3,151.4c7.2,0,12.4-5.6,12.4-12.5c0-6.9-5.2-12.5-12.4-12.5c-7.2,0-12.4,5.6-12.4,12.5
			C470.8,145.8,476.1,151.4,483.3,151.4 M483.3,146.7c-4.2,0-7.4-3.3-7.4-7.9c0-4.5,3.2-7.9,7.4-7.9c4.2,0,7.4,3.3,7.4,7.9
			C490.7,143.4,487.5,146.7,483.3,146.7 M446.8,151h4.7l10.1-24.1h-5.3l-7,17.3l-7-17.3h-5.5L446.8,151z M419.8,150.9h4.9v-24h-4.9
			V150.9z M387.3,126.9v4.4h7.6v19.6h4.9v-19.6h7.6v-4.4H387.3z M364.3,141.3l3.5-8.3l3.5,8.3H364.3z M355.2,150.9h5.2l2.4-5.6h10.2
			l2.4,5.6h5.2l-10.3-24.1h-4.7L355.2,150.9z M337.7,151.4c2.5,0,4.9-0.6,6.8-1.7v-5c-1.9,1.5-4.1,2.1-6.6,2.1
			c-4.7,0-8.2-3.2-8.2-7.9c0-4.6,3.5-7.9,8-7.9c2.7,0,4.6,0.7,6.3,1.9v-5c-1.9-1-4-1.5-6.3-1.5c-7.4,0-13,5.1-13,12.5
			C324.7,146.2,330.4,151.4,337.7,151.4 M301.7,151.4c5.8,0,10.3-3.6,10.3-10.6v-13.9h-4.9V141c0,3.9-2.3,5.8-5.4,5.8
			c-3,0-5.3-1.8-5.3-5.8v-14.1h-4.9v13.9C291.5,147.7,296,151.4,301.7,151.4 M261.5,146.5v-15.2h3.6c5.3,0,8.5,2.8,8.5,7.6
			c0,4.7-3.2,7.6-8.5,7.6H261.5z M256.6,150.9h9c7.8,0,13.2-4.9,13.2-12c0-7.1-5.4-12-13.2-12h-9V150.9z M226.1,150.9h18v-4.4H231
			v-6.2h10.2v-4.4H231v-4.6h12.7v-4.4h-17.6V150.9z M183.6,151.4c7.2,0,12.4-5.6,12.4-12.5c0-6.9-5.2-12.5-12.4-12.5
			c-7.2,0-12.4,5.6-12.4,12.5C171.2,145.8,176.4,151.4,183.6,151.4 M183.6,146.7c-4.2,0-7.4-3.3-7.4-7.9c0-4.5,3.2-7.9,7.4-7.9
			c4.2,0,7.4,3.3,7.4,7.9C191,143.4,187.8,146.7,183.6,146.7 M144.3,150.9h17.1v-4.4h-12.2v-19.6h-4.9V150.9z M113.8,150.9h18v-4.4
			h-13.1v-6.2H129v-4.4h-10.2v-4.6h12.7v-4.4h-17.6V150.9z M83.6,146.5v-15.2h3.6c5.3,0,8.5,2.8,8.5,7.6c0,4.7-3.2,7.6-8.5,7.6H83.6
			z M78.7,150.9h9c7.8,0,13.2-4.9,13.2-12c0-7.1-5.4-12-13.2-12h-9V150.9z M53.2,151.4c7.2,0,12.4-5.6,12.4-12.5
			c0-6.9-5.2-12.5-12.4-12.5s-12.4,5.6-12.4,12.5C40.7,145.8,46,151.4,53.2,151.4 M53.2,146.7c-4.2,0-7.4-3.3-7.4-7.9
			c0-4.5,3.2-7.9,7.4-7.9s7.4,3.3,7.4,7.9C60.6,143.4,57.4,146.7,53.2,146.7 M4,150.9h4.9v-16.4l5.6,7.7h2.7l5.5-7.7v16.4h4.9v-24
			h-4.9l-7,9.9l-7-9.9H4V150.9z"/>
		<path fill="#B9007C" d="M463.2,181.2c-0.4,0.6-1.3,1-2.2,1c-1,0-1.7-0.4-1.7-1.3c0-0.8,0.8-1.3,1.9-1.3c0.8,0,1.5,0.2,2,0.6V181.2
			z M466.6,182c-0.4,0-0.7-0.2-0.7-0.7v-3.3c0-2.5-1.9-3.8-4.7-3.8c-1.8,0-2.9,0.4-3.6,0.8v2.3c0.8-0.5,2-0.8,3-0.8
			c1.3,0,2.6,0.3,2.6,1.8v0.3c-0.6-0.3-1.5-0.6-2.8-0.6c-1.9,0-3.9,1-3.9,3.2c0,2,1.5,3.3,3.6,3.3c1.6,0,2.7-0.6,3.4-1.3
			c0.4,0.9,1.2,1.3,2.2,1.3c0.5,0,1.2-0.2,1.5-0.4v-2C467,181.9,466.8,182,466.6,182 M439.2,184.1h2.8v-6.2c0.4-0.7,1.2-1.3,2.1-1.3
			c0.7,0,1.6,0.3,1.6,2v5.5h2.8v-6.2c0.4-0.7,1.2-1.3,2-1.3c0.7,0,1.6,0.3,1.6,2v5.5h2.8V178c0-2.6-1.5-3.9-3.5-3.9
			c-1.5,0-2.7,0.8-3.4,1.7c-0.4-0.8-1.5-1.7-3-1.7c-1.4,0-2.4,0.7-3,1.4v-1.2h-2.8V184.1z M431,184.1h2.8v-5.7
			c0.4-0.8,1.4-1.7,2.9-1.7c0.3,0,0.6,0,0.9,0.1v-2.7c-0.1,0-0.2,0-0.3,0c-1.5,0-2.9,0.9-3.4,1.9v-1.6H431V184.1z M423.5,184.3
			c3.2,0,5.4-2.3,5.4-5.1c0-2.8-2.2-5.1-5.4-5.1c-3.2,0-5.4,2.3-5.4,5.1C418.1,182.1,420.3,184.3,423.5,184.3 M423.5,181.9
			c-1.6,0-2.7-1.2-2.7-2.7c0-1.5,1.1-2.7,2.7-2.7c1.6,0,2.7,1.2,2.7,2.7C426.2,180.8,425.1,181.9,423.5,181.9 M414.1,184.1v-7.5h3
			v-2.3h-3v-0.5c0-0.9,0.5-1.3,1.3-1.3c0.7,0,1.1,0.1,1.7,0.3v-2.2c-0.7-0.3-1.5-0.4-2.5-0.4c-2.3,0-3.3,1.4-3.3,3.2v0.9h-1.7v2.3
			h1.7v7.5H414.1z M401.5,178.2c0.1-1.1,0.9-2,2.2-2c1.3,0,2,0.9,2.1,2H401.5z M404.2,184.3c1.5,0,2.9-0.4,3.7-1v-2.2
			c-0.9,0.5-2,0.9-3.1,0.9c-1.7,0-3-0.6-3.3-2h7v-0.7c0-2.8-1.7-5.2-4.7-5.2c-3.1,0-5.1,2.3-5.1,5.1
			C398.8,182.4,401.2,184.3,404.2,184.3 M388.5,176.2v-3.3h3.4c1.3,0,2,0.6,2,1.7c0,1.1-0.8,1.7-2,1.7H388.5z M385.7,184.1h2.8v-5.5
			h2.4l4,5.5h3.3l-4.2-5.8c1.8-0.5,2.8-2,2.8-3.8c0-2.3-1.8-4-4.7-4h-6.3V184.1z M374.7,181.2c-0.5,0.6-1.3,1-2.2,1
			c-1,0-1.7-0.4-1.7-1.3c0-0.8,0.8-1.3,1.9-1.3c0.8,0,1.5,0.2,2,0.6V181.2z M378.1,182c-0.4,0-0.7-0.2-0.7-0.7v-3.3
			c0-2.5-1.9-3.8-4.7-3.8c-1.8,0-2.9,0.4-3.6,0.8v2.3c0.8-0.5,2-0.8,3-0.8c1.3,0,2.6,0.3,2.6,1.8v0.3c-0.6-0.3-1.5-0.6-2.8-0.6
			c-1.9,0-3.9,1-3.9,3.2c0,2,1.5,3.3,3.6,3.3c1.6,0,2.7-0.6,3.4-1.3c0.4,0.9,1.2,1.3,2.2,1.3c0.5,0,1.2-0.2,1.5-0.4v-2
			C378.5,181.9,378.3,182,378.1,182 M365.2,184.3c0.6,0,1.3-0.1,1.7-0.4v-2.3c-0.2,0.1-0.5,0.2-0.7,0.2c-0.5,0-0.9-0.3-0.9-1v-10.5
			h-2.8v11.2C362.6,183.8,363.8,184.3,365.2,184.3 M348.4,178.2c0.1-1.1,0.9-2,2.2-2c1.3,0,2,0.9,2.1,2H348.4z M351.1,184.3
			c1.5,0,2.9-0.4,3.7-1v-2.2c-0.9,0.5-2,0.9-3.1,0.9c-1.7,0-3-0.6-3.3-2h7v-0.7c0-2.8-1.7-5.2-4.7-5.2c-3.1,0-5.1,2.3-5.1,5.1
			C345.7,182.4,348.2,184.3,351.1,184.3 M342.7,184.3c0.6,0,1.3-0.1,1.7-0.4v-2.3c-0.2,0.1-0.4,0.2-0.7,0.2c-0.5,0-0.9-0.3-0.9-1
			v-10.5h-2.8v11.2C340.1,183.8,341.4,184.3,342.7,184.3 M332.7,181.9c-1.1,0-2-0.7-2.4-1.5v-2.5c0.4-0.8,1.3-1.4,2.4-1.4
			c1.5,0,2.6,1.2,2.6,2.7C335.3,180.7,334.2,181.9,332.7,181.9 M333.5,184.3c2.7,0,4.6-2.3,4.6-5.1c0-2.9-1.9-5.1-4.6-5.1
			c-1.6,0-2.7,0.7-3.2,1.4v-5.1h-2.8v13.7h2.8v-1.2C330.8,183.6,331.8,184.3,333.5,184.3 M323.3,173.4c0.9,0,1.6-0.7,1.6-1.6
			c0-0.9-0.7-1.7-1.6-1.7c-0.9,0-1.6,0.7-1.6,1.7C321.6,172.7,322.4,173.4,323.3,173.4 M321.9,184.1h2.8v-9.8h-2.8V184.1z
			 M315.4,184.3c2.7,0,4.4-1.3,4.4-3.1c0-1.8-1.2-2.6-3.2-3.1c-1.2-0.3-2.4-0.4-2.4-1.1c0-0.5,0.5-0.8,1.6-0.8c1.3,0,2.7,0.5,3.5,1
			V175c-0.9-0.5-2.3-0.9-3.7-0.9c-2.7,0-4.3,1.1-4.3,3c0,1.8,1.1,2.5,3.2,3c1.4,0.4,2.5,0.5,2.5,1.2c0,0.5-0.6,0.8-1.7,0.8
			c-1.8,0-3.3-0.6-4-1.1v2.4C312.1,184,313.7,184.3,315.4,184.3 M304.3,184.3c3.2,0,5.4-2.3,5.4-5.1c0-2.8-2.2-5.1-5.4-5.1
			c-3.2,0-5.4,2.3-5.4,5.1C298.9,182.1,301.1,184.3,304.3,184.3 M304.3,181.9c-1.6,0-2.7-1.2-2.7-2.7c0-1.5,1.1-2.7,2.7-2.7
			c1.6,0,2.7,1.2,2.7,2.7C307,180.8,305.9,181.9,304.3,181.9 M292.1,176.5c1.5,0,2.6,1.2,2.6,2.7c0,1.5-1.1,2.7-2.6,2.7
			c-1.1,0-2-0.7-2.4-1.4v-2.5C290.1,177.2,291,176.5,292.1,176.5 M292.9,174.1c-1.6,0-2.7,0.7-3.2,1.4v-1.2h-2.8V188h2.8v-5.1
			c0.5,0.7,1.6,1.4,3.2,1.4c2.7,0,4.6-2.3,4.6-5.1C297.5,176.3,295.6,174.1,292.9,174.1 M273.7,184.1h2.8v-5.7
			c0.4-0.8,1.4-1.7,2.9-1.7c0.3,0,0.6,0,0.9,0.1v-2.7c-0.1,0-0.2,0-0.3,0c-1.5,0-2.9,0.9-3.4,1.9v-1.6h-2.8V184.1z M264.5,178.2
			c0.1-1.1,0.9-2,2.2-2c1.3,0,2,0.9,2.1,2H264.5z M267.2,184.3c1.5,0,2.9-0.4,3.7-1v-2.2c-0.9,0.5-2,0.9-3.1,0.9c-1.7,0-3-0.6-3.3-2
			h7v-0.7c0-2.8-1.7-5.2-4.7-5.2c-3.1,0-5.1,2.3-5.1,5.1C261.8,182.4,264.3,184.3,267.2,184.3 M257.2,184.3c1.3,0,2.1-0.2,3.1-0.7
			v-2.3c-0.8,0.5-1.6,0.7-2.6,0.7c-1.7,0-3-1.1-3-2.7c0-1.7,1.4-2.7,3-2.7c0.9,0,1.6,0.2,2.5,0.6v-2.3c-0.9-0.5-1.7-0.6-2.9-0.6
			c-2.8,0-5.3,1.9-5.3,5.1C251.9,182.4,254.4,184.3,257.2,184.3 M246.6,181.2c-0.5,0.6-1.3,1-2.2,1c-1,0-1.7-0.4-1.7-1.3
			c0-0.8,0.8-1.3,1.9-1.3c0.8,0,1.5,0.2,2,0.6V181.2z M250,182c-0.4,0-0.7-0.2-0.7-0.7v-3.3c0-2.5-1.9-3.8-4.7-3.8
			c-1.8,0-2.9,0.4-3.6,0.8v2.3c0.8-0.5,2-0.8,3-0.8c1.3,0,2.6,0.3,2.6,1.8v0.3c-0.6-0.3-1.5-0.6-2.8-0.6c-1.9,0-3.9,1-3.9,3.2
			c0,2,1.5,3.3,3.6,3.3c1.6,0,2.7-0.6,3.4-1.3c0.4,0.9,1.2,1.3,2.2,1.3c0.5,0,1.2-0.2,1.5-0.4v-2C250.4,181.9,250.2,182,250,182
			 M226.1,184.1h2.8v-6h6.2v6h2.8v-13.7h-2.8v5.1h-6.2v-5.1h-2.8V184.1z"/>
		<path fill="#B9007C" d="M320.1,205.7c0.9,0,1.7-0.8,1.7-1.7c0-0.9-0.8-1.7-1.7-1.7c-1,0-1.7,0.7-1.7,1.7
			C318.4,204.9,319.2,205.7,320.1,205.7 M320.1,199.2c0.9,0,1.7-0.8,1.7-1.7c0-0.9-0.8-1.7-1.7-1.7c-1,0-1.7,0.7-1.7,1.7
			C318.4,198.4,319.2,199.2,320.1,199.2 M310.6,205.4h2.8v-5.7c0.4-0.8,1.4-1.7,2.9-1.7c0.3,0,0.6,0,0.9,0.1v-2.7
			c-0.1,0-0.2,0-0.3,0c-1.5,0-2.9,0.9-3.4,1.9v-1.6h-2.8V205.4z M304.7,202.6c-0.4,0.6-1.3,1-2.2,1c-1,0-1.7-0.4-1.7-1.3
			c0-0.8,0.8-1.3,1.9-1.3c0.8,0,1.5,0.2,2,0.6V202.6z M308.1,203.3c-0.4,0-0.7-0.2-0.7-0.7v-3.3c0-2.5-1.9-3.8-4.7-3.8
			c-1.8,0-2.9,0.4-3.6,0.8v2.3c0.8-0.5,2-0.8,3-0.8c1.3,0,2.6,0.3,2.6,1.8v0.3c-0.6-0.3-1.5-0.6-2.8-0.6c-1.9,0-3.9,1-3.9,3.2
			c0,2,1.5,3.3,3.6,3.3c1.6,0,2.7-0.6,3.4-1.3c0.4,0.9,1.2,1.3,2.2,1.3c0.5,0,1.2-0.2,1.5-0.4v-2
			C308.5,203.3,308.3,203.3,308.1,203.3 M295.2,205.7c0.6,0,1.3-0.1,1.7-0.4v-2.3c-0.2,0.1-0.4,0.2-0.7,0.2c-0.5,0-0.9-0.3-0.9-1
			v-10.5h-2.8V203C292.6,205.1,293.9,205.7,295.2,205.7 M287.2,195.7v6.2c-0.4,0.7-1.3,1.3-2.2,1.3c-0.8,0-1.9-0.4-1.9-2.1v-5.4
			h-2.8v6c0,2.5,1.3,4,3.6,4c1.5,0,2.6-0.7,3.3-1.4v1.2h2.8v-9.8H287.2z M275.1,205.7c1.3,0,2.1-0.2,3.1-0.7v-2.3
			c-0.8,0.5-1.6,0.7-2.6,0.7c-1.7,0-3-1.1-3-2.7c0-1.7,1.4-2.7,3-2.7c0.9,0,1.6,0.2,2.5,0.6v-2.3c-0.9-0.5-1.7-0.6-2.9-0.6
			c-2.8,0-5.3,1.9-5.3,5.1C269.8,203.8,272.3,205.7,275.1,205.7 M266.2,194.7c0.9,0,1.6-0.7,1.6-1.6c0-0.9-0.7-1.7-1.6-1.7
			c-0.9,0-1.6,0.7-1.6,1.7C264.6,194,265.3,194.7,266.2,194.7 M264.8,205.4h2.8v-9.8h-2.8V205.4z M256.4,205.4h2.8v-5.7
			c0.4-0.8,1.4-1.7,2.9-1.7c0.3,0,0.6,0,0.9,0.1v-2.7c-0.1,0-0.2,0-0.3,0c-1.5,0-2.9,0.9-3.4,1.9v-1.6h-2.8V205.4z M248.1,205.4h2.8
			v-5.7c0.4-0.8,1.4-1.7,2.9-1.7c0.3,0,0.6,0,0.9,0.1v-2.7c-0.1,0-0.2,0-0.3,0c-1.5,0-2.9,0.9-3.4,1.9v-1.6h-2.8V205.4z
			 M242.7,195.7v6.2c-0.5,0.7-1.3,1.3-2.2,1.3c-0.8,0-1.9-0.4-1.9-2.1v-5.4h-2.8v6c0,2.5,1.3,4,3.6,4c1.5,0,2.6-0.7,3.3-1.4v1.2h2.8
			v-9.8H242.7z M230.6,205.7c1.3,0,2.1-0.2,3.1-0.7v-2.3c-0.8,0.5-1.6,0.7-2.6,0.7c-1.7,0-3-1.1-3-2.7c0-1.7,1.4-2.7,3-2.7
			c0.9,0,1.6,0.2,2.5,0.6v-2.3c-0.9-0.5-1.7-0.6-2.9-0.6c-2.8,0-5.3,1.9-5.3,5.1C225.3,203.8,227.8,205.7,230.6,205.7"/>
		<path fill="#FFFFFF" d="M501.4,205.4v-6.2c0.5-0.7,1.3-1.3,2.2-1.3c0.8,0,1.9,0.4,1.9,2.1v5.4h2.8v-6c0-2.5-1.3-4-3.6-4
			c-1.5,0-2.6,0.7-3.3,1.4v-1.2h-2.8v9.8H501.4z M489.8,194.3h2.4l2.8-2.9h-3.3L489.8,194.3z M491.2,205.7c3.2,0,5.4-2.3,5.4-5.1
			c0-2.8-2.2-5.1-5.4-5.1c-3.2,0-5.4,2.3-5.4,5.1C485.7,203.4,487.9,205.7,491.2,205.7 M491.2,203.3c-1.6,0-2.7-1.2-2.7-2.7
			c0-1.5,1.1-2.7,2.7-2.7c1.6,0,2.7,1.2,2.7,2.7C493.9,202.1,492.7,203.3,491.2,203.3 M482.2,194.7c0.9,0,1.6-0.7,1.6-1.6
			c0-0.9-0.7-1.7-1.6-1.7s-1.6,0.7-1.6,1.7C480.5,194,481.2,194.7,482.2,194.7 M480.8,205.4h2.8v-9.8h-2.8V205.4z M472.9,202.4
			c0,2,1,3.3,3.2,3.3c0.8,0,1.8-0.2,2.3-0.5v-2.3c-0.4,0.2-0.9,0.4-1.4,0.4c-0.9,0-1.3-0.4-1.3-1.4V198h2.8v-2.3h-2.8V193h-2.8v2.7
			H471v2.3h1.9V202.4z M465.6,205.7c2.7,0,4.4-1.3,4.4-3.1c0-1.8-1.2-2.6-3.2-3.1c-1.2-0.3-2.4-0.4-2.4-1.1c0-0.5,0.5-0.8,1.6-0.8
			c1.3,0,2.7,0.5,3.5,1v-2.3c-0.9-0.5-2.3-0.9-3.7-0.9c-2.7,0-4.3,1.1-4.3,3c0,1.8,1.1,2.5,3.2,3c1.4,0.4,2.5,0.5,2.5,1.2
			c0,0.5-0.6,0.8-1.7,0.8c-1.8,0-3.3-0.6-4-1.1v2.4C462.4,205.3,463.9,205.7,465.6,205.7 M452.9,199.6c0.1-1.1,0.9-2,2.2-2
			c1.3,0,2,0.9,2.1,2H452.9z M455.6,205.7c1.5,0,2.9-0.4,3.7-1v-2.2c-0.9,0.5-2,0.9-3.1,0.9c-1.7,0-3-0.6-3.3-2h7v-0.7
			c0-2.8-1.7-5.2-4.7-5.2c-3.1,0-5.1,2.3-5.1,5.1C450.1,203.7,452.6,205.7,455.6,205.7 M442.6,205.7c2.5,0,4.5-1,5.6-2.2v-6h-2.8
			v4.7c-0.7,0.7-1.7,0.9-2.8,0.9c-2.4,0-4.4-1.7-4.4-4.5c0-2.8,1.9-4.5,4.7-4.5c1.3,0,2.6,0.4,3.9,1.2v-2.8c-1.1-0.7-2.3-1-4.1-1
			c-4.3,0-7.4,2.9-7.4,7.1C435.3,202.8,438.5,205.7,442.6,205.7 M423.9,208.4h2.3l2.4-5.9h-3L423.9,208.4z M418,205.7
			c3.2,0,5.4-2.3,5.4-5.1c0-2.8-2.2-5.1-5.4-5.1c-3.2,0-5.4,2.3-5.4,5.1C412.6,203.4,414.8,205.7,418,205.7 M418,203.3
			c-1.6,0-2.7-1.2-2.7-2.7c0-1.5,1.1-2.7,2.7-2.7c1.6,0,2.7,1.2,2.7,2.7C420.7,202.1,419.6,203.3,418,203.3 M405.5,202.8
			c-1.5,0-2.6-1.1-2.6-2.5c0-1.4,1-2.5,2.6-2.5c1.1,0,2,0.6,2.4,1.3v2.3C407.5,202.2,406.6,202.8,405.5,202.8 M407.9,195.7v1.1
			c-0.6-0.7-1.6-1.4-3.2-1.4c-2.7,0-4.5,2.2-4.5,4.9c0,2.7,1.8,4.9,4.5,4.9c1.6,0,2.7-0.7,3.2-1.4v0.6c0,2.1-1.7,2.6-3.2,2.6
			c-1.3,0-2.6-0.4-3.5-0.9v2.5c0.9,0.5,2.3,0.8,3.8,0.8c2.8,0,5.7-1.6,5.7-5.2v-8.6H407.9z M389.8,205.4h9v-2.3h-5.3l4.9-5.6v-1.9
			h-8.4v2.3h4.6l-4.9,5.6V205.4z M384.6,202.6c-0.4,0.6-1.3,1-2.2,1c-1,0-1.7-0.4-1.7-1.3c0-0.8,0.8-1.3,1.9-1.3
			c0.8,0,1.5,0.2,2,0.6V202.6z M388,203.3c-0.4,0-0.7-0.2-0.7-0.7v-3.3c0-2.5-1.9-3.8-4.7-3.8c-1.8,0-2.9,0.4-3.6,0.8v2.3
			c0.8-0.5,2-0.8,3-0.8c1.3,0,2.6,0.3,2.6,1.8v0.3c-0.6-0.3-1.5-0.6-2.8-0.6c-1.9,0-3.9,1-3.9,3.2c0,2,1.5,3.3,3.6,3.3
			c1.6,0,2.7-0.6,3.4-1.3c0.4,0.9,1.2,1.3,2.2,1.3c0.5,0,1.2-0.2,1.5-0.4v-2C388.4,203.3,388.2,203.3,388,203.3 M370.4,205.4h2.8
			v-5.7c0.4-0.8,1.4-1.7,2.9-1.7c0.3,0,0.6,0,0.9,0.1v-2.7c-0.1,0-0.2,0-0.3,0c-1.5,0-2.9,0.9-3.4,1.9v-1.6h-2.8V205.4z
			 M361.3,199.6c0.1-1.1,0.9-2,2.2-2c1.3,0,2,0.9,2.1,2H361.3z M364,205.7c1.5,0,2.9-0.4,3.7-1v-2.2c-0.9,0.5-2,0.9-3.1,0.9
			c-1.7,0-3-0.6-3.3-2h7v-0.7c0-2.8-1.7-5.2-4.7-5.2c-3.1,0-5.1,2.3-5.1,5.1C358.6,203.7,361,205.7,364,205.7 M351.3,203.3
			c-1.5,0-2.6-1.2-2.6-2.7c0-1.5,1.1-2.7,2.6-2.7c1.1,0,2,0.7,2.4,1.4v2.5C353.3,202.6,352.5,203.3,351.3,203.3 M350.5,205.7
			c1.6,0,2.7-0.7,3.2-1.4v1.2h2.8v-13.7h-2.8v5.1c-0.5-0.7-1.6-1.4-3.2-1.4c-2.7,0-4.6,2.3-4.6,5.1
			C345.9,203.4,347.8,205.7,350.5,205.7 M342.4,194.7c0.9,0,1.6-0.7,1.6-1.6c0-0.9-0.7-1.7-1.6-1.7c-0.9,0-1.6,0.7-1.6,1.7
			C340.7,194,341.4,194.7,342.4,194.7 M341,205.4h2.8v-9.8H341V205.4z M329.2,205.4h9.8v-2.5H332v-11.2h-2.8V205.4z"/>
		<path fill="#FFFFFF" d="M428.6,223.9c-0.4,0.6-1.3,1-2.2,1c-1,0-1.7-0.4-1.7-1.3c0-0.8,0.8-1.3,1.9-1.3c0.8,0,1.5,0.2,2,0.6V223.9
			z M432,224.7c-0.4,0-0.7-0.2-0.7-0.7v-3.3c0-2.5-1.9-3.8-4.7-3.8c-1.8,0-2.9,0.4-3.6,0.8v2.3c0.8-0.5,2-0.8,3-0.8
			c1.3,0,2.6,0.3,2.6,1.8v0.3c-0.6-0.3-1.5-0.6-2.8-0.6c-1.9,0-3.9,1-3.9,3.2c0,2,1.5,3.3,3.6,3.3c1.6,0,2.7-0.6,3.4-1.3
			c0.4,0.9,1.2,1.3,2.2,1.3c0.5,0,1.2-0.2,1.5-0.4v-2C432.4,224.6,432.2,224.7,432,224.7 M411.7,226.8h9v-2.3h-5.3l4.9-5.6V217H412
			v2.3h4.6l-4.9,5.6V226.8z M403.1,226.8v-6.2c0.5-0.7,1.3-1.3,2.2-1.3c0.8,0,1.9,0.4,1.9,2.1v5.4h2.8v-6c0-2.5-1.3-4-3.6-4
			c-1.5,0-2.6,0.7-3.3,1.4V217h-2.8v9.8H403.1z M394.4,223.9c-0.5,0.6-1.3,1-2.2,1c-1,0-1.7-0.4-1.7-1.3c0-0.8,0.8-1.3,1.9-1.3
			c0.8,0,1.5,0.2,2,0.6V223.9z M397.8,224.7c-0.4,0-0.7-0.2-0.7-0.7v-3.3c0-2.5-1.9-3.8-4.7-3.8c-1.8,0-2.9,0.4-3.6,0.8v2.3
			c0.8-0.5,2-0.8,3-0.8c1.3,0,2.6,0.3,2.6,1.8v0.3c-0.6-0.3-1.5-0.6-2.8-0.6c-1.9,0-3.9,1-3.9,3.2c0,2,1.5,3.3,3.6,3.3
			c1.6,0,2.7-0.6,3.4-1.3c0.4,0.9,1.2,1.3,2.2,1.3c0.5,0,1.2-0.2,1.5-0.4v-2C398.2,224.6,398,224.7,397.8,224.7 M379.2,226.8v-6.2
			c0.4-0.7,1.3-1.3,2.2-1.3c0.8,0,1.9,0.4,1.9,2.1v5.4h2.8v-6c0-2.5-1.3-4-3.6-4c-1.5,0-2.6,0.7-3.3,1.4V217h-2.8v9.8H379.2z
			 M368.2,226.8h2.8v-5.7c0.4-0.8,1.4-1.7,2.9-1.7c0.3,0,0.6,0,0.9,0.1v-2.7c-0.1,0-0.2,0-0.3,0c-1.5,0-2.9,0.9-3.4,1.9V217h-2.8
			V226.8z M359,220.9c0.1-1.1,0.9-2,2.2-2c1.3,0,2,0.9,2.1,2H359z M361.7,227c1.5,0,2.9-0.4,3.7-1v-2.2c-0.9,0.5-2,0.9-3.1,0.9
			c-1.7,0-3-0.6-3.3-2h7v-0.7c0-2.8-1.7-5.2-4.7-5.2c-3.1,0-5.1,2.3-5.1,5.1C356.3,225.1,358.8,227,361.7,227 M349.5,224.6
			c-1.1,0-2-0.7-2.4-1.5v-2.5c0.4-0.8,1.3-1.4,2.4-1.4c1.5,0,2.6,1.2,2.6,2.7C352.2,223.4,351.1,224.6,349.5,224.6 M350.3,227
			c2.7,0,4.6-2.3,4.6-5.1c0-2.9-1.9-5.1-4.6-5.1c-1.6,0-2.7,0.7-3.2,1.4v-5.1h-2.8v13.7h2.8v-1.2C347.7,226.3,348.7,227,350.3,227
			 M336.9,227c3.2,0,5.4-2.3,5.4-5.1c0-2.8-2.2-5.1-5.4-5.1c-3.2,0-5.4,2.3-5.4,5.1C331.5,224.8,333.7,227,336.9,227 M336.9,224.6
			c-1.6,0-2.7-1.2-2.7-2.7c0-1.5,1.1-2.7,2.7-2.7c1.6,0,2.7,1.2,2.7,2.7C339.6,223.5,338.5,224.6,336.9,224.6 M323.9,227.1
			c2.5,0,4.5-1,5.6-2.2v-6h-2.8v4.7c-0.7,0.7-1.7,0.9-2.8,0.9c-2.4,0-4.4-1.7-4.4-4.5c0-2.8,1.9-4.5,4.7-4.5c1.3,0,2.6,0.4,3.9,1.2
			v-2.8c-1.1-0.7-2.3-1-4.1-1c-4.3,0-7.4,2.9-7.4,7.1S319.8,227.1,323.9,227.1 M301.8,230.8c1.8,0,3.1-1,3.9-3l4.5-10.8h-2.9
			l-2.4,6.4l-2.6-6.4h-3l4.2,9.4c-0.5,1.3-1.2,2-2.2,2c-0.6,0-1-0.1-1.5-0.4v2.4C300.3,230.6,301.1,230.8,301.8,230.8 M287.3,226.8
			h2.8v-5.7c0.4-0.8,1.4-1.7,2.9-1.7c0.3,0,0.6,0,0.9,0.1v-2.7c-0.1,0-0.2,0-0.3,0c-1.5,0-2.9,0.9-3.4,1.9V217h-2.8V226.8z
			 M281.4,223.9c-0.5,0.6-1.3,1-2.2,1c-1,0-1.7-0.4-1.7-1.3c0-0.8,0.8-1.3,1.9-1.3c0.8,0,1.5,0.2,2,0.6V223.9z M284.8,224.7
			c-0.4,0-0.7-0.2-0.7-0.7v-3.3c0-2.5-1.9-3.8-4.7-3.8c-1.8,0-2.9,0.4-3.6,0.8v2.3c0.8-0.5,2-0.8,3-0.8c1.3,0,2.6,0.3,2.6,1.8v0.3
			c-0.6-0.3-1.5-0.6-2.8-0.6c-1.9,0-3.9,1-3.9,3.2c0,2,1.5,3.3,3.6,3.3c1.6,0,2.7-0.6,3.4-1.3c0.4,0.9,1.2,1.3,2.2,1.3
			c0.5,0,1.2-0.2,1.5-0.4v-2C285.2,224.6,285,224.7,284.8,224.7 M271.9,227c0.6,0,1.3-0.1,1.7-0.4v-2.3c-0.2,0.1-0.5,0.2-0.7,0.2
			c-0.5,0-0.9-0.3-0.9-1v-10.5h-2.8v11.2C269.3,226.5,270.6,227,271.9,227 M261.8,227c3.2,0,5.4-2.3,5.4-5.1c0-2.8-2.2-5.1-5.4-5.1
			c-3.2,0-5.4,2.3-5.4,5.1C256.4,224.8,258.6,227,261.8,227 M261.8,224.6c-1.6,0-2.7-1.2-2.7-2.7c0-1.5,1.1-2.7,2.7-2.7
			s2.7,1.2,2.7,2.7C264.5,223.5,263.4,224.6,261.8,224.6 M251.8,227c1.3,0,2.1-0.2,3.1-0.7V224c-0.8,0.5-1.6,0.7-2.6,0.7
			c-1.7,0-3-1.1-3-2.7c0-1.7,1.4-2.7,3-2.7c0.9,0,1.6,0.2,2.5,0.6v-2.3c-0.9-0.5-1.7-0.6-2.9-0.6c-2.8,0-5.3,1.9-5.3,5.1
			C246.5,225.1,249.1,227,251.8,227 M240.7,227c2.7,0,4.4-1.3,4.4-3.1c0-1.8-1.2-2.6-3.2-3.1c-1.2-0.3-2.4-0.4-2.4-1.1
			c0-0.5,0.5-0.8,1.6-0.8c1.3,0,2.7,0.5,3.5,1v-2.3c-0.9-0.5-2.3-0.9-3.7-0.9c-2.7,0-4.3,1.1-4.3,3c0,1.8,1.1,2.5,3.2,3
			c1.4,0.4,2.5,0.5,2.5,1.2c0,0.5-0.6,0.8-1.7,0.8c-1.8,0-3.3-0.6-4-1.1v2.4C237.5,226.7,239.1,227,240.7,227 M228,220.9
			c0.1-1.1,0.9-2,2.2-2c1.3,0,2,0.9,2.1,2H228z M230.7,227c1.5,0,2.9-0.4,3.7-1v-2.2c-0.9,0.5-2,0.9-3.1,0.9c-1.7,0-3-0.6-3.3-2h7
			v-0.7c0-2.8-1.7-5.2-4.7-5.2c-3.1,0-5.1,2.3-5.1,5.1C225.3,225.1,227.7,227,230.7,227"/>
		<line fill="none" stroke="#FFFFFF" x1="209.7" y1="168.9" x2="209.7" y2="227.5"/>
	</g>
	<g>
		<path fill="#FFFFFF" d="M374.3,293.1v0.2c0,0.5,0,1-0.7,1h-0.2v1.1h0.3c0.5,0,0.9,0,1.3-0.5c0.4-0.4,0.4-0.9,0.4-1.5v-2.6h-2v2.3
			H374.3z M369.8,286.4h1.5v-1.8h-1.5v-2.9h-2v2.9h-1.3v1.8h1.3v6.7h3.5v-1.8h-1.6V286.4z M358.8,288.1c0.2-1.1,1.3-2,2.5-2
			c1.3,0,2.4,0.8,2.7,2H358.8z M363.4,290.6c-0.5,0.7-1.2,1-2.1,1c-1.2,0-2.3-0.9-2.6-2h6.9l0.1-0.7c0-1.2-0.4-2.3-1.2-3.2
			c-0.8-0.8-2-1.4-3.2-1.4c-2.5,0-4.5,2-4.5,4.6c0,2.5,2,4.5,4.5,4.5c1.8,0,3.4-1.1,4-2.7H363.4z M350.6,291.5
			c-1.4,0-2.6-1.2-2.6-2.6c0-1.5,1.2-2.6,2.6-2.6c1.4,0,2.6,1.2,2.6,2.6C353.2,290.3,352.1,291.5,350.6,291.5 M353.2,293.1h3.1v-1.8
			h-1.1v-9.6h-3.1v1.8h1.1v2.3c-0.7-0.9-1.7-1.4-2.8-1.4c-2.4,0-4.3,2-4.3,4.4c0,2.4,2,4.4,4.4,4.4c1.1,0,2.2-0.4,2.8-1.4V293.1z
			 M340.9,291.4c-1.5,0-2.5-1.2-2.5-2.6c0-1.4,1.2-2.6,2.6-2.6c1.4,0,2.5,1.2,2.5,2.6C343.5,290.3,342.3,291.4,340.9,291.4
			 M340.9,293.3c2.5,0,4.5-2,4.5-4.5c0-2.4-2-4.5-4.4-4.5c-2.5,0-4.5,2-4.5,4.5C336.4,291.3,338.4,293.3,340.9,293.3 M330.1,288h1.2
			c0.6,0,1.1,0,1.6,0.3c0.4,0.3,0.6,0.8,0.6,1.3c0,0.5-0.2,1-0.6,1.2c-0.4,0.3-1.1,0.3-1.6,0.3h-1.2V288z M330.1,283.5h1.1
			c0.5,0,1,0,1.4,0.2c0.4,0.3,0.6,0.7,0.6,1.1c0,0.4-0.2,0.8-0.5,1.1c-0.4,0.3-0.9,0.3-1.5,0.3h-1.1V283.5z M326.7,293.1h5.3
			c1,0,1.9-0.1,2.6-0.8c0.7-0.6,1.1-1.5,1.1-2.4c0-1.4-0.7-2.4-2-2.9c1-0.4,1.5-1.4,1.5-2.4c0-0.9-0.3-1.7-1.1-2.3
			c-0.7-0.5-1.5-0.6-2.4-0.6h-5.1v1.8h1.2v7.8h-1.2V293.1z M313.9,290.6v2.5h1.5v-0.7c0.6,0.7,1.3,0.9,2.2,0.9c1.6,0,3.1-1,3.1-2.7
			c0-1.9-1.6-2.4-3.2-2.8c-0.6-0.1-1.4-0.3-1.4-1.1c0-0.6,0.6-0.9,1.1-0.9c0.6,0,1.1,0.4,1.1,1h1.9v-2.3h-1.4v0.6
			c-0.5-0.6-1.2-0.8-1.9-0.8c-1.5,0-2.9,0.9-2.9,2.6c0,1.9,1.6,2.3,3.1,2.7c0.7,0.2,1.5,0.3,1.5,1.2c0,0.6-0.6,1.1-1.2,1.1
			c-0.8,0-1.3-0.5-1.4-1.3H313.9z M306,288.1c0.2-1.1,1.3-2,2.5-2c1.3,0,2.4,0.8,2.7,2H306z M310.6,290.6c-0.5,0.7-1.2,1-2.1,1
			c-1.2,0-2.3-0.9-2.6-2h6.9l0.1-0.7c0-1.2-0.4-2.3-1.2-3.2c-0.8-0.8-2-1.4-3.2-1.4c-2.5,0-4.4,2-4.4,4.6c0,2.5,2,4.5,4.5,4.5
			c1.8,0,3.4-1.1,4-2.7H310.6z M300.6,284.6h-2.9v1.8h1.1v4.9h-1.1v1.8h4.2v-1.8h-1.1v-2.2c0-0.8,0.1-1.5,0.7-2
			c0.5-0.4,1.1-0.6,1.7-0.6v-2c-1.1,0-2.1,0.5-2.6,1.6V284.6z M294.2,284.6h-2.9v1.8h1.1v4.9h-1.1v1.8h4.2v-1.8h-1.1v-2.2
			c0-0.8,0.1-1.5,0.7-2c0.5-0.4,1.1-0.6,1.7-0.6v-2c-1.1,0-2.1,0.5-2.6,1.6V284.6z M286.1,291.4c-1.5,0-2.5-1.2-2.5-2.6
			c0-1.4,1.2-2.6,2.6-2.6c1.4,0,2.5,1.2,2.5,2.6C288.6,290.3,287.5,291.4,286.1,291.4 M286.1,293.3c2.5,0,4.5-2,4.5-4.5
			c0-2.4-2-4.5-4.5-4.5c-2.5,0-4.5,2-4.5,4.5C281.6,291.3,283.6,293.3,286.1,293.3 M277.9,283.6h1.7v1.7h1.7v-3.6h-9v3.6h1.7v-1.7
			h1.7v7.7h-1.2v1.8h4.7v-1.8h-1.2V283.6z M259.3,288.1c0.2-1.1,1.3-2,2.5-2c1.3,0,2.4,0.8,2.7,2H259.3z M263.9,290.6
			c-0.5,0.7-1.2,1-2.1,1c-1.2,0-2.3-0.9-2.6-2h6.9l0.1-0.7c0-1.2-0.4-2.3-1.2-3.2c-0.8-0.8-2-1.4-3.2-1.4c-2.5,0-4.4,2-4.4,4.6
			c0,2.5,2,4.5,4.5,4.5c1.8,0,3.4-1.1,4-2.7H263.9z M242.7,291.3h-1.1v1.8h4.2v-1.8h-1.1v-2.6c0-0.7,0-1.2,0.5-1.7
			c0.4-0.4,0.8-0.6,1.4-0.6c0.6,0,1.1,0.3,1.4,0.8c0.3,0.4,0.3,1.1,0.3,1.6v2.6H247v1.8h4.2v-1.8H250v-2.8c0-0.6,0-1.1,0.4-1.6
			c0.3-0.4,0.9-0.6,1.4-0.6c0.5,0,1.1,0.2,1.4,0.7c0.3,0.5,0.3,1,0.3,1.6v2.8h-1.1v1.8h4.2v-1.8h-1.1v-3.2c0-1,0-1.8-0.7-2.6
			c-0.6-0.7-1.5-1.1-2.5-1.1c-1.2,0-2.3,0.7-2.8,1.8c-0.5-1.1-1.5-1.8-2.7-1.8c-1.1,0-1.9,0.6-2.5,1.5v-1.3h-2.9v1.8h1.1V291.3z
			 M239.5,281.7h-2v2.1h2V281.7z M239.5,284.6h-3.1v1.8h1.1v4.9h-1.1v1.8h4.2v-1.8h-1.1V284.6z M230,291.4c-1.4,0-2.5-1.2-2.5-2.5
			c0-1.4,1.1-2.6,2.6-2.6c1.4,0,2.6,1.1,2.6,2.5C232.6,290.3,231.5,291.4,230,291.4 M232.6,293.1h3.1v-1.8h-1.1v-4.9h1.1v-1.8h-3.1
			v1.2c-0.6-0.9-1.6-1.4-2.7-1.4c-2.5,0-4.5,2.1-4.5,4.5c0,2.4,1.9,4.5,4.4,4.5c1.1,0,2.1-0.4,2.8-1.4V293.1z M216.5,289.9
			c-0.1,2.1,1.5,3.4,3.5,3.4c1,0,2-0.4,2.7-1.2c0.7-0.8,0.8-1.6,0.8-2.7v-6h1.2v-1.8H220v1.8h1.2v5.7c0,0.4,0,1-0.2,1.4
			c-0.2,0.4-0.6,0.6-1.1,0.6c-0.8,0-1.2-0.7-1.2-1.4H216.5z M206.2,291.4c-1.5,0-2.5-1.2-2.5-2.6c0-1.4,1.2-2.6,2.6-2.6
			c1.4,0,2.5,1.2,2.5,2.6C208.8,290.3,207.6,291.4,206.2,291.4 M206.2,293.3c2.5,0,4.5-2,4.5-4.5c0-2.4-2-4.5-4.4-4.5
			c-2.5,0-4.5,2-4.5,4.5C201.7,291.3,203.7,293.3,206.2,293.3 M199.8,281.7h-2v2.1h2V281.7z M199.8,284.6h-3.1v1.8h1.1v4.9h-1.1v1.8
			h4.2v-1.8h-1.1V284.6z M193.2,284.6h-2.9v1.8h1.1v4.9h-1.1v1.8h4.2v-1.8h-1.1v-2.2c0-0.8,0.1-1.5,0.7-2c0.5-0.4,1.1-0.6,1.7-0.6
			v-2c-1.1,0-2.1,0.5-2.6,1.6V284.6z M185.1,291.4c-1.5,0-2.5-1.2-2.5-2.6c0-1.4,1.2-2.6,2.6-2.6c1.4,0,2.5,1.2,2.5,2.6
			C187.7,290.3,186.5,291.4,185.1,291.4 M185.1,293.3c2.5,0,4.5-2,4.5-4.5c0-2.4-2-4.5-4.4-4.5c-2.5,0-4.5,2-4.5,4.5
			C180.6,291.3,182.6,293.3,185.1,293.3 M178.2,286.4h1.5v-1.8h-1.5v-2.9h-2v2.9h-1.3v1.8h1.3v6.7h3.5v-1.8h-1.6V286.4z
			 M172.9,281.7h-2v2.1h2V281.7z M172.9,284.6h-3.1v1.8h1.1v4.9h-1.1v1.8h4.2v-1.8h-1.1V284.6z M163.5,291.5c-1.4,0-2.6-1.2-2.6-2.6
			c0-1.5,1.2-2.6,2.6-2.6c1.4,0,2.6,1.2,2.6,2.6C166.1,290.3,164.9,291.5,163.5,291.5 M166,293.1h3.1v-1.8H168v-9.6h-3.1v1.8h1.1
			v2.3c-0.7-0.9-1.7-1.4-2.8-1.4c-2.4,0-4.3,2-4.3,4.4c0,2.4,2,4.4,4.4,4.4c1.1,0,2.2-0.4,2.8-1.4V293.1z M156.9,284.6h-3.1v1.8h1.1
			v2.8c0,0.6,0,1.2-0.4,1.7c-0.3,0.4-0.9,0.7-1.4,0.7c-0.6,0-1.1-0.2-1.4-0.7c-0.3-0.5-0.3-1.1-0.3-1.6v-4.6h-3.1v1.8h1.1v3.4
			c0,0.9,0.1,1.7,0.8,2.5c0.6,0.7,1.5,1.1,2.4,1.1c1,0,2-0.4,2.6-1.3v1.1h2.9v-1.8h-1.1V284.6z M143,288.1h-2.9l1.5-3.9h0L143,288.1
			z M142.9,293.1h4.8v-1.8h-1.2l-4-9.6h-3.8v1.8h1.3l-3.3,7.8h-1.2v1.8h4.7v-1.6h-1.2l0.7-1.7h4l0.7,1.7h-1.3V293.1z"/>
		<path fill="#FFFFFF" d="M422.6,309.3h-1.2l-3.2-4l3.1-3.8h1.2v-1.8h-4.7v1.7h1.1l-1.8,2.4l-1.8-2.4h1.1v-1.7h-4.7v1.8h1.2l3,3.8
			l-3.2,4h-1.1v1.8h4.7v-1.7h-1.1l2.1-2.6l2,2.6h-1.1v1.7h4.7V309.3z M409.2,301.5h1.2v-1.8h-4.3l-3.1,8.1l-3.1-8.1h-4.3v1.8h1.2
			v7.8h-1.2v1.8h4.8v-1.8h-1.3v-6.6l3.3,8.5h1.5l3.2-8.5v6.6h-1.2v1.8h4.7v-1.8h-1.2V301.5z M387,301.6h1.7c1.1,0,1.9,0.1,2.7,0.9
			c0.7,0.8,1,1.9,1,2.9c0,0.9-0.3,2-0.9,2.7c-0.8,0.9-1.7,1-2.8,1H387V301.6z M383.5,311.1h5.4c1.7,0,3-0.4,4.2-1.7
			c1-1.1,1.5-2.5,1.5-4c0-1.6-0.5-3.1-1.6-4.2c-1.2-1.2-2.4-1.5-4-1.5h-5.4v1.8h1.2v7.8h-1.2V311.1z M382.2,303.3v-3.6h-1.8v1.2
			c-0.9-1-2.2-1.4-3.5-1.4c-3.2,0-5.8,2.7-5.8,5.9c0,1.6,0.6,3.1,1.7,4.3c1.1,1.1,2.7,1.8,4.2,1.8c2.4,0,4.8-1.6,5.6-4h-2.4
			c-0.7,1.1-1.9,1.7-3.2,1.7c-2.1,0-3.7-1.7-3.7-3.8c0-2.1,1.6-3.8,3.7-3.8c1.2,0,2.5,0.7,3.2,1.7H382.2z M362.7,311.1v0.2
			c0,0.5,0,1-0.7,1h-0.2v1.1h0.3c0.5,0,0.9,0,1.3-0.5c0.4-0.4,0.4-0.9,0.4-1.5v-2.6h-2v2.3H362.7z M354.3,309.4
			c-1.4,0-2.5-1.2-2.5-2.5c0-1.4,1.1-2.6,2.6-2.6c1.4,0,2.6,1.1,2.6,2.5C356.9,308.3,355.8,309.4,354.3,309.4 M356.9,311.1h3.1v-1.8
			h-1.1v-4.9h1.1v-1.8h-3.1v1.2c-0.6-0.9-1.6-1.4-2.7-1.4c-2.5,0-4.5,2.1-4.5,4.5c0,2.4,1.9,4.5,4.4,4.5c1.1,0,2.1-0.4,2.8-1.4
			V311.1z M345,301.5l4.4-2.1l-0.8-1.7l-4.2,2.4L345,301.5z M347.8,302.6h-3.1v1.8h1.1v4.9h-1.1v1.8h4.2v-1.8h-1.1V302.6z
			 M335.8,306.8c0-1.4,1.2-2.6,2.6-2.6c1.4,0,2.6,1.2,2.6,2.6c0,1.4-1.1,2.6-2.6,2.6C336.9,309.4,335.8,308.3,335.8,306.8
			 M334.3,311.9c0.4,1.9,2.3,2.7,4.1,2.7c1.3,0,2.4-0.4,3.3-1.3c1-1,1.1-2,1.1-3.3v-5.6h1.1v-1.8H341v1.2c-0.6-1-1.7-1.4-2.8-1.4
			c-2.4,0-4.3,2-4.3,4.4c0,2.4,1.9,4.4,4.3,4.4c1.2,0,2.1-0.4,2.7-1.4v0.3c0,0.8,0,1.3-0.6,2c-0.4,0.5-1.1,0.8-1.8,0.8
			c-0.8,0-1.6-0.3-1.9-1.1H334.3z M328.6,309.4c-1.5,0-2.5-1.2-2.5-2.6c0-1.4,1.2-2.6,2.6-2.6c1.4,0,2.5,1.2,2.5,2.6
			C331.2,308.3,330.1,309.4,328.6,309.4 M328.6,311.3c2.5,0,4.5-2,4.5-4.5c0-2.4-2-4.5-4.5-4.5c-2.5,0-4.5,2-4.5,4.5
			C324.2,309.3,326.1,311.3,328.6,311.3 M322.3,299.7h-3.1v1.8h1.1v7.8h-1.2v1.8h4.2v-1.8h-1.1V299.7z M313.9,309.4
			c-1.5,0-2.5-1.2-2.5-2.6c0-1.4,1.2-2.6,2.6-2.6c1.4,0,2.5,1.2,2.5,2.6C316.5,308.3,315.3,309.4,313.9,309.4 M313.9,311.3
			c2.5,0,4.5-2,4.5-4.5c0-2.4-2-4.5-4.5-4.5c-2.5,0-4.5,2-4.5,4.5C309.5,309.3,311.4,311.3,313.9,311.3 M304.3,309.4
			c-1.4,0-2.6-1.2-2.6-2.6c0-1.5,1.2-2.6,2.6-2.6c1.4,0,2.5,1.2,2.5,2.6C306.8,308.3,305.7,309.4,304.3,309.4 M299.7,312.4h-1.1v1.8
			h4.2v-1.8h-1.1v-2.5c0.7,0.9,1.8,1.3,2.9,1.3c2.4,0,4.3-2,4.3-4.4c0-2.4-1.9-4.4-4.4-4.4c-1.2,0-2.2,0.5-2.8,1.4v-1.3h-3.1v1.8
			h1.1V312.4z M293.4,309.4c-1.5,0-2.5-1.2-2.5-2.6c0-1.4,1.2-2.6,2.6-2.6c1.4,0,2.5,1.2,2.5,2.6C296,308.3,294.9,309.4,293.4,309.4
			 M293.4,311.3c2.5,0,4.5-2,4.5-4.5c0-2.4-2-4.5-4.5-4.5c-2.5,0-4.5,2-4.5,4.5C289,309.3,290.9,311.3,293.4,311.3 M285.5,302.6
			h-2.9v1.8h1.1v4.9h-1.1v1.8h4.2v-1.8h-1.1v-2.2c0-0.8,0.1-1.5,0.7-2c0.5-0.4,1.1-0.6,1.7-0.6v-2c-1.1,0-2.1,0.5-2.6,1.6V302.6z
			 M280,304.4h1.5v-1.8H280v-2.9h-2v2.9h-1.3v1.8h1.3v6.7h3.5v-1.8H280V304.4z M267.3,309.3h-1.1v1.8h4.2v-1.8h-1.1v-2.5
			c0-0.6,0-1.3,0.4-1.8c0.4-0.5,1-0.7,1.6-0.7c0.6,0,1.2,0.2,1.5,0.7c0.3,0.5,0.3,1,0.3,1.5v2.8H272v1.8h4.2v-1.8H275V306
			c0-1,0-1.7-0.7-2.5c-0.6-0.7-1.5-1.1-2.5-1.1c-1.1,0-2,0.5-2.5,1.4v-1.2h-3.1v1.8h1.1V309.3z M260.8,306.1h-2.9l1.5-3.9h0
			L260.8,306.1z M260.8,311.1h4.8v-1.8h-1.2l-4-9.6h-3.8v1.8h1.3l-3.3,7.8h-1.2v1.8h4.7v-1.6h-1.2l0.7-1.7h4l0.7,1.7h-1.3V311.1z
			 M240.5,306.1c0.2-1.1,1.3-2,2.5-2c1.3,0,2.4,0.8,2.7,2H240.5z M245.2,308.6c-0.5,0.7-1.2,1-2.1,1c-1.2,0-2.3-0.9-2.6-2h6.9
			l0.1-0.7c0-1.2-0.4-2.3-1.2-3.2c-0.8-0.8-2-1.4-3.2-1.4c-2.5,0-4.5,2-4.5,4.6c0,2.5,2,4.5,4.5,4.5c1.8,0,3.4-1.1,4-2.7H245.2z
			 M232.4,309.5c-1.4,0-2.6-1.2-2.6-2.6c0-1.5,1.2-2.6,2.6-2.6c1.4,0,2.6,1.2,2.6,2.6C235,308.3,233.8,309.5,232.4,309.5
			 M234.9,311.1h3.1v-1.8h-1.1v-9.6h-3.1v1.8h1.1v2.3c-0.7-0.9-1.7-1.4-2.8-1.4c-2.4,0-4.3,2-4.3,4.4c0,2.4,2,4.4,4.4,4.4
			c1.1,0,2.2-0.4,2.8-1.4V311.1z M220.7,299.7h-3.1v1.8h1.1v7.8h-1.2v1.8h4.2v-1.8h-1.1V299.7z M211.2,309.4c-1.4,0-2.5-1.2-2.5-2.5
			c0-1.4,1.1-2.6,2.6-2.6c1.4,0,2.6,1.1,2.6,2.5C213.8,308.3,212.7,309.4,211.2,309.4 M213.8,311.1h3.1v-1.8h-1.1v-4.9h1.1v-1.8
			h-3.1v1.2c-0.6-0.9-1.6-1.4-2.7-1.4c-2.5,0-4.5,2.1-4.5,4.5c0,2.4,1.9,4.5,4.4,4.5c1.1,0,2.1-0.4,2.8-1.4V311.1z M197.3,309.3
			h-1.1v1.8h4.2v-1.8h-1.1v-2.5c0-0.6,0-1.3,0.4-1.8c0.4-0.5,1-0.7,1.6-0.7c0.6,0,1.2,0.2,1.5,0.7c0.3,0.5,0.3,1,0.3,1.5v2.8h-1.1
			v1.8h4.2v-1.8h-1.1V306c0-1,0-1.7-0.7-2.5c-0.6-0.7-1.5-1.1-2.5-1.1c-1.1,0-2,0.5-2.5,1.4v-1.2h-3.1v1.8h1.1V309.3z M190.9,309.4
			c-1.5,0-2.5-1.2-2.5-2.6c0-1.4,1.2-2.6,2.6-2.6c1.4,0,2.5,1.2,2.5,2.6C193.5,308.3,192.4,309.4,190.9,309.4 M190.9,311.3
			c2.5,0,4.5-2,4.5-4.5c0-2.4-2-4.5-4.5-4.5c-2.5,0-4.5,2-4.5,4.5C186.5,309.3,188.4,311.3,190.9,311.3 M184.5,299.7h-2v2.1h2V299.7
			z M184.5,302.6h-3.1v1.8h1.1v4.9h-1.1v1.8h4.2v-1.8h-1.1V302.6z M178.3,308.2c-0.4,0.8-1.2,1.2-2,1.2c-1.4,0-2.6-1.1-2.6-2.6
			c0-1.4,1.1-2.6,2.5-2.6c0.4,0,0.8,0.1,1.2,0.3c0.4,0.2,0.7,0.5,0.9,0.8h1.8v-2.9h-1.7v0.8c-0.6-0.7-1.5-1.1-2.4-1.1
			c-2.4,0-4.3,2.2-4.3,4.5c0,2.5,2,4.5,4.5,4.5c1.9,0,3.7-1.3,4.2-3.1H178.3z M165.4,309.4c-1.4,0-2.5-1.2-2.5-2.5
			c0-1.4,1.1-2.6,2.6-2.6c1.4,0,2.6,1.1,2.6,2.5C168,308.3,166.9,309.4,165.4,309.4 M168,311.1h3.1v-1.8H170v-4.9h1.1v-1.8H168v1.2
			c-0.6-0.9-1.6-1.4-2.7-1.4c-2.5,0-4.5,2.1-4.5,4.5c0,2.4,1.9,4.5,4.4,4.5c1.1,0,2.1-0.4,2.8-1.4V311.1z M158.7,301.5h1.2v-1.8
			h-4.7v1.8h1.2v5.8l-5.4-7.7h-3.2v1.8h1.2v7.8h-1.2v1.8h4.7v-1.8h-1.2v-5.7l5.4,7.5h2V301.5z M137.5,309.4c-1.5,0-2.5-1.2-2.5-2.6
			c0-1.4,1.2-2.6,2.6-2.6c1.4,0,2.5,1.2,2.5,2.6C140.1,308.3,138.9,309.4,137.5,309.4 M137.5,311.3c2.5,0,4.5-2,4.5-4.5
			c0-2.4-2-4.5-4.4-4.5c-2.5,0-4.5,2-4.5,4.5C133,309.3,135,311.3,137.5,311.3 M125.3,306.1c0.2-1.1,1.3-2,2.5-2
			c1.3,0,2.4,0.8,2.7,2H125.3z M130,308.6c-0.5,0.7-1.2,1-2.1,1c-1.2,0-2.3-0.9-2.6-2h6.9l0.1-0.7c0-1.2-0.4-2.3-1.2-3.2
			c-0.8-0.8-2-1.4-3.2-1.4c-2.5,0-4.4,2-4.4,4.6c0,2.5,2,4.5,4.5,4.5c1.8,0,3.4-1.1,4-2.7H130z M116,308.6v2.5h1.5v-0.7
			c0.6,0.7,1.3,0.9,2.2,0.9c1.6,0,3.1-1,3.1-2.7c0-1.9-1.6-2.4-3.2-2.8c-0.6-0.1-1.4-0.3-1.4-1.1c0-0.6,0.6-0.9,1.1-0.9
			c0.6,0,1.1,0.4,1.1,1h1.9v-2.3h-1.4v0.6c-0.5-0.6-1.2-0.8-1.9-0.8c-1.5,0-2.9,0.9-2.9,2.6c0,1.9,1.6,2.3,3.1,2.7
			c0.7,0.2,1.5,0.3,1.5,1.2c0,0.6-0.6,1.1-1.2,1.1c-0.8,0-1.3-0.5-1.4-1.3H116z M113.8,302.6h-3.1v1.8h1.1v2.8c0,0.6,0,1.2-0.4,1.7
			c-0.3,0.4-0.9,0.7-1.4,0.7c-0.6,0-1.1-0.2-1.4-0.7c-0.3-0.5-0.3-1.1-0.3-1.6v-4.6h-3.1v1.8h1.1v3.4c0,0.9,0.1,1.7,0.8,2.5
			c0.6,0.7,1.5,1.1,2.4,1.1c1,0,2-0.4,2.6-1.3v1.1h2.9v-1.8h-1.1V302.6z M103.2,301.5h1.2v-1.8h-4.3l-3.1,8.1l-3.1-8.1h-4.3v1.8h1.2
			v7.8h-1.2v1.8h4.8v-1.8H93v-6.6l3.2,8.5h1.5l3.2-8.5v6.6h-1.2v1.8h4.7v-1.8h-1.2V301.5z"/>
	</g>
</g>
<g id="Capa_2" display="none">
</g>
</svg>
