<?xml version="1.0" encoding="utf-8"?>
<!-- Generator: Adobe Illustrator 18.0.0, SVG Export Plug-In . SVG Version: 6.00 Build 0)  -->
<!DOCTYPE svg PUBLIC "-//W3C//DTD SVG 1.1//EN" "http://www.w3.org/Graphics/SVG/1.1/DTD/svg11.dtd">
<svg version="1.1" xmlns="http://www.w3.org/2000/svg" xmlns:xlink="http://www.w3.org/1999/xlink" x="0px" y="0px"
	 viewBox="0 0 494.2 226.7" enable-background="new 0 0 494.2 226.7" xml:space="preserve">
<g id="Capa_1">
	<g>
		<g>
			<path fill="#0094A1" d="M36.9,107.6c19,0,31.7-9.2,31.7-23.7c0-11.1-7.5-18-22.3-22.5c-13.5-4-16.5-5.2-16.5-7.1
				c0-1.8,1.5-2.7,6.4-2.7c8.5,0,20.7,3.2,27.7,7.3V38.4c-6.3-3-14.5-5.8-26.1-5.8c-18.2,0-31,7.1-31,22.4
				c0,13.2,10.4,19.2,23.7,23.1c11.1,3.3,15,4.7,15,6.9c0,2.7-3.7,3.4-8.3,3.4c-9.5,0-23.7-4.4-30.4-10.1v21.6
				C16.2,105.8,26.3,107.6,36.9,107.6"/>
			<rect x="72.9" y="34.1" fill="#B9007C" width="22.1" height="72.1"/>
			<polygon fill="#DDDB1C" points="101.8,106.2 123.2,106.2 123.2,65.8 133.8,83 145.8,83 156,65.8 156,106.2 177.2,106.2 
				177.2,34.1 155.4,34.1 139.5,59.7 123.7,34.1 101.8,34.1 			"/>
			<path fill="#009ADA" d="M216.9,34.1h-33.2v72.1h22.1V81.1h11c16.8,0,27.3-10.1,27.3-23.5C244.2,44.1,233.7,34.1,216.9,34.1
				 M213.9,65h-8V52.1h8c4.4,0,7.6,2.6,7.6,6.4C221.5,62.4,218.3,65,213.9,65"/>
			<path fill="#0094A1" d="M282.9,87.4c-9.3,0-16-7.3-16-17.3c0-10,6.7-17.3,16-17.3c9.3,0,16,7.3,16,17.3
				C298.9,80.1,292.2,87.4,282.9,87.4 M282.9,107.6c22.7,0,38.5-17.2,38.5-37.5c0-20.4-15.9-37.5-38.5-37.5
				c-22.6,0-38.6,17.1-38.6,37.5C244.3,90.4,260.3,107.6,282.9,107.6"/>
			<path fill="#B9007C" d="M354.2,107.6c19,0,31.7-9.2,31.7-23.7c0-11.1-7.5-18-22.3-22.5c-13.5-4-16.5-5.2-16.5-7.1
				c0-1.8,1.5-2.7,6.4-2.7c8.5,0,20.7,3.2,27.7,7.3V38.4c-6.3-3-14.5-5.8-26.1-5.8c-18.2,0-31,7.1-31,22.4
				c0,13.2,10.4,19.2,23.7,23.1c11.1,3.3,15,4.7,15,6.9c0,2.7-3.7,3.4-8.3,3.4c-9.5,0-23.7-4.4-30.4-10.1v21.6
				C333.5,105.8,343.6,107.6,354.2,107.6"/>
			<rect x="390.1" y="34.1" fill="#DDDB1C" width="22.1" height="72.1"/>
			<path fill="#009ADA" d="M455.7,87.4c-9.3,0-16-7.3-16-17.3c0-10,6.7-17.3,16-17.3c9.3,0,16,7.3,16,17.3
				C471.6,80.1,464.9,87.4,455.7,87.4 M455.7,107.6c22.7,0,38.5-17.2,38.5-37.5c0-20.4-15.9-37.5-38.5-37.5
				c-22.6,0-38.6,17.1-38.6,37.5C417,90.4,433.1,107.6,455.7,107.6"/>
			<path fill="#B9007C" d="M83.6,26.8c6.3,0,11.4-5.1,11.4-11.4c0-6.3-5.1-11.4-11.4-11.4c-6.3,0-11.4,5.1-11.4,11.4
				C72.2,21.7,77.3,26.8,83.6,26.8"/>
			<path fill="#DDDB1C" d="M401.7,26.8c6.3,0,11.4-5.1,11.4-11.4c0-6.3-5.1-11.4-11.4-11.4c-6.3,0-11.4,5.1-11.4,11.4
				C390.3,21.7,395.4,26.8,401.7,26.8"/>
			<path fill="#FFFFFF" d="M5.6,222h41.7v-10.6H22.9l10.1-9.2c9-8.3,12.4-13.7,12.4-22.1c0-11.1-10-17.9-20.8-17.9
				c-7,0-12.8,2.3-17.1,5.6v12.4c4.4-3.9,9.4-6.7,15.8-6.7c6,0,10.1,3.2,10.1,8.2c0,5.2-2.9,9-10.5,15.8L5.6,213.2V222z M80.7,223.2
				c16.1,0,25.2-14.6,25.2-30.5c0-15.9-9.1-30.5-25.2-30.5c-16.2,0-25.3,14.6-25.3,30.5C55.4,208.6,64.5,223.2,80.7,223.2
				 M80.7,211.9c-8.4,0-13.2-9-13.2-19.2c0-10.2,4.9-19.2,13.2-19.2c8.4,0,13.2,9,13.2,19.2C93.8,202.9,89.1,211.9,80.7,211.9
				 M124.3,222h11.8v-58.6h-10.5l-13.7,7.4v11.8l12.4-6.3V222z M149.6,222h12.8l24.8-49.3v-9.3h-41.4v10.8h27.7L149.6,222z"/>
			<path fill="#FFFFFF" d="M5.5,145.2h4.9v-16.3l5.6,7.6h2.7l5.5-7.6v16.3H29v-23.8h-4.8l-6.9,9.8l-6.9-9.8H5.5V145.2z M54.2,141.1
				c-4.2,0-7.3-3.3-7.3-7.8c0-4.5,3.2-7.8,7.3-7.8s7.3,3.3,7.3,7.8C61.6,137.8,58.4,141.1,54.2,141.1 M54.2,145.7
				c7.1,0,12.3-5.5,12.3-12.4c0-6.9-5.2-12.4-12.3-12.4s-12.3,5.5-12.3,12.4C41.9,140.1,47.1,145.7,54.2,145.7 M79.5,145.2h8.9
				c7.7,0,13-4.9,13-11.9c0-7-5.3-11.9-13-11.9h-8.9V145.2z M84.3,140.8v-15h3.6c5.3,0,8.4,2.8,8.4,7.5c0,4.7-3.1,7.5-8.4,7.5H84.3z
				 M114.3,145.2h17.8v-4.4h-12.9v-6.1h10.1v-4.3h-10.1v-4.6h12.6v-4.4h-17.5V145.2z M144.5,145.2h16.9v-4.4h-12.1v-19.4h-4.9V145.2
				z M183.4,141.1c-4.2,0-7.3-3.3-7.3-7.8c0-4.5,3.2-7.8,7.3-7.8c4.2,0,7.3,3.3,7.3,7.8C190.7,137.8,187.6,141.1,183.4,141.1
				 M183.4,145.7c7.1,0,12.3-5.5,12.3-12.4c0-6.9-5.2-12.4-12.3-12.4c-7.1,0-12.3,5.5-12.3,12.4
				C171.1,140.1,176.3,145.7,183.4,145.7 M225.5,145.2h17.8v-4.4h-12.9v-6.1h10.1v-4.3h-10.1v-4.6h12.6v-4.4h-17.5V145.2z
				 M255.7,145.2h8.9c7.7,0,13-4.9,13-11.9c0-7-5.3-11.9-13-11.9h-8.9V145.2z M260.6,140.8v-15h3.6c5.3,0,8.4,2.8,8.4,7.5
				c0,4.7-3.1,7.5-8.4,7.5H260.6z M300.4,145.7c5.7,0,10.2-3.6,10.2-10.5v-13.8h-4.9v14c0,3.9-2.3,5.7-5.3,5.7c-3,0-5.3-1.8-5.3-5.7
				v-14h-4.9v13.8C290.3,142.1,294.7,145.7,300.4,145.7 M336.1,145.7c2.5,0,4.9-0.6,6.8-1.7V139c-1.9,1.5-4.1,2.1-6.5,2.1
				c-4.6,0-8.1-3.2-8.1-7.8c0-4.6,3.4-7.8,7.9-7.8c2.6,0,4.5,0.7,6.2,1.8v-4.9c-1.8-1-3.9-1.5-6.3-1.5c-7.4,0-12.9,5.1-12.9,12.4
				C323.2,140.6,328.8,145.7,336.1,145.7 M353.4,145.2h5.1l2.3-5.5H371l2.3,5.5h5.2l-10.2-23.9h-4.7L353.4,145.2z M362.4,135.7
				l3.5-8.3l3.5,8.3H362.4z M385.1,121.4v4.4h7.5v19.4h4.9v-19.4h7.5v-4.4H385.1z M417.4,145.2h4.9v-23.8h-4.9V145.2z M444.1,145.3
				h4.6l10-23.9h-5.3l-7,17.1l-6.9-17.1h-5.4L444.1,145.3z M480.2,141.1c-4.2,0-7.3-3.3-7.3-7.8c0-4.5,3.2-7.8,7.3-7.8
				c4.2,0,7.3,3.3,7.3,7.8C487.6,137.8,484.4,141.1,480.2,141.1 M480.2,145.7c7.1,0,12.3-5.5,12.3-12.4c0-6.9-5.2-12.4-12.3-12.4
				c-7.1,0-12.3,5.5-12.3,12.4C467.9,140.1,473.1,145.7,480.2,145.7"/>
			<path fill="#B9007C" d="M225.5,178.1h2.8v-5.9h6.1v5.9h2.8v-13.6h-2.8v5.1h-6.1v-5.1h-2.8V178.1z M249.2,176
				c-0.4,0-0.7-0.2-0.7-0.7V172c0-2.4-1.9-3.8-4.6-3.8c-1.8,0-2.9,0.4-3.6,0.8v2.3c0.8-0.4,2-0.8,2.9-0.8c1.2,0,2.6,0.3,2.6,1.8v0.3
				c-0.6-0.3-1.5-0.6-2.8-0.6c-1.9,0-3.8,1-3.8,3.2c0,2,1.5,3.2,3.6,3.2c1.6,0,2.7-0.6,3.3-1.3c0.4,0.9,1.2,1.2,2.2,1.2
				c0.5,0,1.1-0.2,1.5-0.4v-2C249.6,176,249.4,176,249.2,176 M245.8,175.2c-0.4,0.6-1.3,1-2.2,1c-0.9,0-1.7-0.4-1.7-1.3
				c0-0.8,0.8-1.3,1.9-1.3c0.8,0,1.5,0.2,2,0.6V175.2z M256.3,178.3c1.3,0,2.1-0.2,3.1-0.7v-2.3c-0.8,0.5-1.6,0.7-2.6,0.7
				c-1.6,0-3-1.1-3-2.7c0-1.6,1.4-2.7,3-2.7c0.9,0,1.6,0.2,2.5,0.6v-2.3c-0.9-0.4-1.7-0.6-2.9-0.6c-2.8,0-5.3,1.9-5.3,5.1
				C251.1,176.4,253.6,178.3,256.3,178.3 M266.2,178.3c1.5,0,2.9-0.4,3.7-1v-2.2c-0.9,0.5-1.9,0.9-3.1,0.9c-1.6,0-2.9-0.6-3.2-2h6.9
				v-0.7c0-2.8-1.7-5.1-4.6-5.1c-3.1,0-5,2.3-5,5.1C260.9,176.4,263.3,178.3,266.2,178.3 M263.6,172.3c0.1-1.1,0.9-1.9,2.2-1.9
				c1.3,0,2,0.9,2,1.9H263.6z M272.6,178.1h2.7v-5.6c0.3-0.8,1.4-1.7,2.8-1.7c0.3,0,0.6,0,0.9,0.1v-2.7c-0.1,0-0.2,0-0.3,0
				c-1.5,0-2.8,0.9-3.4,1.9v-1.6h-2.7V178.1z M291.7,168.2c-1.6,0-2.6,0.7-3.2,1.4v-1.2h-2.7V182h2.7v-5.1c0.5,0.7,1.5,1.4,3.2,1.4
				c2.7,0,4.6-2.2,4.6-5.1C296.2,170.4,294.3,168.2,291.7,168.2 M290.9,170.5c1.5,0,2.6,1.2,2.6,2.7c0,1.5-1.1,2.7-2.6,2.7
				c-1.1,0-2-0.7-2.4-1.4V172C288.9,171.2,289.8,170.5,290.9,170.5 M303,176c-1.5,0-2.7-1.2-2.7-2.7c0-1.5,1.1-2.7,2.7-2.7
				c1.6,0,2.7,1.2,2.7,2.7C305.6,174.8,304.5,176,303,176 M303,178.3c3.2,0,5.4-2.2,5.4-5.1c0-2.8-2.2-5.1-5.4-5.1
				c-3.2,0-5.4,2.3-5.4,5.1C297.6,176.1,299.8,178.3,303,178.3 M313.9,178.3c2.6,0,4.3-1.2,4.3-3c0-1.8-1.2-2.6-3.2-3.1
				c-1.2-0.3-2.4-0.4-2.4-1.1c0-0.5,0.5-0.8,1.5-0.8c1.3,0,2.6,0.5,3.5,1v-2.3c-0.9-0.5-2.3-0.9-3.6-0.9c-2.7,0-4.3,1.1-4.3,3
				c0,1.8,1.1,2.5,3.1,3c1.4,0.4,2.5,0.5,2.5,1.2c0,0.5-0.6,0.8-1.7,0.8c-1.7,0-3.3-0.6-4-1.1v2.4
				C310.7,178,312.3,178.3,313.9,178.3 M320.4,178.1h2.7v-9.7h-2.7V178.1z M321.8,167.5c0.9,0,1.6-0.7,1.6-1.6
				c0-0.9-0.7-1.6-1.6-1.6c-0.9,0-1.6,0.7-1.6,1.6C320.1,166.8,320.9,167.5,321.8,167.5 M331.9,178.3c2.7,0,4.6-2.2,4.6-5.1
				c0-2.8-1.9-5.1-4.6-5.1c-1.6,0-2.6,0.7-3.2,1.4v-5.1H326v13.6h2.7v-1.2C329.2,177.6,330.2,178.3,331.9,178.3 M331.1,176
				c-1.1,0-2-0.7-2.4-1.5V172c0.4-0.8,1.3-1.4,2.4-1.4c1.5,0,2.6,1.2,2.6,2.7C333.7,174.8,332.6,176,331.1,176 M341,178.3
				c0.6,0,1.3-0.1,1.7-0.3v-2.2c-0.2,0.1-0.4,0.2-0.7,0.2c-0.5,0-0.9-0.3-0.9-1v-10.4h-2.7v11.1C338.4,177.8,339.7,178.3,341,178.3
				 M349.3,178.3c1.5,0,2.9-0.4,3.7-1v-2.2c-0.9,0.5-1.9,0.9-3.1,0.9c-1.6,0-2.9-0.6-3.2-2h6.9v-0.7c0-2.8-1.7-5.1-4.6-5.1
				c-3.1,0-5,2.3-5,5.1C344,176.4,346.4,178.3,349.3,178.3 M346.7,172.3c0.1-1.1,0.9-1.9,2.2-1.9c1.3,0,2,0.9,2,1.9H346.7z
				 M363.3,178.3c0.6,0,1.3-0.1,1.7-0.3v-2.2c-0.2,0.1-0.4,0.2-0.7,0.2c-0.5,0-0.9-0.3-0.9-1v-10.4h-2.7v11.1
				C360.7,177.8,361.9,178.3,363.3,178.3 M376,176c-0.4,0-0.7-0.2-0.7-0.7V172c0-2.4-1.9-3.8-4.6-3.8c-1.8,0-2.9,0.4-3.6,0.8v2.3
				c0.8-0.4,2-0.8,2.9-0.8c1.2,0,2.6,0.3,2.6,1.8v0.3c-0.6-0.3-1.5-0.6-2.8-0.6c-1.9,0-3.8,1-3.8,3.2c0,2,1.5,3.2,3.6,3.2
				c1.6,0,2.7-0.6,3.3-1.3c0.4,0.9,1.2,1.2,2.2,1.2c0.5,0,1.1-0.2,1.5-0.4v-2C376.4,176,376.2,176,376,176 M372.7,175.2
				c-0.4,0.6-1.3,1-2.2,1c-0.9,0-1.7-0.4-1.7-1.3c0-0.8,0.8-1.3,1.9-1.3c0.8,0,1.5,0.2,2,0.6V175.2z M383.6,178.1h2.8v-5.5h2.3
				l4,5.5h3.2l-4.2-5.8c1.8-0.5,2.8-2,2.8-3.8c0-2.3-1.7-4-4.7-4h-6.3V178.1z M386.4,170.3V167h3.3c1.3,0,2,0.6,2,1.6
				c0,1.1-0.8,1.6-2,1.6H386.4z M401.9,178.3c1.5,0,2.9-0.4,3.7-1v-2.2c-0.9,0.5-1.9,0.9-3.1,0.9c-1.6,0-2.9-0.6-3.2-2h6.9v-0.7
				c0-2.8-1.7-5.1-4.6-5.1c-3.1,0-5,2.3-5,5.1C396.6,176.4,399,178.3,401.9,178.3 M399.3,172.3c0.1-1.1,0.9-1.9,2.2-1.9
				c1.3,0,2,0.9,2,1.9H399.3z M411.8,178.1v-7.4h3v-2.3h-3v-0.5c0-0.9,0.5-1.3,1.3-1.3c0.7,0,1.1,0.1,1.7,0.3v-2.2
				c-0.7-0.3-1.5-0.4-2.5-0.4c-2.2,0-3.3,1.4-3.3,3.2v0.9h-1.7v2.3h1.7v7.4H411.8z M421,176c-1.6,0-2.7-1.2-2.7-2.7
				c0-1.5,1.1-2.7,2.7-2.7c1.6,0,2.7,1.2,2.7,2.7C423.7,174.8,422.6,176,421,176 M421,178.3c3.2,0,5.4-2.2,5.4-5.1
				c0-2.8-2.2-5.1-5.4-5.1c-3.2,0-5.4,2.3-5.4,5.1C415.7,176.1,417.9,178.3,421,178.3 M428.4,178.1h2.7v-5.6
				c0.3-0.8,1.4-1.7,2.8-1.7c0.3,0,0.6,0,0.9,0.1v-2.7c-0.1,0-0.2,0-0.3,0c-1.5,0-2.8,0.9-3.4,1.9v-1.6h-2.7V178.1z M436.6,178.1
				h2.7v-6.1c0.4-0.7,1.2-1.3,2-1.3c0.7,0,1.6,0.3,1.6,2v5.4h2.7V172c0.3-0.7,1.2-1.3,2-1.3c0.7,0,1.6,0.3,1.6,2v5.4h2.7v-6
				c0-2.6-1.5-3.9-3.4-3.9c-1.5,0-2.7,0.8-3.3,1.6c-0.4-0.8-1.5-1.6-3-1.6c-1.4,0-2.4,0.7-2.9,1.4v-1.2h-2.7V178.1z M463.8,176
				c-0.4,0-0.7-0.2-0.7-0.7V172c0-2.4-1.9-3.8-4.6-3.8c-1.8,0-2.9,0.4-3.6,0.8v2.3c0.8-0.4,2-0.8,2.9-0.8c1.2,0,2.6,0.3,2.6,1.8v0.3
				c-0.6-0.3-1.5-0.6-2.8-0.6c-1.9,0-3.8,1-3.8,3.2c0,2,1.5,3.2,3.6,3.2c1.6,0,2.7-0.6,3.3-1.3c0.4,0.9,1.2,1.2,2.2,1.2
				c0.5,0,1.1-0.2,1.5-0.4v-2C464.2,176,463.9,176,463.8,176 M460.4,175.2c-0.4,0.6-1.3,1-2.2,1c-1,0-1.7-0.4-1.7-1.3
				c0-0.8,0.8-1.3,1.9-1.3c0.8,0,1.5,0.2,2,0.6V175.2z"/>
			<path fill="#B9007C" d="M229.9,199.5c1.3,0,2.1-0.2,3.1-0.7v-2.3c-0.8,0.5-1.6,0.7-2.6,0.7c-1.6,0-3-1.1-3-2.7
				c0-1.6,1.4-2.7,3-2.7c0.9,0,1.6,0.2,2.5,0.6v-2.3c-0.9-0.4-1.7-0.6-2.9-0.6c-2.8,0-5.3,1.9-5.3,5.1
				C224.7,197.6,227.2,199.5,229.9,199.5 M241.9,189.6v6.2c-0.4,0.7-1.3,1.3-2.2,1.3c-0.8,0-1.8-0.4-1.8-2.1v-5.4h-2.7v5.9
				c0,2.4,1.3,4,3.5,4c1.5,0,2.6-0.7,3.2-1.4v1.2h2.7v-9.7H241.9z M247.3,199.2h2.7v-5.6c0.3-0.8,1.4-1.7,2.8-1.7
				c0.3,0,0.6,0,0.9,0.1v-2.7c-0.1,0-0.2,0-0.3,0c-1.5,0-2.8,0.9-3.4,1.9v-1.6h-2.7V199.2z M255.5,199.2h2.7v-5.6
				c0.3-0.8,1.4-1.7,2.8-1.7c0.3,0,0.6,0,0.9,0.1v-2.7c-0.1,0-0.2,0-0.3,0c-1.5,0-2.8,0.9-3.4,1.9v-1.6h-2.7V199.2z M263.9,199.2
				h2.7v-9.7h-2.7V199.2z M265.2,188.6c0.9,0,1.6-0.7,1.6-1.6c0-0.9-0.7-1.6-1.6-1.6c-0.9,0-1.6,0.7-1.6,1.6
				C263.6,187.9,264.3,188.6,265.2,188.6 M274,199.5c1.3,0,2.1-0.2,3.1-0.7v-2.3c-0.8,0.5-1.6,0.7-2.6,0.7c-1.6,0-3-1.1-3-2.7
				c0-1.6,1.4-2.7,3-2.7c0.9,0,1.6,0.2,2.5,0.6v-2.3c-0.9-0.4-1.7-0.6-2.9-0.6c-2.8,0-5.3,1.9-5.3,5.1
				C268.8,197.6,271.3,199.5,274,199.5 M286,189.6v6.2c-0.4,0.7-1.3,1.3-2.2,1.3c-0.8,0-1.8-0.4-1.8-2.1v-5.4h-2.7v5.9
				c0,2.4,1.3,4,3.5,4c1.5,0,2.6-0.7,3.2-1.4v1.2h2.7v-9.7H286z M294,199.5c0.6,0,1.3-0.1,1.7-0.3v-2.2c-0.2,0.1-0.4,0.2-0.7,0.2
				c-0.5,0-0.9-0.3-0.9-1v-10.4h-2.7v11.1C291.4,198.9,292.7,199.5,294,199.5 M306.8,197.1c-0.4,0-0.7-0.2-0.7-0.7v-3.3
				c0-2.4-1.9-3.8-4.6-3.8c-1.8,0-2.9,0.4-3.6,0.8v2.3c0.8-0.4,2-0.8,2.9-0.8c1.2,0,2.6,0.3,2.6,1.8v0.3c-0.6-0.3-1.5-0.6-2.8-0.6
				c-1.9,0-3.8,1-3.8,3.2c0,2,1.5,3.2,3.6,3.2c1.6,0,2.7-0.6,3.3-1.3c0.4,0.9,1.2,1.2,2.2,1.2c0.5,0,1.1-0.2,1.5-0.4v-2
				C307.2,197.1,306.9,197.1,306.8,197.1 M303.4,196.4c-0.4,0.6-1.3,1-2.2,1c-0.9,0-1.7-0.4-1.7-1.3c0-0.8,0.8-1.3,1.9-1.3
				c0.8,0,1.5,0.2,2,0.6V196.4z M309.2,199.2h2.7v-5.6c0.3-0.8,1.4-1.7,2.8-1.7c0.3,0,0.6,0,0.9,0.1v-2.7c-0.1,0-0.2,0-0.3,0
				c-1.5,0-2.8,0.9-3.4,1.9v-1.6h-2.7V199.2z M318.7,193c0.9,0,1.7-0.8,1.7-1.7c0-0.9-0.8-1.7-1.7-1.7c-1,0-1.7,0.7-1.7,1.7
				C317,192.3,317.7,193,318.7,193 M318.7,199.4c0.9,0,1.7-0.8,1.7-1.7c0-0.9-0.8-1.7-1.7-1.7c-1,0-1.7,0.7-1.7,1.7
				C317,198.7,317.7,199.4,318.7,199.4"/>
			<path fill="#FFFFFF" d="M327.6,199.2h9.7v-2.5h-6.9v-11.1h-2.8V199.2z M339.3,199.2h2.7v-9.7h-2.7V199.2z M340.7,188.6
				c0.9,0,1.6-0.7,1.6-1.6c0-0.9-0.7-1.6-1.6-1.6c-0.9,0-1.6,0.7-1.6,1.6C339,187.9,339.8,188.6,340.7,188.6 M348.8,199.5
				c1.6,0,2.6-0.7,3.2-1.4v1.2h2.7v-13.6H352v5.1c-0.5-0.7-1.5-1.4-3.2-1.4c-2.7,0-4.6,2.2-4.6,5.1
				C344.2,197.2,346.1,199.5,348.8,199.5 M349.6,197.1c-1.5,0-2.6-1.2-2.6-2.7c0-1.5,1.1-2.7,2.6-2.7c1.1,0,2,0.7,2.4,1.4v2.5
				C351.5,196.4,350.7,197.1,349.6,197.1 M362.1,199.5c1.5,0,2.9-0.4,3.7-1v-2.2c-0.9,0.5-1.9,0.9-3.1,0.9c-1.6,0-2.9-0.6-3.2-2h6.9
				v-0.7c0-2.8-1.7-5.1-4.6-5.1c-3.1,0-5,2.3-5,5.1C356.7,197.5,359.2,199.5,362.1,199.5 M359.4,193.4c0.1-1.1,0.9-1.9,2.2-1.9
				c1.3,0,2,0.9,2,1.9H359.4z M368.5,199.2h2.7v-5.6c0.3-0.8,1.4-1.7,2.8-1.7c0.3,0,0.6,0,0.9,0.1v-2.7c-0.1,0-0.2,0-0.3,0
				c-1.5,0-2.8,0.9-3.4,1.9v-1.6h-2.7V199.2z M385.9,197.1c-0.4,0-0.7-0.2-0.7-0.7v-3.3c0-2.4-1.9-3.8-4.6-3.8
				c-1.8,0-2.9,0.4-3.6,0.8v2.3c0.8-0.4,2-0.8,2.9-0.8c1.2,0,2.6,0.3,2.6,1.8v0.3c-0.6-0.3-1.5-0.6-2.8-0.6c-1.9,0-3.8,1-3.8,3.2
				c0,2,1.5,3.2,3.6,3.2c1.6,0,2.7-0.6,3.3-1.3c0.4,0.9,1.2,1.2,2.2,1.2c0.5,0,1.1-0.2,1.5-0.4v-2
				C386.3,197.1,386,197.1,385.9,197.1 M382.5,196.4c-0.4,0.6-1.3,1-2.2,1c-0.9,0-1.7-0.4-1.7-1.3c0-0.8,0.8-1.3,1.9-1.3
				c0.8,0,1.5,0.2,2,0.6V196.4z M387.6,199.2h8.9v-2.3h-5.2l4.9-5.5v-1.9h-8.3v2.3h4.6l-4.9,5.6V199.2z M405.6,189.6v1.1
				c-0.6-0.7-1.6-1.4-3.2-1.4c-2.7,0-4.5,2.2-4.5,4.8c0,2.7,1.8,4.9,4.5,4.9c1.6,0,2.6-0.7,3.2-1.4v0.6c0,2.1-1.7,2.6-3.2,2.6
				c-1.3,0-2.5-0.3-3.5-0.9v2.5c0.9,0.5,2.3,0.8,3.8,0.8c2.7,0,5.6-1.6,5.6-5.1v-8.5H405.6z M403.2,196.7c-1.5,0-2.6-1.1-2.6-2.5
				c0-1.4,1-2.5,2.6-2.5c1.1,0,2,0.6,2.4,1.3v2.3C405.2,196.1,404.3,196.7,403.2,196.7 M415.6,197.1c-1.5,0-2.7-1.2-2.7-2.7
				c0-1.5,1.1-2.7,2.7-2.7s2.7,1.2,2.7,2.7C418.3,195.9,417.2,197.1,415.6,197.1 M415.6,199.5c3.2,0,5.4-2.2,5.4-5.1
				c0-2.8-2.2-5.1-5.4-5.1c-3.2,0-5.4,2.3-5.4,5.1C410.3,197.2,412.4,199.5,415.6,199.5 M429.2,203.2c1.8,0,3-1,3.9-3l4.5-10.7h-2.9
				l-2.4,6.4l-2.6-6.4h-2.9l4.2,9.3c-0.5,1.3-1.1,1.9-2.2,1.9c-0.6,0-1-0.1-1.5-0.4v2.4C427.7,203,428.5,203.2,429.2,203.2"/>
			<path fill="#FFFFFF" d="M232.2,220.6c2.4,0,4.5-1,5.5-2.2v-6H235v4.7c-0.7,0.7-1.7,0.9-2.7,0.9c-2.4,0-4.4-1.6-4.4-4.4
				c0-2.7,1.9-4.5,4.7-4.5c1.3,0,2.6,0.3,3.9,1.2v-2.8c-1.1-0.7-2.3-1-4.1-1c-4.2,0-7.3,2.9-7.3,7.1
				C225,217.7,228.2,220.6,232.2,220.6 M245.1,220.6c1.5,0,2.9-0.4,3.7-1v-2.2c-0.9,0.5-1.9,0.9-3.1,0.9c-1.6,0-2.9-0.6-3.2-2h6.9
				v-0.7c0-2.8-1.7-5.1-4.6-5.1c-3.1,0-5,2.3-5,5.1C239.8,218.7,242.2,220.6,245.1,220.6 M242.5,214.5c0.1-1.1,0.9-1.9,2.2-1.9
				c1.3,0,2,0.9,2,1.9H242.5z M255.1,220.6c2.6,0,4.3-1.2,4.3-3c0-1.8-1.2-2.6-3.2-3.1c-1.2-0.3-2.4-0.4-2.4-1.1
				c0-0.5,0.5-0.8,1.6-0.8c1.3,0,2.6,0.5,3.5,1v-2.3c-0.9-0.5-2.3-0.9-3.6-0.9c-2.7,0-4.3,1.1-4.3,3c0,1.8,1.1,2.5,3.1,3
				c1.4,0.4,2.5,0.5,2.5,1.2c0,0.5-0.6,0.8-1.7,0.8c-1.7,0-3.3-0.6-4-1.1v2.4C251.9,220.3,253.4,220.6,255.1,220.6 M262.3,217.4
				c0,2,1,3.3,3.2,3.3c0.8,0,1.8-0.2,2.3-0.5v-2.3c-0.4,0.2-0.9,0.3-1.4,0.3c-0.9,0-1.3-0.4-1.3-1.4V213h2.8v-2.3h-2.8v-2.7h-2.7
				v2.7h-1.9v2.3h1.9V217.4z M270.1,220.4h2.7v-9.7h-2.7V220.4z M271.5,209.8c0.9,0,1.6-0.7,1.6-1.6c0-0.9-0.7-1.6-1.6-1.6
				s-1.6,0.7-1.6,1.6C269.8,209.1,270.5,209.8,271.5,209.8 M280.4,218.2c-1.5,0-2.7-1.2-2.7-2.7c0-1.5,1.1-2.7,2.7-2.7
				s2.7,1.2,2.7,2.7C283,217.1,281.9,218.2,280.4,218.2 M280.4,220.6c3.2,0,5.4-2.2,5.4-5.1c0-2.8-2.2-5.1-5.4-5.1
				c-3.2,0-5.4,2.3-5.4,5.1C275,218.4,277.2,220.6,280.4,220.6 M279,209.3h2.4l2.8-2.8h-3.3L279,209.3z M290.5,220.4v-6.2
				c0.4-0.7,1.3-1.3,2.2-1.3c0.8,0,1.8,0.4,1.8,2.1v5.4h2.7v-5.9c0-2.4-1.3-4-3.5-4c-1.5,0-2.6,0.7-3.2,1.4v-1.2h-2.7v9.7H290.5z
				 M309.4,220.6c1.5,0,2.9-0.4,3.7-1v-2.2c-0.9,0.5-1.9,0.9-3.1,0.9c-1.6,0-2.9-0.6-3.2-2h6.9v-0.7c0-2.8-1.7-5.1-4.6-5.1
				c-3.1,0-5,2.3-5,5.1C304.1,218.7,306.5,220.6,309.4,220.6 M306.8,214.5c0.1-1.1,0.9-1.9,2.2-1.9c1.3,0,2,0.9,2,1.9H306.8z
				 M319.4,220.6c2.6,0,4.3-1.2,4.3-3c0-1.8-1.2-2.6-3.2-3.1c-1.2-0.3-2.4-0.4-2.4-1.1c0-0.5,0.5-0.8,1.5-0.8c1.3,0,2.6,0.5,3.5,1
				v-2.3c-0.9-0.5-2.3-0.9-3.6-0.9c-2.7,0-4.3,1.1-4.3,3c0,1.8,1.1,2.5,3.1,3c1.4,0.4,2.5,0.5,2.5,1.2c0,0.5-0.6,0.8-1.7,0.8
				c-1.7,0-3.3-0.6-4-1.1v2.4C316.2,220.3,317.7,220.6,319.4,220.6 M330.3,220.6c1.3,0,2.1-0.2,3.1-0.7v-2.3
				c-0.8,0.5-1.6,0.7-2.6,0.7c-1.6,0-3-1.1-3-2.7c0-1.6,1.4-2.7,3-2.7c0.9,0,1.6,0.2,2.5,0.6v-2.3c-0.9-0.4-1.7-0.6-2.9-0.6
				c-2.8,0-5.3,1.9-5.3,5.1C325.1,218.7,327.6,220.6,330.3,220.6 M340.3,218.2c-1.5,0-2.7-1.2-2.7-2.7c0-1.5,1.1-2.7,2.7-2.7
				s2.7,1.2,2.7,2.7C342.9,217.1,341.8,218.2,340.3,218.2 M340.3,220.6c3.2,0,5.4-2.2,5.4-5.1c0-2.8-2.2-5.1-5.4-5.1
				c-3.2,0-5.4,2.3-5.4,5.1C334.9,218.4,337.1,220.6,340.3,220.6 M350.2,220.6c0.6,0,1.3-0.1,1.7-0.3V218c-0.2,0.1-0.4,0.2-0.7,0.2
				c-0.5,0-0.9-0.3-0.9-1v-10.4h-2.7V218C347.7,220,348.9,220.6,350.2,220.6 M363,218.3c-0.4,0-0.7-0.2-0.7-0.7v-3.3
				c0-2.4-1.9-3.8-4.6-3.8c-1.8,0-2.9,0.4-3.6,0.8v2.3c0.8-0.4,2-0.8,2.9-0.8c1.2,0,2.6,0.3,2.6,1.8v0.3c-0.6-0.3-1.5-0.6-2.8-0.6
				c-1.9,0-3.8,1-3.8,3.2c0,2,1.5,3.2,3.6,3.2c1.6,0,2.7-0.6,3.3-1.3c0.4,0.9,1.2,1.2,2.2,1.2c0.5,0,1.1-0.2,1.5-0.4v-2
				C363.4,218.2,363.2,218.3,363,218.3 M359.6,217.5c-0.4,0.6-1.3,1-2.2,1c-0.9,0-1.7-0.4-1.7-1.3c0-0.8,0.8-1.3,1.9-1.3
				c0.8,0,1.5,0.2,2,0.6V217.5z M365.5,220.4h2.7v-5.6c0.3-0.8,1.4-1.7,2.8-1.7c0.3,0,0.6,0,0.9,0.1v-2.7c-0.1,0-0.2,0-0.3,0
				c-1.5,0-2.8,0.9-3.4,1.9v-1.6h-2.7V220.4z"/>
			<line fill="none" stroke="#FFFFFF" x1="209.2" y1="163" x2="209.2" y2="221"/>
		</g>
	</g>
</g>
<g id="Capa_2">
</g>
</svg>
