<?xml version="1.0" encoding="utf-8"?>
<!-- Generator: Adobe Illustrator 18.0.0, SVG Export Plug-In . SVG Version: 6.00 Build 0)  -->
<!DOCTYPE svg PUBLIC "-//W3C//DTD SVG 1.1//EN" "http://www.w3.org/Graphics/SVG/1.1/DTD/svg11.dtd">
<svg version="1.1" xmlns="http://www.w3.org/2000/svg" xmlns:xlink="http://www.w3.org/1999/xlink" x="0px" y="0px"
	 viewBox="0 0 203.8 229.5" enable-background="new 0 0 203.8 229.5" xml:space="preserve">
<g id="Capa_1">
	<g>
		<path fill="#0094A1" d="M35.2,102.4c6,0,10.1-2.9,10.1-7.5c0-3.5-2.4-5.7-7.1-7.1c-4.3-1.3-5.2-1.6-5.2-2.3c0-0.6,0.5-0.9,2-0.9
			c2.7,0,6.6,1,8.8,2.3v-6.6c-2-0.9-4.6-1.8-8.3-1.8c-5.8,0-9.9,2.3-9.9,7.1c0,4.2,3.3,6.1,7.5,7.3c3.5,1,4.8,1.5,4.8,2.2
			c0,0.9-1.2,1.1-2.7,1.1c-3,0-7.5-1.4-9.7-3.2v6.9C28.6,101.8,31.8,102.4,35.2,102.4"/>
		<rect x="46.6" y="79" fill="#B9007C" width="7" height="22.9"/>
		<polygon fill="#DDDB1C" points="55.8,102 62.6,102 62.6,89.1 66,94.6 69.8,94.6 73.1,89.1 73.1,102 79.8,102 79.8,79 72.9,79 
			67.8,87.2 62.8,79 55.8,79 		"/>
		<path fill="#009ADA" d="M92.4,79H81.9V102h7v-8h3.5c5.3,0,8.7-3.2,8.7-7.5C101.1,82.2,97.8,79,92.4,79 M91.5,88.9h-2.6v-4.1h2.6
			c1.4,0,2.4,0.8,2.4,2C93.9,88,92.9,88.9,91.5,88.9"/>
		<path fill="#0094A1" d="M113.4,96c-2.9,0-5.1-2.3-5.1-5.5c0-3.2,2.1-5.5,5.1-5.5c2.9,0,5.1,2.3,5.1,5.5
			C118.5,93.7,116.4,96,113.4,96 M113.4,102.4c7.2,0,12.2-5.5,12.2-11.9c0-6.5-5-11.9-12.2-11.9c-7.2,0-12.3,5.4-12.3,11.9
			C101.1,96.9,106.2,102.4,113.4,102.4"/>
		<path fill="#B9007C" d="M136.1,102.4c6,0,10.1-2.9,10.1-7.5c0-3.5-2.4-5.7-7.1-7.1c-4.3-1.3-5.2-1.6-5.2-2.3c0-0.6,0.5-0.9,2-0.9
			c2.7,0,6.6,1,8.8,2.3v-6.6c-2-0.9-4.6-1.8-8.3-1.8c-5.8,0-9.9,2.3-9.9,7.1c0,4.2,3.3,6.1,7.5,7.3c3.5,1,4.8,1.5,4.8,2.2
			c0,0.9-1.2,1.1-2.7,1.1c-3,0-7.5-1.4-9.7-3.2v6.9C129.5,101.8,132.7,102.4,136.1,102.4"/>
		<rect x="147.5" y="79" fill="#DDDB1C" width="7" height="22.9"/>
		<path fill="#009ADA" d="M168.3,96c-2.9,0-5.1-2.3-5.1-5.5c0-3.2,2.1-5.5,5.1-5.5c2.9,0,5.1,2.3,5.1,5.5
			C173.4,93.7,171.3,96,168.3,96 M168.3,102.4c7.2,0,12.2-5.5,12.2-11.9c0-6.5-5-11.9-12.2-11.9c-7.2,0-12.3,5.4-12.3,11.9
			C156.1,96.9,161.2,102.4,168.3,102.4"/>
		<path fill="#B9007C" d="M50,76.7c2,0,3.6-1.6,3.6-3.6c0-2-1.6-3.6-3.6-3.6s-3.6,1.6-3.6,3.6C46.4,75.1,48,76.7,50,76.7"/>
		<path fill="#DDDB1C" d="M151.2,76.7c2,0,3.6-1.6,3.6-3.6c0-2-1.6-3.6-3.6-3.6c-2,0-3.6,1.6-3.6,3.6
			C147.6,75.1,149.2,76.7,151.2,76.7"/>
		<path fill="#FFFFFF" d="M25.3,138.8h13.3v-3.4h-7.8l3.2-2.9c2.9-2.6,3.9-4.4,3.9-7c0-3.5-3.2-5.7-6.6-5.7c-2.2,0-4.1,0.7-5.4,1.8
			v3.9c1.4-1.3,3-2.1,5-2.1c1.9,0,3.2,1,3.2,2.6c0,1.7-0.9,2.8-3.3,5l-5.5,5V138.8z M49.1,139.2c5.1,0,8-4.6,8-9.7
			c0-5.1-2.9-9.7-8-9.7c-5.1,0-8,4.6-8,9.7C41.1,134.5,44,139.2,49.1,139.2 M49.1,135.6c-2.7,0-4.2-2.8-4.2-6.1
			c0-3.2,1.5-6.1,4.2-6.1c2.7,0,4.2,2.8,4.2,6.1C53.3,132.7,51.8,135.6,49.1,135.6 M63,138.8h3.8v-18.6h-3.3l-4.4,2.3v3.8l3.9-2
			V138.8z M71,138.8h4.1l7.9-15.7v-3H69.8v3.4h8.8L71,138.8z"/>
		<path fill="#FFFFFF" d="M25.2,114.4h1.6v-5.2l1.8,2.4h0.9l1.7-2.4v5.2h1.5v-7.6h-1.5l-2.2,3.1l-2.2-3.1h-1.5V114.4z M40.7,113
			c-1.3,0-2.3-1-2.3-2.5c0-1.4,1-2.5,2.3-2.5c1.3,0,2.3,1,2.3,2.5C43,112,42,113,40.7,113 M40.7,114.5c2.3,0,3.9-1.8,3.9-3.9
			c0-2.2-1.7-3.9-3.9-3.9c-2.3,0-3.9,1.7-3.9,3.9C36.8,112.7,38.4,114.5,40.7,114.5 M48.7,114.4h2.8c2.5,0,4.1-1.6,4.1-3.8
			c0-2.2-1.7-3.8-4.1-3.8h-2.8V114.4z M50.3,113v-4.8h1.1c1.7,0,2.7,0.9,2.7,2.4c0,1.5-1,2.4-2.7,2.4H50.3z M59.8,114.4h5.7V113
			h-4.1V111h3.2v-1.4h-3.2v-1.5h4v-1.4h-5.6V114.4z M69.4,114.4h5.4V113H71v-6.2h-1.6V114.4z M81.8,113c-1.3,0-2.3-1-2.3-2.5
			c0-1.4,1-2.5,2.3-2.5c1.3,0,2.3,1,2.3,2.5C84.1,112,83.1,113,81.8,113 M81.8,114.5c2.3,0,3.9-1.8,3.9-3.9c0-2.2-1.7-3.9-3.9-3.9
			c-2.3,0-3.9,1.7-3.9,3.9C77.9,112.7,79.5,114.5,81.8,114.5 M95.2,114.4h5.7V113h-4.1V111h3.2v-1.4h-3.2v-1.5h4v-1.4h-5.6V114.4z
			 M104.8,114.4h2.8c2.5,0,4.1-1.6,4.1-3.8c0-2.2-1.7-3.8-4.1-3.8h-2.8V114.4z M106.3,113v-4.8h1.1c1.7,0,2.7,0.9,2.7,2.4
			c0,1.5-1,2.4-2.7,2.4H106.3z M119,114.5c1.8,0,3.3-1.1,3.3-3.3v-4.4h-1.6v4.4c0,1.2-0.7,1.8-1.7,1.8c-0.9,0-1.7-0.6-1.7-1.8v-4.4
			h-1.5v4.4C115.8,113.4,117.2,114.5,119,114.5 M130.3,114.5c0.8,0,1.6-0.2,2.1-0.6v-1.6c-0.6,0.5-1.3,0.7-2.1,0.7
			c-1.5,0-2.6-1-2.6-2.5c0-1.4,1.1-2.5,2.5-2.5c0.8,0,1.4,0.2,2,0.6v-1.6c-0.6-0.3-1.3-0.5-2-0.5c-2.3,0-4.1,1.6-4.1,3.9
			C126.2,112.9,128,114.5,130.3,114.5 M135.8,114.4h1.6l0.7-1.7h3.2l0.7,1.7h1.7l-3.2-7.6h-1.5L135.8,114.4z M138.7,111.3l1.1-2.6
			l1.1,2.6H138.7z M145.9,106.8v1.4h2.4v6.2h1.6v-6.2h2.4v-1.4H145.9z M156.2,114.4h1.5v-7.6h-1.5V114.4z M164.7,114.4h1.5l3.2-7.6
			h-1.7l-2.2,5.4l-2.2-5.4h-1.7L164.7,114.4z M176.2,113c-1.3,0-2.3-1-2.3-2.5c0-1.4,1-2.5,2.3-2.5c1.3,0,2.3,1,2.3,2.5
			C178.5,112,177.5,113,176.2,113 M176.2,114.5c2.3,0,3.9-1.8,3.9-3.9c0-2.2-1.7-3.9-3.9-3.9c-2.3,0-3.9,1.7-3.9,3.9
			C172.2,112.7,173.9,114.5,176.2,114.5"/>
		<path fill="#B9007C" d="M95.2,124.8H96v-1.9H98v1.9h0.9v-4.3H98v1.6H96v-1.6h-0.9V124.8z M102.7,124.1c-0.1,0-0.2-0.1-0.2-0.2v-1
			c0-0.8-0.6-1.2-1.5-1.2c-0.6,0-0.9,0.1-1.1,0.2v0.7c0.2-0.1,0.6-0.3,0.9-0.3c0.4,0,0.8,0.1,0.8,0.6v0.1c-0.2-0.1-0.5-0.2-0.9-0.2
			c-0.6,0-1.2,0.3-1.2,1c0,0.6,0.5,1,1.1,1c0.5,0,0.9-0.2,1.1-0.4c0.1,0.3,0.4,0.4,0.7,0.4c0.2,0,0.4,0,0.5-0.1v-0.6
			C102.8,124.1,102.8,124.1,102.7,124.1 M101.6,123.9c-0.1,0.2-0.4,0.3-0.7,0.3c-0.3,0-0.5-0.1-0.5-0.4c0-0.3,0.2-0.4,0.6-0.4
			c0.2,0,0.5,0.1,0.6,0.2V123.9z M105,124.9c0.4,0,0.7-0.1,1-0.2v-0.7c-0.3,0.1-0.5,0.2-0.8,0.2c-0.5,0-1-0.3-1-0.9
			c0-0.5,0.4-0.9,1-0.9c0.3,0,0.5,0.1,0.8,0.2v-0.7c-0.3-0.1-0.5-0.2-0.9-0.2c-0.9,0-1.7,0.6-1.7,1.6
			C103.3,124.3,104.1,124.9,105,124.9 M108.1,124.9c0.5,0,0.9-0.1,1.2-0.3v-0.7c-0.3,0.2-0.6,0.3-1,0.3c-0.5,0-0.9-0.2-1-0.6h2.2
			v-0.2c0-0.9-0.5-1.6-1.5-1.6c-1,0-1.6,0.7-1.6,1.6C106.4,124.3,107.2,124.9,108.1,124.9 M107.3,123c0-0.4,0.3-0.6,0.7-0.6
			c0.4,0,0.6,0.3,0.6,0.6H107.3z M110.1,124.8h0.9V123c0.1-0.2,0.4-0.5,0.9-0.5c0.1,0,0.2,0,0.3,0v-0.9c0,0-0.1,0-0.1,0
			c-0.5,0-0.9,0.3-1.1,0.6v-0.5h-0.9V124.8z M116.2,121.7c-0.5,0-0.8,0.2-1,0.5v-0.4h-0.9v4.3h0.9v-1.6c0.2,0.2,0.5,0.5,1,0.5
			c0.9,0,1.4-0.7,1.4-1.6C117.7,122.4,117.1,121.7,116.2,121.7 M116,122.4c0.5,0,0.8,0.4,0.8,0.9c0,0.5-0.3,0.9-0.8,0.9
			c-0.4,0-0.6-0.2-0.8-0.5v-0.8C115.3,122.6,115.6,122.4,116,122.4 M119.8,124.1c-0.5,0-0.9-0.4-0.9-0.9c0-0.5,0.4-0.9,0.9-0.9
			c0.5,0,0.9,0.4,0.9,0.9C120.6,123.8,120.3,124.1,119.8,124.1 M119.8,124.9c1,0,1.7-0.7,1.7-1.6c0-0.9-0.7-1.6-1.7-1.6
			c-1,0-1.7,0.7-1.7,1.6C118.1,124.2,118.8,124.9,119.8,124.9 M123.3,124.9c0.8,0,1.4-0.4,1.4-1c0-0.6-0.4-0.8-1-1
			c-0.4-0.1-0.8-0.1-0.8-0.4c0-0.1,0.2-0.2,0.5-0.2c0.4,0,0.8,0.2,1.1,0.3v-0.7c-0.3-0.2-0.7-0.3-1.2-0.3c-0.9,0-1.4,0.4-1.4,0.9
			c0,0.6,0.3,0.8,1,1c0.4,0.1,0.8,0.2,0.8,0.4c0,0.2-0.2,0.3-0.5,0.3c-0.6,0-1-0.2-1.3-0.4v0.8C122.3,124.8,122.8,124.9,123.3,124.9
			 M125.3,124.8h0.9v-3.1h-0.9V124.8z M125.8,121.4c0.3,0,0.5-0.2,0.5-0.5c0-0.3-0.2-0.5-0.5-0.5c-0.3,0-0.5,0.2-0.5,0.5
			C125.3,121.2,125.5,121.4,125.8,121.4 M129,124.9c0.9,0,1.4-0.7,1.4-1.6c0-0.9-0.6-1.6-1.4-1.6c-0.5,0-0.8,0.2-1,0.5v-1.6h-0.9
			v4.3h0.9v-0.4C128.1,124.7,128.5,124.9,129,124.9 M128.7,124.1c-0.4,0-0.6-0.2-0.8-0.5v-0.8c0.1-0.2,0.4-0.5,0.8-0.5
			c0.5,0,0.8,0.4,0.8,0.9C129.6,123.8,129.2,124.1,128.7,124.1 M131.9,124.9c0.2,0,0.4,0,0.5-0.1v-0.7c-0.1,0-0.1,0.1-0.2,0.1
			c-0.2,0-0.3-0.1-0.3-0.3v-3.3h-0.9v3.5C131.1,124.7,131.5,124.9,131.9,124.9 M134.5,124.9c0.5,0,0.9-0.1,1.2-0.3v-0.7
			c-0.3,0.2-0.6,0.3-1,0.3c-0.5,0-0.9-0.2-1-0.6h2.2v-0.2c0-0.9-0.5-1.6-1.5-1.6c-1,0-1.6,0.7-1.6,1.6
			C132.8,124.3,133.6,124.9,134.5,124.9 M133.7,123c0-0.4,0.3-0.6,0.7-0.6c0.4,0,0.6,0.3,0.6,0.6H133.7z M139,124.9
			c0.2,0,0.4,0,0.5-0.1v-0.7c-0.1,0-0.1,0.1-0.2,0.1c-0.2,0-0.3-0.1-0.3-0.3v-3.3h-0.9v3.5C138.1,124.7,138.5,124.9,139,124.9
			 M143,124.1c-0.1,0-0.2-0.1-0.2-0.2v-1c0-0.8-0.6-1.2-1.5-1.2c-0.6,0-0.9,0.1-1.1,0.2v0.7c0.2-0.1,0.6-0.3,0.9-0.3
			c0.4,0,0.8,0.1,0.8,0.6v0.1c-0.2-0.1-0.5-0.2-0.9-0.2c-0.6,0-1.2,0.3-1.2,1c0,0.6,0.5,1,1.1,1c0.5,0,0.9-0.2,1.1-0.4
			c0.1,0.3,0.4,0.4,0.7,0.4c0.2,0,0.4,0,0.5-0.1v-0.6C143.2,124.1,143.1,124.1,143,124.1 M141.9,123.9c-0.1,0.2-0.4,0.3-0.7,0.3
			c-0.3,0-0.5-0.1-0.5-0.4c0-0.3,0.2-0.4,0.6-0.4c0.2,0,0.5,0.1,0.6,0.2V123.9z M145.4,124.8h0.9v-1.7h0.7l1.3,1.7h1L148,123
			c0.6-0.2,0.9-0.6,0.9-1.2c0-0.7-0.6-1.3-1.5-1.3h-2V124.8z M146.3,122.3v-1h1.1c0.4,0,0.6,0.2,0.6,0.5c0,0.3-0.2,0.5-0.6,0.5
			H146.3z M151.3,124.9c0.5,0,0.9-0.1,1.2-0.3v-0.7c-0.3,0.2-0.6,0.3-1,0.3c-0.5,0-0.9-0.2-1-0.6h2.2v-0.2c0-0.9-0.5-1.6-1.5-1.6
			c-1,0-1.6,0.7-1.6,1.6C149.5,124.3,150.3,124.9,151.3,124.9 M150.4,123c0-0.4,0.3-0.6,0.7-0.6c0.4,0,0.6,0.3,0.6,0.6H150.4z
			 M154.4,124.8v-2.3h1v-0.7h-1v-0.2c0-0.3,0.2-0.4,0.4-0.4c0.2,0,0.4,0,0.5,0.1v-0.7c-0.2-0.1-0.5-0.1-0.8-0.1c-0.7,0-1,0.4-1,1
			v0.3H153v0.7h0.5v2.3H154.4z M157.3,124.1c-0.5,0-0.9-0.4-0.9-0.9c0-0.5,0.4-0.9,0.9-0.9c0.5,0,0.9,0.4,0.9,0.9
			C158.2,123.8,157.8,124.1,157.3,124.1 M157.3,124.9c1,0,1.7-0.7,1.7-1.6c0-0.9-0.7-1.6-1.7-1.6c-1,0-1.7,0.7-1.7,1.6
			C155.6,124.2,156.3,124.9,157.3,124.9 M159.7,124.8h0.9V123c0.1-0.2,0.4-0.5,0.9-0.5c0.1,0,0.2,0,0.3,0v-0.9c0,0-0.1,0-0.1,0
			c-0.5,0-0.9,0.3-1.1,0.6v-0.5h-0.9V124.8z M162.3,124.8h0.9v-2c0.1-0.2,0.4-0.4,0.6-0.4c0.2,0,0.5,0.1,0.5,0.6v1.7h0.9v-1.9
			c0.1-0.2,0.4-0.4,0.6-0.4c0.2,0,0.5,0.1,0.5,0.6v1.7h0.9v-1.9c0-0.8-0.5-1.2-1.1-1.2c-0.5,0-0.9,0.2-1.1,0.5
			c-0.1-0.3-0.5-0.5-1-0.5c-0.4,0-0.8,0.2-0.9,0.5v-0.4h-0.9V124.8z M170.9,124.1c-0.1,0-0.2-0.1-0.2-0.2v-1c0-0.8-0.6-1.2-1.5-1.2
			c-0.6,0-0.9,0.1-1.1,0.2v0.7c0.2-0.1,0.6-0.3,0.9-0.3c0.4,0,0.8,0.1,0.8,0.6v0.1c-0.2-0.1-0.5-0.2-0.9-0.2c-0.6,0-1.2,0.3-1.2,1
			c0,0.6,0.5,1,1.1,1c0.5,0,0.9-0.2,1.1-0.4c0.1,0.3,0.4,0.4,0.7,0.4c0.2,0,0.4,0,0.5-0.1v-0.6C171,124.1,171,124.1,170.9,124.1
			 M169.8,123.9c-0.1,0.2-0.4,0.3-0.7,0.3c-0.3,0-0.5-0.1-0.5-0.4c0-0.3,0.2-0.4,0.6-0.4c0.2,0,0.5,0.1,0.6,0.2V123.9z"/>
		<path fill="#B9007C" d="M96.6,131.6c0.4,0,0.7-0.1,1-0.2v-0.7c-0.3,0.1-0.5,0.2-0.8,0.2c-0.5,0-1-0.3-1-0.9c0-0.5,0.4-0.9,1-0.9
			c0.3,0,0.5,0.1,0.8,0.2v-0.7c-0.3-0.1-0.5-0.2-0.9-0.2c-0.9,0-1.7,0.6-1.7,1.6C94.9,131,95.7,131.6,96.6,131.6 M100.4,128.5v2
			c-0.1,0.2-0.4,0.4-0.7,0.4c-0.3,0-0.6-0.1-0.6-0.7v-1.7h-0.9v1.9c0,0.8,0.4,1.3,1.1,1.3c0.5,0,0.8-0.2,1-0.4v0.4h0.9v-3.1H100.4z
			 M102.1,131.5h0.9v-1.8c0.1-0.2,0.4-0.5,0.9-0.5c0.1,0,0.2,0,0.3,0v-0.9c0,0-0.1,0-0.1,0c-0.5,0-0.9,0.3-1.1,0.6v-0.5h-0.9V131.5z
			 M104.7,131.5h0.9v-1.8c0.1-0.2,0.4-0.5,0.9-0.5c0.1,0,0.2,0,0.3,0v-0.9c0,0-0.1,0-0.1,0c-0.5,0-0.9,0.3-1.1,0.6v-0.5h-0.9V131.5z
			 M107.4,131.5h0.9v-3.1h-0.9V131.5z M107.8,128.2c0.3,0,0.5-0.2,0.5-0.5c0-0.3-0.2-0.5-0.5-0.5c-0.3,0-0.5,0.2-0.5,0.5
			C107.3,127.9,107.5,128.2,107.8,128.2 M110.6,131.6c0.4,0,0.7-0.1,1-0.2v-0.7c-0.3,0.1-0.5,0.2-0.8,0.2c-0.5,0-1-0.3-1-0.9
			c0-0.5,0.4-0.9,1-0.9c0.3,0,0.5,0.1,0.8,0.2v-0.7c-0.3-0.1-0.5-0.2-0.9-0.2c-0.9,0-1.7,0.6-1.7,1.6
			C108.9,131,109.7,131.6,110.6,131.6 M114.4,128.5v2c-0.1,0.2-0.4,0.4-0.7,0.4c-0.3,0-0.6-0.1-0.6-0.7v-1.7h-0.9v1.9
			c0,0.8,0.4,1.3,1.1,1.3c0.5,0,0.8-0.2,1-0.4v0.4h0.9v-3.1H114.4z M116.9,131.6c0.2,0,0.4,0,0.5-0.1v-0.7c-0.1,0-0.1,0.1-0.2,0.1
			c-0.2,0-0.3-0.1-0.3-0.3v-3.3h-0.9v3.5C116.1,131.4,116.5,131.6,116.9,131.6 M121,130.9c-0.1,0-0.2-0.1-0.2-0.2v-1
			c0-0.8-0.6-1.2-1.5-1.2c-0.6,0-0.9,0.1-1.1,0.2v0.7c0.2-0.1,0.6-0.3,0.9-0.3c0.4,0,0.8,0.1,0.8,0.6v0.1c-0.2-0.1-0.5-0.2-0.9-0.2
			c-0.6,0-1.2,0.3-1.2,1c0,0.6,0.5,1,1.1,1c0.5,0,0.9-0.2,1.1-0.4c0.1,0.3,0.4,0.4,0.7,0.4c0.2,0,0.4,0,0.5-0.1v-0.6
			C121.1,130.9,121.1,130.9,121,130.9 M119.9,130.6c-0.1,0.2-0.4,0.3-0.7,0.3c-0.3,0-0.5-0.1-0.5-0.4c0-0.3,0.2-0.4,0.6-0.4
			c0.2,0,0.5,0.1,0.6,0.2V130.6z M121.8,131.5h0.9v-1.8c0.1-0.2,0.4-0.5,0.9-0.5c0.1,0,0.2,0,0.3,0v-0.9c0,0-0.1,0-0.1,0
			c-0.5,0-0.9,0.3-1.1,0.6v-0.5h-0.9V131.5z M124.8,129.6c0.3,0,0.5-0.2,0.5-0.5c0-0.3-0.2-0.5-0.5-0.5c-0.3,0-0.5,0.2-0.5,0.5
			C124.2,129.3,124.5,129.6,124.8,129.6 M124.8,131.6c0.3,0,0.5-0.2,0.5-0.5c0-0.3-0.2-0.5-0.5-0.5c-0.3,0-0.5,0.2-0.5,0.5
			C124.2,131.4,124.5,131.6,124.8,131.6"/>
		<path fill="#FFFFFF" d="M127.6,131.5h3.1v-0.8h-2.2v-3.5h-0.9V131.5z M131.4,131.5h0.9v-3.1h-0.9V131.5z M131.8,128.2
			c0.3,0,0.5-0.2,0.5-0.5c0-0.3-0.2-0.5-0.5-0.5c-0.3,0-0.5,0.2-0.5,0.5C131.3,127.9,131.5,128.2,131.8,128.2 M134.4,131.6
			c0.5,0,0.8-0.2,1-0.5v0.4h0.9v-4.3h-0.9v1.6c-0.2-0.2-0.5-0.5-1-0.5c-0.9,0-1.4,0.7-1.4,1.6C132.9,130.9,133.5,131.6,134.4,131.6
			 M134.6,130.9c-0.5,0-0.8-0.4-0.8-0.9c0-0.5,0.3-0.9,0.8-0.9c0.4,0,0.6,0.2,0.8,0.5v0.8C135.2,130.6,135,130.9,134.6,130.9
			 M138.6,131.6c0.5,0,0.9-0.1,1.2-0.3v-0.7c-0.3,0.2-0.6,0.3-1,0.3c-0.5,0-0.9-0.2-1-0.6h2.2V130c0-0.9-0.5-1.6-1.5-1.6
			c-1,0-1.6,0.7-1.6,1.6C136.9,131,137.7,131.6,138.6,131.6 M137.7,129.7c0-0.4,0.3-0.6,0.7-0.6c0.4,0,0.6,0.3,0.6,0.6H137.7z
			 M140.6,131.5h0.9v-1.8c0.1-0.2,0.4-0.5,0.9-0.5c0.1,0,0.2,0,0.3,0v-0.9c0,0-0.1,0-0.1,0c-0.5,0-0.9,0.3-1.1,0.6v-0.5h-0.9V131.5z
			 M146.2,130.9c-0.1,0-0.2-0.1-0.2-0.2v-1c0-0.8-0.6-1.2-1.5-1.2c-0.6,0-0.9,0.1-1.1,0.2v0.7c0.2-0.1,0.6-0.3,0.9-0.3
			c0.4,0,0.8,0.1,0.8,0.6v0.1c-0.2-0.1-0.5-0.2-0.9-0.2c-0.6,0-1.2,0.3-1.2,1c0,0.6,0.5,1,1.1,1c0.5,0,0.9-0.2,1.1-0.4
			c0.1,0.3,0.4,0.4,0.7,0.4c0.2,0,0.4,0,0.5-0.1v-0.6C146.3,130.9,146.2,130.9,146.2,130.9 M145.1,130.6c-0.1,0.2-0.4,0.3-0.7,0.3
			c-0.3,0-0.5-0.1-0.5-0.4c0-0.3,0.2-0.4,0.6-0.4c0.2,0,0.5,0.1,0.6,0.2V130.6z M146.7,131.5h2.8v-0.7h-1.7l1.6-1.8v-0.6h-2.6v0.7
			h1.5l-1.6,1.8V131.5z M152.4,128.5v0.4c-0.2-0.2-0.5-0.4-1-0.4c-0.9,0-1.4,0.7-1.4,1.5c0,0.9,0.6,1.5,1.4,1.5c0.5,0,0.8-0.2,1-0.4
			v0.2c0,0.7-0.5,0.8-1,0.8c-0.4,0-0.8-0.1-1.1-0.3v0.8c0.3,0.2,0.7,0.3,1.2,0.3c0.9,0,1.8-0.5,1.8-1.6v-2.7H152.4z M151.7,130.7
			c-0.5,0-0.8-0.3-0.8-0.8c0-0.4,0.3-0.8,0.8-0.8c0.4,0,0.6,0.2,0.8,0.4v0.7C152.3,130.5,152,130.7,151.7,130.7 M155.6,130.9
			c-0.5,0-0.9-0.4-0.9-0.9c0-0.5,0.4-0.9,0.9-0.9s0.9,0.4,0.9,0.9C156.5,130.5,156.1,130.9,155.6,130.9 M155.6,131.6
			c1,0,1.7-0.7,1.7-1.6c0-0.9-0.7-1.6-1.7-1.6c-1,0-1.7,0.7-1.7,1.6C153.9,130.9,154.6,131.6,155.6,131.6 M159.9,132.8
			c0.6,0,1-0.3,1.2-0.9l1.4-3.4h-0.9l-0.8,2l-0.8-2h-0.9l1.3,3c-0.2,0.4-0.4,0.6-0.7,0.6c-0.2,0-0.3,0-0.5-0.1v0.8
			C159.5,132.7,159.7,132.8,159.9,132.8"/>
		<path fill="#FFFFFF" d="M97.3,138.3c0.8,0,1.4-0.3,1.8-0.7v-1.9h-0.9v1.5c-0.2,0.2-0.5,0.3-0.9,0.3c-0.8,0-1.4-0.5-1.4-1.4
			c0-0.9,0.6-1.4,1.5-1.4c0.4,0,0.8,0.1,1.2,0.4v-0.9c-0.4-0.2-0.7-0.3-1.3-0.3c-1.3,0-2.3,0.9-2.3,2.2
			C95,137.4,96,138.3,97.3,138.3 M101.4,138.3c0.5,0,0.9-0.1,1.2-0.3v-0.7c-0.3,0.2-0.6,0.3-1,0.3c-0.5,0-0.9-0.2-1-0.6h2.2v-0.2
			c0-0.9-0.5-1.6-1.5-1.6c-1,0-1.6,0.7-1.6,1.6C99.7,137.7,100.5,138.3,101.4,138.3 M100.6,136.4c0-0.4,0.3-0.6,0.7-0.6
			c0.4,0,0.6,0.3,0.6,0.6H100.6z M104.6,138.3c0.8,0,1.4-0.4,1.4-1c0-0.6-0.4-0.8-1-1c-0.4-0.1-0.8-0.1-0.8-0.4
			c0-0.1,0.2-0.2,0.5-0.2c0.4,0,0.8,0.2,1.1,0.3v-0.7c-0.3-0.2-0.7-0.3-1.2-0.3c-0.9,0-1.4,0.4-1.4,0.9c0,0.6,0.3,0.8,1,1
			c0.4,0.1,0.8,0.2,0.8,0.4c0,0.2-0.2,0.3-0.5,0.3c-0.6,0-1-0.2-1.3-0.4v0.8C103.5,138.2,104,138.3,104.6,138.3 M106.9,137.3
			c0,0.6,0.3,1,1,1c0.3,0,0.6-0.1,0.7-0.2v-0.7c-0.1,0.1-0.3,0.1-0.4,0.1c-0.3,0-0.4-0.1-0.4-0.4v-1.2h0.9v-0.7h-0.9v-0.8h-0.9v0.8
			h-0.6v0.7h0.6V137.3z M109.3,138.3h0.9v-3.1h-0.9V138.3z M109.8,134.9c0.3,0,0.5-0.2,0.5-0.5c0-0.3-0.2-0.5-0.5-0.5
			s-0.5,0.2-0.5,0.5C109.3,134.7,109.5,134.9,109.8,134.9 M112.6,137.6c-0.5,0-0.9-0.4-0.9-0.9c0-0.5,0.4-0.9,0.9-0.9
			c0.5,0,0.9,0.4,0.9,0.9C113.5,137.2,113.1,137.6,112.6,137.6 M112.6,138.3c1,0,1.7-0.7,1.7-1.6c0-0.9-0.7-1.6-1.7-1.6
			c-1,0-1.7,0.7-1.7,1.6C110.9,137.6,111.6,138.3,112.6,138.3 M112.2,134.7h0.8l0.9-0.9h-1L112.2,134.7z M115.8,138.3v-2
			c0.1-0.2,0.4-0.4,0.7-0.4c0.3,0,0.6,0.1,0.6,0.7v1.7h0.9v-1.9c0-0.8-0.4-1.3-1.1-1.3c-0.5,0-0.8,0.2-1,0.4v-0.4H115v3.1H115.8z
			 M121.8,138.3c0.5,0,0.9-0.1,1.2-0.3v-0.7c-0.3,0.2-0.6,0.3-1,0.3c-0.5,0-0.9-0.2-1-0.6h2.2v-0.2c0-0.9-0.5-1.6-1.5-1.6
			c-1,0-1.6,0.7-1.6,1.6C120.1,137.7,120.9,138.3,121.8,138.3 M121,136.4c0-0.4,0.3-0.6,0.7-0.6c0.4,0,0.6,0.3,0.6,0.6H121z
			 M125,138.3c0.8,0,1.4-0.4,1.4-1c0-0.6-0.4-0.8-1-1c-0.4-0.1-0.8-0.1-0.8-0.4c0-0.1,0.2-0.2,0.5-0.2c0.4,0,0.8,0.2,1.1,0.3v-0.7
			c-0.3-0.2-0.7-0.3-1.2-0.3c-0.9,0-1.4,0.4-1.4,0.9c0,0.6,0.3,0.8,1,1c0.4,0.1,0.8,0.2,0.8,0.4c0,0.2-0.2,0.3-0.5,0.3
			c-0.6,0-1-0.2-1.3-0.4v0.8C124,138.2,124.5,138.3,125,138.3 M128.5,138.3c0.4,0,0.7-0.1,1-0.2v-0.7c-0.3,0.1-0.5,0.2-0.8,0.2
			c-0.5,0-1-0.3-1-0.9c0-0.5,0.4-0.9,1-0.9c0.3,0,0.5,0.1,0.8,0.2v-0.7c-0.3-0.1-0.5-0.2-0.9-0.2c-0.9,0-1.7,0.6-1.7,1.6
			C126.8,137.7,127.6,138.3,128.5,138.3 M131.7,137.6c-0.5,0-0.9-0.4-0.9-0.9c0-0.5,0.4-0.9,0.9-0.9s0.9,0.4,0.9,0.9
			C132.5,137.2,132.1,137.6,131.7,137.6 M131.7,138.3c1,0,1.7-0.7,1.7-1.6c0-0.9-0.7-1.6-1.7-1.6c-1,0-1.7,0.7-1.7,1.6
			C129.9,137.6,130.6,138.3,131.7,138.3 M134.8,138.3c0.2,0,0.4,0,0.5-0.1v-0.7c-0.1,0-0.1,0.1-0.2,0.1c-0.2,0-0.3-0.1-0.3-0.3v-3.3
			H134v3.5C134,138.2,134.4,138.3,134.8,138.3 M138.9,137.6c-0.1,0-0.2-0.1-0.2-0.2v-1c0-0.8-0.6-1.2-1.5-1.2
			c-0.6,0-0.9,0.1-1.1,0.2v0.7c0.2-0.1,0.6-0.3,0.9-0.3c0.4,0,0.8,0.1,0.8,0.6v0.1c-0.2-0.1-0.5-0.2-0.9-0.2c-0.6,0-1.2,0.3-1.2,1
			c0,0.6,0.5,1,1.1,1c0.5,0,0.9-0.2,1.1-0.4c0.1,0.3,0.4,0.4,0.7,0.4c0.2,0,0.4,0,0.5-0.1v-0.6C139,137.6,138.9,137.6,138.9,137.6
			 M137.8,137.4c-0.1,0.2-0.4,0.3-0.7,0.3c-0.3,0-0.5-0.1-0.5-0.4c0-0.3,0.2-0.4,0.6-0.4c0.2,0,0.5,0.1,0.6,0.2V137.4z M139.7,138.3
			h0.9v-1.8c0.1-0.2,0.4-0.5,0.9-0.5c0.1,0,0.2,0,0.3,0v-0.9c0,0-0.1,0-0.1,0c-0.5,0-0.9,0.3-1.1,0.6v-0.5h-0.9V138.3z"/>
		<line fill="none" stroke="#FFFFFF" x1="90" y1="120" x2="90" y2="138.5"/>
	</g>
</g>
<g id="Capa_2">
	<polygon fill="none" stroke="#FFFFFF" stroke-width="0.5" points="102.9,6.9 39.4,30.4 5.5,89.9 17.3,157.5 69.1,201.7 
		136.7,201.7 188.5,157.5 200.3,89.9 166.4,30.4 	"/>
</g>
</svg>
