<?xml version="1.0" encoding="utf-8"?>
<!-- Generator: Adobe Illustrator 18.0.0, SVG Export Plug-In . SVG Version: 6.00 Build 0)  -->
<!DOCTYPE svg PUBLIC "-//W3C//DTD SVG 1.1//EN" "http://www.w3.org/Graphics/SVG/1.1/DTD/svg11.dtd">
<svg version="1.1" xmlns="http://www.w3.org/2000/svg" xmlns:xlink="http://www.w3.org/1999/xlink" x="0px" y="0px"
	 viewBox="0 0 275.7 15.2" enable-background="new 0 0 275.7 15.2" xml:space="preserve">
<g id="Capa_1">
</g>
<g id="Capa_2">
	<g>
		<path fill="#FFFFFF" d="M1.5,8.3c0-2.5,2-4.5,4.5-4.5c2.4,0,4.5,2,4.5,4.4c0,2.5-2,4.5-4.5,4.5C3.5,12.7,1.5,10.7,1.5,8.3z
			 M8.8,8.2c0-1.5-1.3-2.8-2.8-2.8c-1.6,0-2.8,1.2-2.8,2.8c0,1.6,1.2,2.9,2.8,2.9C7.6,11.1,8.8,9.8,8.8,8.2z"/>
		<path fill="#FFFFFF" d="M13.6,7.2c0.4-0.8,1.1-1.1,1.9-1.2v1.5c-0.5,0-0.9,0.1-1.3,0.5c-0.5,0.4-0.6,0.9-0.6,1.5v1.6h0.8v1.4h-3.1
			v-1.4h0.8V7.5h-0.8V6.1h2.2V7.2z"/>
		<path fill="#FFFFFF" d="M18.7,13.1c0.3,0.5,0.9,0.8,1.4,0.8c0.5,0,1-0.2,1.4-0.6c0.4-0.5,0.4-0.9,0.4-1.5v-0.2
			c-0.5,0.7-1.2,1.1-2.1,1.1c-1.8,0-3.2-1.5-3.2-3.3c0-1.8,1.5-3.3,3.3-3.3c0.9,0,1.7,0.3,2.1,1V6.1h2.2v1.4h-0.8v4.2
			c0,1-0.1,1.8-0.8,2.5c-0.7,0.7-1.6,1-2.5,1c-1.3,0-2.7-0.7-3.1-2.1H18.7z M20.1,11.3c1.1,0,1.9-0.9,1.9-2c0-1.1-0.9-1.9-2-1.9
			s-1.9,0.9-1.9,1.9C18.1,10.4,19,11.3,20.1,11.3z"/>
		<path fill="#FFFFFF" d="M30.5,11.7c-0.5,0.7-1.2,1-2.1,1c-1.8,0-3.3-1.5-3.3-3.3c0-1.9,1.5-3.4,3.4-3.4c0.8,0,1.5,0.4,2,1.1V6.1
			h2.3v1.4H32v3.7h0.8v1.4h-2.3V11.7z M30.5,9.3c0-1.1-0.9-1.9-1.9-1.9c-1.1,0-1.9,0.9-1.9,2c0,1,0.9,1.9,1.9,1.9
			C29.7,11.3,30.5,10.4,30.5,9.3z"/>
		<path fill="#FFFFFF" d="M34.5,7.5h-0.8V6.1H36v0.9C36.4,6.4,37.1,6,37.9,6c0.7,0,1.4,0.3,1.8,0.8c0.5,0.6,0.5,1.2,0.5,1.9v2.5h0.8
			v1.4H38v-1.4h0.8V9.1c0-0.4,0-0.8-0.3-1.2c-0.3-0.3-0.7-0.5-1.1-0.5c-0.4,0-0.9,0.2-1.2,0.5C36,8.3,36,8.9,36,9.3v1.9h0.8v1.4
			h-3.1v-1.4h0.8V7.5z"/>
		<path fill="#FFFFFF" d="M44.3,11.2h0.8v1.4H42v-1.4h0.8V7.5H42V6.1h2.3V11.2z M44.3,5.5h-1.5V4h1.5V5.5z"/>
		<path fill="#FFFFFF" d="M47.8,10.7c0,0.6,0.4,1,1,1c0.4,0,0.9-0.3,0.9-0.8c0-0.6-0.6-0.7-1.1-0.9c-1.1-0.3-2.3-0.6-2.3-2
			c0-1.2,1-1.9,2.2-1.9c0.6,0,1.1,0.1,1.5,0.6V6.1H51v1.7h-1.4c0-0.5-0.4-0.8-0.8-0.8c-0.4,0-0.8,0.2-0.8,0.7c0,0.6,0.6,0.7,1.1,0.8
			c1.2,0.3,2.4,0.6,2.4,2.1c0,1.3-1.1,2-2.3,2c-0.6,0-1.2-0.2-1.7-0.7v0.5h-1.1v-1.9H47.8z"/>
		<path fill="#FFFFFF" d="M53.2,7.5h-0.8V6.1h2.2v1c0.4-0.7,1-1.1,1.8-1.1c0.9,0,1.6,0.5,2,1.3C58.7,6.5,59.6,6,60.4,6
			c0.7,0,1.4,0.3,1.8,0.8c0.5,0.6,0.5,1.2,0.5,2v2.4h0.8v1.4h-3.1v-1.4h0.8V9.1c0-0.4,0-0.8-0.2-1.2c-0.2-0.3-0.6-0.5-1-0.5
			c-0.4,0-0.8,0.2-1.1,0.5c-0.3,0.4-0.3,0.7-0.3,1.2v2.1h0.8v1.4h-3.1v-1.4h0.8v-2c0-0.4,0-0.9-0.2-1.2c-0.2-0.4-0.6-0.6-1.1-0.6
			c-0.4,0-0.8,0.1-1,0.5c-0.3,0.4-0.3,0.8-0.3,1.3v2h0.8v1.4h-3.1v-1.4h0.8V7.5z"/>
		<path fill="#FFFFFF" d="M64.6,9.3C64.6,7.5,66.1,6,68,6c1.8,0,3.3,1.5,3.3,3.4c0,1.9-1.5,3.4-3.4,3.4
			C66.1,12.7,64.6,11.2,64.6,9.3z M69.9,9.3c0-1-0.8-2-1.9-2c-1.1,0-1.9,0.9-1.9,1.9c0,1.1,0.8,2,1.9,2C69,11.3,69.9,10.4,69.9,9.3z
			"/>
		<path fill="#FFFFFF" d="M73.8,10.7c0,0.6,0.4,1,1,1c0.4,0,0.9-0.3,0.9-0.8c0-0.6-0.6-0.7-1.1-0.9c-1.1-0.3-2.3-0.6-2.3-2
			c0-1.2,1-1.9,2.2-1.9c0.6,0,1.1,0.1,1.5,0.6V6.1H77v1.7h-1.4c0-0.5-0.4-0.8-0.8-0.8c-0.4,0-0.8,0.2-0.8,0.7c0,0.6,0.6,0.7,1.1,0.8
			c1.2,0.3,2.4,0.6,2.4,2.1c0,1.3-1.1,2-2.3,2c-0.6,0-1.2-0.2-1.7-0.7v0.5h-1.1v-1.9H73.8z"/>
		<path fill="#FFFFFF" d="M84.9,11.2h0.8v1.4h-3.1v-1.4h0.8V7.5h-0.8V6.1h2.3V11.2z M84.9,5.5h-1.5V4h1.5V5.5z"/>
		<path fill="#FFFFFF" d="M87.6,7.5h-0.8V6.1H89v0.9C89.4,6.4,90.1,6,90.9,6c0.7,0,1.4,0.3,1.8,0.8c0.5,0.6,0.5,1.2,0.5,1.9v2.5h0.8
			v1.4H91v-1.4h0.8V9.1c0-0.4,0-0.8-0.3-1.2c-0.3-0.3-0.7-0.5-1.1-0.5c-0.4,0-0.9,0.2-1.2,0.5C89,8.3,89,8.9,89,9.3v1.9h0.8v1.4
			h-3.1v-1.4h0.8V7.5z"/>
		<path fill="#FFFFFF" d="M97.4,11.2h1.2v1.4H96v-5h-1V6.1h1V4h1.5v2.2h1.1v1.4h-1.1V11.2z"/>
		<path fill="#FFFFFF" d="M106,10.7c-0.5,1.2-1.7,2.1-3,2.1c-1.9,0-3.4-1.5-3.4-3.3c0-1.9,1.4-3.4,3.3-3.4c0.9,0,1.8,0.4,2.4,1
			c0.6,0.7,0.9,1.5,0.9,2.4l0,0.5H101c0.2,0.9,1,1.5,1.9,1.5c0.6,0,1.2-0.2,1.5-0.8H106z M104.9,8.8c-0.3-0.9-1.1-1.5-2-1.5
			c-0.9,0-1.7,0.7-1.9,1.5H104.9z"/>
		<path fill="#FFFFFF" d="M109.4,7.2c0.4-0.8,1.1-1.1,1.9-1.2v1.5c-0.5,0-0.9,0.1-1.3,0.5c-0.5,0.4-0.6,0.9-0.6,1.5v1.6h0.8v1.4
			h-3.1v-1.4h0.8V7.5h-0.8V6.1h2.2V7.2z"/>
		<path fill="#FFFFFF" d="M113.7,7.5h-0.8V6.1h2.3v0.9c0.4-0.7,1.1-1.1,1.9-1.1c0.7,0,1.4,0.3,1.8,0.8c0.5,0.6,0.5,1.2,0.5,1.9v2.5
			h0.8v1.4h-3.1v-1.4h0.8V9.1c0-0.4,0-0.8-0.3-1.2c-0.3-0.3-0.7-0.5-1.1-0.5c-0.4,0-0.9,0.2-1.2,0.5c-0.3,0.4-0.3,0.9-0.3,1.3v1.9
			h0.8v1.4h-3.1v-1.4h0.8V7.5z"/>
		<path fill="#FFFFFF" d="M126.4,11.7c-0.5,0.7-1.2,1-2.1,1c-1.8,0-3.3-1.5-3.3-3.3c0-1.9,1.5-3.4,3.4-3.4c0.8,0,1.5,0.4,2,1.1V6.1
			h2.3v1.4h-0.8v3.7h0.8v1.4h-2.3V11.7z M126.5,9.3c0-1.1-0.9-1.9-1.9-1.9c-1.1,0-1.9,0.9-1.9,2c0,1,0.9,1.9,1.9,1.9
			C125.6,11.3,126.5,10.4,126.5,9.3z"/>
		<path fill="#FFFFFF" d="M136.2,10.4c-0.4,1.4-1.8,2.3-3.2,2.3c-1.9,0-3.4-1.5-3.4-3.4c0-1.8,1.4-3.4,3.2-3.4
			c0.7,0,1.4,0.3,1.8,0.8V6.1h1.3v2.1h-1.4c-0.2-0.3-0.4-0.5-0.7-0.6c-0.3-0.2-0.6-0.2-0.9-0.2c-1.1,0-1.9,0.9-1.9,1.9
			c0,1.1,0.9,1.9,1.9,1.9c0.6,0,1.3-0.3,1.5-0.9H136.2z"/>
		<path fill="#FFFFFF" d="M139.5,11.2h0.8v1.4h-3.1v-1.4h0.8V7.5h-0.8V6.1h2.3V11.2z M139.5,5.5h-1.5V4h1.5V5.5z"/>
		<path fill="#FFFFFF" d="M141.4,9.3c0-1.9,1.5-3.4,3.4-3.4c1.8,0,3.3,1.5,3.3,3.4c0,1.9-1.5,3.4-3.4,3.4
			C142.8,12.7,141.4,11.2,141.4,9.3z M146.6,9.3c0-1-0.8-2-1.9-2c-1.1,0-1.9,0.9-1.9,1.9c0,1.1,0.8,2,1.9,2
			C145.8,11.3,146.6,10.4,146.6,9.3z"/>
		<path fill="#FFFFFF" d="M149.8,7.5H149V6.1h2.3v0.9c0.4-0.7,1.1-1.1,1.9-1.1c0.7,0,1.4,0.3,1.8,0.8c0.5,0.6,0.5,1.2,0.5,1.9v2.5
			h0.8v1.4h-3.1v-1.4h0.8V9.1c0-0.4,0-0.8-0.3-1.2c-0.3-0.3-0.7-0.5-1.1-0.5c-0.4,0-0.9,0.2-1.2,0.5c-0.3,0.4-0.3,0.9-0.3,1.3v1.9
			h0.8v1.4H149v-1.4h0.8V7.5z"/>
		<path fill="#FFFFFF" d="M162.5,11.7c-0.5,0.7-1.2,1-2.1,1c-1.8,0-3.3-1.5-3.3-3.3c0-1.9,1.5-3.4,3.4-3.4c0.8,0,1.5,0.4,2,1.1V6.1
			h2.3v1.4H164v3.7h0.8v1.4h-2.3V11.7z M162.6,9.3c0-1.1-0.9-1.9-1.9-1.9c-1.1,0-1.9,0.9-1.9,2c0,1,0.9,1.9,1.9,1.9
			C161.7,11.3,162.6,10.4,162.6,9.3z"/>
		<path fill="#FFFFFF" d="M168.1,11.2h0.8v1.4h-3.2v-1.4h0.9V5.4h-0.8V4h2.3V11.2z"/>
		<path fill="#FFFFFF" d="M176.3,10.7c-0.5,1.2-1.7,2.1-3,2.1c-1.9,0-3.4-1.5-3.4-3.3c0-1.9,1.4-3.4,3.3-3.4c0.9,0,1.8,0.4,2.4,1
			c0.6,0.7,0.9,1.5,0.9,2.4l0,0.5h-5.2c0.2,0.9,1,1.5,1.9,1.5c0.6,0,1.2-0.2,1.5-0.8H176.3z M175.2,8.8c-0.3-0.9-1.1-1.5-2-1.5
			c-0.9,0-1.7,0.7-1.9,1.5H175.2z"/>
		<path fill="#FFFFFF" d="M179.1,10.7c0,0.6,0.4,1,1,1c0.4,0,0.9-0.3,0.9-0.8c0-0.6-0.6-0.7-1.1-0.9c-1.1-0.3-2.3-0.6-2.3-2
			c0-1.2,1-1.9,2.2-1.9c0.6,0,1.1,0.1,1.5,0.6V6.1h1.1v1.7h-1.4c0-0.5-0.4-0.8-0.8-0.8c-0.4,0-0.8,0.2-0.8,0.7
			c0,0.6,0.6,0.7,1.1,0.8c1.2,0.3,2.4,0.6,2.4,2.1c0,1.3-1.1,2-2.3,2c-0.6,0-1.2-0.2-1.7-0.7v0.5h-1.1v-1.9H179.1z"/>
		<path fill="#FFFFFF" d="M188.7,7.5h-0.8V6.1h2.3v1c0.5-0.7,1.2-1.1,2.1-1.1c1.8,0,3.3,1.5,3.3,3.3c0,1.8-1.4,3.3-3.2,3.3
			c-0.8,0-1.7-0.3-2.2-1v1.9h0.8v1.4h-3.1v-1.4h0.8V7.5z M194,9.4c0-1-0.8-2-1.9-2c-1.1,0-2,0.8-2,1.9c0,1.1,0.9,1.9,1.9,1.9
			C193.1,11.3,194,10.4,194,9.4z"/>
		<path fill="#FFFFFF" d="M201.7,11.7c-0.5,0.7-1.2,1-2.1,1c-1.8,0-3.3-1.5-3.3-3.3c0-1.9,1.5-3.4,3.4-3.4c0.8,0,1.5,0.4,2,1.1V6.1
			h2.3v1.4h-0.8v3.7h0.8v1.4h-2.3V11.7z M201.7,9.3c0-1.1-0.9-1.9-1.9-1.9c-1.1,0-1.9,0.9-1.9,2c0,1,0.9,1.9,1.9,1.9
			C200.8,11.3,201.7,10.4,201.7,9.3z"/>
		<path fill="#FFFFFF" d="M207.1,7.2c0.4-0.8,1.1-1.1,1.9-1.2v1.5c-0.5,0-0.9,0.1-1.3,0.5c-0.5,0.4-0.6,0.9-0.6,1.5v1.6h0.8v1.4
			h-3.1v-1.4h0.8V7.5h-0.8V6.1h2.2V7.2z"/>
		<path fill="#FFFFFF" d="M212.5,11.2h1.2v1.4H211v-5h-1V6.1h1V4h1.5v2.2h1.1v1.4h-1.1V11.2z"/>
		<path fill="#FFFFFF" d="M217.1,11.2h0.8v1.4h-3.1v-1.4h0.8V7.5h-0.8V6.1h2.3V11.2z M217.1,5.5h-1.5V4h1.5V5.5z"/>
		<path fill="#FFFFFF" d="M225.4,10.4c-0.4,1.4-1.8,2.3-3.2,2.3c-1.9,0-3.4-1.5-3.4-3.4c0-1.8,1.4-3.4,3.2-3.4
			c0.7,0,1.4,0.3,1.8,0.8V6.1h1.3v2.1h-1.4c-0.2-0.3-0.4-0.5-0.7-0.6c-0.3-0.2-0.6-0.2-0.9-0.2c-1.1,0-1.9,0.9-1.9,1.9
			c0,1.1,0.9,1.9,1.9,1.9c0.6,0,1.3-0.3,1.5-0.9H225.4z"/>
		<path fill="#FFFFFF" d="M228.8,11.2h0.8v1.4h-3.1v-1.4h0.8V7.5h-0.8V6.1h2.3V11.2z M228.8,5.5h-1.5V4h1.5V5.5z"/>
		<path fill="#FFFFFF" d="M231.5,7.5h-0.8V6.1h2.3v1c0.5-0.7,1.2-1.1,2.1-1.1c1.8,0,3.3,1.5,3.3,3.3c0,1.8-1.4,3.3-3.2,3.3
			c-0.8,0-1.7-0.3-2.2-1v1.9h0.8v1.4h-3.1v-1.4h0.8V7.5z M236.8,9.4c0-1-0.8-2-1.9-2c-1.1,0-2,0.8-2,1.9c0,1.1,0.9,1.9,1.9,1.9
			C236,11.3,236.8,10.4,236.8,9.4z"/>
		<path fill="#FFFFFF" d="M244.5,11.7c-0.5,0.7-1.2,1-2.1,1c-1.8,0-3.3-1.5-3.3-3.3c0-1.9,1.5-3.4,3.4-3.4c0.8,0,1.5,0.4,2,1.1V6.1
			h2.3v1.4H246v3.7h0.8v1.4h-2.3V11.7z M244.5,9.3c0-1.1-0.9-1.9-1.9-1.9c-1.1,0-1.9,0.9-1.9,2c0,1,0.9,1.9,1.9,1.9
			C243.7,11.3,244.5,10.4,244.5,9.3z"/>
		<path fill="#FFFFFF" d="M248.6,7.5h-0.8V6.1h2.3v0.9c0.4-0.7,1.1-1.1,1.9-1.1c0.7,0,1.4,0.3,1.8,0.8c0.5,0.6,0.5,1.2,0.5,1.9v2.5
			h0.8v1.4H252v-1.4h0.8V9.1c0-0.4,0-0.8-0.3-1.2c-0.3-0.3-0.7-0.5-1.1-0.5c-0.4,0-0.9,0.2-1.2,0.5C250,8.3,250,8.9,250,9.3v1.9h0.8
			v1.4h-3.1v-1.4h0.8V7.5z"/>
		<path fill="#FFFFFF" d="M258.4,11.2h1.2v1.4H257v-5h-1V6.1h1V4h1.5v2.2h1.1v1.4h-1.1V11.2z"/>
		<path fill="#FFFFFF" d="M267,10.7c-0.5,1.2-1.7,2.1-3,2.1c-1.9,0-3.4-1.5-3.4-3.3c0-1.9,1.4-3.4,3.3-3.4c0.9,0,1.8,0.4,2.4,1
			c0.6,0.7,0.9,1.5,0.9,2.4l0,0.5H262c0.2,0.9,1,1.5,1.9,1.5c0.6,0,1.2-0.2,1.5-0.8H267z M265.9,8.8c-0.3-0.9-1.1-1.5-2-1.5
			c-0.9,0-1.7,0.7-1.9,1.5H265.9z"/>
		<path fill="#FFFFFF" d="M269.8,10.7c0,0.6,0.4,1,1,1c0.4,0,0.9-0.3,0.9-0.8c0-0.6-0.6-0.7-1.1-0.9c-1.1-0.3-2.3-0.6-2.3-2
			c0-1.2,1-1.9,2.2-1.9c0.6,0,1.1,0.1,1.5,0.6V6.1h1.1v1.7h-1.4c0-0.5-0.4-0.8-0.8-0.8c-0.4,0-0.8,0.2-0.8,0.7
			c0,0.6,0.6,0.7,1.1,0.8c1.2,0.3,2.4,0.6,2.4,2.1c0,1.3-1.1,2-2.3,2c-0.6,0-1.2-0.2-1.7-0.7v0.5h-1.1v-1.9H269.8z"/>
	</g>
</g>
</svg>
