<?xml version="1.0" encoding="utf-8"?>
<!-- Generator: Adobe Illustrator 18.0.0, SVG Export Plug-In . SVG Version: 6.00 Build 0)  -->
<!DOCTYPE svg PUBLIC "-//W3C//DTD SVG 1.1//EN" "http://www.w3.org/Graphics/SVG/1.1/DTD/svg11.dtd">
<svg version="1.1" xmlns="http://www.w3.org/2000/svg" xmlns:xlink="http://www.w3.org/1999/xlink" x="0px" y="0px"
	 viewBox="0 0 95.3 15.2" enable-background="new 0 0 95.3 15.2" xml:space="preserve">
<g id="Capa_1">
</g>
<g id="Capa_2">
	<g>
		<path fill="#FFFFFF" d="M1,8.3c0-2.5,2-4.5,4.5-4.5c2.4,0,4.5,2,4.5,4.4c0,2.5-2,4.5-4.5,4.5C3,12.7,1,10.7,1,8.3z M8.3,8.2
			c0-1.5-1.3-2.8-2.8-2.8C4,5.4,2.7,6.7,2.7,8.2c0,1.6,1.2,2.9,2.8,2.9C7.1,11.1,8.3,9.8,8.3,8.2z"/>
		<path fill="#FFFFFF" d="M13.1,7.2c0.4-0.8,1.1-1.1,1.9-1.2v1.5c-0.5,0-0.9,0.1-1.3,0.5c-0.5,0.4-0.6,0.9-0.6,1.5v1.6h0.8v1.4H11
			v-1.4h0.8V7.5H11V6.1h2.2V7.2z"/>
		<path fill="#FFFFFF" d="M18.2,13.1c0.3,0.5,0.9,0.8,1.4,0.8c0.5,0,1-0.2,1.4-0.6c0.4-0.5,0.4-0.9,0.4-1.5v-0.2
			c-0.5,0.7-1.2,1.1-2.1,1.1c-1.8,0-3.2-1.5-3.2-3.3c0-1.8,1.5-3.3,3.3-3.3c0.9,0,1.7,0.3,2.1,1V6.1h2.2v1.4h-0.8v4.2
			c0,1-0.1,1.8-0.8,2.5c-0.7,0.7-1.6,1-2.5,1c-1.3,0-2.7-0.7-3.1-2.1H18.2z M19.6,11.3c1.1,0,1.9-0.9,1.9-2c0-1.1-0.9-1.9-2-1.9
			s-1.9,0.9-1.9,1.9C17.6,10.4,18.5,11.3,19.6,11.3z"/>
		<path fill="#FFFFFF" d="M30,11.7c-0.5,0.7-1.2,1-2.1,1c-1.8,0-3.3-1.5-3.3-3.3C24.7,7.5,26.1,6,28,6c0.8,0,1.5,0.4,2,1.1V6.1h2.3
			v1.4h-0.8v3.7h0.8v1.4H30V11.7z M30,9.3c0-1.1-0.9-1.9-1.9-1.9c-1.1,0-1.9,0.9-1.9,2c0,1,0.9,1.9,1.9,1.9
			C29.2,11.3,30,10.4,30,9.3z"/>
		<path fill="#FFFFFF" d="M34.1,7.5h-0.8V6.1h2.3v0.9C35.9,6.4,36.6,6,37.4,6c0.7,0,1.4,0.3,1.8,0.8c0.5,0.6,0.5,1.2,0.5,1.9v2.5
			h0.8v1.4h-3.1v-1.4h0.8V9.1c0-0.4,0-0.8-0.3-1.2c-0.3-0.3-0.7-0.5-1.1-0.5c-0.4,0-0.9,0.2-1.2,0.5c-0.3,0.4-0.3,0.9-0.3,1.3v1.9
			h0.8v1.4h-3.1v-1.4h0.8V7.5z"/>
		<path fill="#FFFFFF" d="M43.8,11.2h0.8v1.4h-3.1v-1.4h0.8V7.5h-0.8V6.1h2.3V11.2z M43.8,5.5h-1.5V4h1.5V5.5z"/>
		<path fill="#FFFFFF" d="M50.7,6.1v1.3l-3.1,3.7h2v-0.7h1.3v2.1h-5.2v-1.2l3.3-3.9h-1.8v0.8h-1.3V6.1H50.7z"/>
		<path fill="#FFFFFF" d="M57.1,11.7c-0.5,0.7-1.2,1-2.1,1c-1.8,0-3.3-1.5-3.3-3.3c0-1.9,1.5-3.4,3.4-3.4c0.8,0,1.5,0.4,2,1.1V6.1
			h2.3v1.4h-0.8v3.7h0.8v1.4h-2.3V11.7z M57.2,9.3c0-1.1-0.9-1.9-1.9-1.9c-1.1,0-1.9,0.9-1.9,2c0,1,0.9,1.9,1.9,1.9
			C56.3,11.3,57.2,10.4,57.2,9.3z"/>
		<path fill="#FFFFFF" d="M65.7,11.6c-0.5,0.7-1.2,1.1-2.1,1.1c-1.8,0-3.3-1.5-3.3-3.3c0-1.8,1.4-3.3,3.3-3.3c0.8,0,1.6,0.4,2.1,1
			V5.4h-0.8V4h2.3v7.2h0.8v1.4h-2.3V11.6z M65.7,9.3c0-1.1-0.9-1.9-1.9-1.9c-1.1,0-2,0.9-2,2c0,1.1,0.9,1.9,1.9,1.9
			C64.8,11.3,65.7,10.4,65.7,9.3z"/>
		<path fill="#FFFFFF" d="M68.8,9.3c0-1.9,1.5-3.4,3.4-3.4c1.8,0,3.3,1.5,3.3,3.4c0,1.9-1.5,3.4-3.4,3.4
			C70.3,12.7,68.8,11.2,68.8,9.3z M74.1,9.3c0-1-0.8-2-1.9-2c-1.1,0-1.9,0.9-1.9,1.9c0,1.1,0.8,2,1.9,2
			C73.2,11.3,74.1,10.4,74.1,9.3z"/>
		<path fill="#FFFFFF" d="M78.6,7.2c0.4-0.8,1.1-1.1,1.9-1.2v1.5c-0.5,0-0.9,0.1-1.3,0.5c-0.5,0.4-0.6,0.9-0.6,1.5v1.6h0.8v1.4h-3.1
			v-1.4h0.8V7.5h-0.8V6.1h2.2V7.2z"/>
		<path fill="#FFFFFF" d="M88,10.7c-0.5,1.2-1.7,2.1-3,2.1c-1.9,0-3.4-1.5-3.4-3.3C81.6,7.5,83,6,85,6c0.9,0,1.8,0.4,2.4,1
			c0.6,0.7,0.9,1.5,0.9,2.4l0,0.5H83c0.2,0.9,1,1.5,1.9,1.5c0.6,0,1.2-0.2,1.5-0.8H88z M86.9,8.8c-0.3-0.9-1.1-1.5-2-1.5
			c-0.9,0-1.7,0.7-1.9,1.5H86.9z"/>
		<path fill="#FFFFFF" d="M90.8,10.7c0,0.6,0.4,1,1,1c0.4,0,0.9-0.3,0.9-0.8c0-0.6-0.6-0.7-1.1-0.9c-1.1-0.3-2.3-0.6-2.3-2
			c0-1.2,1-1.9,2.2-1.9c0.6,0,1.1,0.1,1.5,0.6V6.1H94v1.7h-1.4c0-0.5-0.4-0.8-0.8-0.8c-0.4,0-0.8,0.2-0.8,0.7c0,0.6,0.6,0.7,1.1,0.8
			c1.2,0.3,2.4,0.6,2.4,2.1c0,1.3-1.1,2-2.3,2c-0.6,0-1.2-0.2-1.7-0.7v0.5h-1.1v-1.9H90.8z"/>
	</g>
</g>
</svg>
